<?xml version="1.0" encoding="utf-8"?>
<!-- Generator: Adobe Illustrator 25.4.1, SVG Export Plug-In . SVG Version: 6.00 Build 0)  -->
<svg version="1.1" id="Capa_1" xmlns="http://www.w3.org/2000/svg" xmlns:xlink="http://www.w3.org/1999/xlink" x="0px" y="0px"
	 viewBox="0 0 67.72 60" enable-background="new 0 0 67.72 60" xml:space="preserve">
<g>
	<path fill="#53BAAA" d="M4.04,45.64V41.2h1.63c0.44,0,0.8,0.1,1.07,0.3c0.27,0.19,0.41,0.47,0.41,0.81c0,0.46-0.25,0.82-0.71,1.02
		c0.6,0.15,0.95,0.56,0.95,1.09c0,0.37-0.14,0.66-0.42,0.88c-0.27,0.22-0.63,0.33-1.07,0.33H4.04z M5.61,41.7H4.65v1.45h0.99
		c0.54,0,0.9-0.29,0.9-0.74C6.53,41.97,6.17,41.7,5.61,41.7 M5.82,43.63H4.65v1.51h1.17c0.56,0,0.94-0.3,0.94-0.78
		C6.76,43.92,6.38,43.63,5.82,43.63"/>
	<path fill="#53BAAA" d="M10.03,45.64v-0.45c-0.23,0.33-0.63,0.53-1.07,0.53c-0.31,0-0.57-0.08-0.77-0.25
		c-0.19-0.17-0.3-0.38-0.3-0.65c0-0.52,0.33-0.86,1.03-1.02l1.09-0.25V43.5c0-0.38-0.29-0.63-0.73-0.63c-0.4,0-0.71,0.23-0.76,0.59
		H7.97c0.03-0.31,0.17-0.57,0.42-0.77c0.24-0.21,0.55-0.31,0.9-0.31c0.81,0,1.29,0.46,1.29,1.19v2.07H10.03z M9.74,44.95
		c0.18-0.19,0.27-0.42,0.27-0.69v-0.23l-0.94,0.22c-0.4,0.1-0.6,0.27-0.6,0.53c0,0.3,0.22,0.47,0.6,0.47
		C9.33,45.24,9.55,45.14,9.74,44.95"/>
	<path fill="#53BAAA" d="M12.05,43.97v1.67h-0.58v-3.19h0.56v0.59c0.21-0.41,0.58-0.64,1.02-0.64l0.16,0.01v0.55l-0.17-0.01
		C12.43,42.96,12.05,43.38,12.05,43.97"/>
	<path fill="#53BAAA" d="M16.2,42.74c0.3,0.25,0.49,0.56,0.57,0.94h-0.58c-0.15-0.46-0.56-0.77-1.04-0.77
		c-0.32,0-0.58,0.11-0.8,0.33c-0.21,0.22-0.32,0.48-0.32,0.8c0,0.32,0.11,0.59,0.32,0.81c0.22,0.22,0.48,0.33,0.8,0.33
		c0.5,0,0.92-0.32,1.05-0.79h0.57c-0.08,0.4-0.27,0.72-0.57,0.97c-0.3,0.25-0.65,0.37-1.05,0.37c-0.49,0-0.89-0.16-1.21-0.48
		c-0.32-0.32-0.49-0.72-0.49-1.19c0-0.47,0.16-0.86,0.49-1.19s0.73-0.48,1.21-0.48C15.55,42.38,15.91,42.5,16.2,42.74"/>
	<path fill="#53BAAA" d="M19.83,44.64h0.57c-0.22,0.66-0.81,1.08-1.56,1.08c-0.47,0-0.87-0.16-1.19-0.48
		c-0.32-0.32-0.47-0.72-0.47-1.19c0-0.46,0.16-0.86,0.49-1.18c0.32-0.32,0.72-0.49,1.19-0.49c0.47,0,0.86,0.16,1.17,0.47
		c0.31,0.31,0.47,0.7,0.47,1.16v0.2h-2.74c0.03,0.3,0.15,0.54,0.35,0.73c0.21,0.18,0.45,0.28,0.74,0.28
		C19.28,45.22,19.66,45,19.83,44.64 M17.78,43.73h2.12c-0.13-0.53-0.53-0.85-1.05-0.85S17.91,43.22,17.78,43.73"/>
	<rect x="21.18" y="40.96" fill="#53BAAA" width="0.58" height="4.68"/>
	<path fill="#53BAAA" d="M22.93,42.86c0.32-0.32,0.73-0.48,1.21-0.48c0.49,0,0.89,0.16,1.21,0.49c0.32,0.32,0.49,0.71,0.49,1.18
		c0,0.47-0.17,0.87-0.49,1.19c-0.32,0.32-0.72,0.48-1.21,0.48c-0.49,0-0.89-0.16-1.21-0.48c-0.32-0.32-0.49-0.72-0.49-1.19
		C22.45,43.57,22.61,43.18,22.93,42.86 M24.94,43.24c-0.22-0.22-0.48-0.33-0.8-0.33c-0.31,0-0.58,0.11-0.8,0.33
		c-0.21,0.22-0.32,0.49-0.32,0.8c0,0.32,0.11,0.59,0.32,0.81c0.22,0.22,0.48,0.33,0.8,0.33c0.32,0,0.59-0.11,0.8-0.33
		c0.21-0.22,0.32-0.49,0.32-0.81C25.27,43.73,25.16,43.46,24.94,43.24"/>
	<path fill="#53BAAA" d="M27.1,45.64h-0.58v-3.19h0.56v0.45c0.23-0.33,0.59-0.52,1.02-0.52c0.37,0,0.67,0.11,0.89,0.35
		c0.22,0.23,0.33,0.53,0.33,0.9v2.01h-0.58v-1.88c0-0.54-0.29-0.85-0.79-0.85c-0.51,0-0.85,0.38-0.85,0.91V45.64z"/>
	<path fill="#53BAAA" d="M32.15,45.64v-0.45c-0.23,0.33-0.63,0.53-1.07,0.53c-0.31,0-0.57-0.08-0.77-0.25
		c-0.19-0.17-0.3-0.38-0.3-0.65c0-0.52,0.33-0.86,1.03-1.02l1.09-0.25V43.5c0-0.38-0.29-0.63-0.73-0.63c-0.4,0-0.71,0.23-0.76,0.59
		h-0.56c0.03-0.31,0.17-0.57,0.42-0.77c0.24-0.21,0.55-0.31,0.9-0.31c0.81,0,1.29,0.46,1.29,1.19v2.07H32.15z M31.86,44.95
		c0.18-0.19,0.27-0.42,0.27-0.69v-0.23l-0.94,0.22c-0.4,0.1-0.6,0.27-0.6,0.53c0,0.3,0.22,0.47,0.6,0.47
		C31.45,45.24,31.67,45.14,31.86,44.95"/>
	<path fill="#53BAAA" d="M38.01,42.52h-0.62c-0.04-0.56-0.38-0.86-0.95-0.86c-0.51,0-0.87,0.25-0.87,0.65c0,0.35,0.15,0.52,0.7,0.68
		l0.64,0.18c0.88,0.25,1.19,0.61,1.19,1.21c0,0.83-0.6,1.34-1.55,1.34c-1.04,0-1.66-0.54-1.7-1.52h0.61
		c0.03,0.63,0.42,0.98,1.07,0.98c0.6,0,0.95-0.28,0.95-0.76c0-0.17-0.06-0.3-0.17-0.41c-0.11-0.11-0.33-0.22-0.66-0.31l-0.52-0.15
		c-0.44-0.13-0.73-0.28-0.9-0.47c-0.17-0.19-0.25-0.44-0.25-0.74c0-0.36,0.14-0.65,0.42-0.87c0.28-0.23,0.63-0.34,1.06-0.34
		C37.38,41.13,37.96,41.63,38.01,42.52"/>
	<path fill="#53BAAA" d="M41.32,42.74c0.3,0.25,0.49,0.56,0.57,0.94h-0.58c-0.15-0.46-0.56-0.77-1.04-0.77
		c-0.32,0-0.58,0.11-0.8,0.33c-0.21,0.22-0.32,0.48-0.32,0.8c0,0.32,0.11,0.59,0.32,0.81c0.22,0.22,0.48,0.33,0.8,0.33
		c0.5,0,0.92-0.32,1.05-0.79h0.57c-0.08,0.4-0.27,0.72-0.57,0.97c-0.3,0.25-0.65,0.37-1.05,0.37c-0.49,0-0.89-0.16-1.21-0.48
		c-0.32-0.32-0.49-0.72-0.49-1.19c0-0.47,0.16-0.86,0.49-1.19c0.32-0.32,0.73-0.48,1.21-0.48C40.67,42.38,41.03,42.5,41.32,42.74"/>
	<path fill="#53BAAA" d="M43.13,45.64h-0.58v-4.68h0.58v1.91c0.23-0.32,0.59-0.49,0.99-0.49c0.37,0,0.67,0.11,0.89,0.35
		c0.22,0.23,0.33,0.53,0.33,0.9v2.01h-0.58v-1.93c0-0.5-0.29-0.81-0.79-0.81c-0.51,0-0.85,0.38-0.85,0.91V45.64z"/>
	<path fill="#53BAAA" d="M46.47,42.86c0.32-0.32,0.73-0.48,1.21-0.48c0.49,0,0.89,0.16,1.21,0.49c0.32,0.32,0.49,0.71,0.49,1.18
		c0,0.47-0.17,0.87-0.49,1.19c-0.32,0.32-0.72,0.48-1.21,0.48c-0.49,0-0.89-0.16-1.21-0.48c-0.32-0.32-0.49-0.72-0.49-1.19
		C45.98,43.57,46.15,43.18,46.47,42.86 M48.48,43.24c-0.22-0.22-0.48-0.33-0.8-0.33c-0.31,0-0.58,0.11-0.8,0.33
		c-0.21,0.22-0.32,0.49-0.32,0.8c0,0.32,0.11,0.59,0.32,0.81c0.22,0.22,0.48,0.33,0.8,0.33c0.32,0,0.59-0.11,0.8-0.33
		c0.21-0.22,0.32-0.49,0.32-0.81C48.8,43.73,48.7,43.46,48.48,43.24"/>
	<path fill="#53BAAA" d="M50.29,42.86c0.32-0.32,0.73-0.48,1.21-0.48c0.49,0,0.89,0.16,1.21,0.49c0.32,0.32,0.49,0.71,0.49,1.18
		c0,0.47-0.17,0.87-0.49,1.19c-0.32,0.32-0.72,0.48-1.21,0.48c-0.49,0-0.89-0.16-1.21-0.48c-0.32-0.32-0.49-0.72-0.49-1.19
		C49.8,43.57,49.97,43.18,50.29,42.86 M52.3,43.24c-0.22-0.22-0.48-0.33-0.8-0.33c-0.31,0-0.58,0.11-0.8,0.33
		c-0.21,0.22-0.32,0.49-0.32,0.8c0,0.32,0.11,0.59,0.32,0.81c0.22,0.22,0.48,0.33,0.8,0.33c0.32,0,0.59-0.11,0.8-0.33
		c0.22-0.22,0.32-0.49,0.32-0.81C52.62,43.73,52.52,43.46,52.3,43.24"/>
	<rect x="53.89" y="40.96" fill="#53BAAA" width="0.58" height="4.68"/>
	<path fill="#53BAAA" d="M4.2,49.37c0.32-0.32,0.73-0.48,1.21-0.48c0.49,0,0.89,0.16,1.21,0.49c0.32,0.32,0.49,0.71,0.49,1.18
		c0,0.47-0.17,0.87-0.49,1.19c-0.32,0.32-0.72,0.48-1.21,0.48c-0.49,0-0.89-0.16-1.21-0.48c-0.32-0.32-0.49-0.72-0.49-1.19
		C3.71,50.08,3.88,49.69,4.2,49.37 M6.21,49.75c-0.22-0.22-0.48-0.33-0.8-0.33c-0.31,0-0.58,0.11-0.8,0.33
		c-0.21,0.22-0.32,0.49-0.32,0.8c0,0.32,0.11,0.59,0.32,0.81c0.22,0.22,0.48,0.33,0.8,0.33c0.32,0,0.59-0.11,0.8-0.33
		c0.21-0.22,0.32-0.49,0.32-0.81C6.53,50.24,6.43,49.97,6.21,49.75"/>
	<path fill="#53BAAA" d="M8.52,52.15H7.94v-2.67H7.39v-0.52h0.55V48.6c0-0.78,0.4-1.2,1.15-1.2l0.41,0.04v0.51l-0.32-0.04
		c-0.46,0-0.67,0.21-0.67,0.69v0.36h0.83v0.52H8.52V52.15z"/>
	<polygon fill="#53BAAA" points="12.74,52.15 12.14,52.15 12.14,48.27 10.84,48.27 10.84,47.72 14.05,47.72 14.05,48.27 
		12.74,48.27 	"/>
	<path fill="#53BAAA" d="M14.31,49.37c0.32-0.32,0.73-0.48,1.21-0.48c0.49,0,0.89,0.16,1.21,0.49c0.32,0.32,0.49,0.71,0.49,1.18
		c0,0.47-0.17,0.87-0.49,1.19c-0.32,0.32-0.72,0.48-1.21,0.48c-0.49,0-0.89-0.16-1.21-0.48c-0.32-0.32-0.49-0.72-0.49-1.19
		C13.82,50.08,13.99,49.69,14.31,49.37 M16.32,49.75c-0.22-0.22-0.48-0.33-0.8-0.33c-0.31,0-0.58,0.11-0.8,0.33
		c-0.21,0.22-0.32,0.49-0.32,0.8c0,0.32,0.11,0.59,0.32,0.81c0.22,0.22,0.48,0.33,0.8,0.33c0.32,0,0.59-0.11,0.8-0.33
		c0.21-0.22,0.32-0.49,0.32-0.81C16.64,50.24,16.54,49.97,16.32,49.75"/>
	<path fill="#53BAAA" d="M20.02,50.79v-1.82h0.58v3.19h-0.56V51.7c-0.22,0.33-0.58,0.53-0.98,0.53c-0.36,0-0.65-0.11-0.87-0.34
		c-0.22-0.23-0.33-0.54-0.33-0.91v-2.01h0.58v1.88c0,0.52,0.29,0.85,0.76,0.85C19.68,51.7,20.02,51.31,20.02,50.79"/>
	<path fill="#53BAAA" d="M22.11,50.48v1.67h-0.58v-3.18h0.56v0.59c0.21-0.41,0.57-0.64,1.02-0.64l0.16,0.01v0.55l-0.17-0.01
		C22.49,49.47,22.11,49.89,22.11,50.48"/>
	<path fill="#53BAAA" d="M24.13,47.55c0.25,0,0.41,0.17,0.41,0.4c0,0.23-0.18,0.4-0.41,0.4c-0.23,0-0.41-0.17-0.41-0.4
		C23.72,47.72,23.89,47.55,24.13,47.55 M24.42,52.15h-0.58v-3.19h0.58V52.15z"/>
	<path fill="#53BAAA" d="M27.66,49.89h-0.59c-0.01-0.35-0.23-0.53-0.65-0.53c-0.37,0-0.63,0.16-0.63,0.41
		c0,0.23,0.11,0.34,0.59,0.45l0.38,0.09c0.69,0.16,0.95,0.43,0.95,0.91c0,0.63-0.5,1.02-1.26,1.02c-0.85,0-1.35-0.39-1.38-1.1h0.61
		c0.01,0.41,0.28,0.63,0.75,0.63c0.43,0,0.69-0.18,0.69-0.49c0-0.24-0.13-0.37-0.53-0.46l-0.47-0.11c-0.67-0.15-0.93-0.42-0.93-0.89
		c0-0.56,0.5-0.92,1.21-0.92C27.17,48.89,27.63,49.25,27.66,49.89"/>
	<path fill="#53BAAA" d="M28.99,52.15h-0.58v-3.19h0.56v0.45c0.22-0.33,0.58-0.53,0.99-0.53c0.49,0,0.87,0.23,1.07,0.63
		c0.22-0.4,0.61-0.63,1.08-0.63c0.37,0,0.66,0.11,0.88,0.35c0.22,0.23,0.33,0.53,0.33,0.9v2.01h-0.58v-1.93
		c0-0.5-0.29-0.81-0.76-0.81c-0.49,0-0.81,0.38-0.81,0.91v1.82h-0.58v-1.93c0-0.5-0.29-0.81-0.76-0.81c-0.49,0-0.81,0.38-0.81,0.91
		V52.15z"/>
	<path fill="#53BAAA" d="M34.37,53.15h-0.44l0.42-0.94c-0.18-0.05-0.31-0.23-0.31-0.41c0-0.25,0.18-0.44,0.44-0.44
		c0.25,0,0.44,0.18,0.44,0.42l-0.06,0.25L34.37,53.15z"/>
	<polygon fill="#53BAAA" points="37.86,52.15 37.25,52.15 37.25,47.72 37.86,47.72 37.86,49.59 39.96,49.59 39.96,47.72 
		40.56,47.72 40.56,52.15 39.96,52.15 39.96,50.16 37.86,50.16 	"/>
	<path fill="#53BAAA" d="M41.74,49.37c0.32-0.32,0.73-0.48,1.21-0.48c0.49,0,0.89,0.16,1.21,0.49c0.32,0.32,0.49,0.71,0.49,1.18
		c0,0.47-0.17,0.87-0.49,1.19c-0.32,0.32-0.72,0.48-1.21,0.48c-0.49,0-0.89-0.16-1.21-0.48c-0.32-0.32-0.49-0.72-0.49-1.19
		C41.25,50.08,41.42,49.69,41.74,49.37 M43.75,49.75c-0.22-0.22-0.48-0.33-0.8-0.33c-0.31,0-0.58,0.11-0.8,0.33
		c-0.21,0.22-0.32,0.49-0.32,0.8c0,0.32,0.11,0.59,0.32,0.81c0.22,0.22,0.48,0.33,0.8,0.33c0.32,0,0.59-0.11,0.8-0.33
		c0.22-0.22,0.32-0.49,0.32-0.81C44.07,50.24,43.97,49.97,43.75,49.75"/>
	<path fill="#53BAAA" d="M47.62,49.89h-0.59c-0.01-0.35-0.23-0.53-0.65-0.53c-0.37,0-0.63,0.16-0.63,0.41
		c0,0.23,0.11,0.34,0.59,0.45l0.38,0.09c0.69,0.16,0.95,0.43,0.95,0.91c0,0.63-0.5,1.02-1.26,1.02c-0.85,0-1.35-0.39-1.38-1.1h0.61
		c0.01,0.41,0.28,0.63,0.75,0.63c0.43,0,0.69-0.18,0.69-0.49c0-0.24-0.13-0.37-0.53-0.46L46.1,50.7c-0.68-0.15-0.93-0.42-0.93-0.89
		c0-0.56,0.5-0.92,1.21-0.92C47.13,48.89,47.59,49.25,47.62,49.89"/>
	<path fill="#53BAAA" d="M48.37,53.49v-4.52h0.56v0.55c0.28-0.4,0.73-0.63,1.24-0.63c0.46,0,0.84,0.16,1.14,0.47
		c0.31,0.31,0.46,0.71,0.46,1.19c0,0.48-0.15,0.88-0.46,1.2c-0.31,0.32-0.69,0.48-1.16,0.48c-0.49,0-0.92-0.21-1.2-0.58v1.85H48.37z
		 M50.85,49.75c-0.22-0.22-0.48-0.33-0.8-0.33c-0.32,0-0.59,0.11-0.8,0.33c-0.21,0.22-0.31,0.49-0.31,0.81
		c0,0.32,0.11,0.59,0.31,0.81c0.22,0.22,0.48,0.33,0.8,0.33c0.32,0,0.59-0.11,0.8-0.33c0.22-0.22,0.32-0.49,0.32-0.81
		C51.17,50.23,51.07,49.97,50.85,49.75"/>
	<path fill="#53BAAA" d="M52.76,47.55c0.25,0,0.41,0.17,0.41,0.4c0,0.23-0.18,0.4-0.41,0.4c-0.23,0-0.41-0.17-0.41-0.4
		C52.35,47.72,52.51,47.55,52.76,47.55 M53.05,52.15h-0.58v-3.19h0.58V52.15z"/>
	<path fill="#53BAAA" d="M54.16,48.96v-0.99l0.58-0.14v1.13h0.83v0.52h-0.83v1.64c0,0.44,0.15,0.59,0.52,0.59
		c0.16,0,0.3-0.05,0.47-0.16v0.52c-0.18,0.11-0.36,0.15-0.59,0.15c-0.66,0-0.98-0.35-0.98-1.07v-1.68h-0.54v-0.52H54.16z"/>
	<path fill="#53BAAA" d="M58.22,52.15V51.7c-0.23,0.33-0.63,0.53-1.07,0.53c-0.31,0-0.57-0.08-0.77-0.25
		c-0.19-0.17-0.3-0.39-0.3-0.65c0-0.52,0.33-0.86,1.03-1.02l1.09-0.25v-0.04c0-0.38-0.29-0.63-0.73-0.63c-0.4,0-0.71,0.23-0.76,0.59
		h-0.56c0.03-0.31,0.17-0.57,0.42-0.77c0.24-0.21,0.55-0.31,0.9-0.31c0.81,0,1.29,0.46,1.29,1.19v2.07H58.22z M57.93,51.46
		c0.18-0.19,0.27-0.42,0.27-0.69v-0.23l-0.94,0.22c-0.4,0.09-0.6,0.27-0.6,0.52c0,0.3,0.22,0.47,0.6,0.47
		C57.53,51.75,57.75,51.65,57.93,51.46"/>
	<rect x="59.67" y="47.48" fill="#53BAAA" width="0.58" height="4.68"/>
	<path fill="#53BAAA" d="M61.5,47.55c0.25,0,0.41,0.17,0.41,0.4c0,0.23-0.18,0.4-0.41,0.4c-0.23,0-0.41-0.17-0.41-0.4
		C61.09,47.72,61.25,47.55,61.5,47.55 M61.79,52.15h-0.58v-3.19h0.58V52.15z"/>
	<path fill="#53BAAA" d="M62.9,48.96v-0.99l0.58-0.14v1.13h0.83v0.52h-0.83v1.64c0,0.44,0.15,0.59,0.52,0.59
		c0.16,0,0.3-0.05,0.47-0.16v0.52c-0.18,0.11-0.36,0.15-0.59,0.15c-0.66,0-0.98-0.35-0.98-1.07v-1.68h-0.54v-0.52H62.9z"/>
	<polygon fill="#53BAAA" points="67.12,48.96 67.72,48.96 66,53.49 65.42,53.49 65.9,52.2 64.64,48.96 65.25,48.96 66.19,51.47 	"/>
	<path fill="#53BAAA" d="M5.9,58.66v-0.45c-0.23,0.33-0.63,0.53-1.07,0.53c-0.31,0-0.57-0.08-0.77-0.25
		c-0.19-0.17-0.3-0.38-0.3-0.65c0-0.52,0.33-0.86,1.03-1.02l1.09-0.25v-0.04c0-0.38-0.29-0.63-0.73-0.63c-0.4,0-0.71,0.23-0.76,0.59
		H3.84c0.03-0.31,0.17-0.57,0.42-0.77c0.24-0.21,0.55-0.31,0.9-0.31c0.81,0,1.29,0.46,1.29,1.19v2.07H5.9z M5.61,57.97
		c0.18-0.19,0.27-0.42,0.27-0.69v-0.23l-0.94,0.22c-0.4,0.1-0.6,0.27-0.6,0.53c0,0.3,0.22,0.47,0.6,0.47
		C5.21,58.26,5.43,58.16,5.61,57.97"/>
	<path fill="#53BAAA" d="M7.92,58.66H7.34v-3.19H7.9v0.45c0.23-0.33,0.59-0.52,1.02-0.52c0.37,0,0.67,0.11,0.89,0.35
		c0.22,0.23,0.33,0.53,0.33,0.9v2.01H9.56v-1.88c0-0.54-0.29-0.85-0.79-0.85c-0.51,0-0.85,0.38-0.85,0.91V58.66z"/>
	<path fill="#53BAAA" d="M11.24,58.26c-0.3-0.31-0.45-0.71-0.45-1.19c0-0.48,0.15-0.88,0.46-1.2c0.31-0.32,0.69-0.48,1.16-0.48
		c0.49,0,0.92,0.21,1.2,0.59v-2h0.58v4.67h-0.55V58.1c-0.28,0.4-0.74,0.64-1.25,0.64C11.93,58.74,11.55,58.58,11.24,58.26
		 M11.71,57.88c0.22,0.22,0.48,0.33,0.8,0.33s0.59-0.11,0.79-0.33c0.22-0.22,0.32-0.49,0.32-0.81c0-0.32-0.11-0.59-0.32-0.81
		c-0.21-0.22-0.47-0.33-0.79-0.33s-0.59,0.11-0.8,0.33c-0.22,0.22-0.32,0.49-0.32,0.81C11.38,57.39,11.49,57.66,11.71,57.88"/>
	<path fill="#53BAAA" d="M20.81,56.43v2.23h-0.5v-0.79c-0.35,0.56-0.95,0.86-1.7,0.86c-0.63,0-1.16-0.22-1.58-0.66
		c-0.42-0.44-0.63-0.98-0.63-1.63c0-0.64,0.21-1.18,0.65-1.62c0.44-0.45,0.98-0.67,1.62-0.67c0.51,0,0.96,0.14,1.35,0.43
		c0.39,0.28,0.66,0.66,0.8,1.13h-0.66c-0.25-0.6-0.83-0.98-1.49-0.98c-0.47,0-0.86,0.16-1.17,0.5c-0.31,0.33-0.47,0.74-0.47,1.22
		c0,0.5,0.16,0.91,0.47,1.24c0.31,0.33,0.71,0.5,1.19,0.5c0.86,0,1.45-0.45,1.59-1.25h-1.62v-0.5H20.81z"/>
	<path fill="#53BAAA" d="M23.68,58.66v-0.45c-0.23,0.33-0.63,0.53-1.07,0.53c-0.31,0-0.57-0.08-0.77-0.25
		c-0.19-0.17-0.3-0.38-0.3-0.65c0-0.52,0.33-0.86,1.03-1.02l1.09-0.25v-0.04c0-0.38-0.29-0.63-0.73-0.63c-0.4,0-0.71,0.23-0.76,0.59
		h-0.56c0.03-0.31,0.17-0.57,0.42-0.77c0.24-0.21,0.55-0.31,0.9-0.31c0.81,0,1.29,0.46,1.29,1.19v2.07H23.68z M23.39,57.97
		c0.18-0.19,0.27-0.42,0.27-0.69v-0.23l-0.94,0.22c-0.4,0.1-0.6,0.27-0.6,0.53c0,0.3,0.22,0.47,0.6,0.47
		C22.98,58.26,23.21,58.16,23.39,57.97"/>
	<path fill="#53BAAA" d="M27.41,56.4h-0.59c-0.01-0.35-0.23-0.53-0.65-0.53c-0.37,0-0.63,0.16-0.63,0.41c0,0.23,0.11,0.34,0.59,0.45
		l0.38,0.09c0.69,0.16,0.95,0.43,0.95,0.91c0,0.63-0.5,1.02-1.26,1.02c-0.85,0-1.35-0.39-1.38-1.1h0.61
		c0.01,0.41,0.28,0.63,0.75,0.63c0.43,0,0.69-0.18,0.69-0.49c0-0.24-0.13-0.37-0.53-0.46l-0.47-0.11c-0.67-0.15-0.93-0.42-0.93-0.89
		c0-0.56,0.5-0.92,1.21-0.92C26.92,55.4,27.38,55.76,27.41,56.4"/>
	<path fill="#53BAAA" d="M28.33,55.47v-0.99l0.58-0.14v1.13h0.83v0.52h-0.83v1.64c0,0.43,0.15,0.59,0.52,0.59
		c0.16,0,0.3-0.05,0.47-0.16v0.52c-0.18,0.11-0.36,0.15-0.59,0.15c-0.66,0-0.98-0.35-0.98-1.07v-1.68H27.8v-0.52H28.33z"/>
	<path fill="#53BAAA" d="M31.04,56.99v1.67h-0.58v-3.19h0.56v0.59c0.21-0.41,0.58-0.64,1.02-0.64l0.16,0.01v0.55l-0.17-0.01
		C31.42,55.98,31.04,56.4,31.04,56.99"/>
	<path fill="#53BAAA" d="M32.92,55.88c0.32-0.32,0.73-0.48,1.21-0.48c0.49,0,0.89,0.16,1.21,0.49c0.32,0.32,0.49,0.71,0.49,1.18
		c0,0.47-0.17,0.87-0.49,1.19c-0.32,0.32-0.72,0.48-1.21,0.48c-0.49,0-0.89-0.16-1.21-0.48c-0.32-0.32-0.49-0.72-0.49-1.19
		C32.44,56.59,32.6,56.2,32.92,55.88 M34.93,56.26c-0.22-0.22-0.48-0.33-0.8-0.33c-0.31,0-0.58,0.11-0.8,0.33
		c-0.21,0.22-0.32,0.49-0.32,0.8c0,0.32,0.11,0.59,0.32,0.81c0.22,0.22,0.48,0.33,0.8,0.33c0.32,0,0.59-0.11,0.8-0.33
		c0.21-0.22,0.32-0.49,0.32-0.81C35.26,56.75,35.15,56.48,34.93,56.26"/>
	<path fill="#53BAAA" d="M37.09,58.66h-0.58v-3.19h0.56v0.45c0.23-0.33,0.59-0.52,1.02-0.52c0.37,0,0.67,0.11,0.89,0.35
		c0.22,0.23,0.33,0.53,0.33,0.9v2.01h-0.58v-1.88c0-0.54-0.29-0.85-0.79-0.85c-0.51,0-0.85,0.38-0.85,0.91V58.66z"/>
	<path fill="#53BAAA" d="M40.43,55.88c0.32-0.32,0.73-0.48,1.21-0.48c0.49,0,0.89,0.16,1.21,0.49c0.32,0.32,0.49,0.71,0.49,1.18
		c0,0.47-0.17,0.87-0.49,1.19c-0.32,0.32-0.72,0.48-1.21,0.48c-0.49,0-0.89-0.16-1.21-0.48c-0.32-0.32-0.49-0.72-0.49-1.19
		C39.95,56.59,40.11,56.2,40.43,55.88 M42.44,56.26c-0.22-0.22-0.48-0.33-0.8-0.33c-0.31,0-0.58,0.11-0.8,0.33
		c-0.21,0.22-0.32,0.49-0.32,0.8c0,0.32,0.11,0.59,0.32,0.81c0.22,0.22,0.48,0.33,0.8,0.33c0.32,0,0.59-0.11,0.8-0.33
		c0.21-0.22,0.32-0.49,0.32-0.81C42.77,56.75,42.66,56.48,42.44,56.26"/>
	<path fill="#53BAAA" d="M44.6,58.66h-0.58v-3.19h0.56v0.45c0.22-0.33,0.58-0.53,0.99-0.53c0.49,0,0.87,0.23,1.07,0.63
		c0.22-0.4,0.61-0.63,1.08-0.63c0.37,0,0.66,0.11,0.88,0.35c0.22,0.23,0.33,0.53,0.33,0.9v2.01h-0.58v-1.93
		c0-0.5-0.28-0.81-0.76-0.81c-0.49,0-0.81,0.38-0.81,0.91v1.82h-0.58v-1.93c0-0.5-0.29-0.81-0.76-0.81c-0.49,0-0.81,0.38-0.81,0.91
		V58.66z"/>
	<polygon fill="#53BAAA" points="51.84,55.47 52.44,55.47 50.72,60 50.14,60 50.62,58.71 49.36,55.47 49.97,55.47 50.91,57.98 	"/>
	<path fill="#53BAAA" d="M33.61,24.77v1.65h-3.25v9.6h-1.79v-9.6h-1.72c-2.48,2.46-5.89,3.98-9.66,3.98c-1.91,0-3.73-0.39-5.39-1.1
		v-6.59h3.25v-1.65H6.75v1.65H10v5.66c-3.92-2.41-6.54-6.75-6.54-11.7c0-1.84,0.36-3.59,1.02-5.19c0.42,0.09,0.87,0.15,1.33,0.15
		c2.35,0,4.3-1.28,5.23-3.17L9.41,7.59C8.75,9.01,7.43,9.89,5.79,9.89c-0.18,0-0.35-0.01-0.53-0.03c2.37-4.13,6.81-6.91,11.91-6.91
		c2.5,0,4.83,0.67,6.85,1.83h-3.2v11.25h7.03v-1.65h-5.23v-3.3h4.77V9.52h-4.77V6.43h3.69c2.82,2.51,4.59,6.17,4.59,10.24
		c0,3.03-0.98,5.83-2.64,8.09H33.61z M1.91,5.81c0-2.29,1.66-4.08,3.89-4.08c1.55,0,2.8,0.82,3.49,2.1l1.59-1.01
		C9.92,1.12,8.07,0,5.81,0C2.48,0,0,2.53,0,5.81c0,2.81,1.85,5.08,4.48,5.67c0.23-0.56,0.49-1.1,0.79-1.62
		C3.3,9.6,1.91,7.95,1.91,5.81"/>
</g>
</svg>
