<?xml version="1.0" encoding="utf-8"?>
<!-- Generator: Adobe Illustrator 25.4.1, SVG Export Plug-In . SVG Version: 6.00 Build 0)  -->
<svg version="1.1" id="Capa_1" xmlns="http://www.w3.org/2000/svg" xmlns:xlink="http://www.w3.org/1999/xlink" x="0px" y="0px"
	 viewBox="0 0 147.81 48" enable-background="new 0 0 147.81 48" xml:space="preserve">
<g>
	<path fill="#0061A0" d="M10.75,44.33h0.71l-0.37,3.48H1.41v-0.72l0.56-0.11c0.82-0.19,0.94-0.3,0.94-1.31v-8.09
		c0-1.01-0.1-1.11-0.94-1.31l-0.56-0.11v-0.72h9.67l0.26,3.36h-0.71l-0.38-0.92c-0.52-1.09-0.85-1.27-2.07-1.34L5.14,36.4v4.63
		l3.85-0.42l0.19,0.19l-0.14,1.25l-3.9-0.12v3.9c0,0.81,0.4,1.02,1.5,0.95l1.69-0.09c1.24-0.07,1.52-0.21,2.09-1.55L10.75,44.33z"/>
	<path fill="#0061A0" d="M12.46,47.43v-2.4h0.66l0.3,0.62c0.47,0.97,1.05,1.45,2.28,1.45c0.96,0,1.66-0.46,1.66-1.24
		c0-0.79-0.59-1.1-2.11-1.68c-1.29-0.48-2.67-1.18-2.67-2.88c0-1.87,1.69-2.72,3.62-2.72c0.92,0,2,0.21,2.86,0.62v2.3H18.4l-0.3-0.6
		c-0.45-0.95-1.06-1.4-2.04-1.4c-0.89,0-1.52,0.42-1.52,1.18c0,0.74,0.59,1.13,2.06,1.7c1.29,0.49,2.75,1.13,2.75,2.86
		c0,1.89-1.71,2.76-3.66,2.76C14.62,48,13.47,47.84,12.46,47.43"/>
	<path fill="#0061A0" d="M20.37,43.44c0-2.95,2-4.86,4.6-4.86c1.12,0,2.18,0.23,3,0.69v2.7h-0.66l-0.37-0.74
		c-0.56-1.09-1.2-1.75-2.2-1.75c-1.27,0-2.11,1.34-2.11,3.23c0,2.47,1.15,3.69,2.82,3.69c0.94,0,1.66-0.49,2.27-1.06l0.51,0.53
		c-0.7,1.2-2.11,2.12-3.73,2.12C22.15,48,20.37,46.45,20.37,43.44"/>
	<path fill="#0061A0" d="M35.67,43.67c0-2.05-0.66-4.19-2.39-4.19c-1.45,0-2.16,1.59-2.16,3.44c0,2.05,0.66,4.17,2.37,4.17
		C34.94,47.1,35.67,45.54,35.67,43.67 M28.79,43.35c0-2.54,1.57-4.77,4.69-4.77c2.77,0,4.55,1.82,4.55,4.66
		c0,2.53-1.57,4.75-4.71,4.75C30.57,48,28.79,46.2,28.79,43.35"/>
	<path fill="#0061A0" d="M38.13,47.81v-0.67l0.51-0.11c0.71-0.18,0.8-0.28,0.8-1.27v-8.88l-1.32-0.49v-0.55l3.28-0.95l0.23,0.14
		v10.74c0,0.99,0.07,1.1,0.8,1.27l0.51,0.11v0.67H38.13z"/>
	<path fill="#0061A0" d="M48.53,45.77v-1.93l-1.29,0.3c-1.1,0.23-1.55,0.67-1.55,1.4c0,0.69,0.45,1.11,1.12,1.11
		C47.47,46.66,47.96,46.36,48.53,45.77 M52.02,47.01C51.58,47.63,50.96,48,50.14,48c-0.94,0-1.5-0.44-1.59-1.43h-0.14
		c-0.7,1.02-1.52,1.43-2.65,1.43c-1.25,0-2.32-0.65-2.32-2.01c0-1.31,0.91-2.14,2.89-2.47l2.2-0.39v-1.71c0-1.22-0.47-1.7-1.45-1.7
		c-0.45,0-0.87,0.11-1.29,0.32v1.71h-1.99l-0.17-0.21c0.38-1.59,1.97-2.95,4.32-2.95c1.99,0,2.75,1.06,2.75,2.9V46
		c0,0.46,0.16,0.67,0.52,0.67c0.16,0,0.35-0.05,0.54-0.19L52.02,47.01z"/>
	<path fill="#0061A0" d="M62.72,46.78c1.64,0,2.61-0.94,2.61-2.44c0-1.54-1.01-2.46-2.72-2.46h-2.14v4.15
		c0,0.51,0.23,0.74,0.73,0.74H62.72z M60.47,36.47v4.4h2.07c1.52,0,2.39-0.83,2.39-2.23c0-1.36-0.91-2.17-2.47-2.17H60.47z
		 M64.65,41.41c2.11,0.27,3.03,1.43,3.03,2.95c0,2.23-1.73,3.44-4.72,3.44h-6.22v-0.72l0.56-0.11c0.82-0.19,0.94-0.3,0.94-1.31
		v-8.09c0-1.01-0.1-1.11-0.94-1.31l-0.56-0.11v-0.72h6.31c2.65,0,4.18,1.11,4.18,3.06c0,1.29-0.7,2.47-2.58,2.77V41.41z"/>
	<path fill="#0061A0" d="M73.59,45.77v-1.93l-1.29,0.3c-1.1,0.23-1.55,0.67-1.55,1.4c0,0.69,0.45,1.11,1.12,1.11
		C72.53,46.66,73.02,46.36,73.59,45.77 M77.08,47.01C76.64,47.63,76.01,48,75.19,48c-0.94,0-1.5-0.44-1.59-1.43h-0.14
		c-0.7,1.02-1.52,1.43-2.65,1.43c-1.25,0-2.32-0.65-2.32-2.01c0-1.31,0.91-2.14,2.89-2.47l2.2-0.39v-1.71c0-1.22-0.47-1.7-1.45-1.7
		c-0.45,0-0.87,0.11-1.29,0.32v1.71h-1.99l-0.17-0.21c0.38-1.59,1.97-2.95,4.32-2.95c1.99,0,2.75,1.06,2.75,2.9V46
		c0,0.46,0.16,0.67,0.52,0.67c0.16,0,0.35-0.05,0.54-0.19L77.08,47.01z"/>
	<path fill="#0061A0" d="M83.09,46.85c-0.64,0.69-1.5,1.15-2.53,1.15c-1.53,0-2.39-0.64-2.39-2.16V40h-1.18v-0.57l3.1-2.63
		l0.26,0.11v2.1l2.42-0.28l0.19,0.21L82.84,40h-2.49v5.3c0,1.01,0.33,1.34,1.08,1.34c0.47,0,0.87-0.18,1.27-0.48L83.09,46.85z"/>
	<path fill="#0061A0" d="M92.06,46.11c0.51,0.64,0.8,0.9,1.32,1.02v0.67h-4.86v-0.67c0.92-0.04,1.2-0.48,0.61-1.24l-1.48-1.89h-0.12
		l-1.17,1.82c-0.44,0.79-0.28,1.15,0.73,1.31v0.67h-3.71v-0.67c0.59-0.21,1.05-0.51,1.69-1.31l2.02-2.51l-2.23-2.84
		c-0.52-0.67-0.8-0.9-1.24-1.01v-0.69h4.71v0.69c-0.98,0.04-1.15,0.48-0.56,1.24l1.29,1.63h0.12l1.03-1.57
		c0.44-0.78,0.24-1.2-0.63-1.29v-0.69h3.54v0.69c-0.59,0.19-0.94,0.49-1.62,1.31l-1.86,2.28L92.06,46.11z"/>
	<path fill="#0061A0" d="M94.85,36.18c0-0.74,0.56-1.31,1.32-1.31c0.78,0,1.32,0.56,1.32,1.31c0,0.78-0.54,1.32-1.32,1.32
		C95.41,37.51,94.85,36.96,94.85,36.18 M93.89,47.81v-0.67l0.52-0.11c0.71-0.18,0.8-0.28,0.8-1.27v-5.28L94,40.05v-0.57l3.15-0.87
		l0.23,0.14v6.99c0,0.99,0.07,1.1,0.8,1.27l0.52,0.11v0.67H93.89z"/>
	<path fill="#0061A0" d="M99.28,47.81v-0.67l0.51-0.11c0.71-0.18,0.8-0.28,0.8-1.27v-8.88l-1.32-0.49v-0.55l3.28-0.95l0.23,0.14
		v10.74c0,0.99,0.07,1.1,0.8,1.27l0.51,0.11v0.67H99.28z"/>
	<path fill="#0061A0" d="M104.68,47.81v-0.67l0.51-0.11c0.71-0.18,0.8-0.28,0.8-1.27v-8.88l-1.32-0.49v-0.55l3.28-0.95l0.23,0.14
		v10.74c0,0.99,0.07,1.1,0.8,1.27l0.51,0.11v0.67H104.68z"/>
	<path fill="#0061A0" d="M111.94,42.07l3.56-0.28c-0.02-1.38-0.64-2.33-1.64-2.33C112.68,39.45,112.08,40.53,111.94,42.07
		 M117.29,45.3l0.51,0.5c-0.87,1.47-2.28,2.21-3.83,2.21c-2.3,0-4.29-1.7-4.29-4.56c0-2.91,1.81-4.86,4.37-4.86
		c2.3,0,3.73,1.47,3.8,3.96l-0.16,0.23h-5.77c0.02,2.46,1.15,3.62,2.91,3.62C115.8,46.39,116.56,46.02,117.29,45.3"/>
	<path fill="#0061A0" d="M125.38,38.66v2.31l-0.19,0.16h-2.07c-0.4,0.41-0.78,0.9-1.06,1.36v3.21c0,0.95,0.09,1.15,0.84,1.27
		l0.84,0.16v0.67h-5.16v-0.67l0.51-0.11c0.73-0.18,0.82-0.32,0.82-1.29v-5.26l-1.22-0.42v-0.56l3.15-0.87l0.23,0.14v2.42h0.16
		c0.71-1.38,1.6-2.53,2.94-2.53H125.38z"/>
	<path fill="#0061A0" d="M130.83,45.77v-1.93l-1.29,0.3c-1.1,0.23-1.55,0.67-1.55,1.4c0,0.69,0.45,1.11,1.12,1.11
		S130.26,46.36,130.83,45.77 M134.32,47.01c-0.44,0.62-1.06,0.99-1.88,0.99c-0.94,0-1.5-0.44-1.59-1.43h-0.14
		c-0.7,1.02-1.52,1.43-2.65,1.43c-1.25,0-2.32-0.65-2.32-2.01c0-1.31,0.91-2.14,2.89-2.47l2.2-0.39v-1.71c0-1.22-0.47-1.7-1.45-1.7
		c-0.45,0-0.87,0.11-1.29,0.32v1.71h-1.99l-0.17-0.21c0.38-1.59,1.97-2.95,4.32-2.95c1.99,0,2.75,1.06,2.75,2.9V46
		c0,0.46,0.16,0.67,0.52,0.67c0.16,0,0.35-0.05,0.54-0.19L134.32,47.01z"/>
	<path fill="#0061A0" d="M140.24,46.85c-0.64,0.69-1.5,1.15-2.53,1.15c-1.53,0-2.39-0.64-2.39-2.16V40h-1.18v-0.57l3.1-2.63
		l0.26,0.11v2.1l2.42-0.28l0.19,0.21L140,40h-2.49v5.3c0,1.01,0.33,1.34,1.08,1.34c0.47,0,0.87-0.18,1.27-0.48L140.24,46.85z"/>
	<path fill="#0061A0" d="M140.9,47.43v-2.4h0.66l0.3,0.62c0.47,0.97,1.05,1.45,2.28,1.45c0.96,0,1.66-0.46,1.66-1.24
		c0-0.79-0.59-1.1-2.11-1.68c-1.29-0.48-2.67-1.18-2.67-2.88c0-1.87,1.69-2.72,3.62-2.72c0.92,0,2,0.21,2.86,0.62v2.3h-0.66
		l-0.3-0.6c-0.45-0.95-1.06-1.4-2.04-1.4c-0.89,0-1.52,0.42-1.52,1.18c0,0.74,0.59,1.13,2.06,1.7c1.29,0.49,2.75,1.13,2.75,2.86
		c0,1.89-1.71,2.76-3.66,2.76C143.07,48,141.92,47.84,140.9,47.43"/>
	<path fill="#0061A0" d="M97.97,29.54c-7.89,0-14.31-6.51-14.31-14.5c0-8,6.42-14.5,14.31-14.5V8.2c-3.72,0-6.75,3.07-6.75,6.85
		s3.03,6.85,6.75,6.85V29.54z"/>
	<path fill="#0061A0" d="M81.39,0.5C76.8,3.67,73.79,9,73.79,15.04s3.02,11.37,7.61,14.54V0.5z"/>
	<path fill="#0061A0" d="M97.97,29.54c-7.89,0-14.31-6.51-14.31-14.5c0-8,6.42-14.5,14.31-14.5V8.2c-3.72,0-6.75,3.07-6.75,6.85
		s3.03,6.85,6.75,6.85V29.54z"/>
	<path fill="#0061A0" d="M0,15.54C0,6.19,5.94,0,14.26,0c4.02,0,7.38,1.33,9.59,2.87l0.57,6.85h-1.35l-0.94-1.91
		C20,3.32,17.5,1.91,13.9,1.91c-5.25,0-9.51,4.74-9.51,12.17c0,8.6,4.92,12.96,10.74,12.96c3.07,0,5.53-0.96,8.36-3.32l1.15,1.16
		c-2.71,3.28-6.07,5.19-10.86,5.19C6.85,30.08,0,25.43,0,15.54"/>
	<path fill="#0061A0" d="M27.87,29.58v-1.37l1.43-0.25c1.84-0.37,2.09-0.58,2.09-2.74V4.86c0-2.16-0.2-2.37-2.09-2.74l-1.43-0.25
		V0.5h11.15v1.37l-1.48,0.25c-1.84,0.37-2.09,0.58-2.09,2.74v20.36c0,2.16,0.25,2.37,2.09,2.74l1.48,0.25v1.37H27.87z"/>
	<path fill="#0061A0" d="M42.63,15.54C42.63,6.19,48.58,0,56.9,0c4.02,0,7.38,1.33,9.59,2.87l0.57,6.85h-1.35l-0.94-1.91
		c-2.13-4.49-4.63-5.9-8.24-5.9c-5.25,0-9.51,4.74-9.51,12.17c0,8.6,4.92,12.96,10.74,12.96c3.07,0,5.53-0.96,8.36-3.32l1.15,1.16
		c-2.71,3.28-6.07,5.19-10.86,5.19C49.48,30.08,42.63,25.43,42.63,15.54"/>
</g>
</svg>
