<?xml version="1.0" encoding="utf-8"?>
<!-- Generator: Adobe Illustrator 25.4.1, SVG Export Plug-In . SVG Version: 6.00 Build 0)  -->
<svg version="1.1" id="Capa_1" xmlns="http://www.w3.org/2000/svg" xmlns:xlink="http://www.w3.org/1999/xlink" x="0px" y="0px"
	 viewBox="0 0 80.84 48" enable-background="new 0 0 80.84 48" xml:space="preserve">
<g>
	<path fill="#FF8300" d="M17.23,19.97c-0.85,0.3-1.74,0.52-2.64,0.7c-1.02,0.2-2.04,0.27-3.01,0.27c-1.82,0-3.31-0.4-4.43-1.22
		C6,18.9,5.33,17.58,5.23,15.78L5.2,15.44h14.17c0.02-0.25,0.07-0.57,0.1-0.95c0.05-0.5,0.07-1.05,0.07-1.57
		c0-1.42-0.2-2.79-0.62-4.03c-0.4-1.24-1.02-2.32-1.82-3.21c-0.8-0.9-1.79-1.62-2.91-2.12c-1.15-0.52-2.46-0.77-3.93-0.77
		c-1.69,0-3.19,0.3-4.46,0.87c-1.27,0.6-2.34,1.39-3.19,2.39c-0.85,1-1.52,2.22-1.94,3.58C0.22,11,0,12.5,0,14.07
		c0,1.59,0.22,3.09,0.65,4.43c0.42,1.34,1.07,2.49,1.97,3.46c0.87,0.97,2.04,1.72,3.44,2.27c1.42,0.55,3.14,0.82,5.13,0.82
		c2.61,0,5.03-0.4,7.12-1.17c-0.05-0.8-0.17-1.54-0.35-2.22C17.7,21.04,17.48,20.46,17.23,19.97 M5.25,11.55
		c0.15-1.52,0.62-2.71,1.39-3.56c0.8-0.87,1.97-1.29,3.46-1.29c1.34,0,2.41,0.47,3.16,1.37c0.75,0.9,1.15,2.07,1.19,3.49l0.02,0.35
		H5.2L5.25,11.55z"/>
	<path fill="#FF8300" d="M30.92,13.24c0-0.52-0.1-0.97-0.27-1.29c-0.17-0.32-0.42-0.6-0.72-0.8c-0.32-0.2-0.7-0.32-1.15-0.37
		c-0.45-0.07-0.97-0.1-1.52-0.1c-1.19,0-2.49,0.22-3.83,0.7c-0.3-0.57-0.55-1.12-0.7-1.64c-0.15-0.52-0.22-1.12-0.22-1.84
		c0.97-0.32,1.97-0.57,2.94-0.75c0.97-0.15,1.89-0.22,2.74-0.22c2.32,0,4.13,0.55,5.43,1.67c1.29,1.12,1.97,2.89,1.97,5.35v10.03
		c-0.77,0.25-1.72,0.47-2.84,0.7C31.62,24.9,30.37,25,28.95,25c-1.15,0-2.17-0.1-3.11-0.3c-0.95-0.2-1.77-0.52-2.44-1
		c-0.67-0.47-1.19-1.07-1.57-1.82c-0.37-0.75-0.55-1.64-0.55-2.71c0-1.07,0.22-1.97,0.7-2.69c0.45-0.72,1.05-1.29,1.77-1.74
		c0.72-0.42,1.54-0.75,2.41-0.95c0.9-0.2,1.79-0.27,2.66-0.27c0.65,0,1.37,0.02,2.14,0.1v-0.37H30.92z M30.92,16.68
		c-0.27-0.05-0.55-0.07-0.87-0.12c-0.3-0.03-0.6-0.05-0.85-0.05c-1.1,0-1.97,0.2-2.59,0.57c-0.62,0.4-0.95,1.02-0.95,1.89
		c0,0.57,0.12,1.02,0.37,1.34c0.25,0.32,0.55,0.55,0.9,0.7c0.35,0.15,0.72,0.22,1.1,0.27c0.4,0.02,0.72,0.05,1.02,0.05
		c0.32,0,0.67-0.02,1-0.07c0.32-0.05,0.62-0.1,0.87-0.15V16.68z"/>
	<path fill="#FF8300" d="M49.49,0.17c0.4-0.07,0.8-0.1,1.19-0.12c0.4-0.02,0.77-0.02,1.15-0.02c0.37,0,0.77,0,1.17,0.02
		c0.4,0.03,0.8,0.07,1.19,0.12v23.85c-1.05,0.32-2.12,0.55-3.19,0.72C49.94,24.92,48.62,25,47.08,25c-1.17,0-2.32-0.17-3.39-0.5
		c-1.07-0.32-2.04-0.85-2.86-1.54c-0.82-0.7-1.47-1.62-1.97-2.71c-0.47-1.12-0.72-2.46-0.72-4.08c0-1.27,0.2-2.46,0.62-3.59
		c0.42-1.12,1-2.09,1.77-2.91c0.77-0.82,1.69-1.47,2.79-1.97c1.1-0.47,2.32-0.72,3.63-0.72c0.4,0,0.82,0.02,1.24,0.05
		c0.45,0.03,0.85,0.1,1.24,0.22V0.17H49.49z M49.49,10.9c-0.45-0.12-0.8-0.17-1.1-0.22c-0.27-0.02-0.62-0.05-1.05-0.05
		c-0.75,0-1.37,0.15-1.92,0.45c-0.55,0.3-1,0.7-1.34,1.19c-0.35,0.5-0.62,1.1-0.8,1.77s-0.25,1.39-0.25,2.12
		c0,0.92,0.1,1.69,0.32,2.32c0.22,0.62,0.52,1.15,0.92,1.52c0.4,0.37,0.85,0.65,1.39,0.82c0.55,0.17,1.12,0.25,1.74,0.25
		c0.37,0,0.72-0.03,1.05-0.05c0.3-0.02,0.65-0.1,1.05-0.22V10.9H49.49z"/>
	<path fill="#FF8300" d="M66.67,13.24c0-0.52-0.1-0.97-0.27-1.29c-0.17-0.32-0.42-0.6-0.75-0.8c-0.32-0.2-0.7-0.32-1.15-0.37
		c-0.45-0.07-0.97-0.1-1.52-0.1c-1.19,0-2.49,0.22-3.83,0.7c-0.32-0.57-0.55-1.12-0.7-1.64c-0.15-0.52-0.22-1.12-0.22-1.84
		c0.97-0.32,1.97-0.57,2.94-0.75c0.97-0.15,1.89-0.22,2.74-0.22c2.32,0,4.13,0.55,5.43,1.67c1.29,1.12,1.97,2.89,1.97,5.35v10.03
		c-0.77,0.25-1.72,0.47-2.84,0.7C67.34,24.9,66.1,25,64.68,25c-1.15,0-2.17-0.1-3.14-0.3c-0.95-0.2-1.77-0.52-2.44-1
		c-0.67-0.47-1.19-1.07-1.57-1.82c-0.37-0.75-0.55-1.64-0.55-2.71c0-1.07,0.22-1.97,0.7-2.69c0.45-0.72,1.05-1.29,1.77-1.74
		c0.72-0.42,1.54-0.75,2.42-0.95c0.9-0.2,1.79-0.27,2.66-0.27c0.65,0,1.37,0.02,2.14,0.1V13.24z M66.67,16.68
		c-0.27-0.05-0.55-0.07-0.87-0.12c-0.32-0.03-0.6-0.05-0.85-0.05c-1.1,0-1.94,0.2-2.59,0.57c-0.62,0.4-0.95,1.02-0.95,1.89
		c0,0.57,0.12,1.02,0.37,1.34c0.25,0.32,0.55,0.55,0.9,0.7c0.35,0.15,0.72,0.22,1.1,0.27c0.4,0.02,0.72,0.05,1.02,0.05
		c0.32,0,0.67-0.02,1-0.07c0.32-0.05,0.62-0.1,0.87-0.15V16.68z"/>
	<path fill="#575756" d="M76.58,0c2.37,0,4.26,1.92,4.26,4.33c0,2.44-1.89,4.33-4.26,4.33c-2.34,0-4.21-1.89-4.21-4.33
		C72.37,1.92,74.24,0,76.58,0 M76.58,7.67c1.84,0,3.24-1.44,3.24-3.34c0-1.89-1.39-3.34-3.24-3.34c-1.82,0-3.21,1.44-3.21,3.34
		C73.37,6.22,74.76,7.67,76.58,7.67"/>
	<path fill="#575756" d="M75.63,4.61c0.03,0.3,0.12,0.52,0.32,0.67c0.2,0.15,0.45,0.2,0.77,0.2c0.17,0,0.35-0.02,0.52-0.05
		c0.17-0.02,0.35-0.07,0.52-0.15c0.05,0.1,0.1,0.22,0.15,0.37C77.98,5.8,78,5.95,78,6.1c-0.4,0.15-0.85,0.22-1.34,0.22
		c-0.37,0-0.67-0.05-0.95-0.15c-0.27-0.1-0.47-0.25-0.65-0.42c-0.17-0.17-0.3-0.4-0.37-0.65c-0.07-0.25-0.12-0.52-0.12-0.82
		c0-0.3,0.05-0.57,0.12-0.82c0.07-0.25,0.2-0.47,0.37-0.65c0.15-0.2,0.35-0.35,0.6-0.45c0.22-0.1,0.52-0.17,0.82-0.17
		c0.27,0,0.52,0.05,0.72,0.15c0.22,0.1,0.4,0.22,0.55,0.4c0.15,0.17,0.27,0.37,0.35,0.6c0.07,0.22,0.12,0.47,0.12,0.75
		c0,0.1,0,0.2-0.02,0.3c0,0.1-0.03,0.17-0.03,0.22H75.63z M77.18,3.86c0-0.25-0.07-0.45-0.2-0.6c-0.12-0.15-0.3-0.22-0.52-0.22
		c-0.25,0-0.45,0.07-0.57,0.22c-0.12,0.15-0.22,0.35-0.22,0.6H77.18z"/>
	<path fill="#575756" d="M0.85,30.02c0.05,0,0.1,0,0.17-0.02H1.2h0.17c0.07,0,0.12,0,0.17,0.02v3.01c0.15-0.22,0.35-0.42,0.62-0.6
		c0.27-0.17,0.62-0.25,1.05-0.25c0.32,0,0.62,0.05,0.87,0.15c0.27,0.1,0.5,0.25,0.67,0.47c0.2,0.2,0.32,0.47,0.45,0.8
		c0.1,0.32,0.15,0.7,0.15,1.15c0,0.9-0.25,1.62-0.75,2.12c-0.5,0.5-1.22,0.77-2.14,0.77c-0.3,0-0.6-0.03-0.9-0.07
		c-0.27-0.05-0.52-0.12-0.7-0.2v-7.34H0.85z M1.52,36.9c0.15,0.05,0.32,0.1,0.5,0.12c0.17,0.03,0.35,0.03,0.55,0.03
		c0.27,0,0.52-0.05,0.77-0.12c0.25-0.1,0.47-0.22,0.65-0.4c0.2-0.17,0.35-0.42,0.45-0.7c0.12-0.27,0.17-0.62,0.17-1.02
		c0-0.62-0.12-1.1-0.35-1.47c-0.22-0.35-0.62-0.52-1.15-0.52c-0.17,0-0.35,0.03-0.52,0.07c-0.2,0.05-0.37,0.15-0.52,0.27
		c-0.15,0.12-0.3,0.3-0.4,0.52c-0.1,0.22-0.15,0.47-0.15,0.82V36.9z"/>
	<path fill="#575756" d="M6.77,32.32c0.05,0,0.1,0,0.17-0.02h0.17h0.17c0.07,0,0.12,0,0.17,0.02v2.94c0,0.37,0.02,0.67,0.12,0.9
		c0.07,0.22,0.17,0.42,0.32,0.55c0.15,0.12,0.32,0.22,0.52,0.27c0.2,0.05,0.45,0.07,0.72,0.07c0.22,0,0.42,0,0.6-0.02
		c0.17-0.02,0.32-0.05,0.47-0.1v-4.61c0.05,0,0.1,0,0.17-0.02h0.17h0.17c0.07,0,0.12,0,0.17,0.02v5.05
		c-0.25,0.07-0.52,0.12-0.85,0.17c-0.3,0.05-0.62,0.07-0.95,0.07c-0.32,0-0.62-0.02-0.9-0.1c-0.27-0.05-0.52-0.17-0.72-0.35
		c-0.2-0.17-0.37-0.42-0.5-0.72c-0.12-0.3-0.17-0.7-0.17-1.19v-2.94H6.77z"/>
	<path fill="#575756" d="M12.5,36.8c0.15,0.05,0.35,0.12,0.57,0.15c0.25,0.05,0.47,0.07,0.67,0.07c0.4,0,0.72-0.1,0.97-0.27
		c0.25-0.17,0.35-0.4,0.35-0.67c0-0.17-0.02-0.32-0.1-0.45c-0.07-0.12-0.17-0.22-0.27-0.3c-0.12-0.07-0.25-0.15-0.4-0.2
		c-0.15-0.05-0.3-0.1-0.45-0.15c-0.17-0.05-0.35-0.12-0.5-0.17c-0.17-0.07-0.32-0.15-0.45-0.25c-0.12-0.1-0.22-0.22-0.3-0.37
		c-0.07-0.15-0.12-0.35-0.12-0.55c0-0.42,0.15-0.75,0.45-1.02c0.3-0.25,0.77-0.4,1.39-0.4c0.27,0,0.52,0.02,0.77,0.07
		c0.25,0.05,0.45,0.1,0.57,0.15c-0.02,0.2-0.07,0.4-0.15,0.57c-0.15-0.05-0.32-0.1-0.55-0.15c-0.22-0.05-0.45-0.07-0.7-0.07
		c-0.42,0-0.7,0.07-0.87,0.22c-0.17,0.15-0.25,0.35-0.25,0.57c0,0.12,0.02,0.25,0.07,0.32c0.05,0.1,0.12,0.17,0.22,0.22
		c0.1,0.07,0.2,0.12,0.35,0.17c0.12,0.05,0.25,0.1,0.4,0.12c0.17,0.05,0.37,0.12,0.55,0.2c0.2,0.07,0.35,0.17,0.5,0.27
		c0.15,0.1,0.27,0.27,0.37,0.45c0.1,0.17,0.15,0.4,0.15,0.67c0,0.25-0.05,0.47-0.15,0.67c-0.1,0.2-0.22,0.37-0.42,0.5
		c-0.17,0.15-0.4,0.25-0.62,0.32c-0.25,0.07-0.52,0.12-0.8,0.12c-0.32,0-0.62-0.02-0.87-0.05c-0.25-0.05-0.45-0.1-0.62-0.17
		C12.35,37.19,12.42,37,12.5,36.8"/>
	<path fill="#575756" d="M17.55,32.89H16.9c0-0.03,0-0.07-0.02-0.12v-0.15v-0.17c0-0.05,0-0.1,0.02-0.12h1.32v5.2
		c-0.05,0-0.1,0-0.17,0.02h-0.17H17.7c-0.07,0-0.12,0-0.17-0.02v-4.63H17.55z M17.2,31.05c0-0.05,0-0.12-0.02-0.22V30.6v-0.2
		c0-0.07,0-0.15,0.02-0.2c0.05,0,0.12,0,0.22-0.02h0.22h0.2c0.07,0,0.15,0,0.2,0.02c0,0.05,0,0.12,0.02,0.2v0.2v0.22
		c0,0.1,0,0.17-0.02,0.22c-0.05,0-0.12,0-0.2,0.02h-0.2h-0.22C17.35,31.05,17.28,31.05,17.2,31.05"/>
	<path fill="#575756" d="M19.97,32.32c0.05,0,0.1,0,0.15-0.02h0.15h0.15c0.05,0,0.1,0,0.15,0.02c0.02,0.12,0.02,0.27,0.02,0.45v0.47
		c0.07-0.12,0.15-0.25,0.27-0.37c0.1-0.12,0.22-0.25,0.37-0.35c0.15-0.1,0.32-0.17,0.5-0.25c0.2-0.07,0.4-0.1,0.62-0.1
		c0.6,0,1.02,0.17,1.29,0.52c0.27,0.35,0.4,0.85,0.4,1.49v3.29c-0.05,0-0.1,0-0.17,0.03H23.7h-0.17c-0.07,0-0.12,0-0.17-0.03v-3.09
		c0-0.57-0.1-1-0.27-1.24c-0.17-0.25-0.45-0.37-0.82-0.37c-0.25,0-0.47,0.05-0.67,0.15c-0.2,0.1-0.4,0.22-0.55,0.42
		c-0.15,0.17-0.27,0.4-0.37,0.67c-0.1,0.27-0.12,0.57-0.12,0.9v2.56c-0.05,0-0.1,0-0.17,0.02h-0.17h-0.17c-0.07,0-0.12,0-0.17-0.02
		v-5.15H19.97z"/>
	<path fill="#575756" d="M26.19,35.03c0,0.7,0.15,1.19,0.47,1.52c0.32,0.32,0.8,0.5,1.44,0.5c0.25,0,0.5-0.02,0.72-0.07
		c0.22-0.05,0.45-0.1,0.65-0.17c0.02,0.07,0.05,0.17,0.07,0.27c0.02,0.1,0.02,0.2,0.05,0.3c-0.2,0.1-0.42,0.15-0.7,0.2
		c-0.27,0.05-0.55,0.07-0.87,0.07c-0.45,0-0.82-0.07-1.15-0.2c-0.32-0.12-0.6-0.32-0.8-0.55c-0.2-0.25-0.35-0.52-0.45-0.85
		c-0.1-0.32-0.15-0.7-0.15-1.1c0-0.37,0.05-0.75,0.15-1.07c0.1-0.32,0.22-0.62,0.42-0.87c0.2-0.25,0.42-0.45,0.72-0.6
		c0.3-0.15,0.65-0.22,1.05-0.22c0.35,0,0.65,0.05,0.9,0.17c0.27,0.12,0.5,0.27,0.67,0.47c0.17,0.2,0.32,0.45,0.4,0.75
		c0.1,0.3,0.15,0.6,0.15,0.95v0.22c0,0.1,0,0.17-0.02,0.25h-3.73V35.03z M29.25,34.46c0-0.2-0.02-0.42-0.07-0.62
		c-0.05-0.2-0.15-0.37-0.25-0.52c-0.12-0.15-0.27-0.27-0.45-0.37c-0.17-0.1-0.4-0.15-0.67-0.15c-0.47,0-0.85,0.15-1.12,0.45
		c-0.27,0.3-0.42,0.7-0.47,1.24h3.04V34.46z"/>
	<path fill="#575756" d="M31.24,36.8c0.15,0.05,0.35,0.12,0.57,0.15c0.25,0.05,0.47,0.07,0.67,0.07c0.4,0,0.72-0.1,0.97-0.27
		c0.25-0.17,0.35-0.4,0.35-0.67c0-0.17-0.02-0.32-0.1-0.45c-0.07-0.12-0.17-0.22-0.27-0.3c-0.12-0.07-0.25-0.15-0.4-0.2
		c-0.15-0.05-0.3-0.1-0.45-0.15c-0.17-0.05-0.35-0.12-0.5-0.17c-0.17-0.07-0.32-0.15-0.45-0.25c-0.12-0.1-0.22-0.22-0.3-0.37
		c-0.07-0.15-0.12-0.35-0.12-0.55c0-0.42,0.15-0.75,0.45-1.02c0.3-0.25,0.77-0.4,1.39-0.4c0.27,0,0.52,0.02,0.77,0.07
		c0.25,0.05,0.45,0.1,0.57,0.15c-0.02,0.2-0.07,0.4-0.15,0.57c-0.15-0.05-0.32-0.1-0.55-0.15c-0.22-0.05-0.45-0.07-0.7-0.07
		c-0.42,0-0.7,0.07-0.87,0.22c-0.17,0.15-0.25,0.35-0.25,0.57c0,0.12,0.02,0.25,0.07,0.32c0.05,0.1,0.12,0.17,0.22,0.22
		c0.1,0.07,0.2,0.12,0.35,0.17c0.12,0.05,0.25,0.1,0.4,0.12c0.17,0.05,0.37,0.12,0.55,0.2c0.2,0.07,0.35,0.17,0.5,0.27
		c0.15,0.12,0.27,0.27,0.37,0.45c0.1,0.17,0.15,0.4,0.15,0.67c0,0.25-0.05,0.47-0.15,0.67c-0.1,0.2-0.22,0.37-0.42,0.5
		c-0.17,0.15-0.4,0.25-0.62,0.32c-0.25,0.07-0.52,0.12-0.8,0.12c-0.32,0-0.62-0.02-0.87-0.05c-0.25-0.05-0.45-0.1-0.62-0.17
		C31.07,37.19,31.15,37,31.24,36.8"/>
	<path fill="#575756" d="M35.5,36.8c0.15,0.05,0.35,0.12,0.57,0.15c0.25,0.05,0.47,0.07,0.67,0.07c0.4,0,0.72-0.1,0.97-0.27
		c0.25-0.17,0.35-0.4,0.35-0.67c0-0.17-0.02-0.32-0.1-0.45c-0.07-0.12-0.17-0.22-0.27-0.3c-0.12-0.07-0.25-0.15-0.4-0.2
		c-0.15-0.05-0.3-0.1-0.45-0.15c-0.17-0.05-0.35-0.12-0.5-0.17c-0.17-0.07-0.32-0.15-0.45-0.25c-0.12-0.1-0.22-0.22-0.3-0.37
		c-0.07-0.15-0.12-0.35-0.12-0.55c0-0.42,0.15-0.75,0.45-1.02c0.3-0.25,0.77-0.4,1.39-0.4c0.27,0,0.52,0.02,0.77,0.07
		c0.25,0.05,0.45,0.1,0.57,0.15c-0.02,0.2-0.07,0.4-0.15,0.57c-0.15-0.05-0.32-0.1-0.55-0.15c-0.22-0.05-0.45-0.07-0.7-0.07
		c-0.42,0-0.7,0.07-0.87,0.22c-0.17,0.15-0.25,0.35-0.25,0.57c0,0.12,0.02,0.25,0.07,0.32c0.05,0.1,0.12,0.17,0.22,0.22
		c0.1,0.07,0.2,0.12,0.35,0.17c0.12,0.05,0.25,0.1,0.4,0.12c0.17,0.05,0.37,0.12,0.55,0.2c0.2,0.07,0.35,0.17,0.5,0.27
		c0.15,0.12,0.27,0.27,0.37,0.45c0.1,0.17,0.15,0.4,0.15,0.67c0,0.25-0.05,0.47-0.15,0.67c-0.1,0.2-0.22,0.37-0.42,0.5
		c-0.17,0.15-0.4,0.25-0.62,0.32c-0.25,0.07-0.52,0.12-0.8,0.12c-0.32,0-0.62-0.02-0.87-0.05c-0.25-0.05-0.45-0.1-0.62-0.17
		C35.35,37.19,35.4,37,35.5,36.8"/>
	<path fill="#575756" d="M42.6,36.8c0.15,0.05,0.35,0.12,0.57,0.15c0.25,0.05,0.47,0.07,0.67,0.07c0.4,0,0.72-0.1,0.97-0.27
		c0.25-0.17,0.35-0.4,0.35-0.67c0-0.17-0.02-0.32-0.1-0.45c-0.07-0.12-0.17-0.22-0.27-0.3c-0.12-0.07-0.25-0.15-0.4-0.2
		c-0.15-0.05-0.3-0.1-0.45-0.15c-0.17-0.05-0.35-0.12-0.5-0.17c-0.17-0.07-0.32-0.15-0.45-0.25c-0.12-0.1-0.22-0.22-0.3-0.37
		c-0.07-0.15-0.12-0.35-0.12-0.55c0-0.42,0.15-0.75,0.45-1.02c0.3-0.25,0.77-0.4,1.39-0.4c0.27,0,0.52,0.02,0.77,0.07
		c0.25,0.05,0.45,0.1,0.57,0.15c-0.02,0.2-0.07,0.4-0.15,0.57c-0.15-0.05-0.32-0.1-0.55-0.15c-0.22-0.05-0.45-0.07-0.7-0.07
		c-0.42,0-0.7,0.07-0.87,0.22c-0.17,0.15-0.25,0.35-0.25,0.57c0,0.12,0.02,0.25,0.07,0.32c0.05,0.1,0.12,0.17,0.22,0.22
		c0.1,0.07,0.2,0.12,0.32,0.17c0.12,0.05,0.25,0.1,0.4,0.12c0.17,0.05,0.37,0.12,0.55,0.2c0.2,0.07,0.35,0.17,0.5,0.27
		c0.15,0.1,0.27,0.27,0.37,0.45s0.15,0.4,0.15,0.67c0,0.25-0.05,0.47-0.15,0.67s-0.22,0.37-0.42,0.5c-0.17,0.15-0.4,0.25-0.62,0.32
		c-0.25,0.07-0.52,0.12-0.8,0.12c-0.32,0-0.62-0.02-0.87-0.05c-0.25-0.05-0.45-0.1-0.62-0.17C42.45,37.19,42.5,37,42.6,36.8"/>
	<path fill="#575756" d="M50.76,36.87c0.02,0.07,0.07,0.15,0.1,0.27c0.02,0.12,0.05,0.2,0.07,0.27c-0.17,0.05-0.37,0.12-0.57,0.15
		c-0.22,0.05-0.45,0.05-0.72,0.05c-0.85,0-1.49-0.22-1.94-0.7c-0.45-0.47-0.67-1.15-0.67-2.02c0-0.4,0.05-0.75,0.17-1.07
		c0.1-0.32,0.27-0.62,0.47-0.87c0.2-0.25,0.47-0.45,0.8-0.57c0.32-0.15,0.67-0.2,1.1-0.2c0.25,0,0.5,0.03,0.75,0.05
		c0.22,0.02,0.42,0.07,0.55,0.12c0,0.1,0,0.2-0.02,0.3c-0.03,0.12-0.05,0.2-0.07,0.27c-0.12-0.05-0.3-0.1-0.52-0.12
		c-0.2-0.03-0.42-0.05-0.67-0.05c-0.3,0-0.57,0.05-0.8,0.15c-0.22,0.1-0.42,0.25-0.57,0.45c-0.15,0.2-0.27,0.42-0.35,0.67
		c-0.07,0.25-0.1,0.55-0.1,0.85c0,0.72,0.17,1.27,0.52,1.62c0.35,0.35,0.82,0.52,1.42,0.52c0.2,0,0.4-0.03,0.6-0.05
		C50.44,36.97,50.61,36.92,50.76,36.87"/>
	<path fill="#575756" d="M52.16,30.02c0.05,0,0.1,0,0.17-0.02h0.17h0.17c0.07,0,0.12,0,0.17,0.02v3.21
		c0.07-0.12,0.15-0.25,0.27-0.37c0.1-0.12,0.22-0.25,0.37-0.35c0.15-0.1,0.3-0.17,0.47-0.25c0.17-0.05,0.37-0.1,0.6-0.1
		c0.6,0,1.05,0.17,1.32,0.52c0.27,0.35,0.42,0.85,0.42,1.49v3.29c-0.05,0-0.1,0-0.17,0.02h-0.17h-0.17c-0.07,0-0.12,0-0.17-0.02
		v-3.09c0-0.57-0.1-1-0.27-1.24c-0.2-0.25-0.47-0.37-0.82-0.37c-0.25,0-0.45,0.05-0.67,0.12c-0.2,0.1-0.37,0.22-0.52,0.4
		c-0.15,0.17-0.27,0.4-0.35,0.65c-0.07,0.25-0.12,0.57-0.12,0.9v2.61c-0.05,0-0.1,0-0.17,0.02h-0.17h-0.17c-0.07,0-0.12,0-0.17-0.02
		V30.02z"/>
	<path fill="#575756" d="M60,37.64c-0.4,0-0.72-0.07-1.02-0.2c-0.3-0.15-0.52-0.32-0.72-0.57c-0.2-0.25-0.35-0.52-0.42-0.87
		c-0.1-0.32-0.15-0.7-0.15-1.07c0-0.37,0.05-0.75,0.15-1.07c0.1-0.32,0.25-0.62,0.42-0.87c0.2-0.25,0.45-0.45,0.72-0.57
		c0.3-0.15,0.62-0.2,1.02-0.2c0.4,0,0.72,0.07,1.02,0.2c0.3,0.15,0.52,0.32,0.72,0.57c0.2,0.25,0.35,0.52,0.45,0.87
		c0.1,0.32,0.15,0.7,0.15,1.07c0,0.37-0.05,0.75-0.15,1.07c-0.1,0.32-0.25,0.62-0.45,0.87c-0.2,0.25-0.42,0.45-0.72,0.57
		S60.37,37.64,60,37.64 M60,37.05c0.55,0,0.95-0.2,1.22-0.57c0.27-0.37,0.4-0.9,0.4-1.57c0-0.65-0.12-1.17-0.4-1.57
		c-0.27-0.37-0.67-0.57-1.22-0.57c-0.55,0-0.95,0.2-1.22,0.57c-0.27,0.37-0.4,0.9-0.4,1.57c0,0.65,0.12,1.17,0.4,1.57
		C59.05,36.85,59.45,37.05,60,37.05"/>
	<path fill="#575756" d="M65.8,37.64c-0.4,0-0.72-0.07-1.02-0.2c-0.3-0.15-0.52-0.32-0.72-0.57c-0.2-0.25-0.35-0.52-0.42-0.87
		c-0.1-0.32-0.15-0.7-0.15-1.07c0-0.37,0.05-0.75,0.15-1.07c0.1-0.32,0.25-0.62,0.42-0.87c0.2-0.25,0.45-0.45,0.72-0.57
		c0.3-0.15,0.62-0.2,1.02-0.2c0.4,0,0.72,0.07,1.02,0.2c0.3,0.15,0.52,0.32,0.72,0.57c0.2,0.25,0.35,0.52,0.45,0.87
		c0.1,0.32,0.15,0.7,0.15,1.07c0,0.37-0.05,0.75-0.15,1.07c-0.1,0.32-0.25,0.62-0.45,0.87c-0.2,0.25-0.42,0.45-0.72,0.57
		C66.52,37.57,66.2,37.64,65.8,37.64 M65.8,37.05c0.55,0,0.95-0.2,1.22-0.57c0.27-0.37,0.4-0.9,0.4-1.57c0-0.65-0.12-1.17-0.4-1.57
		c-0.27-0.37-0.67-0.57-1.22-0.57c-0.55,0-0.95,0.2-1.22,0.57c-0.27,0.37-0.4,0.9-0.4,1.57c0,0.65,0.12,1.17,0.4,1.57
		C64.85,36.85,65.25,37.05,65.8,37.05"/>
	<path fill="#575756" d="M69.61,30.02c0.05,0,0.1,0,0.17-0.02h0.17h0.17c0.07,0,0.12,0,0.17,0.02v6.27c0,0.17,0.02,0.32,0.05,0.42
		c0.05,0.1,0.1,0.17,0.15,0.22c0.05,0.05,0.12,0.07,0.2,0.07c0.07,0,0.15,0.03,0.2,0.03c0.07,0,0.15,0,0.22-0.03
		c0.07,0,0.15-0.02,0.2-0.02c0.02,0.07,0.05,0.17,0.07,0.27c0.03,0.1,0.03,0.17,0.03,0.27c-0.1,0.02-0.2,0.05-0.32,0.07
		c-0.12,0.03-0.22,0.03-0.32,0.03c-0.15,0-0.27-0.03-0.42-0.05c-0.15-0.02-0.27-0.1-0.37-0.17c-0.12-0.07-0.2-0.2-0.27-0.35
		c-0.07-0.15-0.1-0.35-0.1-0.57V30.02z"/>
	<path fill="#575756" d="M0.85,40.38c0.05,0,0.1,0,0.17-0.02H1.2h0.17c0.07,0,0.12,0,0.17,0.02v3.01c0.15-0.22,0.35-0.42,0.62-0.6
		c0.27-0.17,0.62-0.25,1.05-0.25c0.32,0,0.62,0.05,0.87,0.15c0.27,0.1,0.5,0.25,0.67,0.47c0.2,0.2,0.32,0.47,0.45,0.8
		c0.1,0.32,0.15,0.7,0.15,1.15c0,0.9-0.25,1.62-0.75,2.12C4.11,47.73,3.39,48,2.46,48c-0.3,0-0.6-0.02-0.9-0.07
		c-0.27-0.05-0.52-0.12-0.7-0.2v-7.34H0.85z M1.52,47.23c0.15,0.05,0.32,0.1,0.5,0.12c0.17,0.03,0.35,0.03,0.55,0.03
		c0.27,0,0.52-0.05,0.77-0.12c0.25-0.1,0.47-0.22,0.65-0.4c0.2-0.17,0.35-0.42,0.45-0.7c0.12-0.27,0.17-0.62,0.17-1.02
		c0-0.62-0.12-1.1-0.35-1.47c-0.22-0.35-0.62-0.52-1.15-0.52c-0.17,0-0.35,0.03-0.52,0.07c-0.2,0.05-0.37,0.15-0.52,0.27
		c-0.15,0.12-0.3,0.3-0.4,0.52c-0.1,0.22-0.15,0.47-0.15,0.82V47.23z"/>
	<path fill="#575756" d="M9.68,44.41c0-0.45-0.1-0.77-0.32-0.97c-0.2-0.2-0.52-0.3-0.95-0.3c-0.27,0-0.52,0.02-0.75,0.05
		c-0.22,0.05-0.42,0.07-0.6,0.15C7.05,43.29,7,43.19,7,43.07c-0.03-0.12-0.03-0.22-0.03-0.32c0.17-0.05,0.4-0.1,0.65-0.15
		c0.25-0.05,0.52-0.05,0.8-0.05c0.65,0,1.15,0.15,1.47,0.42c0.32,0.3,0.47,0.75,0.47,1.37v3.44c-0.25,0.05-0.52,0.1-0.87,0.15
		C9.14,47.98,8.81,48,8.51,48c-0.62,0-1.12-0.12-1.49-0.37c-0.37-0.25-0.55-0.65-0.55-1.22c0-0.27,0.05-0.52,0.15-0.72
		c0.1-0.22,0.25-0.4,0.45-0.55c0.2-0.15,0.4-0.25,0.67-0.32c0.25-0.07,0.55-0.12,0.87-0.12c0.25,0,0.45,0,0.62,0.03
		c0.17,0.02,0.32,0.02,0.45,0.05V44.41z M9.68,45.34c-0.12-0.02-0.25-0.02-0.42-0.05c-0.17-0.02-0.35-0.02-0.5-0.02
		c-0.5,0-0.9,0.1-1.17,0.27c-0.27,0.2-0.42,0.47-0.42,0.82c0,0.22,0.05,0.4,0.12,0.55c0.07,0.12,0.2,0.25,0.32,0.3
		c0.12,0.07,0.27,0.12,0.45,0.15c0.17,0.02,0.32,0.02,0.5,0.02c0.2,0,0.4,0,0.6-0.02c0.17-0.03,0.37-0.05,0.55-0.07v-1.94H9.68z"/>
	<path fill="#575756" d="M12.02,42.67c0.05,0,0.1,0,0.15-0.02h0.15h0.15c0.05,0,0.1,0,0.15,0.02c0.02,0.12,0.02,0.27,0.02,0.42v0.45
		c0.12-0.25,0.32-0.47,0.57-0.65c0.25-0.17,0.57-0.25,0.97-0.25h0.1h0.12c0.03,0.12,0.03,0.22,0.03,0.32c0,0.1,0,0.22-0.03,0.32
		h-0.12h-0.1c-0.47,0-0.82,0.15-1.12,0.45c-0.27,0.3-0.42,0.77-0.42,1.47v2.66c-0.05,0-0.1,0-0.17,0.02H12.3h-0.17
		c-0.07,0-0.12,0-0.17-0.02v-5.2H12.02z"/>
	<path fill="#575756" d="M18.85,47.2c0.02,0.07,0.07,0.15,0.1,0.27c0.02,0.12,0.05,0.2,0.07,0.27c-0.17,0.05-0.37,0.12-0.57,0.15
		c-0.22,0.05-0.45,0.05-0.72,0.05c-0.85,0-1.49-0.22-1.94-0.7c-0.45-0.47-0.67-1.15-0.67-2.02c0-0.4,0.05-0.75,0.17-1.07
		c0.1-0.32,0.27-0.62,0.47-0.87c0.2-0.25,0.47-0.45,0.8-0.57c0.32-0.15,0.67-0.2,1.1-0.2c0.25,0,0.5,0.03,0.75,0.05
		c0.22,0.02,0.42,0.07,0.55,0.12c0,0.1,0,0.2-0.02,0.3c-0.03,0.12-0.05,0.2-0.07,0.27c-0.12-0.05-0.3-0.1-0.52-0.12
		c-0.2-0.02-0.42-0.05-0.67-0.05c-0.3,0-0.57,0.05-0.8,0.15c-0.22,0.1-0.42,0.25-0.57,0.45c-0.15,0.2-0.27,0.42-0.35,0.67
		c-0.07,0.25-0.12,0.55-0.12,0.85c0,0.72,0.17,1.27,0.52,1.62c0.35,0.35,0.82,0.52,1.42,0.52c0.2,0,0.4-0.03,0.6-0.05
		C18.52,47.3,18.7,47.25,18.85,47.2"/>
	<path fill="#575756" d="M20.54,45.36c0,0.7,0.15,1.19,0.47,1.52c0.32,0.32,0.8,0.5,1.44,0.5c0.25,0,0.5-0.02,0.72-0.07
		c0.22-0.05,0.45-0.1,0.65-0.17c0.02,0.07,0.05,0.17,0.07,0.27c0.02,0.1,0.02,0.2,0.05,0.3c-0.2,0.1-0.42,0.15-0.7,0.2
		c-0.27,0.05-0.55,0.07-0.87,0.07c-0.45,0-0.82-0.07-1.15-0.2c-0.32-0.12-0.6-0.32-0.8-0.55c-0.2-0.25-0.35-0.52-0.45-0.85
		c-0.1-0.32-0.15-0.7-0.15-1.1c0-0.37,0.05-0.75,0.15-1.07c0.1-0.32,0.22-0.62,0.42-0.87c0.2-0.25,0.42-0.45,0.72-0.6
		c0.3-0.15,0.65-0.22,1.05-0.22c0.35,0,0.65,0.05,0.9,0.17c0.27,0.12,0.5,0.27,0.67,0.47c0.17,0.2,0.32,0.45,0.4,0.75
		c0.1,0.3,0.15,0.6,0.15,0.95v0.22c0,0.1,0,0.17-0.02,0.25h-3.73V45.36z M23.6,44.81c0-0.2-0.02-0.42-0.07-0.62
		c-0.05-0.2-0.15-0.37-0.25-0.52c-0.12-0.15-0.27-0.27-0.45-0.37c-0.17-0.1-0.4-0.15-0.67-0.15c-0.47,0-0.85,0.15-1.12,0.45
		c-0.27,0.3-0.42,0.7-0.47,1.24h3.04V44.81z"/>
	<path fill="#575756" d="M25.72,40.38c0.05,0,0.1,0,0.17-0.02h0.17h0.17c0.07,0,0.12,0,0.17,0.02v6.27c0,0.17,0.02,0.32,0.05,0.42
		c0.05,0.1,0.1,0.17,0.15,0.22c0.05,0.05,0.12,0.07,0.2,0.07c0.07,0,0.15,0.03,0.2,0.03c0.07,0,0.15,0,0.22-0.03
		c0.07,0,0.15-0.02,0.2-0.02c0.03,0.07,0.05,0.17,0.07,0.27c0.03,0.1,0.03,0.17,0.03,0.27c-0.1,0.02-0.2,0.05-0.32,0.07
		C27.09,48,26.99,48,26.89,48c-0.15,0-0.27-0.03-0.42-0.05c-0.15-0.02-0.27-0.1-0.37-0.17c-0.12-0.07-0.2-0.2-0.27-0.35
		c-0.07-0.15-0.1-0.35-0.1-0.57V40.38z"/>
	<path fill="#575756" d="M30.55,47.98c-0.4,0-0.72-0.07-1.02-0.2c-0.3-0.15-0.52-0.32-0.72-0.57c-0.2-0.25-0.35-0.52-0.42-0.87
		c-0.1-0.32-0.15-0.7-0.15-1.07c0-0.37,0.05-0.75,0.15-1.07c0.1-0.32,0.25-0.62,0.42-0.87c0.2-0.25,0.45-0.45,0.72-0.57
		c0.3-0.15,0.62-0.2,1.02-0.2c0.4,0,0.72,0.07,1.02,0.2c0.3,0.15,0.52,0.32,0.72,0.57c0.2,0.25,0.35,0.52,0.45,0.87
		c0.1,0.32,0.15,0.7,0.15,1.07c0,0.37-0.05,0.75-0.15,1.07c-0.1,0.32-0.25,0.62-0.45,0.87c-0.2,0.25-0.42,0.45-0.72,0.57
		S30.95,47.98,30.55,47.98 M30.55,47.38c0.55,0,0.95-0.2,1.22-0.57c0.27-0.37,0.4-0.9,0.4-1.57c0-0.65-0.12-1.17-0.4-1.57
		c-0.27-0.37-0.67-0.57-1.22-0.57c-0.55,0-0.95,0.2-1.22,0.57c-0.27,0.37-0.4,0.9-0.4,1.57c0,0.65,0.12,1.17,0.4,1.57
		C29.6,47.2,30,47.38,30.55,47.38"/>
	<path fill="#575756" d="M34.33,42.67c0.05,0,0.1,0,0.15-0.02h0.15h0.15c0.05,0,0.1,0,0.15,0.02c0.02,0.12,0.02,0.27,0.02,0.45v0.47
		c0.07-0.12,0.15-0.25,0.27-0.37c0.1-0.12,0.22-0.25,0.37-0.35c0.15-0.1,0.32-0.17,0.5-0.25c0.2-0.07,0.4-0.1,0.62-0.1
		c0.6,0,1.02,0.17,1.29,0.52c0.27,0.35,0.4,0.85,0.4,1.49v3.29c-0.05,0-0.1,0-0.17,0.02h-0.17h-0.17c-0.07,0-0.12,0-0.17-0.02v-3.09
		c0-0.57-0.1-1-0.27-1.24c-0.17-0.25-0.45-0.37-0.82-0.37c-0.25,0-0.47,0.05-0.67,0.15c-0.2,0.1-0.4,0.22-0.55,0.42
		c-0.15,0.17-0.27,0.4-0.37,0.67c-0.1,0.27-0.12,0.57-0.12,0.9v2.56c-0.05,0-0.1,0-0.17,0.02h-0.17h-0.17c-0.07,0-0.12,0-0.17-0.02
		v-5.15H34.33z"/>
	<path fill="#575756" d="M43,44.41c0-0.45-0.1-0.77-0.32-0.97c-0.2-0.2-0.52-0.3-0.95-0.3c-0.27,0-0.52,0.02-0.75,0.05
		c-0.22,0.05-0.42,0.07-0.6,0.15c-0.02-0.05-0.07-0.15-0.07-0.27c-0.02-0.12-0.02-0.22-0.02-0.32c0.17-0.05,0.4-0.1,0.65-0.15
		c0.25-0.05,0.52-0.05,0.8-0.05c0.65,0,1.15,0.15,1.47,0.42c0.32,0.3,0.47,0.75,0.47,1.37v3.44c-0.25,0.05-0.52,0.1-0.87,0.15
		C42.45,47.98,42.12,48,41.83,48c-0.62,0-1.12-0.12-1.49-0.37c-0.37-0.25-0.55-0.65-0.55-1.22c0-0.27,0.05-0.52,0.15-0.72
		c0.1-0.22,0.25-0.4,0.45-0.55c0.2-0.15,0.4-0.25,0.67-0.32c0.27-0.07,0.55-0.12,0.87-0.12c0.25,0,0.45,0,0.62,0.03
		c0.17,0.02,0.32,0.02,0.45,0.05V44.41z M43,45.34c-0.12-0.02-0.25-0.02-0.42-0.05c-0.17-0.02-0.35-0.02-0.5-0.02
		c-0.5,0-0.9,0.1-1.17,0.27c-0.27,0.2-0.42,0.47-0.42,0.82c0,0.22,0.05,0.4,0.12,0.55c0.07,0.12,0.2,0.25,0.32,0.3
		c0.12,0.07,0.27,0.12,0.45,0.15c0.17,0.02,0.32,0.02,0.5,0.02c0.2,0,0.4,0,0.6-0.02c0.17-0.03,0.37-0.05,0.55-0.07v-1.94H43z"/>
</g>
</svg>
