<?xml version="1.0" encoding="utf-8"?>
<!-- Generator: Adobe Illustrator 25.4.1, SVG Export Plug-In . SVG Version: 6.00 Build 0)  -->
<svg version="1.1" id="Capa_1" xmlns="http://www.w3.org/2000/svg" xmlns:xlink="http://www.w3.org/1999/xlink" x="0px" y="0px"
	 viewBox="0 0 66.26 48" enable-background="new 0 0 66.26 48" xml:space="preserve">
<g>
	<path fill="#435464" d="M28.09,44.24v-2.76c0-0.28-0.33-1.41-0.49-1.69c-0.7-1.24-3.18-1.18-4.45-1.07
		c-1.03,0.09-1.94,0.39-2.34,1.38c-0.53,1.33-0.57,5.17,0,6.48c0.65,1.5,2.86,1.48,4.27,1.38c1.56-0.11,2.78-0.54,2.88-2.31
		c-0.71,0.06-1.55-0.09-2.23,0.01c-0.94,0.14-1.33,0.66-2.51,0.19c-0.56-0.22-0.7-1.17-0.45-1.61H28.09z M22.58,42.31
		c0.25-0.84-0.04-1.39,1.02-1.61c1.29-0.27,2.5,0.07,2.31,1.61H22.58z"/>
	<path fill="#435464" d="M35.45,47.82c0.52-0.08,1.24-0.63,1.46-1.1c1.34-2.88-3.43-4.21-4.98-5.68h4.29c0.43,0-0.07-1.11-0.21-1.33
		c-0.22-0.33-0.81-0.78-1.2-0.85c-0.6-0.1-3.33-0.08-3.91,0.05c-1.92,0.44-1.8,3.31-0.16,4.15l4.01,2.59h-5.51
		c-0.18,0.9,0.74,2.04,1.61,2.17C31.62,47.94,34.68,47.94,35.45,47.82"/>
	<path fill="#435464" d="M42.69,39.04l-0.12,1.74c0.19,0.19,4.15-0.87,3.84,0.77c-2.32-0.23-6.07,2.15-4.57,4.76
		c0.79,1.37,2.79,1.76,4.24,1.65c0.41-0.03,0.91-0.26,1.29-0.26c0.41,0.01,0.78,0.33,1.21,0.26v-7.37c0-0.24-0.44-1.09-0.64-1.28
		C46.88,38.26,44.05,38.8,42.69,39.04 M46.41,46.03c-3.77,0.61-3.35-2.64,0-2.69V46.03z"/>
	<path fill="#435464" d="M9.14,39.12l-0.02,1.65c0.21,0.2,4.17-0.9,3.84,0.77c-3.54-0.44-7.4,4.48-2.73,6.13
		c1.67,0.59,2.32,0.01,3.69,0.03c0.41,0.01,0.78,0.33,1.21,0.26v-7.63c0-0.16-0.48-0.89-0.63-1.03
		C13.4,38.28,10.51,38.74,9.14,39.12 M12.97,46.03c-3.75,0.56-3.34-2.59,0-2.69V46.03z"/>
	<path fill="#435464" d="M53.65,38.72c-0.56,0.04-1.76,0.42-2.17,0.38c-0.33-0.03-0.85-0.57-1.35-0.38v9.1h2.18V40.9
		c0.62-0.01,3.2-0.73,3.2,0.32v6.6h2.18v-7.12c0-0.05-0.24-0.76-0.29-0.86C56.77,38.51,54.93,38.63,53.65,38.72"/>
	<path fill="#435464" d="M64.98,43.54l-3.71-2.51h3.97c0.08-0.98-0.74-2.06-1.73-2.18c-0.6-0.07-2.74-0.08-3.27,0.06
		c-1.03,0.27-1.57,1.65-1.32,2.61c0.45,1.72,3.75,2.83,4.91,4.13h-5c0,1.02,0.7,2.02,1.74,2.17c0.78,0.11,3.3,0.11,4.06-0.02
		C66.77,47.44,66.71,44.52,64.98,43.54"/>
	<path fill="#435464" d="M3.36,41.03h3.97c0.13-0.95-0.53-1.97-1.5-2.15c-0.59-0.11-2.68-0.11-3.27,0
		c-1.25,0.23-1.84,1.71-1.35,2.83c0.62,1.44,2.9,2.64,3.82,3.93h-5c-0.19,0.84,0.7,1.99,1.5,2.15c0.62,0.13,3.54,0.12,4.19,0.02
		c0.89-0.14,1.71-1.1,1.73-1.99C7.48,44.21,4.34,42.19,3.36,41.03"/>
	<path fill="#435464" d="M16.68,35.52v10.58c0,0.9,1.25,1.97,2.18,1.86V36.99C18.86,36.42,17.36,35.25,16.68,35.52"/>
	<path fill="#435464" d="M40.52,38.85h-2.18v7.63c0,0.56,1.52,1.73,2.18,1.47V38.85z"/>
	<rect x="38.34" y="35.52" fill="#435464" width="2.18" height="2.18"/>
	<path fill="#DB0614" d="M41.65,29.85h-17c-3.63,0-6.56-2.94-6.56-6.56V6.57c0-3.63,2.94-6.56,6.56-6.56h17
		c3.63,0,6.56,2.94,6.56,6.56v16.71C48.21,26.91,45.27,29.85,41.65,29.85z"/>
	<path fill="#FFFFFF" d="M40.39,28.61H25.9c-3.63,0-6.56-2.94-6.56-6.56V7.82c0-3.63,2.94-6.56,6.56-6.56h14.49
		c3.63,0,6.56,2.94,6.56,6.56v14.23C46.96,25.67,44.02,28.61,40.39,28.61z"/>
	<path fill="#DB0614" d="M48.21,2.24C48.1,0.97,47.45,0.05,46.1,0L20.11,0.04c-1.43,0.24-1.8,1.13-1.9,2.46
		c-0.59,8.04,0.45,16.77,0,24.88c0.09,0.97,0.33,1.99,1.32,2.4l26.69,0.1c1.23-0.05,2.02-1.04,1.99-2.24L48.21,2.24z M40.36,8.49
		c3.17-0.46,3.33,4.75-0.15,4.2C38.08,12.35,37.99,8.84,40.36,8.49 M32.67,2.34c3.41-0.7,3.47,4.31,0.49,4.21
		C30.71,6.47,30.42,2.8,32.67,2.34 M25.5,8.5c3.04-0.38,3.31,4.68-0.15,4.19C23.03,12.36,23.17,8.78,25.5,8.5 M43.66,21.67
		c-0.19,0-2.19-2.29-2.63-2.63c-0.13-0.1-0.16-0.25-0.39-0.19v8.85H37.7V15.71l-2.95-2.88V27.7h-3.07V12.83l-2.95,2.88V27.7h-2.95
		v-8.85c-0.22-0.06-0.26,0.09-0.39,0.19c-0.43,0.33-2.44,2.63-2.63,2.63l-2.11-2.11L33.17,7.07l12.6,12.49L43.66,21.67z"/>
</g>
</svg>
