<?xml version="1.0" encoding="utf-8"?>
<!-- Generator: Adobe Illustrator 25.4.1, SVG Export Plug-In . SVG Version: 6.00 Build 0)  -->
<svg version="1.1" id="Capa_1" xmlns="http://www.w3.org/2000/svg" xmlns:xlink="http://www.w3.org/1999/xlink" x="0px" y="0px"
	 viewBox="0 0 127.85 48" enable-background="new 0 0 127.85 48" xml:space="preserve">
<g>
	<path fill="#008539" d="M0,27.21h1.82v4.73c0,1.54,0.59,1.94,1.76,1.94s1.76-0.39,1.76-1.94v-4.73h1.81v4.98
		c0,2.07-1.19,3.17-3.57,3.17S0,34.28,0,32.19L0,27.21L0,27.21z"/>
	<path fill="#008539" d="M14.64,31.5v3.68h-1.77v-3.4c0-0.96-0.41-1.34-1.14-1.34c-0.95,0-1.47,0.6-1.47,2.02v2.72H8.48v-5.99h1.77
		v1.17c0.38-0.81,1.07-1.37,2.16-1.37C13.98,29,14.64,29.93,14.64,31.5"/>
	<path fill="#008539" d="M15.88,27.21h1.93v1.19h-1.93V27.21z M15.96,29.19h1.77v5.99h-1.77V29.19z"/>
	<polygon fill="#008539" points="25.22,29.19 23.14,35.18 20.65,35.18 18.56,29.19 20.37,29.19 21.95,33.8 23.53,29.19 	"/>
	<path fill="#008539" d="M30.08,33.37h1.7c-0.17,0.96-0.93,2-3.09,2c-2.34,0-3.22-1.51-3.22-3.2c0-1.69,1.01-3.17,3.22-3.17
		s3.1,1.47,3.1,3.16c0,0.18,0,0.35-0.02,0.48h-4.56c0.11,1.14,0.67,1.51,1.52,1.51C29.51,34.15,29.92,33.81,30.08,33.37
		 M27.22,31.56h2.89c-0.06-0.91-0.5-1.37-1.39-1.37C27.83,30.19,27.37,30.54,27.22,31.56"/>
	<path fill="#008539" d="M36.79,29.09v1.72H36.2c-1.19,0-1.59,0.65-1.59,2v2.36h-1.77v-5.99h1.72v1.28
		c0.29-0.85,0.83-1.38,1.83-1.38L36.79,29.09L36.79,29.09z"/>
	<path fill="#008539" d="M38.88,33.22c0.05,0.57,0.48,1.03,1.38,1.03c0.8,0,1.08-0.28,1.08-0.69c0-0.36-0.17-0.62-0.84-0.71
		l-1.34-0.17c-1.13-0.14-1.74-0.74-1.74-1.75c0-1.33,1.13-1.95,2.72-1.95s2.71,0.64,2.82,1.95h-1.64c-0.06-0.49-0.43-0.84-1.17-0.84
		s-1.08,0.29-1.08,0.67c0,0.3,0.16,0.54,0.76,0.61l1.26,0.14c1.42,0.18,1.96,0.79,1.96,1.86c0,1.17-0.74,1.99-2.8,1.99
		s-2.93-1.01-2.97-2.14L38.88,33.22L38.88,33.22z"/>
	<path fill="#008539" d="M44.07,27.21H46v1.19h-1.93V27.21z M44.15,29.19h1.77v5.99h-1.77V29.19z"/>
	<path fill="#008539" d="M47.83,33.02v-2.49h-1.09v-0.85l1.23-0.5l0.73-1.41h0.9v1.42h1.72v1.34H49.6v3.23h1.56v1.41h-1.13
		C48.33,35.18,47.83,34.45,47.83,33.02"/>
	<path fill="#008539" d="M52.09,33.58c0-0.96,0.42-1.58,1.96-1.84l1.41-0.24c0.55-0.1,0.74-0.25,0.74-0.6
		c0-0.42-0.24-0.69-1.04-0.69c-0.8,0-1.2,0.32-1.22,0.93h-1.74c0.05-1.28,1.1-2.16,2.92-2.16s2.71,0.78,2.71,2.05v2.59
		c0,0.56,0.04,1.04,0.09,1.56h-1.54c-0.06-0.39-0.1-0.79-0.1-1.28c-0.28,0.83-0.99,1.44-2.22,1.44S52.09,34.66,52.09,33.58
		 M56.21,32.32v-0.26c-0.31,0.22-0.61,0.3-0.98,0.38l-0.5,0.12c-0.64,0.16-0.89,0.38-0.89,0.84c0,0.48,0.36,0.72,0.84,0.72
		C55.61,34.12,56.21,33.44,56.21,32.32"/>
	<path fill="#008539" d="M59.66,33.02v-2.49h-1.09v-0.85l1.23-0.5l0.73-1.41h0.9v1.42h1.72v1.34h-1.72v3.23h1.56v1.41h-1.13
		C60.16,35.18,59.66,34.45,59.66,33.02"/>
	<path fill="#008539" d="M72.95,33.55h-3.57l-0.57,1.63h-1.83l2.8-7.97h2.78l2.8,7.97h-1.83L72.95,33.55z M72.46,32.15l-1.29-3.68
		l-1.29,3.68H72.46L72.46,32.15z"/>
	<path fill="#008539" d="M82.2,29.19v5.99h-1.77v-1.15c-0.37,0.8-1.04,1.34-2.12,1.34c-1.57,0-2.26-0.95-2.26-2.52v-3.67h1.77v3.4
		c0,0.95,0.42,1.33,1.17,1.33c0.89,0,1.44-0.66,1.44-2.01v-2.72L82.2,29.19L82.2,29.19z"/>
	<path fill="#008539" d="M84.11,33.02v-2.49h-1.09v-0.85l1.23-0.5l0.73-1.41h0.9v1.42h1.72v1.34h-1.72v3.23h1.56v1.41h-1.13
		C84.62,35.18,84.11,34.45,84.11,33.02"/>
	<path fill="#008539" d="M88.17,32.17c0-1.65,0.93-3.17,3.32-3.17c2.38,0,3.32,1.53,3.32,3.17s-0.92,3.2-3.32,3.2
		C89.1,35.37,88.17,33.85,88.17,32.17 M90.16,27.01l3.03,1.04l-0.14,0.47l-3.23-0.38L90.16,27.01z M91.49,33.98
		c1.09,0,1.54-0.47,1.54-1.8c0-1.33-0.46-1.8-1.54-1.8s-1.53,0.47-1.53,1.8C89.96,33.51,90.41,33.98,91.49,33.98"/>
	<path fill="#008539" d="M102.03,31.5v3.68h-1.77v-3.4c0-0.96-0.41-1.34-1.14-1.34c-0.95,0-1.47,0.6-1.47,2.02v2.72h-1.77v-5.99
		h1.77v1.17C98.03,29.55,98.71,29,99.8,29C101.37,29,102.03,29.93,102.03,31.5"/>
	<path fill="#008539" d="M103.01,32.17c0-1.65,0.93-3.17,3.32-3.17s3.32,1.53,3.32,3.17s-0.92,3.2-3.32,3.2
		C103.94,35.37,103.01,33.85,103.01,32.17 M106.33,33.98c1.09,0,1.54-0.47,1.54-1.8c0-1.33-0.46-1.8-1.54-1.8s-1.53,0.47-1.53,1.8
		C104.8,33.51,105.25,33.98,106.33,33.98"/>
	<path fill="#008539" d="M120.86,31.5v3.68h-1.77v-3.43c0-0.9-0.36-1.32-1.08-1.32c-0.9,0-1.35,0.6-1.35,2.02v2.72h-1.74v-3.43
		c0-0.9-0.36-1.32-1.08-1.32c-0.9,0-1.35,0.6-1.35,2.02v2.72h-1.77v-5.99h1.77v1.09c0.36-0.77,1.01-1.28,2.05-1.28
		c1.04,0,1.71,0.5,1.98,1.39c0.36-0.83,1.02-1.39,2.14-1.39C120.17,29,120.86,29.93,120.86,31.5"/>
	<path fill="#008539" d="M122.01,33.58c0-0.96,0.42-1.58,1.96-1.84l1.41-0.24c0.55-0.1,0.74-0.25,0.74-0.6
		c0-0.42-0.24-0.69-1.04-0.69s-1.2,0.32-1.22,0.93h-1.74c0.05-1.28,1.1-2.16,2.92-2.16s2.71,0.78,2.71,2.05v2.59
		c0,0.56,0.04,1.04,0.1,1.56h-1.55c-0.06-0.39-0.1-0.79-0.1-1.28c-0.28,0.83-0.99,1.44-2.22,1.44
		C122.77,35.33,122,34.66,122.01,33.58 M126.12,32.32v-0.26c-0.31,0.22-0.61,0.3-0.98,0.38l-0.5,0.12
		c-0.64,0.16-0.89,0.38-0.89,0.84c0,0.48,0.36,0.72,0.84,0.72C125.53,34.12,126.13,33.44,126.12,32.32"/>
	<path fill="#008539" d="M32.5,39.43v8.38h-1.77v-0.89C30.31,47.61,29.62,48,28.59,48c-1.95,0-2.75-1.46-2.75-3.2
		c0-1.74,0.8-3.17,2.75-3.17c1.03,0,1.72,0.41,2.14,1.09v-3.29L32.5,39.43L32.5,39.43z M30.73,44.81c0-1.22-0.48-1.8-1.59-1.8
		s-1.53,0.55-1.53,1.8s0.41,1.8,1.53,1.8S30.73,46.04,30.73,44.81"/>
	<path fill="#008539" d="M38.1,46h1.7c-0.17,0.96-0.93,2-3.09,2c-2.34,0-3.22-1.51-3.22-3.2s1.01-3.17,3.22-3.17
		c2.22,0,3.1,1.47,3.1,3.16c0,0.18,0,0.35-0.02,0.48h-4.56c0.11,1.14,0.67,1.51,1.52,1.51C37.52,46.78,37.93,46.44,38.1,46
		 M35.23,44.19h2.89c-0.06-0.91-0.5-1.37-1.39-1.37C35.85,42.82,35.38,43.17,35.23,44.19"/>
	<path fill="#008539" d="M50.74,45.64c0,1.34-0.87,2.17-2.57,2.17h-4.36v-7.97h4.44c1.7,0,2.38,0.89,2.38,1.96
		c0,1.17-0.73,1.7-1.64,1.89C49.99,43.85,50.74,44.37,50.74,45.64 M45.63,41.22v1.9h2.02c0.79,0,1.08-0.38,1.08-0.96
		c0-0.61-0.26-0.95-1.02-0.95H45.63L45.63,41.22z M48.85,45.39c0-0.64-0.32-1.04-1.2-1.04h-2.02v2.07h2.13
		C48.57,46.42,48.85,45.98,48.85,45.39"/>
	<path fill="#008539" d="M51.81,46.22c0-0.96,0.42-1.58,1.96-1.84l1.41-0.24c0.55-0.1,0.74-0.25,0.74-0.6
		c0-0.42-0.24-0.69-1.04-0.69s-1.2,0.32-1.22,0.93h-1.74c0.05-1.28,1.1-2.16,2.92-2.16s2.71,0.78,2.71,2.05v2.59
		c0,0.56,0.04,1.04,0.1,1.56H56.1c-0.06-0.39-0.09-0.79-0.09-1.28c-0.28,0.83-0.99,1.44-2.22,1.44S51.81,47.29,51.81,46.22
		 M55.93,44.96v-0.26c-0.31,0.22-0.61,0.3-0.98,0.38l-0.5,0.12c-0.64,0.16-0.89,0.38-0.89,0.84c0,0.48,0.36,0.72,0.84,0.72
		C55.33,46.75,55.93,46.07,55.93,44.96"/>
	<path fill="#008539" d="M63.05,41.72v1.72h-0.59c-1.19,0-1.59,0.65-1.59,2v2.36H59.1v-5.99h1.72v1.28
		c0.29-0.85,0.83-1.38,1.83-1.38L63.05,41.72L63.05,41.72z"/>
	<path fill="#008539" d="M66.85,41.63c2.07,0,3.09,1.15,3.14,2.62h-1.72c-0.06-0.74-0.47-1.23-1.38-1.23c-0.96,0-1.53,0.46-1.53,1.8
		s0.55,1.8,1.51,1.8c0.96,0,1.37-0.55,1.44-1.27h1.72c-0.04,1.4-1.03,2.66-3.14,2.66c-2.34,0-3.32-1.51-3.32-3.19
		S64.52,41.63,66.85,41.63"/>
	<path fill="#008539" d="M75.39,46h1.7c-0.17,0.96-0.93,2-3.09,2c-2.34,0-3.22-1.51-3.22-3.2s1.01-3.17,3.22-3.17s3.1,1.47,3.1,3.16
		c0,0.18,0,0.35-0.02,0.48h-4.56c0.11,1.14,0.67,1.51,1.52,1.51C74.81,46.78,75.22,46.44,75.39,46 M72.53,44.19h2.89
		c-0.06-0.91-0.5-1.37-1.39-1.37S72.67,43.17,72.53,44.19"/>
	<rect x="78.12" y="39.43" fill="#008539" width="1.77" height="8.38"/>
	<path fill="#008539" d="M80.95,44.8c0-1.65,0.93-3.17,3.32-3.17s3.32,1.53,3.32,3.17c0,1.64-0.92,3.2-3.32,3.2
		S80.95,46.48,80.95,44.8 M84.27,46.61c1.09,0,1.54-0.47,1.54-1.8c0-1.33-0.46-1.8-1.54-1.8s-1.53,0.47-1.53,1.8
		C82.74,46.14,83.19,46.61,84.27,46.61"/>
	<path fill="#008539" d="M94.81,44.13v3.68h-1.77v-3.4c0-0.96-0.41-1.34-1.14-1.34c-0.95,0-1.47,0.6-1.47,2.02v2.72h-1.77v-5.99
		h1.77v1.17c0.38-0.81,1.07-1.37,2.16-1.37C94.15,41.63,94.81,42.56,94.81,44.13"/>
	<path fill="#008539" d="M95.96,46.22c0-0.96,0.42-1.58,1.96-1.84l1.41-0.24c0.55-0.1,0.74-0.25,0.74-0.6
		c0-0.42-0.24-0.69-1.04-0.69s-1.2,0.32-1.22,0.93h-1.74c0.05-1.28,1.1-2.16,2.92-2.16s2.71,0.78,2.71,2.05v2.59
		c0,0.56,0.04,1.04,0.1,1.56h-1.55c-0.06-0.39-0.1-0.79-0.1-1.28c-0.28,0.83-0.99,1.44-2.22,1.44
		C96.72,47.96,95.96,47.29,95.96,46.22 M100.08,44.96v-0.26c-0.31,0.22-0.61,0.3-0.98,0.38l-0.5,0.12
		c-0.64,0.16-0.89,0.38-0.89,0.84c0,0.48,0.36,0.72,0.84,0.72C99.48,46.75,100.08,46.07,100.08,44.96"/>
	<path fill="#008539" d="M32.57,0.01h4.71v12.23c0,4,1.52,5.02,4.55,5.02c3.03,0,4.55-1.02,4.55-5.02V0.01h4.68v12.88
		c0,5.36-3.07,8.21-9.23,8.21s-9.26-2.82-9.26-8.21V0.01L32.57,0.01z"/>
	<path fill="#008539" d="M95.28,14.99c0,3.47-2.26,5.61-6.66,5.61H77.35V0.01h11.49c4.4,0,6.16,2.29,6.16,5.08
		c0,3.04-1.89,4.4-4.24,4.89C93.33,10.38,95.28,11.71,95.28,14.99 M82.05,3.57v4.92h5.23c2.04,0,2.79-0.99,2.79-2.48
		c0-1.58-0.68-2.45-2.63-2.45L82.05,3.57L82.05,3.57z M90.38,14.35c0-1.64-0.84-2.69-3.1-2.69h-5.23v5.36h5.51
		C89.67,17.01,90.38,15.86,90.38,14.35"/>
	<path fill-rule="evenodd" clip-rule="evenodd" fill="#008539" d="M67.33,0H60.7l-8.2,20.6h4.63c0.07-0.18,0.16-0.43,0.23-0.59
		c0.38-0.91,0.95-1.66,1.64-2.32c1.14-1.08,2.54-1.53,3.98-1.65c0.98-0.08,2.12-0.1,3.11-0.1h3.03l1.79,4.66h4.63L67.33,0z
		 M65.71,12.33c-0.12,0-0.24,0-0.35,0c-2.44,0.02-4.45,0.6-6.38,3.42l5.03-12.5l3.65,9.07C67.61,12.33,65.71,12.33,65.71,12.33"/>
</g>
</svg>
