     <svg
   width="60mm"
   height="auto"
   viewBox="0 0 248.62895 45.614166"
   version="1.1"
   id="svg1"
   xmlns="http://www.w3.org/2000/svg"
   xmlns:svg="http://www.w3.org/2000/svg">
  <defs
     id="defs1" />
  <g
     id="layer1"
     transform="translate(-1.3229166,-57.149999)">
    <g
       id="g15"
       transform="matrix(0.26458333,0,0,0.26458333,-6.6675,13.81125)">
	<g
   id="g2">
		<path
   class="st0"
   d="M 68.7,336.2 H 30.2 v -86 c 0,-23.7 8.6,-44.2 25.6,-61.1 15.4,-15.2 33.9,-23.7 54.9,-25.2 l 1.3,-0.1 v 36.8 l -1,0.1 c -10.8,1.5 -20.5,6.4 -28,14.3 -9.3,9.7 -14,21.6 -14,35.1 z"
   id="path1"
   style="fill:#0077b3" />

		<path
   class="st0"
   d="M 117.5,336.2 H 86.1 v -36.6 h 31.3 c 13.5,0 25,-4.9 34.4,-14.5 9.5,-9.7 14.2,-21.5 14.2,-34.9 0,-13.4 -4.7,-25.4 -14,-35.1 -6.8,-7.2 -13.9,-11.4 -22.2,-13.3 l -0.9,-0.2 v -37.2 l 1.3,0.2 c 18.6,2.5 34.6,10.5 48.9,24.6 17.3,17.1 25.8,37 25.8,61.1 0,24.1 -8.4,44.1 -25.7,61 -17,16.5 -37.8,24.9 -61.7,24.9 z"
   id="path2"
   style="fill:#0077b3" />

	</g>

	<g
   id="g14">
		<path
   class="st1"
   d="m 605.8,304.5 v -8.7 c -3,3.9 -6.1,6.5 -9.4,7.7 -3.3,1.2 -6.8,1.8 -10.6,1.8 -3.5,0 -6.7,-0.5 -9.6,-1.6 -2.8,-1.1 -5.1,-2.5 -6.9,-4.3 -3.5,-3.5 -5.8,-7.8 -6.9,-12.9 -1.2,-5.2 -1.8,-10.4 -1.8,-15.7 0,-5.3 0.6,-10.6 1.8,-15.7 1.2,-5.2 3.5,-9.5 6.9,-12.9 1.8,-1.8 4.1,-3.2 6.9,-4.3 2.8,-1.1 6,-1.6 9.6,-1.6 3.8,0 7.4,0.6 10.6,1.8 3.3,1.2 6.4,3.8 9.4,7.7 V 205 h 7.1 v 99.5 z m 0,-33.7 c 0,-3.5 -0.2,-6.9 -0.6,-10.3 -0.4,-3.4 -1.3,-6.4 -2.7,-9.1 -1.3,-2.7 -3.3,-4.8 -5.8,-6.4 -2.5,-1.6 -5.8,-2.5 -9.9,-2.5 -4.1,0 -7.4,0.8 -9.9,2.5 -2.5,1.6 -4.5,3.8 -5.8,6.4 -1.3,2.7 -2.2,5.7 -2.7,9.1 -0.4,3.4 -0.6,6.8 -0.6,10.3 0,3.5 0.2,7 0.6,10.3 0.4,3.4 1.3,6.4 2.7,9 1.3,2.7 3.3,4.8 5.8,6.4 2.5,1.6 5.8,2.5 9.9,2.5 4.1,0 7.4,-0.8 9.9,-2.5 2.5,-1.6 4.5,-3.8 5.8,-6.4 1.3,-2.7 2.2,-5.7 2.7,-9 0.5,-3.3 0.6,-6.8 0.6,-10.3 z"
   id="path3"
   style="fill:#1d1d1b" />

		<path
   class="st1"
   d="M 632.1,213.8 V 205 h 8.8 v 8.8 z m 0.8,90.7 v -67.4 h 7.1 v 67.4 z"
   id="path4"
   style="fill:#1d1d1b" />

		<path
   class="st1"
   d="m 710.2,285.4 c 0,6.2 -2.5,11 -7.3,14.6 -4.9,3.6 -11.5,5.4 -19.8,5.4 -5.9,0 -11,-0.8 -15.4,-2.4 -4.4,-1.6 -8.4,-4 -11.8,-7.3 l 4.9,-4.9 c 5.2,5.5 12.6,8.3 22.1,8.3 6.6,0 11.6,-1.1 15.1,-3.4 3.5,-2.3 5.2,-5.7 5.2,-10.3 0,-3.5 -1,-6.2 -3.1,-8 -2,-1.8 -5.3,-2.9 -9.8,-3.4 l -11.2,-1 c -13.5,-1.1 -20.3,-7 -20.3,-17.6 0,-5.9 2.2,-10.5 6.6,-14 4.4,-3.5 10.3,-5.2 17.7,-5.2 4.7,0 9,0.7 13.1,1.9 4,1.3 7.6,3.1 10.6,5.3 l -4.8,4.8 c -5.2,-3.8 -11.5,-5.7 -18.9,-5.7 -5.6,0 -9.8,1.1 -12.8,3.3 -3,2.2 -4.4,5.4 -4.4,9.6 0,3.5 1.1,6.2 3.3,7.9 2.2,1.8 5.7,2.9 10.4,3.3 l 10.9,1 c 2.8,0.3 5.4,0.7 7.8,1.3 2.4,0.6 4.5,1.6 6.2,2.9 1.7,1.3 3.1,3.1 4.1,5.3 1.1,2.3 1.6,5 1.6,8.3 z"
   id="path5"
   style="fill:#1d1d1b" />

		<path
   class="st1"
   d="m 771.7,285.4 c 0,6.2 -2.5,11 -7.3,14.6 -4.9,3.6 -11.5,5.4 -19.8,5.4 -5.9,0 -11,-0.8 -15.4,-2.4 -4.4,-1.6 -8.4,-4 -11.8,-7.3 l 4.9,-4.9 c 5.2,5.5 12.6,8.3 22.1,8.3 6.6,0 11.6,-1.1 15.1,-3.4 3.5,-2.3 5.2,-5.7 5.2,-10.3 0,-3.5 -1,-6.2 -3.1,-8 -2,-1.8 -5.3,-2.9 -9.8,-3.4 l -11.2,-1 c -13.5,-1.1 -20.3,-7 -20.3,-17.6 0,-5.9 2.2,-10.5 6.6,-14 4.4,-3.5 10.3,-5.2 17.7,-5.2 4.7,0 9,0.7 13.1,1.9 4,1.3 7.6,3.1 10.6,5.3 l -4.8,4.8 c -5.2,-3.8 -11.5,-5.7 -18.9,-5.7 -5.6,0 -9.8,1.1 -12.8,3.3 -3,2.2 -4.4,5.4 -4.4,9.6 0,3.5 1.1,6.2 3.3,7.9 2.2,1.8 5.7,2.9 10.4,3.3 l 10.9,1 c 2.8,0.3 5.4,0.7 7.8,1.3 2.4,0.6 4.5,1.6 6.2,2.9 1.7,1.3 3.1,3.1 4.1,5.3 1,2.2 1.6,5 1.6,8.3 z"
   id="path6"
   style="fill:#1d1d1b" />

		<path
   class="st1"
   d="m 791.4,272.3 c 0,8.6 1.9,15.2 5.6,19.8 3.7,4.6 9.2,6.9 16.3,6.9 4,0 7.4,-0.6 10.1,-1.9 2.7,-1.3 5.6,-3.3 8.5,-6.2 l 5.3,4.2 c -1.7,1.7 -3.4,3.2 -5.1,4.5 -1.7,1.3 -3.5,2.4 -5.5,3.2 -2,0.8 -4,1.5 -6.2,1.9 -2.2,0.4 -4.8,0.6 -7.5,0.6 -9.3,0 -16.4,-2.9 -21.3,-8.8 -4.9,-5.9 -7.3,-14.4 -7.3,-25.7 0,-11.3 2.4,-19.4 7.1,-25.4 4.8,-6 11.4,-9.1 19.8,-9.1 8.5,0 15.1,2.9 19.8,8.7 4.8,5.8 7.1,13.8 7.1,24.2 v 3.2 z m 39.5,-9.8 c -0.1,-1.2 -0.2,-2.2 -0.4,-3.1 -0.2,-0.9 -0.4,-1.8 -0.7,-2.7 -0.3,-0.9 -0.6,-1.8 -1,-2.9 -1.5,-3.5 -3.8,-6.3 -6.9,-8.3 -3.1,-2 -6.6,-3 -10.6,-3 -3.9,0 -7.4,1 -10.6,3 -3.1,2 -5.4,4.8 -6.9,8.3 -0.5,1 -0.8,2 -1,2.9 -0.2,0.9 -0.4,1.8 -0.6,2.7 -0.2,0.9 -0.3,1.9 -0.4,3.1 -0.1,1.2 -0.2,2.5 -0.3,4.1 h 39.7 c -0.2,-1.6 -0.3,-2.9 -0.3,-4.1 z"
   id="path7"
   style="fill:#1d1d1b" />

		<path
   class="st1"
   d="m 896.6,304.5 v -41.8 c 0,-6.5 -1.6,-11.5 -4.8,-15 -3.2,-3.5 -7.8,-5.2 -13.8,-5.2 -6,0 -10.7,1.7 -14.1,5.2 -3.4,3.5 -5,8.5 -5,14.9 v 41.8 h -7.1 V 237 h 7.1 v 8 c 5,-5.9 11.6,-8.8 19.8,-8.8 7.5,0 13.4,2.1 17.9,6.4 4.7,4.5 7,10.7 7,18.7 v 43.1 h -7 z"
   id="path8"
   style="fill:#1d1d1b" />

		<path
   class="st1"
   d="m 938.5,322.8 c -1.3,3.6 -2.8,6.3 -4.6,7.8 -1.7,1.6 -3.7,2.7 -5.9,3.4 -2.3,0.7 -4.5,1 -6.8,1 h -3.4 v -6.3 h 2.7 c 2,0 3.6,-0.2 4.8,-0.5 1.3,-0.3 2.3,-0.9 3.3,-1.6 0.9,-0.7 1.7,-1.7 2.3,-2.9 0.6,-1.2 1.2,-2.6 1.9,-4.3 l 5.5,-15 -24.6,-67.4 h 7.8 l 20.3,59 20.3,-59 h 7.8 z"
   id="path9"
   style="fill:#1d1d1b" />

		<path
   class="st1"
   d="m 323.5,273.1 c 0,6.2 1.5,11.1 4.6,14.6 3.1,3.6 7.5,5.3 13.4,5.3 4,0 7.2,-0.6 9.7,-1.7 2.5,-1.2 4.9,-3 7.5,-5.5 l 9.1,8.5 c -1.9,1.8 -3.7,3.4 -5.5,4.8 -1.8,1.3 -3.8,2.5 -5.9,3.4 -2.1,0.9 -4.4,1.6 -6.8,2.1 -2.5,0.4 -5.2,0.7 -8.3,0.7 -4.5,0 -8.6,-0.6 -12.5,-1.9 -3.9,-1.2 -7.2,-3.3 -10.1,-6.2 -2.9,-2.8 -5.1,-6.6 -6.8,-11.2 -1.7,-4.7 -2.5,-10.3 -2.5,-17 0,-11.5 2.7,-20.5 8.2,-26.7 5.5,-6.3 12.8,-9.4 21.9,-9.4 4.7,0 9,0.8 12.7,2.5 3.7,1.7 6.9,4 9.4,7 2.5,3 4.5,6.6 5.9,10.7 1.3,4.2 2,8.8 2,13.8 v 6.3 z m 31.3,-15.2 c -0.2,-1.3 -0.7,-2.8 -1.5,-4.4 -1.1,-2.7 -2.9,-4.9 -5.3,-6.5 -2.4,-1.6 -5.3,-2.4 -8.7,-2.4 -3.4,0 -6.3,0.8 -8.7,2.4 -2.5,1.6 -4.3,3.8 -5.4,6.5 -0.7,1.6 -1.2,3 -1.4,4.4 -0.2,1.4 -0.3,3.1 -0.4,5.2 h 31.8 c 0,-2.1 -0.1,-3.8 -0.4,-5.2 z"
   id="path10"
   style="fill:#1d1d1b" />

		<path
   class="st1"
   d="m 436.7,268.9 c 0,2.7 -0.1,5.4 -0.2,8.2 -0.1,2.8 -0.5,5.5 -1,8.2 -0.5,2.7 -1.4,5.1 -2.5,7.5 -1.1,2.3 -2.5,4.4 -4.3,6.2 -2,2 -4.4,3.5 -7.4,4.6 -3,1.1 -6.2,1.7 -9.8,1.7 -3.8,0 -7.2,-0.6 -10.2,-1.7 -3,-1.2 -5.8,-3.3 -8.4,-6.4 V 333 h -14.2 v -99.4 h 14 v 7.5 c 2.7,-3.2 5.5,-5.5 8.4,-6.6 2.9,-1.2 6.4,-1.7 10.3,-1.7 3.5,0 6.8,0.6 9.8,1.7 3,1.1 5.5,2.7 7.5,4.6 1.8,1.8 3.2,3.8 4.3,6.2 1.1,2.3 1.9,4.8 2.5,7.4 0.6,2.6 0.9,5.3 1,8.1 0.1,2.7 0.2,5.4 0.2,8.1 z m -14.2,0 c 0,-3.2 -0.2,-6.2 -0.5,-9 -0.3,-2.8 -1,-5.3 -2,-7.5 -1,-2.1 -2.5,-3.8 -4.5,-5.1 -2,-1.3 -4.5,-1.9 -7.7,-1.9 -3.2,0 -5.8,0.6 -7.7,1.9 -1.9,1.2 -3.4,3 -4.5,5.1 -1.1,2.1 -1.8,4.6 -2.1,7.5 -0.3,2.8 -0.5,5.8 -0.5,9 0,3.2 0.2,6.2 0.5,9 0.3,2.8 1,5.4 2.1,7.5 1.1,2.1 2.6,3.9 4.5,5.2 1.9,1.2 4.5,1.9 7.7,1.9 3.2,0 5.7,-0.6 7.7,-1.9 2,-1.3 3.4,-3 4.5,-5.2 1,-2.2 1.7,-4.7 2,-7.5 0.3,-2.8 0.5,-5.8 0.5,-9 z"
   id="path11"
   style="fill:#1d1d1b" />

		<path
   class="st1"
   d="m 548.1,268.9 c 0,6 -0.6,11.3 -1.7,15.8 -1.1,4.5 -3.4,8.5 -6.7,12.1 -2.3,2.4 -5.2,4.4 -8.7,6 -3.5,1.6 -7.7,2.4 -12.5,2.4 -4.8,0 -9,-0.8 -12.4,-2.4 -3.5,-1.6 -6.3,-3.6 -8.6,-6 -3.4,-3.5 -5.6,-7.6 -6.7,-12.1 -1.1,-4.5 -1.7,-9.8 -1.7,-15.8 0,-6 0.6,-11.2 1.7,-15.7 1.1,-4.5 3.4,-8.5 6.7,-12.1 2.3,-2.4 5.2,-4.4 8.6,-6 3.4,-1.6 7.6,-2.4 12.4,-2.4 4.8,0 9,0.8 12.5,2.4 3.5,1.6 6.4,3.6 8.7,6 3.4,3.5 5.6,7.6 6.7,12.1 1.1,4.5 1.7,9.7 1.7,15.7 z m -14.3,0 c 0,-3.9 -0.3,-7.6 -0.8,-11 -0.6,-3.4 -1.9,-6.2 -4,-8.4 -2.7,-2.7 -6.2,-4 -10.5,-4 -4.3,0 -7.6,1.3 -10.3,4 -2.1,2.1 -3.5,4.9 -4,8.4 -0.6,3.4 -0.8,7.1 -0.8,11 0,3.9 0.3,7.6 0.8,11 0.5,3.4 1.9,6.2 4,8.4 2.8,2.8 6.2,4.2 10.3,4.2 4.1,0 7.7,-1.4 10.5,-4.2 2.1,-2.1 3.5,-4.9 4,-8.4 0.5,-3.4 0.8,-7.1 0.8,-11 z"
   id="path12"
   style="fill:#1d1d1b" />

		<path
   class="st2"
   d="m 482.4,247.6 c -4.6,0.2 -11.1,3.1 -14.3,6.5 -3.4,3.6 -5.9,8.5 -5.9,16.1 l -0.1,33.9 h -14.4 v -35.8 c 0,-9.9 3.5,-18.4 10.6,-25.4 7,-6.9 14.7,-10.4 24.4,-10.5 z"
   id="path13"
   style="clip-rule:evenodd;fill:#1d1d1b;fill-rule:evenodd" />

		<path
   class="st2"
   d="m 303.1,247.6 c -4.6,0.2 -11.1,3.1 -14.3,6.5 -3.4,3.6 -5.9,8.5 -5.9,16.1 l -0.1,33.9 h -14.4 v -35.8 c 0,-9.9 3.6,-18.4 10.6,-25.4 7,-6.9 14.7,-10.4 24.4,-10.5 z"
   id="path14"
   style="clip-rule:evenodd;fill:#1d1d1b;fill-rule:evenodd" />

	    </g>

    </g>
  </g>
    </svg>