<?xml version="1.0" encoding="UTF-8"?>
<!DOCTYPE svg PUBLIC "-//W3C//DTD SVG 1.1//EN" "http://www.w3.org/Graphics/SVG/1.1/DTD/svg11.dtd">
<svg xmlns="http://www.w3.org/2000/svg" version="1.1" width="1000px" height="500px" style="shape-rendering:geometricPrecision; text-rendering:geometricPrecision; image-rendering:optimizeQuality; fill-rule:evenodd; clip-rule:evenodd" xmlns:xlink="http://www.w3.org/1999/xlink">
<g><path style="opacity:0.984" fill="#fe884b" d="M 107.5,163.5 C 109.167,163.5 110.833,163.5 112.5,163.5C 112.5,176.167 112.5,188.833 112.5,201.5C 87.5595,206.275 73.3928,221.275 70,246.5C 69.6667,276.833 69.3333,307.167 69,337.5C 56.2464,336.511 43.4131,336.178 30.5,336.5C 30.3334,303.498 30.5,270.498 31,237.5C 39.9933,195.672 65.4933,171.005 107.5,163.5 Z"/></g>
<g><path style="opacity:0.975" fill="#fe884b" d="M 128.5,164.5 C 167.764,170.258 192.931,192.258 204,230.5C 211.389,277.228 193.889,310.728 151.5,331C 140.798,334.774 129.798,336.94 118.5,337.5C 107.885,336.523 97.2186,336.19 86.5,336.5C 86.5,324.167 86.5,311.833 86.5,299.5C 99.1711,299.667 111.838,299.5 124.5,299C 150.114,292.887 164.114,276.72 166.5,250.5C 165.101,229.958 155.434,214.791 137.5,205C 134.568,203.855 131.568,203.022 128.5,202.5C 128.5,189.833 128.5,177.167 128.5,164.5 Z"/></g>
<g><path style="opacity:0.909" fill="#e1e2e3" d="M 605.5,204.5 C 608.167,204.5 610.833,204.5 613.5,204.5C 613.5,238.167 613.5,271.833 613.5,305.5C 610.833,305.5 608.167,305.5 605.5,305.5C 605.663,303.143 605.497,300.81 605,298.5C 600.113,303.968 593.946,306.634 586.5,306.5C 574.968,306.45 567.135,301.117 563,290.5C 559.418,276.729 559.752,263.062 564,249.5C 570.862,237.758 581.029,233.591 594.5,237C 598.722,238.026 602.222,240.193 605,243.5C 605.5,230.504 605.667,217.504 605.5,204.5 Z M 582.5,243.5 C 595.405,242.034 602.905,247.701 605,260.5C 605.87,268.897 605.537,277.23 604,285.5C 599.507,297.825 591.007,301.659 578.5,297C 574.062,293.967 571.229,289.8 570,284.5C 567.335,272.798 568.335,261.464 573,250.5C 575.529,247.115 578.696,244.782 582.5,243.5 Z"/></g>
<g><path style="opacity:0.833" fill="#e1e2e3" d="M 631.5,204.5 C 634.833,204.5 638.167,204.5 641.5,204.5C 641.5,207.833 641.5,211.167 641.5,214.5C 638.167,214.5 634.833,214.5 631.5,214.5C 631.5,211.167 631.5,207.833 631.5,204.5 Z"/></g>
<g><path style="opacity:0.941" fill="#e1e2e3" d="M 296.5,232.5 C 299.167,232.5 301.833,232.5 304.5,232.5C 304.5,237.833 304.5,243.167 304.5,248.5C 295.327,249.515 288.827,254.182 285,262.5C 283.589,276.783 283.089,291.116 283.5,305.5C 278.5,305.5 273.5,305.5 268.5,305.5C 268.333,290.496 268.5,275.496 269,260.5C 273.016,245.985 282.183,236.652 296.5,232.5 Z"/></g>
<g><path style="opacity:0.936" fill="#e1e2e3" d="M 333.5,232.5 C 351.771,230.536 363.604,238.203 369,255.5C 370.239,261.435 370.739,267.435 370.5,273.5C 355.167,273.5 339.833,273.5 324.5,273.5C 325.331,288.822 333.331,294.988 348.5,292C 352.537,290.463 356.204,288.296 359.5,285.5C 362.833,288.167 365.833,291.167 368.5,294.5C 361.477,302.84 352.477,306.506 341.5,305.5C 323.801,306.306 313.301,297.973 310,280.5C 308.378,268.768 309.712,257.435 314,246.5C 318.757,239.222 325.257,234.556 333.5,232.5 Z M 335.5,245.5 C 347.206,244.54 353.873,249.873 355.5,261.5C 345.188,262.499 334.855,262.832 324.5,262.5C 324.564,254.447 328.231,248.78 335.5,245.5 Z"/></g>
<g><path style="opacity:0.947" fill="#e1e2e3" d="M 406.5,232.5 C 423.971,230.639 434.137,238.305 437,255.5C 437.667,264.5 437.667,273.5 437,282.5C 435.51,297.658 427.176,305.658 412,306.5C 405.114,306.318 399.114,303.985 394,299.5C 393.5,310.828 393.333,322.162 393.5,333.5C 388.5,333.5 383.5,333.5 378.5,333.5C 378.5,300.167 378.5,266.833 378.5,233.5C 383.5,233.5 388.5,233.5 393.5,233.5C 392.601,239.89 393.935,240.724 397.5,236C 400.571,234.704 403.571,233.538 406.5,232.5 Z M 403.5,246.5 C 414.878,245.043 421.045,250.043 422,261.5C 422.991,269.651 422.324,277.651 420,285.5C 412.754,294.426 405.087,294.76 397,286.5C 392.166,274.344 392.5,262.344 398,250.5C 399.812,249.023 401.645,247.69 403.5,246.5 Z"/></g>
<g><path style="opacity:0.92" fill="#e1e2e3" d="M 476.5,232.5 C 478.833,232.5 481.167,232.5 483.5,232.5C 483.5,237.833 483.5,243.167 483.5,248.5C 475.146,249.095 468.98,253.095 465,260.5C 463.549,275.428 463.049,290.428 463.5,305.5C 458.167,305.5 452.833,305.5 447.5,305.5C 447.333,291.163 447.5,276.829 448,262.5C 451.918,247.085 461.418,237.085 476.5,232.5 Z"/></g>
<g><path style="opacity:0.936" fill="#e1e2e3" d="M 512.5,232.5 C 537.748,231.748 550.081,244.081 549.5,269.5C 549.643,279.262 547.143,288.262 542,296.5C 531.674,305.857 519.841,308.357 506.5,304C 498.507,300.674 493.341,294.841 491,286.5C 487.686,272.971 488.353,259.637 493,246.5C 497.757,239.222 504.257,234.556 512.5,232.5 Z M 514.5,246.5 C 524.81,245.063 530.976,249.396 533,259.5C 533.863,267.564 533.53,275.564 532,283.5C 526.201,292.935 518.701,294.601 509.5,288.5C 506.941,286.048 505.441,283.048 505,279.5C 504.333,272.5 504.333,265.5 505,258.5C 506.194,252.819 509.36,248.819 514.5,246.5 Z"/></g>
<g><path style="opacity:0.89" fill="#e1e2e3" d="M 632.5,236.5 C 635.167,236.5 637.833,236.5 640.5,236.5C 640.5,259.5 640.5,282.5 640.5,305.5C 637.833,305.5 635.167,305.5 632.5,305.5C 632.5,282.5 632.5,259.5 632.5,236.5 Z"/></g>
<g><path style="opacity:0.876" fill="#e1e2e3" d="M 674.5,236.5 C 684.104,235.717 693.437,236.884 702.5,240C 708.94,242.927 708.94,246.093 702.5,249.5C 692,242.499 681.167,241.832 670,247.5C 664.764,254.711 665.93,260.544 673.5,265C 682.115,266.595 690.781,267.929 699.5,269C 707.513,271.521 711.513,277.021 711.5,285.5C 711.314,293.52 707.647,299.353 700.5,303C 687.211,307.971 674.211,307.304 661.5,301C 659.208,299.71 657.208,298.043 655.5,296C 657.333,294.167 659.167,292.333 661,290.5C 669.869,297.925 680.036,300.425 691.5,298C 701.011,295.815 704.511,289.981 702,280.5C 700.833,279.333 699.667,278.167 698.5,277C 688.89,275.095 679.223,273.428 669.5,272C 659.61,266.973 656.443,259.14 660,248.5C 663.031,242.246 667.865,238.246 674.5,236.5 Z"/></g>
<g><path style="opacity:0.876" fill="#e1e2e3" d="M 736.5,236.5 C 745,235.934 753.333,236.767 761.5,239C 764.503,240.166 767.17,241.833 769.5,244C 767.667,245.833 765.833,247.667 764,249.5C 754.431,243.078 744.264,241.911 733.5,246C 727.285,251.708 726.952,257.708 732.5,264C 742.012,266.387 751.679,268.053 761.5,269C 769.035,271.899 772.702,277.399 772.5,285.5C 772.183,295.994 766.85,302.494 756.5,305C 745.509,307.434 734.842,306.434 724.5,302C 721.81,300.302 719.477,298.302 717.5,296C 718.628,293.704 720.295,291.871 722.5,290.5C 731.504,298.056 741.837,300.556 753.5,298C 764.237,294.529 766.904,287.862 761.5,278C 758.754,276.25 755.754,275.25 752.5,275C 744.298,274.781 736.298,273.448 728.5,271C 721.072,265.722 718.572,258.555 721,249.5C 724.24,242.752 729.406,238.418 736.5,236.5 Z"/></g>
<g><path style="opacity:0.873" fill="#e1e2e3" d="M 803.5,236.5 C 821.561,233.109 833.061,240.109 838,257.5C 839.095,262.78 839.595,268.113 839.5,273.5C 823.833,273.5 808.167,273.5 792.5,273.5C 792.37,292.538 801.703,300.705 820.5,298C 824.972,296.264 828.972,293.764 832.5,290.5C 834.5,292.167 836.5,293.833 838.5,295.5C 827.698,306.03 815.031,308.863 800.5,304C 791.257,299.359 786.09,291.859 785,281.5C 784.333,274.5 784.333,267.5 785,260.5C 786.638,248.841 792.805,240.841 803.5,236.5 Z M 807.5,243.5 C 822.784,243.451 830.451,251.117 830.5,266.5C 817.833,266.5 805.167,266.5 792.5,266.5C 792.289,255.216 797.289,247.549 807.5,243.5 Z"/></g>
<g><path style="opacity:0.889" fill="#e1e2e3" d="M 851.5,236.5 C 854.167,236.5 856.833,236.5 859.5,236.5C 859.337,238.857 859.503,241.19 860,243.5C 868.004,236.869 877.171,234.703 887.5,237C 896.781,239.281 902.281,245.114 904,254.5C 904.5,271.497 904.667,288.497 904.5,305.5C 901.833,305.5 899.167,305.5 896.5,305.5C 896.944,288.111 896.444,270.777 895,253.5C 891.669,246.745 886.169,243.411 878.5,243.5C 869.771,243.437 863.938,247.437 861,255.5C 859.575,272.118 859.075,288.785 859.5,305.5C 856.833,305.5 854.167,305.5 851.5,305.5C 851.5,282.5 851.5,259.5 851.5,236.5 Z"/></g>
<g><path style="opacity:0.874" fill="#e1e2e3" d="M 913.5,236.5 C 917.03,235.989 920.196,236.656 923,238.5C 929.531,257.092 935.864,275.759 942,294.5C 948.808,275.243 955.308,255.909 961.5,236.5C 964.5,236.5 967.5,236.5 970.5,236.5C 960.255,267.001 949.421,297.335 938,327.5C 933.039,334.55 926.205,337.216 917.5,335.5C 917.5,333.167 917.5,330.833 917.5,328.5C 923.07,329.584 927.57,327.917 931,323.5C 933.368,317.395 935.535,311.229 937.5,305C 929.395,282.183 921.395,259.349 913.5,236.5 Z"/></g>
</svg>
