<svg xmlns="http://www.w3.org/2000/svg" viewBox="0 0 512 512" role="img" aria-label="Repro Disseny">
  <rect width="512" height="512" rx="96" fill="#0076B3"/>
  <g transform="translate(-13 -319) scale(2.289)" fill="#FFFFFF">
    <path d="M 68.7,336.2 H 30.2 v -86 c 0,-23.7 8.6,-44.2 25.6,-61.1 15.4,-15.2 33.9,-23.7 54.9,-25.2 l 1.3,-0.1 v 36.8 l -1,0.1 c -10.8,1.5 -20.5,6.4 -28,14.3 -9.3,9.7 -14,21.6 -14,35.1 z"/>
    <path d="M 117.5,336.2 H 86.1 v -36.6 h 31.3 c 13.5,0 25,-4.9 34.4,-14.5 9.5,-9.7 14.2,-21.5 14.2,-34.9 0,-13.4 -4.7,-25.4 -14,-35.1 -6.8,-7.2 -13.9,-11.4 -22.2,-13.3 l -0.9,-0.2 v -37.2 l 1.3,0.2 c 18.6,2.5 34.6,10.5 48.9,24.6 17.3,17.1 25.8,37 25.8,61.1 0,24.1 -8.4,44.1 -25.7,61 -17,16.5 -37.8,24.9 -61.7,24.9 z"/>
  </g>
</svg>
