<svg width="100" height="100" viewBox="0 0 100 100" fill="none" xmlns="http://www.w3.org/2000/svg">
<rect width="100" height="100" rx="12" fill="#DEF4FF"/>
<path d="M72.7933 16.1857H85.3736V28.6883H81.2813V74.4302H85.3313V86.8905H72.8568V82.8335H27.1149V86.9188H14.6335V74.3456H18.7328V28.7589H14.6335V16.1857H27.2067V20.285H72.7933V16.1857ZM27.1502 28.6954C26.0001 28.6954 24.9488 28.6954 23.8976 28.6954C22.9591 28.6954 22.9591 28.6954 22.9591 29.6197V73.0614C22.9591 74.4091 22.9591 74.409 24.2997 74.409H27.1643V78.5437H72.878V74.402H76.9985V28.6883H72.8357V24.5749H27.1502V28.6954ZM22.8745 24.462V20.3838H18.8457V24.462H22.8745ZM81.1402 20.3908H77.0973V24.4337H81.1402V20.3908ZM18.8527 78.6425V82.7136H22.8745V78.6425H18.8527ZM77.0902 82.6995H81.1402V78.6777H77.0691L77.0902 82.6995Z" fill="#004F78"/>
<path d="M60.2625 49.4814H72.8639V70.2533H52.085V61.7865C50.5704 62.0833 49.009 62.0424 47.512 61.6666C46.0151 61.2908 44.6195 60.5893 43.4248 59.6122C42.2301 58.6352 41.2656 57.4065 40.6002 56.0139C39.9348 54.6214 39.5848 53.0991 39.5753 51.5558H27.1714C31.3272 44.62 35.4265 37.7901 39.5823 30.8685C39.7587 31.1366 39.8928 31.3342 40.0198 31.5388C41.9601 34.7703 43.9074 38.0018 45.8266 41.2404C45.8596 41.3398 45.9144 41.4306 45.9869 41.5062C46.0595 41.5818 46.1479 41.6404 46.2459 41.6775C46.3439 41.7147 46.4489 41.7296 46.5533 41.7211C46.6577 41.7126 46.759 41.6809 46.8496 41.6284C48.1999 41.1958 49.6245 41.0442 51.0355 41.183C52.4466 41.3218 53.8143 41.7481 55.0544 42.4355C56.2945 43.123 57.3806 44.0571 58.246 45.1803C59.1114 46.3035 59.7376 47.5919 60.0861 48.9663C60.1284 49.1215 60.1919 49.2697 60.2625 49.4814ZM56.2478 66.0199H68.6517V53.6654H60.2766C60.2343 53.7185 60.201 53.778 60.1778 53.8418C59.6273 56.1677 58.3132 58.242 56.4454 59.7333C56.3854 59.7826 56.3363 59.8438 56.3011 59.913C56.2659 59.9822 56.2454 60.0579 56.2407 60.1355C56.2407 62.0899 56.2478 64.0302 56.2478 66.0199ZM43.8087 51.5628C43.7803 52.857 44.171 54.1257 44.9224 55.1797C45.6739 56.2338 46.7459 57.0168 47.9786 57.412C49.2484 57.8564 50.6284 57.8754 51.91 57.466C53.1915 57.0567 54.305 56.2412 55.0821 55.143C55.8591 54.0447 56.2575 52.7233 56.2171 51.3786C56.1766 50.0338 55.6995 48.7388 54.8578 47.6892C53.3479 45.7489 50.5327 44.8176 48.4583 45.5725L51.9862 51.5275L43.8087 51.5628ZM39.5753 38.9825L34.5728 47.3435H44.613L39.5753 38.9825Z" fill="#004F78"/>
</svg>
