<svg width="100" height="100" viewBox="0 0 100 100" fill="none" xmlns="http://www.w3.org/2000/svg">
<rect width="100" height="100" rx="12" fill="#DEF4FF"/>
<path d="M86.9188 46.8426H84.2447V86.7847H79.8067V59.8391H68.1719C68.1012 60.8892 68.1012 61.9429 68.1719 62.993C68.4118 64.7569 67.7203 65.9634 66.4503 67.1629C63.12 70.3238 59.9308 73.6329 56.6641 76.8644C56.4025 77.1234 56.0574 77.2809 55.6904 77.309C47.9197 77.309 40.1585 77.309 32.4067 77.309C32.2232 77.309 32.0398 77.309 31.7858 77.309V59.8532H20.1722V86.7847H15.7553V46.8355H13.0812V25.0899C13.2858 25.0899 13.4904 25.0476 13.695 25.0476H86.6295H86.9188V46.8426ZM36.2309 38.1923C36.2309 38.4604 36.2309 38.6509 36.2309 38.8414C36.2309 49.9471 36.2309 61.055 36.2309 72.1654C36.2309 72.758 36.3861 72.9415 36.9929 72.9344C42.1576 72.9344 47.3294 72.9344 52.5153 72.9344C52.72 72.9344 52.9316 72.9344 53.2209 72.885V62.2451H63.8044V38.1923H36.2309ZM82.4596 29.4927H17.5122V42.334H31.7505V38.1006H26.367V33.7684H73.5765V38.1853H68.2283V42.334H82.4596V29.4927ZM31.7505 55.3235V46.8567H20.1863V55.3235H31.7505ZM79.7784 55.3235V46.8567H68.2142V55.3235H79.7784ZM57.6166 66.7466V69.463L60.3612 66.7466H57.6166Z" fill="#004F78"/>
<path d="M59.698 42.4258V46.7932H40.2949V42.4258H59.698Z" fill="#004F78"/>
<path d="M40.2596 53.5596V49.2203H59.6839V53.5596H40.2596Z" fill="#004F78"/>
<path d="M59.6839 60.3754H40.2738V56.0079H59.6839V60.3754Z" fill="#004F78"/>
</svg>
