<svg width="100" height="100" viewBox="0 0 100 100" fill="none" xmlns="http://www.w3.org/2000/svg">
<rect width="100" height="100" rx="12" fill="#DEF4FF"/>
<path d="M10 26H62.4723V33.3011H63.3546C66.8439 33.3011 70.3331 33.3011 73.8223 33.3011C81.4826 33.3614 87.8127 38.5611 89.5975 46.2638C89.843 47.256 89.9731 48.2732 89.9851 49.2953C90.0186 57.1988 89.9851 65.1022 89.9851 73.0056C89.9851 73.1595 89.9851 73.3201 89.9851 73.5477H82.6323C82.5254 73.8354 82.4385 74.0763 82.3449 74.3173C81.7768 75.9755 80.7054 77.4146 79.2804 78.4334C77.8555 79.4523 76.1482 80 74.3972 80C72.6462 80 70.9389 79.4523 69.5139 78.4334C68.089 77.4146 67.0176 75.9755 66.4495 74.3173C66.249 73.7685 66.0284 73.5343 65.4134 73.5343C55.3156 73.561 45.2132 73.561 35.1065 73.5343C34.8806 73.5024 34.651 73.5581 34.4647 73.6899C34.2783 73.8217 34.1493 74.0198 34.1038 74.2436C33.5276 75.8991 32.4564 77.3369 31.0357 78.3618C29.615 79.3866 27.9137 79.9488 26.1628 79.9721C24.3957 79.945 22.6794 79.3762 21.2451 78.3424C19.8109 77.3085 18.7277 75.8593 18.1416 74.1901C18.0747 73.9893 17.9945 73.7886 17.9009 73.5209H10V26ZM17.9009 68.7092C17.9477 68.5754 17.9878 68.475 18.0212 68.3746C19.3581 64.6538 22.4129 62.3517 26.0425 62.3116C29.6721 62.2714 32.7269 64.5467 34.1105 68.2006C34.3044 68.7226 34.5851 68.736 34.9928 68.736C45.1174 68.736 55.2443 68.736 65.3733 68.736C65.5992 68.7679 65.8288 68.7122 66.0151 68.5804C66.2015 68.4485 66.3305 68.2505 66.376 68.0266C66.7605 66.8896 67.3844 65.8484 68.2055 64.9736C69.0265 64.0987 70.0257 63.4106 71.1353 62.9557C72.245 62.5008 73.4392 62.2897 74.6374 62.3368C75.8355 62.3838 77.0096 62.6879 78.0803 63.2284C79.1525 63.7814 80.0997 64.5492 80.8632 65.4839C81.6267 66.4187 82.1902 67.5006 82.5187 68.6624H85.1925V55.9005H71.5497V38.2801H62.4723V59.3068H14.766V68.6758L17.9009 68.7092ZM14.7459 40.1338H25.8887V30.8986H14.7459V40.1338ZM30.6681 40.1338C30.7665 40.1638 30.867 40.1862 30.9689 40.2007C34.3979 40.2007 37.827 40.2007 41.2561 40.2007C41.8577 40.2007 41.851 39.8661 41.8443 39.4311C41.8443 36.7944 41.8443 34.151 41.8443 31.5143C41.837 31.3105 41.8192 31.1073 41.7909 30.9053H30.6681V40.1338ZM46.6236 30.8986V40.1405H57.6863V30.8986H46.6236ZM25.9021 54.3211V45.1328H14.7459V54.2877L25.9021 54.3211ZM41.8109 54.3211V45.1395H30.7215V54.3211H41.8109ZM57.693 54.3211V45.1328H46.6103V54.2877L57.693 54.3211ZM85.2927 50.9751C85.7406 44.1491 80.8944 39.2772 76.329 38.5344V50.9951L85.2927 50.9751ZM74.3571 75.0668C75.1357 75.096 75.9053 74.8921 76.5676 74.4812C77.2298 74.0702 77.7546 73.4708 78.0748 72.7597C78.3951 72.0486 78.4962 71.258 78.3653 70.4891C78.2344 69.7201 77.8774 69.0077 77.3399 68.4429C76.8025 67.8781 76.109 67.4867 75.3482 67.3185C74.5874 67.1504 73.7937 67.2132 73.0688 67.499C72.3438 67.7848 71.7204 68.2806 71.2784 68.9229C70.8363 69.5653 70.5956 70.325 70.5871 71.105C70.5656 71.6143 70.6463 72.1227 70.8243 72.6002C71.0024 73.0777 71.2742 73.5146 71.6238 73.8852C71.9734 74.2558 72.3936 74.5524 72.8596 74.7577C73.3256 74.9629 73.828 75.0726 74.337 75.0802L74.3571 75.0668ZM26.0826 75.0668C26.8606 75.1065 27.6327 74.913 28.3003 74.5111C28.968 74.1092 29.5007 73.5171 29.8305 72.8106C30.1603 72.104 30.2722 71.315 30.1519 70.5445C30.0316 69.7739 29.6845 69.0568 29.155 68.4848C28.6255 67.9127 27.9377 67.5117 27.1794 67.333C26.4211 67.1543 25.6268 67.206 24.898 67.4815C24.1693 67.7571 23.5391 68.2439 23.0881 68.8798C22.6371 69.5157 22.3857 70.2718 22.3661 71.0515C22.3354 71.5595 22.407 72.0685 22.5765 72.5483C22.746 73.028 23.01 73.4689 23.3529 73.8446C23.6957 74.2203 24.1105 74.5233 24.5725 74.7355C25.0345 74.9478 25.5344 75.065 26.0425 75.0802L26.0826 75.0668Z" fill="#004F78"/>
</svg>
