<svg width="100" height="100" viewBox="0 0 100 100" fill="none" xmlns="http://www.w3.org/2000/svg">
<rect width="100" height="100" rx="12" fill="#DEF4FF"/>
<path d="M90.9869 27.1252H86.3541V32.1106H81.6875V27.1252H77.014V22.1397H81.613V17.1106H86.2729V22.096H91.014L90.9869 27.1252Z" fill="#004F78"/>
<path d="M91.014 46.1106H86.014V41.1106H91.0067L91.014 46.1106Z" fill="#004F78"/>
<path d="M82.014 49.0987L50.0245 86.1106L18.014 49.0987C18.1397 48.891 18.2445 48.6833 18.3772 48.4894C21.9106 43.2277 25.444 37.9637 28.9775 32.6974C29.0851 32.5056 29.2468 32.3491 29.4428 32.247C29.6387 32.145 29.8605 32.1018 30.0808 32.1227C43.358 32.1227 56.6259 32.1227 69.8844 32.1227C70.0918 32.0916 70.3038 32.1207 70.4947 32.2068C70.6856 32.2928 70.8472 32.432 70.9598 32.6074C74.5957 38.0168 78.2315 43.4146 81.8674 48.801C81.9093 48.8633 81.9372 48.9394 82.014 49.0987ZM47.5665 51.3418H26.3937L47.5804 75.8503L47.5665 51.3418ZM73.6762 51.3418H52.5035V75.8018L73.6762 51.3418ZM38.0625 36.976L50.0245 45.8655L62.0075 36.9621L38.0625 36.976ZM42.7342 46.4817L31.2819 37.9798L25.6047 46.4678L42.7342 46.4817ZM57.3987 46.4332H74.4164L68.7392 37.9868L57.3987 46.4332Z" fill="#004F78"/>
<path d="M18.336 75.113H23.014V80.1009H18.404V85.1106H13.692V80.1737H9.01404V75.1276H13.624V70.1106H18.336V75.113Z" fill="#004F78"/>
<path d="M9.01404 61.1106V56.1106H14.014V61.1106H9.01404Z" fill="#004F78"/>
</svg>
