<svg width="100" height="100" viewBox="0 0 100 100" fill="none" xmlns="http://www.w3.org/2000/svg">
<rect width="100" height="100" rx="12" fill="#DEF4FF"/>
<path d="M34.9608 82.3608C36.5272 82.3115 38.1006 82.3608 39.8151 82.3608L35.3701 74.9312L39.0461 72.7228C40.175 74.5925 41.2757 76.427 42.3764 78.2686C43.0819 79.4398 43.7875 80.6181 44.4931 81.7964C44.9234 82.502 44.7682 82.4102 45.5585 82.382C46.3487 82.3538 47.0543 82.382 47.8445 82.382V63.1835H44.7964C44.0909 63.1835 43.3289 63.1412 42.6021 63.1835C42.0095 63.2329 41.7837 63.0142 41.6778 62.478C41.0781 59.3594 40.429 56.2549 39.8434 53.1363C39.7446 52.6071 39.5259 52.5013 39.0531 52.5154C37.7549 52.5154 36.4637 52.5154 35.0808 52.5154V35.5112H28.6742V26.9456H20.2074V14.189H79.8349V26.9386H71.3681V35.4759H64.9615V52.5083C63.5504 52.5083 62.2522 52.5083 60.9328 52.5083C60.4459 52.5083 60.2272 52.6283 60.1566 53.1363C59.571 56.2337 58.929 59.317 58.3363 62.4145C58.2234 62.986 58.0188 63.2259 57.3838 63.2047C55.6692 63.1553 53.9476 63.2047 52.1837 63.2047V82.3397C53.108 82.3397 54.0464 82.3397 55.006 82.3397C55.1824 82.3397 55.387 82.0433 55.514 81.8387C57.198 79.0165 58.8819 76.2106 60.5659 73.4213C60.6999 73.2026 60.841 72.9909 61.0033 72.7157L64.6652 74.9101L60.1849 82.3397C62.0687 82.3397 63.8115 82.3397 65.5472 82.3397M70.9377 82.3397H84.1106V86.6295H15.8894V82.3961H29.0976M39.4341 35.5465V48.1902H60.6011V35.5253L39.4341 35.5465ZM24.4832 18.4365V22.5782H43.5335V18.4365H24.4832ZM56.4454 22.5782H75.4957V18.4576H56.4454V22.5782ZM55.9021 52.5365H44.105L45.368 58.8443H54.6391C55.0342 56.7558 55.4717 54.6885 55.895 52.5506L55.9021 52.5365ZM47.9151 18.4506V31.1085H52.0708V18.4506H47.9151ZM33.0205 31.1155H43.5546V27.0091H33.0205V31.1155ZM56.4454 31.1155H66.9654V27.0091H56.4454V31.1155Z" fill="#004F78"/>
<path d="M67.4028 62.0405L71.0859 64.249C70.0134 66.0481 68.9692 67.7768 67.8755 69.6113L64.2066 67.4028L67.4028 62.0405Z" fill="#004F78"/>
<path d="M29.0059 64.2771L32.6889 62.0898L35.9063 67.438L32.2232 69.6535L29.0059 64.2771Z" fill="#004F78"/>
</svg>
