<svg width="100" height="100" viewBox="0 0 100 100" fill="none" xmlns="http://www.w3.org/2000/svg">
<rect width="100" height="100" rx="12" fill="#DEF4FF"/>
<path d="M65.7447 11.164C66.9557 11.0088 68.1815 11.0088 69.3925 11.164C70.2047 11.2776 71.0068 11.4546 71.7914 11.6932C75.4395 12.6649 78.6583 14.8279 80.9364 17.8384C83.2144 20.849 84.4211 24.5344 84.3647 28.3093C84.28 41.828 84.3647 55.3466 84.3647 68.8653C84.3682 69.7641 84.3117 70.6622 84.1953 71.5535C83.6542 75.564 81.6728 79.2408 78.6207 81.8982C75.5687 84.5556 71.6543 86.0123 67.6074 85.9965H15.6354V25.6775H50.9137C50.9843 25.3318 51.0407 25.0919 51.0901 24.8591C52.5013 18.3538 56.3536 14.0498 62.6332 11.9119C63.6436 11.5621 64.6857 11.3116 65.7447 11.164ZM55.2459 57.8726C58.7737 54.3447 62.7955 52.5032 67.6004 52.5032C72.4053 52.5032 76.4552 54.3659 79.9196 57.8655V56.9906C79.9196 47.3949 79.9196 37.7968 79.9196 28.1964C79.9273 27.2743 79.8351 26.354 79.6444 25.4518C78.6354 20.8797 75.8978 17.6905 71.4739 16.2794C69.4446 15.5428 67.2516 15.3796 65.1356 15.8078C63.0196 16.236 61.0626 17.2389 59.4793 18.7065C58.1024 19.8826 57.0072 21.3529 56.2744 23.0088C55.5417 24.6647 55.1902 26.4641 55.2459 28.274V57.9078V57.8726ZM20.0311 42.4771V68.6889H50.8008V42.4771H20.0311ZM79.9196 69.2463C79.9168 66.8088 79.1918 64.4268 77.8361 62.4011C76.4805 60.3753 74.555 58.7967 72.3027 57.8646C70.0505 56.9324 67.5726 56.6886 65.1819 57.1638C62.7912 57.639 60.5948 58.8119 58.8703 60.5345C57.1457 62.2571 55.9703 64.4521 55.4924 66.8422C55.0144 69.2324 55.2555 71.7106 56.1851 73.9639C57.1146 76.2172 58.691 78.1445 60.7152 79.5025C62.7394 80.8604 65.1206 81.5881 67.558 81.5937C70.8318 81.5863 73.9696 80.2835 76.2858 77.9699C78.602 75.6563 79.9084 72.52 79.9196 69.2463ZM56.1773 81.5514C55.9233 81.2762 55.768 81.0998 55.5987 80.9305C53.6532 78.9537 52.2447 76.513 51.5064 73.8395C51.4965 73.73 51.4638 73.6238 51.4104 73.5276C51.3571 73.4314 51.2842 73.3474 51.1966 73.281C51.1089 73.2146 51.0084 73.1672 50.9013 73.1419C50.7943 73.1166 50.6832 73.1139 50.5751 73.134C40.6642 73.134 30.751 73.134 20.8354 73.134H20.0452V81.5514H56.1773ZM19.9887 37.9685H50.8008V30.2073H19.9887V37.9685Z" fill="#004F78"/>
<path d="M74.3597 70.2321C74.3695 71.5746 73.9805 72.8898 73.242 74.011C72.5036 75.1322 71.4489 76.009 70.2116 76.5302C68.9744 77.0514 67.6103 77.1935 66.2921 76.9386C64.974 76.6838 63.7612 76.0433 62.8074 75.0985C61.8536 74.1536 61.2018 72.9469 60.9346 71.6312C60.6673 70.3155 60.7967 68.9501 61.3062 67.708C61.8158 66.4659 62.6826 65.403 63.7968 64.6541C64.9111 63.9051 66.2226 63.5038 67.5651 63.501C69.354 63.5082 71.0684 64.2177 72.3393 65.4767C73.6101 66.7357 74.3357 68.4434 74.3597 70.2321ZM67.5157 72.5605C68.1295 72.5745 68.7237 72.3441 69.1676 71.92C69.6116 71.496 69.8689 70.9129 69.8829 70.2991C69.8969 69.6853 69.6666 69.0911 69.2425 68.6472C68.8184 68.2033 68.2353 67.946 67.6215 67.9319C67.3176 67.925 67.0153 67.978 66.7319 68.0879C66.4484 68.1977 66.1894 68.3624 65.9696 68.5724C65.7498 68.7823 65.5735 69.0336 65.4508 69.3117C65.3281 69.5898 65.2613 69.8894 65.2544 70.1933C65.2474 70.4972 65.3004 70.7995 65.4103 71.0829C65.5202 71.3664 65.6848 71.6254 65.8948 71.8452C66.1048 72.065 66.356 72.2413 66.6341 72.364C66.9122 72.4868 67.2118 72.5535 67.5157 72.5605Z" fill="#004F78"/>
</svg>
