<?xml version="1.0" encoding="UTF-8"?>
<svg version="1.1" xmlns="http://www.w3.org/2000/svg" width="73" height="72">
<path d="M0 0 C11.23667871 1.60523982 18.64975389 5.91727828 26.2109375 14.36328125 C31.00666367 21.43121829 32.73026467 27.80867452 32.625 36.3125 C32.61351929 37.69236084 32.61351929 37.69236084 32.60180664 39.10009766 C32.29024872 48.68324787 29.190409 55.6751234 22.875 62.875 C21.046875 64.46484375 21.046875 64.46484375 19 66 C18.26265625 66.57878906 17.5253125 67.15757813 16.765625 67.75390625 C6.37809118 74.37672737 -6.18407487 72.49385446 -18 72 C-18 67.05 -18 62.1 -18 57 C-16.9378125 56.96261719 -15.875625 56.92523438 -14.78125 56.88671875 C-0.61875943 56.46520185 -0.61875943 56.46520185 11 49 C14.09085682 43.54670485 15.77831452 38.41935202 14.671875 32.16796875 C12.63313031 25.58946116 9.07178183 21.29988143 3 18 C2.01 17.67 1.02 17.34 0 17 C0 11.39 0 5.78 0 0 Z " fill="#0077B3" transform="translate(41,0)"/>
<path d="M0 0 C0 5.61 0 11.22 0 17 C-1.216875 17.4125 -2.43375 17.825 -3.6875 18.25 C-8.73154894 20.16602566 -11.97666651 22.24571402 -14.75 27 C-16.94229404 32.26150571 -17.19961801 37.0388778 -17.31640625 42.703125 C-17.33718735 43.54091492 -17.35796844 44.37870483 -17.37937927 45.24188232 C-17.4446255 47.91117356 -17.50364358 50.58056098 -17.5625 53.25 C-17.60570894 55.06250984 -17.64932399 56.87501005 -17.69335938 58.6875 C-17.8010436 63.12490296 -17.90030207 67.56238168 -18 72 C-23.61 72 -29.22 72 -35 72 C-35.07469184 66.3441042 -35.1288562 60.68850162 -35.16479492 55.03222656 C-35.17979221 53.11192822 -35.20019682 51.19166361 -35.22631836 49.27148438 C-35.26310351 46.49600858 -35.27981721 43.72098936 -35.29296875 40.9453125 C-35.30845261 40.1001004 -35.32393646 39.25488831 -35.33988953 38.38406372 C-35.34295205 27.30002703 -31.72287784 18.10923246 -24.1484375 10.0234375 C-17.27498261 3.58813113 -9.45776156 0 0 0 Z " fill="#0077B3" transform="translate(35,0)"/>
</svg>
