<?xml version="1.0" encoding="UTF-8"?>
<svg id="Capa_1" data-name="Capa 1" xmlns="http://www.w3.org/2000/svg" xmlns:xlink="http://www.w3.org/1999/xlink" viewBox="0 0 168 168">
  <defs>
    <style>
      .cls-1, .cls-2, .cls-3, .cls-4, .cls-5 {
        stroke-width: 0px;
      }

      .cls-1, .cls-4 {
        fill: #202020;
      }

      .cls-2 {
        fill: none;
      }

      .cls-6 {
        clip-path: url(#clippath);
      }

      .cls-3 {
        fill: #0078b4;
      }

      .cls-4 {
        fill-rule: evenodd;
      }

      .cls-5 {
        fill: #fff;
      }
    </style>
    <clipPath id="clippath">
      <rect class="cls-2" x="53.69" y="20.78" width="61.48" height="95.26"/>
    </clipPath>
  </defs>
  <circle class="cls-5" cx="84" cy="84" r="84"/>
  <path class="cls-1" d="M51.12,138.27l.8-9.18,2.76-.22c.85-.07,1.58.08,2.2.43.62.35,1.08.86,1.4,1.53.32.66.44,1.45.36,2.36-.06.67-.22,1.29-.48,1.86-.26.57-.6,1.07-1.03,1.5-.42.42-.9.77-1.46,1.04-.55.26-1.15.42-1.79.47l-2.76.22ZM52.31,137.16l1.63-.13c.45-.04.88-.16,1.3-.38.42-.22.79-.5,1.11-.86.33-.36.59-.77.8-1.22.22-.46.34-.94.38-1.44.06-.66-.03-1.24-.27-1.74-.24-.5-.59-.89-1.06-1.17-.46-.28-1-.39-1.6-.34l-1.68.13-.61,7.14ZM62.65,137.52c-.65.04-1.21-.07-1.68-.34-.46-.27-.82-.65-1.06-1.15-.23-.5-.32-1.1-.26-1.78.06-.67.25-1.26.56-1.79.31-.53.72-.95,1.22-1.27.5-.32,1.05-.5,1.66-.54.63-.04,1.16.07,1.58.35.42.27.73.67.91,1.19.2.51.26,1.13.2,1.83l-5.1.4c-.02.47.04.88.19,1.22.16.34.39.59.69.77.3.17.66.24,1.07.2.47-.03.88-.17,1.23-.44.35-.26.63-.58.84-.95l.87.44c-.19.36-.43.68-.73.94-.29.27-.63.48-1,.64-.37.15-.76.24-1.18.26ZM60.82,133.58l3.96-.31c-.04-.55-.19-.99-.47-1.32-.27-.33-.67-.47-1.21-.43-.54.03-1.02.24-1.44.62-.4.38-.69.86-.85,1.43ZM69.09,137.01c-.48.04-.9,0-1.26-.12-.35-.12-.63-.29-.83-.51-.21-.22-.35-.46-.42-.71l.92-.37c.11.29.3.52.57.67.28.14.58.2.9.18.27-.02.52-.08.77-.19.25-.12.45-.27.6-.45.16-.19.23-.41.21-.67-.02-.22-.12-.4-.31-.52-.19-.12-.47-.22-.83-.3l-.61-.12c-.51-.1-.91-.27-1.2-.52-.29-.26-.45-.56-.48-.91-.03-.42.05-.8.25-1.14.21-.34.51-.61.9-.81.4-.21.87-.33,1.42-.37.6-.05,1.08.04,1.45.26.38.22.64.54.77.96l-.89.38c-.11-.29-.28-.49-.5-.6-.22-.1-.52-.14-.91-.11-.42.03-.78.17-1.06.41-.28.23-.4.51-.38.82.01.15.11.29.28.42.17.12.44.22.79.29l.54.1c.62.11,1.07.31,1.36.6.3.29.47.63.5,1.02.03.42-.06.8-.29,1.14-.23.33-.53.6-.93.82-.39.21-.83.33-1.33.37ZM77.71,136.17l.06-1.22.69-7.96,1.04-.08-.8,9.18-.98.08ZM75.53,136.5c-.51.04-.96-.04-1.36-.26-.4-.21-.72-.52-.96-.93-.23-.42-.36-.9-.39-1.47-.02-.51.03-1.01.16-1.49.14-.49.34-.93.61-1.33.28-.4.62-.72,1.02-.97.4-.25.85-.39,1.36-.43.51-.04.95.05,1.31.26.36.21.65.51.85.92.21.4.32.88.34,1.45.04.66-.01,1.24-.16,1.76-.15.51-.37.94-.65,1.3-.28.35-.6.63-.96.83-.37.19-.75.31-1.16.34ZM75.74,135.53c.38-.03.71-.14.99-.34.29-.2.52-.45.71-.76.19-.31.33-.65.42-1.01.08-.36.12-.73.1-1.09-.04-.57-.21-1.02-.52-1.34-.31-.32-.71-.46-1.21-.43-.39.03-.73.15-1.03.34-.3.2-.55.45-.76.75-.21.3-.36.64-.46,1-.09.35-.13.71-.11,1.08.04.57.22,1.03.56,1.36.35.33.78.47,1.31.43ZM83.42,135.88c-.65.04-1.21-.07-1.68-.34-.46-.27-.82-.65-1.06-1.15-.23-.5-.32-1.1-.26-1.78.06-.66.25-1.26.56-1.79.31-.53.72-.95,1.22-1.27.5-.32,1.05-.5,1.66-.54.63-.04,1.16.07,1.58.34.42.27.73.67.92,1.19.2.51.26,1.13.2,1.83l-5.1.4c-.02.47.04.88.19,1.22.16.34.39.59.69.77.3.17.66.24,1.07.2.47-.03.88-.17,1.23-.44.35-.26.63-.58.84-.95l.87.44c-.19.36-.43.68-.73.94-.29.27-.63.48-1,.64-.37.15-.76.24-1.18.26ZM81.58,131.94l3.96-.31c-.04-.55-.19-.99-.47-1.32-.27-.33-.67-.47-1.21-.43-.54.03-1.02.24-1.44.62-.4.38-.69.86-.85,1.43ZM92.69,134.99l.77-8.6.14-.6.98-.08-.82,9.19-1.06.08ZM91.27,128.33l.08-1c.18-.01.41-.1.67-.25.27-.15.54-.34.81-.57.28-.24.52-.48.74-.72l.67.73c-.48.48-.98.9-1.48,1.25-.5.34-1,.53-1.49.56ZM99.45,125.18c.64-.05,1.16.03,1.57.24.41.2.72.5.93.9.22.4.36.87.43,1.41.07.53.07,1.11.02,1.72-.06.79-.19,1.49-.41,2.12-.21.62-.48,1.16-.81,1.61-.33.44-.72.79-1.17,1.06-.44.25-.93.4-1.46.44-.46.04-.91,0-1.35-.12-.44-.11-.83-.28-1.16-.51l.63-.8c.27.18.55.31.85.39.31.07.6.1.88.07.89-.07,1.6-.51,2.14-1.3.54-.8.86-1.96.94-3.49l.23.27c-.25.55-.62.99-1.09,1.34-.47.34-1,.54-1.61.58-.52.04-.98-.04-1.4-.23-.41-.19-.74-.47-.99-.82-.24-.35-.39-.76-.42-1.2-.04-.45.01-.88.14-1.3.14-.43.35-.81.64-1.16.29-.35.65-.62,1.07-.84.43-.22.9-.34,1.42-.39ZM99.48,126.14c-.47.04-.88.19-1.23.45-.34.26-.61.59-.78.97-.17.38-.24.78-.21,1.2.04.46.21.82.53,1.08.32.25.73.36,1.22.32.41-.03.77-.15,1.09-.35.33-.21.6-.48.8-.81.21-.33.32-.7.34-1.11.04-.57-.1-1.01-.43-1.33-.33-.33-.78-.47-1.34-.43ZM106.6,134.05c-.67.05-1.24-.01-1.72-.19-.47-.18-.83-.46-1.08-.83-.24-.38-.34-.82-.3-1.33.04-.52.22-.99.51-1.4.3-.41.69-.75,1.18-1.01.49-.26,1.06-.41,1.71-.46.67-.05,1.25.02,1.72.22.49.2.85.49,1.09.88.25.38.35.84.31,1.38-.04.49-.21.93-.51,1.33-.3.39-.7.71-1.2.95-.49.25-1.06.4-1.71.45ZM106.57,133.08c.44-.04.83-.14,1.17-.31.35-.18.63-.41.85-.69.21-.29.33-.6.36-.94.04-.49-.12-.87-.49-1.13-.36-.27-.85-.38-1.47-.33-.43.03-.82.14-1.17.33-.35.18-.63.41-.85.69-.21.29-.33.6-.35.95-.03.48.13.85.49,1.12.37.26.86.36,1.47.31ZM107.01,129.47c-.6.05-1.11-.02-1.55-.19-.43-.18-.76-.44-.97-.8-.21-.36-.3-.78-.26-1.27.05-.48.21-.91.47-1.29.26-.39.62-.7,1.06-.93.45-.24.96-.39,1.53-.43.6-.05,1.12.02,1.55.2.43.18.76.45.98.82.22.36.31.8.26,1.3-.04.47-.2.89-.47,1.26-.27.37-.62.67-1.06.9-.44.24-.95.38-1.53.42ZM106.95,128.65c.38-.03.72-.12,1.02-.28.3-.15.54-.36.72-.62.19-.26.29-.54.31-.85.04-.46-.09-.81-.41-1.07-.31-.26-.72-.37-1.25-.33-.36.03-.7.13-1.01.3-.3.16-.54.38-.73.66-.19.27-.29.58-.32.92-.03.42.11.75.42.98.31.23.73.32,1.25.28ZM114.07,133.46c-.45.04-.85,0-1.21-.11-.36-.11-.66-.27-.9-.46-.23-.2-.42-.42-.55-.66l.92-.54c.09.12.19.25.32.39.12.13.29.24.49.33.22.09.48.12.8.09.4-.03.77-.14,1.08-.33s.57-.43.75-.72c.19-.3.3-.63.33-.99.04-.38-.04-.68-.23-.92-.19-.24-.48-.42-.86-.52-.37-.1-.83-.13-1.38-.09l-.27.02.06-.87h.19c.54-.06,1.04-.03,1.49.06.45.09.84.24,1.16.46.32.21.56.48.72.82.17.33.23.73.18,1.18-.04.53-.21,1.01-.5,1.43-.29.41-.66.75-1.12,1-.46.24-.96.39-1.49.43ZM113.38,128.85l.06-.85.21-.02c.74-.06,1.35-.24,1.83-.54.49-.31.75-.71.78-1.22.03-.38-.09-.69-.37-.95-.28-.26-.67-.36-1.17-.32-.36.03-.69.13-.99.31-.3.17-.56.41-.79.71l-.85-.47c.19-.29.41-.55.68-.77.27-.22.57-.4.9-.53.33-.13.68-.21,1.05-.24.54-.04,1.02.03,1.42.21.41.18.73.46.95.81.22.35.31.75.27,1.22-.04.38-.16.72-.36,1.03-.2.3-.47.57-.81.79-.33.22-.71.4-1.14.53-.43.13-.9.21-1.41.25l-.25.02Z"/>
  <g class="cls-6">
    <g>
      <path class="cls-3" d="M73.71,58.82h-8.42v-18.99c-.03-2.51.45-5,1.41-7.32.96-2.32,2.39-4.41,4.18-6.15,3.19-3.27,7.47-5.25,12.01-5.55h.28v8.11l-.23.03c-2.34.31-4.5,1.43-6.12,3.15-.99,1.02-1.77,2.24-2.3,3.57-.53,1.33-.79,2.75-.77,4.18l-.06,18.97Z"/>
      <path class="cls-3" d="M84.41,58.82h-6.84v-8.07h6.84c1.4.02,2.8-.25,4.09-.79,1.29-.55,2.46-1.36,3.43-2.39,1-1.01,1.79-2.22,2.33-3.54.53-1.32.8-2.74.79-4.17.02-1.43-.24-2.85-.76-4.18-.53-1.33-1.31-2.54-2.3-3.57-1.28-1.46-2.98-2.48-4.86-2.93l-.2-.05v-8.24l.29.04c4.07.54,7.85,2.45,10.71,5.42,1.79,1.75,3.21,3.85,4.18,6.17.97,2.32,1.47,4.81,1.47,7.32s-.5,5-1.47,7.32c-.97,2.32-2.39,4.41-4.18,6.17-1.78,1.77-3.89,3.17-6.21,4.12-2.32.94-4.8,1.41-7.31,1.37Z"/>
      <path class="cls-1" d="M60.48,111.42v-1.32c-.35.51-.84.92-1.41,1.16-.51.19-1.04.28-1.58.28-.49,0-.98-.07-1.44-.24-.39-.14-.75-.36-1.05-.65-.53-.54-.9-1.22-1.05-1.96-.35-1.57-.35-3.2,0-4.78.15-.74.52-1.42,1.05-1.96.3-.29.66-.51,1.05-.65.46-.17.95-.25,1.44-.24.54,0,1.07.09,1.58.28.57.25,1.05.65,1.41,1.16v-6.16h1.05v15.08h-1.05ZM60.48,106.33c0-.52-.03-1.04-.09-1.56-.05-.48-.19-.94-.4-1.38-.2-.4-.5-.74-.87-.98-.46-.24-.97-.37-1.49-.37s-1.03.12-1.49.37c-.37.24-.67.58-.87.98-.21.43-.34.9-.39,1.38-.13,1.04-.13,2.09,0,3.12.05.47.19.94.39,1.36.2.4.5.74.87.98.46.24.97.37,1.49.37s1.03-.13,1.49-.37c.37-.24.67-.58.87-.98.21-.43.35-.89.4-1.36.06-.52.1-1.04.09-1.56Z"/>
      <path class="cls-1" d="M64.42,97.69v-1.34h1.33v1.34h-1.33ZM64.55,111.42v-10.2h1.05v10.2h-1.05Z"/>
      <path class="cls-1" d="M76.17,108.51c.01.43-.08.86-.27,1.25-.19.39-.48.72-.83.96-.88.59-1.92.87-2.97.82-.79.01-1.57-.11-2.32-.36-.66-.24-1.27-.61-1.77-1.1l.73-.74c.44.43.96.77,1.53.98.57.21,1.18.31,1.79.27.79.05,1.58-.14,2.27-.53.25-.17.46-.4.59-.67.14-.27.2-.58.18-.88.02-.22-.02-.45-.09-.66-.08-.21-.2-.4-.36-.55-.43-.32-.94-.5-1.47-.53l-1.68-.15c-2.03-.17-3.04-1.06-3.04-2.65-.02-.41.07-.81.24-1.18.17-.37.43-.69.76-.94.77-.56,1.71-.83,2.66-.78.67,0,1.33.09,1.96.29.57.18,1.1.45,1.58.81l-.72.72c-.83-.59-1.82-.89-2.83-.86-.68-.05-1.35.13-1.92.5-.22.17-.4.39-.51.64-.12.25-.17.53-.15.81-.02.22.02.45.11.66.09.21.22.39.39.54.47.33,1.01.51,1.58.53l1.61.17c.4.04.79.1,1.18.2.34.08.66.23.93.44.27.21.48.49.62.8.17.38.26.8.25,1.22Z"/>
      <path class="cls-1" d="M85.41,108.51c.01.43-.08.86-.27,1.25-.19.39-.48.72-.83.96-.88.59-1.92.87-2.97.82-.79.01-1.57-.11-2.32-.36-.66-.24-1.27-.61-1.77-1.1l.73-.74c.44.43.96.77,1.53.98.57.21,1.18.31,1.79.27.79.05,1.58-.14,2.26-.53.25-.17.46-.4.6-.67.14-.27.2-.58.18-.88.02-.22-.02-.45-.1-.66-.08-.21-.21-.4-.37-.55-.43-.32-.94-.5-1.47-.53l-1.68-.15c-2.03-.17-3.05-1.05-3.05-2.65-.02-.41.07-.82.24-1.18.17-.37.43-.69.76-.94.77-.56,1.71-.83,2.66-.78.67,0,1.33.09,1.96.29.57.18,1.1.45,1.58.81l-.72.72c-.83-.59-1.82-.89-2.83-.86-.68-.05-1.36.13-1.93.5-.22.17-.39.39-.51.65-.11.25-.17.53-.15.81-.02.22.02.45.11.66.09.21.22.39.39.54.47.33,1.01.51,1.58.53l1.64.15c.4.04.79.1,1.17.2.34.08.66.23.94.44.26.21.48.49.62.8.16.39.24.81.22,1.23Z"/>
      <path class="cls-1" d="M88.37,106.55c-.07,1.07.23,2.13.84,3,.3.36.68.64,1.1.83.43.18.89.26,1.35.24.52.02,1.04-.08,1.52-.29.47-.24.9-.56,1.27-.94l.8.64c-.24.24-.5.47-.77.67-.25.19-.53.35-.82.49-.3.13-.61.23-.94.29-.37.06-.75.09-1.13.09-.6.04-1.2-.06-1.76-.29-.56-.23-1.05-.59-1.45-1.04-.73-.89-1.1-2.19-1.1-3.89,0-1.71.35-2.99,1.05-3.86.35-.45.81-.81,1.33-1.05.52-.24,1.09-.35,1.66-.32.56-.03,1.13.08,1.64.3.52.23.97.57,1.34,1.01.77,1.06,1.14,2.36,1.05,3.67v.48l-7-.02ZM94.29,105.06c0-.16-.03-.31-.06-.47-.03-.14-.06-.27-.1-.4-.04-.14-.1-.28-.15-.43-.22-.52-.58-.96-1.05-1.26-.47-.29-1.02-.45-1.58-.45s-1.1.15-1.58.45c-.47.3-.84.74-1.05,1.26-.06.14-.12.29-.16.43l-.09.4c-.03.14-.05.29-.06.47-.02.17-.03.39-.04.63h5.96c0-.24-.02-.45-.03-.63Z"/>
      <path class="cls-1" d="M104.17,111.42v-6.33c.06-.82-.2-1.63-.71-2.27-.27-.27-.6-.48-.96-.62-.36-.13-.74-.19-1.12-.16-.39-.03-.77.03-1.14.17-.36.14-.69.35-.97.62-.53.62-.8,1.43-.75,2.26v6.33h-1.05v-10.2h1.05v1.21c.36-.44.82-.78,1.34-1.02.52-.23,1.08-.35,1.64-.33.5-.04,1.01.04,1.48.21.47.18.9.46,1.26.82.36.36.63.8.8,1.28.17.48.24.99.19,1.5v6.52h-1.07Z"/>
      <path class="cls-1" d="M110.47,114.2c-.13.44-.37.85-.69,1.18-.25.25-.56.43-.89.53-.33.1-.67.15-1.02.15h-.53v-.96h.4c.24,0,.49-.02.72-.07.18-.04.35-.12.5-.24.14-.12.26-.27.35-.43.09-.18.18-.39.28-.65l.82-2.26-3.68-10.2h1.21l3.04,8.94,3.05-8.94h1.17l-4.72,12.96Z"/>
      <path class="cls-1" d="M65.89,81.9c-.06,1.16.29,2.31,1.01,3.23.37.4.83.72,1.33.92.51.2,1.05.29,1.6.25.72.03,1.44-.1,2.11-.38.61-.31,1.16-.72,1.64-1.22l1.98,1.87c-.37.38-.78.74-1.21,1.06-.4.3-.83.55-1.28.75-.48.21-.98.36-1.49.46-.6.1-1.21.15-1.82.15-.93,0-1.85-.13-2.73-.41-.83-.27-1.59-.73-2.21-1.35-.68-.71-1.19-1.55-1.49-2.48-.4-1.21-.59-2.48-.56-3.76,0-2.55.6-4.51,1.81-5.9.59-.69,1.33-1.23,2.16-1.59s1.73-.53,2.63-.49c.95-.02,1.9.16,2.78.53.8.35,1.52.87,2.1,1.53.58.7,1.02,1.5,1.28,2.37.3.99.45,2.02.44,3.05v1.39l-10.08.02ZM72.73,78.56c-.06-.34-.17-.66-.32-.97-.23-.59-.64-1.09-1.16-1.43-.56-.37-1.22-.55-1.9-.53-.68-.02-1.34.17-1.91.53-.53.34-.94.84-1.17,1.43-.15.3-.25.63-.31.97-.04.3-.07.68-.09,1.16h6.97c0-.39-.04-.77-.09-1.16h-.02Z"/>
      <path class="cls-1" d="M90.67,80.98c0,.59,0,1.2-.05,1.82-.03.6-.11,1.21-.23,1.8-.11.57-.29,1.12-.53,1.65-.24.55-.6,1.04-1.03,1.45-.44.41-.96.72-1.52.92-1.41.5-2.95.5-4.37,0-.72-.31-1.34-.79-1.83-1.4v7.92h-3.12v-21.95h3.05v1.66c.49-.63,1.13-1.14,1.85-1.46.72-.27,1.48-.4,2.24-.38.73,0,1.46.12,2.15.37.61.22,1.17.56,1.64,1.02.39.39.7.85.93,1.35.23.52.41,1.07.53,1.63.12.59.2,1.19.23,1.79.03.62.05,1.22.05,1.81ZM87.55,80.98c0-.66-.03-1.33-.11-1.98-.05-.57-.2-1.13-.44-1.65-.21-.46-.55-.85-.97-1.12-.51-.3-1.1-.44-1.68-.41-.59-.03-1.18.11-1.69.41-.42.28-.76.67-.98,1.12-.24.52-.4,1.08-.46,1.65-.14,1.32-.14,2.65,0,3.97.06.58.21,1.14.46,1.66.22.46.56.86.98,1.14.51.3,1.1.44,1.69.41.59.03,1.17-.12,1.68-.41.43-.28.77-.67.97-1.14.24-.53.39-1.09.44-1.66.08-.66.11-1.33.11-1.99Z"/>
      <path class="cls-1" d="M115.05,80.98c.01,1.18-.11,2.35-.37,3.5-.25,1-.76,1.92-1.47,2.65-.54.56-1.19,1.01-1.91,1.33-.86.37-1.8.55-2.74.53-.93.02-1.86-.16-2.72-.53-.71-.32-1.35-.77-1.89-1.33-.71-.74-1.22-1.65-1.47-2.65-.49-2.29-.49-4.67,0-6.96.25-1,.75-1.92,1.47-2.65.54-.56,1.18-1.01,1.89-1.33.86-.37,1.79-.55,2.72-.53.94-.02,1.87.16,2.74.53.71.31,1.36.76,1.91,1.33.71.74,1.22,1.65,1.47,2.65.26,1.14.38,2.3.37,3.47ZM111.93,80.98c0-.81-.06-1.63-.18-2.43-.09-.7-.4-1.35-.89-1.85-.62-.57-1.43-.89-2.28-.89s-1.65.32-2.28.89c-.48.51-.79,1.16-.88,1.85-.25,1.61-.25,3.25,0,4.87.09.7.4,1.34.88,1.85.61.59,1.43.92,2.28.92s1.66-.33,2.28-.92c.49-.5.8-1.15.89-1.85.13-.81.19-1.62.18-2.44Z"/>
      <path class="cls-4" d="M100.67,76.3c-1.17.12-2.28.62-3.13,1.44-.44.47-.79,1.03-1.01,1.64-.22.61-.32,1.26-.29,1.91v7.49h-3.16v-7.86c-.02-1.05.18-2.08.58-3.05.4-.96.99-1.83,1.74-2.56.68-.73,1.51-1.32,2.42-1.72.91-.4,1.9-.62,2.9-.63l-.05,3.34Z"/>
      <path class="cls-4" d="M61.43,76.3c-1.17.12-2.28.62-3.13,1.44-.44.47-.79,1.03-1.01,1.64-.22.61-.32,1.26-.29,1.91v7.49h-3.16v-7.86c-.02-1.04.18-2.08.58-3.05.4-.96.99-1.83,1.74-2.56.69-.73,1.51-1.32,2.43-1.73.92-.4,1.9-.62,2.9-.63l-.05,3.34Z"/>
    </g>
  </g>
  <path class="cls-1" d="M49.19,147.72c.33.13.68.21,1.02.23.24.07.54,0,.81-.03l.2.04c.3.09.67-.05,1-.05.2.06.44,0,.67-.03.83-.12,1.65-.11,2.49-.27.28.08.62-.02.94-.06.46-.06.93-.13,1.39-.2l1.16-.14s0-.03,0-.04h.02s0,.02,0,.04c.51,0,1.01-.04,1.49-.22.05-.01.11-.02.16-.02.33.05.67,0,.99-.13l.49-.09c.15.02.29.05.49.01.83-.14,1.69-.15,2.5-.41.22-.02.43-.08.64-.16h0c.4.05.79,0,1.17-.17.16,0,.31.03.49,0l-.02-.08.18-.09c.56.06,1.11-.08,1.66-.23l.32-.04c.55.06,1.12-.11,1.68-.18.04,0,.09,0,.13-.01.33-.15.67-.07,1-.13.67-.12,1.36-.12,2-.36.05,0,.1-.01.14-.02.28.07.56-.06.83-.11.23-.04.49-.04.66-.16l.32-.06c.22-.09.45-.12.67-.09.23.1.45-.02.67-.1l.15-.02c.22.01.45.08.67-.09l.46-.13.03-.02h0l-.03.02c.19.07.35-.03.52-.09.44-.07.89-.11,1.34-.12.05,0,.1-.01.15-.02.23-.04.49-.03.66-.16.15-.12.33-.15.5-.07.15.02.27.02.32-.05.06.02.13.03.19.05.05,0,.1-.01.15-.02.1-.1.33-.1.52-.17-.08-.07-.4.04-.4-.06,0-.1.13-.17.35-.21.14-.02.26-.06.34-.12l.17-.03c.01.1.13.16.32.19,0,.05.02.09.02.13.27-.02.32-.15.49-.22l.12.04s0,.01-.01.02c-.01.04,0,.06.06.07l.17-.02c.11.01.21,0,.32-.02.04-.01.08-.03.12-.05.17-.03.34-.12.49-.25.02,0,.03,0,.05-.01.07-.02.14-.06.2-.12l.3.09c.07.06.19.09.34.1l.33-.05c.39.07.58-.1.78-.23.12-.07.19-.15.36-.08-.11.06,0,.12.04.1.31-.15.65-.1.97-.16.32-.05.45-.26.82-.26l.34.1c.07.05.21.04.34.03.09.04.26.06.35,0,.24-.17.52-.15.81-.16h0c.13.07.32.02.51,0,.22,0,.44-.14.66-.09.42.09.89-.12,1.33-.11l.67-.1.14-.02c.36-.04.72-.1,1.07-.13.35-.03.23-.13.26-.2l.33-.04c-.1.22-.06.24.21.13.29-.12.53-.05.79-.12l.33-.05c.17,0,.34.08.5-.07.12-.1.32-.11.49-.14.55.09,1.1.06,1.64-.08.58-.17,1.14-.09,1.72-.22.49-.1.93-.21,1.28-.42.13.01.15.07.17.12.35.16.91.01,1.37.01.33,0,.36-.19.39-.35.47.14.91.17,1.38-.09.22-.05.44-.05.66-.02,0,.02,0,.04.01.07.09-.02.18-.03.27-.04-.09.02-.18.04-.27.04.98.06,1.97-.12,2.97-.33h0s0,0,0,0c.38.09.83-.08,1.24-.08.02,0,.07-.07.1-.1.18-.04.33,0,.49,0,.28.07.56.03.83-.12.09-.11.27-.19.5-.22.05,0,.1,0,.15-.01.01.06-.03.14.1.16.18.03.2-.06.26-.12.07-.08.19-.12.28-.05.22.18.36,0,.53-.08.33-.16.54.02.83-.04.16-.15.35-.28.65-.39l.16-.03c.04.07-.19.19,0,.24.26.07.39-.07.55-.15.37-.16.88-.32.41-.52-.06-.07-.18-.11-.17-.2.18-.03.38-.04.49-.14,0-.07-.01-.15-.02-.22.02-.06.06-.16.22-.14.2.03.35.07.57-.04.19-.1.14-.22.21-.32.05-.09-.19-.19-.34-.27-.12-.06-.34-.02-.53,0,0-.02,0-.04-.01-.07-.25-.14-.4-.14-.81,0-.06,0-.12.03-.17.07,0,.04-.02.09-.03.13l-.31-.02s0-.02,0-.04c0-.01,0-.02-.01-.03-.26-.07-.61-.05-.75.1-.24.25-.36.06-.53.07-.32-.16-.8.04-1.2.03-.36.12-.8.05-1.14.23-.17-.07-.4-.01-.61.02-.4.05-.36.15-.25.25h.04s-.04,0-.04,0l-.28.04c-.04-.09-.14-.13-.36-.09-.17-.09-.32-.22-.72-.09-.25.08-.54.04-.78.15-.12-.08-.32-.03-.5,0l-.18.09c-.26.1-.55-.05-.8.12-.18.03-.37.04-.51.13-.05.01-.1.02-.16.04-.23-.08-.45-.14-.66.09h0s0,0,0,0h0c-.21.02-.44.09-.6.03-.29-.11-.39.07-.56.14-.22,0-.36-.12-.65-.05-.3.06-.7,0-.84.24-.05.01-.1.03-.15.04-.1-.15-.39-.1-.67-.05-.21.09-.43.13-.66.1-.18.05-.33.08-.37-.03-.11,0-.22.04-.33.1h.06s0,.02,0,.02l-.05-.02c-.08.02-.15.04-.23.07-.38.19-.81.03-1.17.18-.38.16-.01.34-.34.51-.05.02-.1.03-.16.04-.31-.06-.48-.16-.27-.37.05-.05.33-.06.17-.12-.07-.03-.32.02-.35.08-.09.18-.25.13-.42.09-.33.04-.67.04-1,0-.32.12-.61.21-1.01.16-.24-.03-.64.07-.96.11l-.46.07-.36.12c-.16-.07-.33-.05-.5.06-.21.07-.45-.01-.66.1-.3.06-.52-.09-.84.05-.18,0-.32.07-.47.12-.43-.1-.91.15-1.35.13h0c-.56.08-1.12.16-1.66.29-.05,0-.1.01-.14,0-.5-.04-1,0-1.5.14l-.51.09-.64.09-.5.13c-.31,0-.51.1-.66.23-.13,0-.28.03-.28-.05-.02-.22-.19-.11-.39,0l-.31.04c-.08.03-.15.05-.23.06-.48.03-.96.11-1.43.24-.06-.09-.15-.18-.39-.03-.21.13-.18.13-.43.07h-.01c-.17-.07-.35-.04-.5.07l-.32.05c-.08-.05-.2-.04-.34-.02-.23.04-.49.03-.66.16l-.17.04c-.05,0-.11,0-.16,0-.42.06-.85.08-1.2.28-.16.09-.41.09-.62.13-.38-.16-.89.04-1.34.08-.15.01-.32.07-.48.07-.17-.05-.35-.02-.51.09h.04s-.01.02-.01.02l-.02-.02c-.32.08-.7.05-.98.21-.33.06-.68.09-.98.21-.23-.12-.51-.13-.84.05-.13.02-.25.05-.33.12h.03s-.03,0-.03,0c-.4-.02-.84.12-1.23.08l-.08.11-.5.08-.32.04-1.01.15h-.07s-.07.02-.07.02c-.56.1-1.15.08-1.67.3l-.48.07c-.5.09-1.02.08-1.49.27-.05.01-.1.03-.15.04-.46.06-.93.07-1.36.25-.22.05-.47.05-.64.17l-.33.06h-.08s-.08.02-.08.02l-1.16.16c-.43.04-.87.14-1.31.16-.13,0-.17.07-.2.12-.6.12-1.24.11-1.82.33l-.31.05-.83.12c-.44.09-.93.06-1.33.25l-.17.04-.82.11c-.34.06-.7.05-.99.21l-.07.02h-.07c-.17-.06-.36-.03-.52.07l-.64.1c-.56.1-1.15.08-1.67.3l-.31.05c-.57.08-1.15.16-1.72.24-.21.03-.45.04-.58.16,0,.02-.02.04-.03.06-.13.03-.27.05-.32.12-.23.12-.19.2.02.24ZM70.2,145.4h-.03s.05-.02.07-.03c-.01.01-.03.02-.04.03ZM78.98,143.7h0,0s0,0,0,0h0ZM78.8,143.35h0s0,0,0,0h.01ZM74.32,143.47h0s0,0,0,0h.02ZM51.21,147.42h0-.01s0,0,0,0ZM53.82,147.54s-.04-.01-.05-.02c.02,0,.05,0,.08-.01,0,.01-.02.02-.03.03h0ZM63.2,145.02h.02-.01s0,0,0,0ZM63.88,144.99h.01s-.01,0-.01,0c0,0,0,0,0,0h0ZM94.8,140.52h0,0ZM90.2,141.34h0s-.02,0-.03,0c.01,0,.02,0,.03,0ZM94.15,141.31c-.07.04-.13.07-.2.11-.01,0-.03.01-.05.02l-.21-.02c-.37,0-.49-.14-.65-.25.01-.01.03-.03.04-.05.03,0,.06,0,.09,0,.6.08.63.07.65-.22h0s.09,0,.14-.02c.02.02.04.04.05.07.03.03.07.06.1.07.02,0,.04,0,.05.01,0,.09,0,.18,0,.26l-.03.02ZM104.13,139.09s-.05.06-.07.1c-.01.07-.02.14,0,.22,0,0,0,0,0,.02-.33.07-.55.21-.79.33,0-.04-.01-.07-.02-.11h.04c.31-.17.39-.33.27-.48.19.02.38-.03.57-.07h0ZM109.65,139.68h-.03c.05-.07.1-.15-.09-.14-.28.02-.34-.05-.4-.13.02,0,.03-.02.05-.03.25-.1.2-.24.38-.35v.09s.03.02.04.02c.03.08-.36.33.19.2.03.01.06.02.1.04.03,0,.06.02.08.02.02,0,.05.01.07.02.07.01.15.02.22.02.07,0,.15-.02.22-.04l.1-.05.51-.12s-.01.1-.02.15h-.01c-.17.08-.21.18-.29.27h0c-.18.06-.24.18-.47.21-.03-.17-.34-.16-.64-.16h0ZM106.9,139.49h.01s-.01,0-.01,0ZM112.42,138.8h0s.01,0,.01,0h-.02ZM82.09,143.38c-.16-.13-.33-.25-.34-.42.11-.09.26-.17.47-.21,0,.01,0,.02,0,.03,0,0,0,0,.01,0h-.01c-.03.1.1.12.23.14h.03c-.05.07-.03.12.06.17-.26.06-.39.16-.46.28ZM63.97,146.46h-.01,0s0,0,0,0ZM57.66,147.28h.02s.02-.03.02-.03h.02l-.04.03s0,.02,0,.03c0-.01-.01-.02-.02-.03Z"/>
</svg>