<svg width="106" height="24" viewBox="0 0 106 24" fill="none" xmlns="http://www.w3.org/2000/svg">
<g clip-path="url(#clip0_816_1008)">
<path d="M30.0483 8.70283C29.4463 8.0438 28.7095 7.52354 27.8884 7.17783C27.0674 6.83211 26.1816 6.6691 25.292 6.70002C24.4023 6.73095 23.5298 6.95506 22.7345 7.35696C21.9392 7.75886 21.2399 8.32903 20.6846 9.02829C19.4069 10.8209 18.7716 12.9958 18.8823 15.1981V15.4245C18.7814 17.6365 19.4209 19.8187 20.6987 21.6226C21.2307 22.3739 21.9372 22.9832 22.7568 23.3975C23.5764 23.8118 24.4844 24.0187 25.4017 24C26.2993 24.0439 27.1947 23.876 28.0162 23.5099C28.8377 23.1438 29.5626 22.5896 30.1328 21.8915L30.2736 23.6887H32.8786V-0.0141602H30.0624L30.0483 8.70283ZM30.0483 19.1321C29.7091 19.8888 29.1524 20.5263 28.4499 20.9626C27.7473 21.3988 26.9309 21.6139 26.1057 21.5802C25.4767 21.6053 24.8514 21.4706 24.2878 21.1887C23.7243 20.9067 23.2405 20.4865 22.8812 19.967C22.0381 18.656 21.629 17.1106 21.7125 15.5519C21.6037 13.8702 22.0117 12.1956 22.8812 10.7547C23.2458 10.2338 23.7347 9.81322 24.3029 9.53138C24.8712 9.24954 25.5007 9.11549 26.1339 9.1415C26.9431 9.11702 27.7423 9.32674 28.4362 9.74571C29.1302 10.1647 29.6898 10.7752 30.0483 11.5047V19.1321Z" fill="#37448F"/>
<path d="M41.5101 6.69347C40.204 6.69209 38.9262 7.07586 37.835 7.79724C36.694 8.55302 35.7828 9.61074 35.2019 10.8538C34.5513 12.2372 34.2284 13.7533 34.2585 15.2831V15.8067C34.1503 17.9952 34.9098 20.1376 36.3706 21.7642C37.0794 22.5023 37.9344 23.0826 38.8803 23.4678C39.8262 23.8529 40.8421 24.0343 41.8621 24.0001C43.0964 24.0623 44.3253 23.7969 45.4252 23.2306C46.5251 22.6642 47.4573 21.8168 48.1281 20.7737L46.3961 19.3586C45.8984 20.0168 45.2764 20.5698 44.5656 20.9859C43.7871 21.4197 42.9068 21.6348 42.017 21.6086C41.3606 21.6254 40.7083 21.4987 40.1054 21.2373C39.5025 20.9758 38.9632 20.5859 38.525 20.0944C37.5794 18.9857 37.0776 17.5635 37.1169 16.1039H48.3815V14.9152C48.5273 12.7198 47.8937 10.5437 46.5933 8.77366C45.9712 8.05429 45.1934 7.48767 44.3196 7.11727C43.4458 6.74687 42.4992 6.58253 41.5523 6.63686M45.5513 13.7123H37.2014C37.2915 12.4185 37.784 11.1858 38.6095 10.1888C38.9751 9.7872 39.4216 9.46846 39.9193 9.25375C40.417 9.03904 40.9545 8.93327 41.496 8.94347C42.0235 8.92134 42.5494 9.0164 43.0361 9.22186C43.5229 9.42732 43.9586 9.73812 44.3122 10.1321C45.0639 11.0928 45.4751 12.278 45.4809 13.5001L45.5513 13.7123Z" fill="#37448F"/>
<path d="M55.3515 19.8112L51.1272 7.00464H48.2266L54.2391 23.6886H56.4075L62.3637 7.00464H59.463L55.3515 19.8112Z" fill="#37448F"/>
<path d="M66.616 7.00464H63.7717V23.6886H66.616V7.00464Z" fill="#37448F"/>
<path d="M65.2081 0.919791C64.977 0.904401 64.7454 0.939437 64.529 1.02249C64.3127 1.10553 64.1169 1.23463 63.9549 1.40092C63.6719 1.72502 63.5211 2.14445 63.5324 2.57545C63.519 3.00253 63.6703 3.4183 63.9549 3.73582C64.1188 3.8978 64.3157 4.02217 64.5321 4.10034C64.7484 4.17851 64.979 4.20864 65.2081 4.18866C65.437 4.2077 65.6674 4.17712 65.8836 4.099C66.0998 4.02088 66.2968 3.89703 66.4612 3.73582C66.7496 3.41971 66.9059 3.00422 66.8977 2.57545C66.9038 2.1428 66.7481 1.72362 66.4612 1.40092C66.2987 1.23539 66.1027 1.1068 65.8866 1.0238C65.6704 0.940808 65.439 0.905338 65.2081 0.919791Z" fill="#37448F"/>
<path d="M76.6275 6.69327C75.6688 6.67107 74.7185 6.8775 73.8545 7.29566C72.9905 7.71382 72.2374 8.3318 71.657 9.09892L71.5725 7.00459H68.8831V23.6885H71.6992V11.8018C72.0624 11.0214 72.6202 10.3486 73.3185 9.84892C74.0283 9.35302 74.8761 9.09545 75.7404 9.11307C76.1971 9.07366 76.657 9.13005 77.0908 9.27864C77.5247 9.42723 77.9231 9.6648 78.2609 9.97628C78.8536 10.7352 79.1446 11.6884 79.0775 12.6508V23.6885H81.8937V12.7216C81.8937 8.74515 80.0914 6.74986 76.5712 6.74986" fill="#37448F"/>
<path d="M88.3427 21.0707C88.0421 20.6313 87.8981 20.1027 87.9343 19.5707V9.21223H91.0321V7.06128H87.8921V2.95752H85.0759V7.06128H82.0626V9.26883H85.0759V19.6132C85.0022 20.7887 85.3465 21.9522 86.0475 22.8962C86.4031 23.2859 86.8398 23.5919 87.3266 23.7925C87.8134 23.993 88.3382 24.0832 88.8636 24.0566C89.5968 24.0478 90.3258 23.9432 91.0321 23.7453V21.4386C90.5941 21.5504 90.1458 21.6168 89.6944 21.6367C89.4368 21.662 89.1768 21.6294 88.9333 21.5413C88.6898 21.4532 88.4688 21.3118 88.2863 21.1273" fill="#37448F"/>
<path d="M105.423 19.7971V12.1131C105.44 11.3696 105.298 10.6311 105.006 9.9475C104.715 9.26391 104.281 8.65122 103.733 8.15088C102.461 7.1371 100.861 6.63293 99.2412 6.73579C98.098 6.72132 96.9649 6.95292 95.9181 7.41503C94.9749 7.80909 94.15 8.44308 93.5244 9.25465C92.9676 9.93873 92.6552 10.7908 92.6373 11.6745H95.4535C95.4575 11.3019 95.5536 10.9362 95.733 10.6102C95.9124 10.2842 96.1696 10.008 96.4814 9.80654C97.22 9.26711 98.1176 8.99298 99.03 9.02823C99.5037 8.9931 99.9796 9.0539 100.429 9.20704C100.879 9.36018 101.294 9.60255 101.649 9.91975C101.95 10.2346 102.184 10.6079 102.336 11.0166C102.489 11.4254 102.557 11.861 102.536 12.2971V13.6131H99.72C97.7686 13.4865 95.8272 13.9817 94.1721 15.0282C93.5343 15.4846 93.0199 16.0938 92.6757 16.8005C92.3314 17.5073 92.1682 18.2892 92.2008 19.0754C92.1847 19.7459 92.318 20.4116 92.5909 21.0237C92.8637 21.6358 93.2693 22.1788 93.7779 22.6131C94.8934 23.5805 96.3327 24.0863 97.805 24.0282C98.6914 24.0354 99.5695 23.8553 100.382 23.4993C101.195 23.1434 101.924 22.6197 102.522 21.9622C102.573 22.5639 102.71 23.1549 102.93 23.7169H105.901V23.4622C105.468 22.2963 105.271 21.0548 105.324 19.8113M102.508 19.0471C102.128 19.8106 101.523 20.438 100.776 20.8443C100.008 21.2996 99.1329 21.5391 98.2415 21.5377C97.4163 21.5701 96.6069 21.304 95.9604 20.7877C95.6633 20.5267 95.429 20.2013 95.2754 19.836C95.1217 19.4708 95.0526 19.0752 95.0733 18.6792C95.0733 16.6414 96.8052 15.6226 100.283 15.6226H102.508V19.0471Z" fill="#37448F"/>
<path d="M11.0393 1.2312H8.46253L2.21066 17.8019H17.4038L11.0393 1.2312ZM9.75795 4.88215L13.5879 15.3963H5.99839L9.75795 4.88215Z" fill="#37448F"/>
<path d="M15.1368 19.6133L16.6293 23.6888H19.6567L18.0937 19.6133H15.1368Z" fill="#37448F"/>
<path d="M-3.05176e-05 23.6888H3.04142L4.49173 19.6133H1.53477L-3.05176e-05 23.6888Z" fill="#37448F"/>
</g>
<defs>
<clipPath id="clip0_816_1008">
<rect width="106" height="24" fill="white"/>
</clipPath>
</defs>
</svg>
