<svg width="88" height="24" viewBox="0 0 88 24" fill="none" xmlns="http://www.w3.org/2000/svg">
<g clip-path="url(#clip0_816_1164)">
<path d="M87.6724 10.7631C87.4738 9.96059 87.1154 9.20626 86.6185 8.54506C86.1041 7.87264 85.4414 7.32772 84.6817 6.95265C83.7917 6.53373 82.8171 6.32455 81.8333 6.34126C81.269 6.33898 80.7073 6.42044 80.167 6.58296C79.6723 6.73091 79.1949 6.93111 78.7428 7.18014C78.3051 7.4281 77.9068 7.73954 77.5608 8.1043L77.219 8.48819V6.79625H71.5223V23.4882H77.4468V14.4598C77.4457 14.0415 77.5032 13.6251 77.6177 13.2228C77.7116 12.8536 77.876 12.506 78.102 12.1991C78.3077 11.9097 78.5816 11.6753 78.8995 11.5166C79.2509 11.3505 79.6359 11.2678 80.0246 11.2749C80.3851 11.2581 80.7437 11.3366 81.0642 11.5024C81.3312 11.6548 81.5525 11.8757 81.7051 12.1422C81.8719 12.4585 81.9873 12.7992 82.0469 13.1517C82.1171 13.5602 82.1505 13.9742 82.1466 14.3887V23.4882H88.0427V13.2797C88.0438 12.4498 87.9386 11.6231 87.7294 10.8199" fill="#2D4285"/>
<path d="M63.8317 15.1421C63.8345 15.8457 63.6281 16.5343 63.2386 17.1207C62.8491 17.7071 62.2941 18.1649 61.6437 18.4361C60.9934 18.7073 60.277 18.7797 59.5854 18.6442C58.8938 18.5087 58.2581 18.1713 57.7587 17.6747C57.2593 17.1782 56.9188 16.5449 56.7803 15.855C56.6417 15.1651 56.7114 14.4497 56.9805 13.7993C57.2495 13.149 57.7059 12.593 58.2917 12.2018C58.8775 11.8106 59.5665 11.6018 60.2713 11.6018C61.2131 11.6018 62.1165 11.9743 62.7838 12.6378C63.4511 13.3014 63.8279 14.2018 63.8317 15.1421ZM60.2713 6.27003C58.5142 6.27284 56.7974 6.79555 55.3378 7.77212C53.8783 8.7487 52.7415 10.1353 52.071 11.7567C51.4006 13.3781 51.2266 15.1615 51.5711 16.8816C51.9156 18.6017 52.7632 20.1812 54.0066 21.4206C55.25 22.6599 56.8335 23.5035 58.557 23.8446C60.2805 24.1858 62.0666 24.0093 63.6897 23.3374C65.3127 22.6655 66.6997 21.5283 67.6756 20.0696C68.6515 18.6109 69.1724 16.8962 69.1724 15.1421C69.1724 13.9758 68.942 12.8209 68.4945 11.7436C68.047 10.6663 67.3912 9.68759 66.5645 8.86355C65.7377 8.03952 64.7563 7.3863 63.6765 6.94127C62.5966 6.49625 61.4395 6.26816 60.2713 6.27003Z" fill="#2D4285"/>
<path d="M44.178 18.6825C43.5644 18.6823 42.9614 18.5231 42.4279 18.2207C41.8943 17.9182 41.4485 17.4826 41.1341 16.9567C40.8196 16.4307 40.6472 15.8322 40.6337 15.2198C40.6203 14.6074 40.7663 14.002 41.0573 13.4628C41.3484 12.9235 41.7746 12.4689 42.2944 12.1434C42.8141 11.8178 43.4095 11.6324 44.0225 11.6054C44.6355 11.5783 45.2449 11.7105 45.7914 11.989C46.3379 12.2675 46.8027 12.6828 47.1403 13.1943L50.6865 9.09953C49.4698 7.80332 47.8908 6.90228 46.1546 6.51342C44.4184 6.12456 42.6052 6.26584 40.9504 6.91892C39.2956 7.572 37.8757 8.70669 36.8752 10.1757C35.8747 11.6446 35.3397 13.38 35.3397 15.1564C35.3397 16.9328 35.8747 18.6682 36.8752 20.1371C37.8757 21.6061 39.2956 22.7408 40.9504 23.3939C42.6052 24.047 44.4184 24.1882 46.1546 23.7994C47.8908 23.4105 49.4698 22.5095 50.6865 21.2133L47.2115 16.9479C46.8956 17.4602 46.4536 17.8834 45.9276 18.177C45.4017 18.4707 44.8091 18.6251 44.2064 18.6256" fill="#2D4285"/>
<path d="M9.8838 7.17379e-05L0 23.4882H6.66515L8.28873 18.9669H16.8338L18.614 23.474H25.4074L15.6233 -0.0141602L9.8838 7.17379e-05ZM15.139 13.9906H10.1544L12.6752 7.20859L15.139 13.9906Z" fill="#2D4285"/>
<path d="M33.0837 0H27.0879V23.4882H33.0837V0Z" fill="#2D4285"/>
</g>
<defs>
<clipPath id="clip0_816_1164">
<rect width="88" height="24" fill="white"/>
</clipPath>
</defs>
</svg>
