<svg width="152" height="16" viewBox="0 0 152 16" fill="none" xmlns="http://www.w3.org/2000/svg">
<g clip-path="url(#clip0_816_1065)">
<path d="M81.8685 12.5444C80.957 12.5747 80.0571 12.3328 79.2844 11.8498C78.5116 11.3667 77.9011 10.6645 77.531 9.83312C77.1609 9.00172 77.0482 8.07902 77.2073 7.1833C77.3663 6.28758 77.7899 5.45962 78.4238 4.80559C79.0576 4.15155 79.8729 3.70123 80.765 3.51232C81.6571 3.3234 82.5854 3.40452 83.431 3.74526C84.2766 4.086 85.0008 4.67084 85.511 5.42484C86.0212 6.17883 86.2941 7.06762 86.2946 7.97728C86.2952 9.16262 85.8339 10.3018 85.0079 11.154C84.182 12.0063 83.0562 12.5048 81.8685 12.5444ZM81.8685 0.0457981C80.2824 0.00949032 78.7215 0.445402 77.3849 1.29791C76.0484 2.15041 74.9968 3.38083 74.3644 4.83212C73.7321 6.2834 73.5477 7.88972 73.8347 9.44602C74.1217 11.0023 74.8671 12.438 75.9758 13.5699C77.0846 14.7017 78.5062 15.4783 80.0594 15.8006C81.6126 16.123 83.2269 15.9763 84.6962 15.3795C86.1655 14.7826 87.4231 13.7625 88.3086 12.4495C89.1941 11.1365 89.6672 9.59017 89.6676 8.00776C89.688 5.92149 88.8787 3.91219 87.4169 2.41989C85.9551 0.927583 83.96 0.0738931 81.8685 0.0457981Z" fill="#0A0A0C"/>
<path d="M33.8982 12.5444C32.9867 12.5747 32.0869 12.3328 31.3141 11.8498C30.5413 11.3667 29.9308 10.6645 29.5607 9.83312C29.1906 9.00172 29.0779 8.07902 29.2369 7.1833C29.396 6.28758 29.8196 5.45962 30.4534 4.80559C31.0873 4.15155 31.9025 3.70123 32.7946 3.51232C33.6867 3.3234 34.6151 3.40452 35.4607 3.74526C36.3063 4.086 37.0306 4.67084 37.5408 5.42484C38.051 6.17883 38.3238 7.06762 38.3243 7.97728C38.3344 8.56706 38.2279 9.15305 38.0109 9.70178C37.794 10.2505 37.4707 10.7512 37.0597 11.1754C36.6487 11.5995 36.1579 11.9387 35.6154 12.1736C35.073 12.4085 34.4895 12.5344 33.8982 12.5444ZM33.8982 0.0457981C32.3122 0.00949032 30.7512 0.445402 29.4147 1.29791C28.0781 2.15041 27.0265 3.38083 26.3942 4.83212C25.7618 6.2834 25.5774 7.88972 25.8644 9.44602C26.1514 11.0023 26.8969 12.438 28.0056 13.5699C29.1143 14.7017 30.5359 15.4783 32.0891 15.8006C33.6424 16.123 35.2567 15.9763 36.726 15.3795C38.1952 14.7826 39.4529 13.7625 40.3383 12.4495C41.2238 11.1365 41.697 9.59017 41.6974 8.00776C41.7178 5.92149 40.9084 3.91219 39.4466 2.41989C37.9849 0.927583 35.9897 0.0738931 33.8982 0.0457981Z" fill="#0A0A0C"/>
<path d="M3.37307 8.00763C3.36094 7.41731 3.466 6.83043 3.68225 6.2808C3.8985 5.73117 4.22158 5.22965 4.633 4.80513C5.04441 4.38062 5.53603 4.04149 6.07942 3.80729C6.62281 3.57309 7.20727 3.44846 7.79916 3.44055V0C5.68212 2.51727e-07 3.65176 0.838842 2.15478 2.332C0.657808 3.82515 -0.183136 5.85032 -0.183136 7.96196C-0.183136 10.0736 0.657808 12.0987 2.15478 13.5919C3.65176 15.085 5.68212 15.9239 7.79916 15.9239H11.9201V12.4986H7.79916C6.61144 12.459 5.48568 11.9605 4.65973 11.1082C3.83378 10.256 3.37241 9.11683 3.37307 7.93148" fill="#0A0A0C"/>
<path d="M111.142 12.5443C110.231 12.5715 109.333 12.3271 108.562 11.8421C107.791 11.3571 107.183 10.6537 106.815 9.82197C106.447 8.99022 106.337 8.06793 106.498 7.17317C106.659 6.27841 107.084 5.45191 107.718 4.79941C108.353 4.14692 109.168 3.69812 110.06 3.51051C110.951 3.32289 111.879 3.40496 112.724 3.74624C113.568 4.08752 114.292 4.67245 114.801 5.42619C115.311 6.17992 115.583 7.06816 115.583 7.97719C115.594 8.56823 115.487 9.15546 115.269 9.70517C115.051 10.2549 114.726 10.7563 114.313 11.1806C113.901 11.6049 113.408 11.9438 112.864 12.1778C112.32 12.4118 111.735 12.5363 111.142 12.5443ZM111.142 0.0457071C109.557 0.0124384 107.997 0.450989 106.663 1.30539C105.328 2.15979 104.279 3.39129 103.649 4.8429C103.019 6.29451 102.837 7.9004 103.125 9.45574C103.414 11.0111 104.161 12.4454 105.27 13.5757C106.379 14.706 107.801 15.4811 109.354 15.8021C110.907 16.1232 112.52 15.9755 113.989 15.3782C115.457 14.7808 116.714 13.7607 117.599 12.448C118.483 11.1352 118.956 9.58945 118.957 8.00766C118.977 5.9188 118.165 3.90719 116.7 2.41445C115.235 0.921714 113.236 0.069805 111.142 0.0457071Z" fill="#0A0A0C"/>
<path d="M95.2995 8.00771V0.0305176H91.9265V8.00771C91.9144 9.04512 92.108 10.0747 92.4963 11.0371C92.8846 11.9996 93.4598 12.8761 94.1889 13.616C94.918 14.356 95.7865 14.9448 96.7445 15.3488C97.7026 15.7527 98.7313 15.9637 99.7714 15.9696H101.801V12.5443H99.7714C98.5837 12.5048 97.458 12.0062 96.632 11.154C95.8061 10.3017 95.3446 9.16258 95.3453 7.97724" fill="#0A0A0C"/>
<path d="M14.7895 8.00763V15.9848H18.1625V8.00763C18.1504 7.41731 18.2554 6.83043 18.4717 6.2808C18.6879 5.73117 19.011 5.22965 19.4224 4.80513C19.8339 4.38062 20.3255 4.04149 20.8689 3.80729C21.4123 3.57309 21.9967 3.44846 22.5886 3.44055H24.6186V0H22.5886C20.4971 0.0280951 18.502 0.881785 17.0402 2.37409C15.5784 3.86639 14.7691 5.87569 14.7895 7.96196" fill="#0A0A0C"/>
<path d="M132.22 12.5442H129.015C127.912 12.4013 126.899 11.8629 126.165 11.0294C125.43 10.196 125.026 9.12454 125.026 8.01519C125.026 6.90583 125.43 5.83442 126.165 5.00099C126.899 4.16756 127.912 3.62912 129.015 3.4862V0.0456543C126.897 0.0456545 124.867 0.884497 123.37 2.37765C121.873 3.8708 121.032 5.89597 121.032 8.00761C121.032 10.1193 121.873 12.1444 123.37 13.6375C124.867 15.1307 126.897 15.9695 129.015 15.9695H135.578V8.0228H132.22V12.5442Z" fill="#0A0A0C"/>
<path d="M148.612 0.0304305V2.02472C148.612 3.19561 148.145 4.31857 147.315 5.14651C146.485 5.97446 145.359 6.4396 144.186 6.4396C143.012 6.4396 141.886 5.97446 141.056 5.14651C140.226 4.31857 139.759 3.19561 139.759 2.02472V0H136.402V2.02472C136.39 3.81833 136.987 5.5632 138.095 6.97559C139.203 8.38798 140.758 9.38483 142.507 9.804V16H145.864V9.804C147.613 9.38483 149.168 8.38798 150.276 6.97559C151.385 5.5632 151.981 3.81833 151.969 2.02472V0.0304305H148.612Z" fill="#0A0A0C"/>
<path d="M63.996 0.0456543C62.8125 0.0526428 61.6464 0.330853 60.5879 0.858775C59.5294 1.3867 58.6066 2.15021 57.891 3.09037C57.1753 2.15021 56.2526 1.3867 55.194 0.858775C54.1355 0.330853 52.9694 0.0526428 51.7859 0.0456543C49.6944 0.0737494 47.6993 0.927439 46.2375 2.41974C44.7757 3.91204 43.9664 5.92135 43.9868 8.00761V16H47.3597V8.00761C47.3243 7.40502 47.4127 6.80153 47.6195 6.23424C47.8262 5.66694 48.1471 5.14778 48.5623 4.70862C48.9775 4.26947 49.4783 3.91959 50.034 3.68045C50.5896 3.4413 51.1884 3.31793 51.7936 3.31793C52.3987 3.31793 52.9975 3.4413 53.5532 3.68045C54.1088 3.91959 54.6097 4.26947 55.0248 4.70862C55.44 5.14778 55.7609 5.66694 55.9677 6.23424C56.1745 6.80153 56.2628 7.40502 56.2273 8.00761V16H59.5851V8.00761C59.5496 7.40502 59.638 6.80153 59.8448 6.23424C60.0516 5.66694 60.3724 5.14778 60.7876 4.70862C61.2028 4.26947 61.7036 3.91959 62.2593 3.68045C62.8149 3.4413 63.4137 3.31793 64.0189 3.31793C64.6241 3.31793 65.2229 3.4413 65.7785 3.68045C66.3342 3.91959 66.835 4.26947 67.2502 4.70862C67.6654 5.14778 67.9861 5.66694 68.1929 6.23424C68.3997 6.80153 68.4881 7.40502 68.4526 8.00761V16.0152H71.8257V8.00761C71.8461 5.92135 71.0368 3.91204 69.575 2.41974C68.1132 0.927439 66.1181 0.0737494 64.0265 0.0456543" fill="#0A0A0C"/>
</g>
<defs>
<clipPath id="clip0_816_1065">
<rect width="152" height="16" fill="white"/>
</clipPath>
</defs>
</svg>
