<svg width="74" height="40" viewBox="0 0 74 40" fill="none" xmlns="http://www.w3.org/2000/svg">
<g clip-path="url(#clip0_816_992)">
<path d="M71.0086 17.0607H70.7505V23.257H73.9883V23.0219H71.0086V17.0607ZM69.4718 20.1647C69.4718 22.0577 69.1785 23.0571 67.4775 23.0571C65.7765 23.0571 65.4832 22.0577 65.4832 20.1647C65.4832 18.2717 65.7882 17.2605 67.4775 17.2605C69.1668 17.2605 69.4718 18.2599 69.4718 20.1647ZM69.7416 20.1647C69.7416 18.2717 69.46 17.0254 67.4775 17.0254C65.4949 17.0254 65.2251 18.2717 65.2251 20.1647C65.2251 22.0577 65.5066 23.304 67.4775 23.304C69.4483 23.304 69.7416 22.0459 69.7416 20.1647ZM63.9112 18.6127C63.9112 19.2711 63.5945 19.9296 62.4566 19.9296H60.6969V17.3076H62.3862C63.6884 17.3076 63.9112 17.9425 63.9112 18.6127ZM60.6969 20.1647H62.4566C63.6297 20.1647 64.1224 20.5762 64.1224 21.5874C64.1224 22.3282 63.8174 23.0219 62.4331 23.0219H60.7438L60.6969 20.1647ZM60.4388 23.257H62.3862C63.876 23.257 64.3805 22.528 64.3805 21.5874C64.4059 21.389 64.3883 21.1874 64.3287 20.9964C64.2691 20.8055 64.169 20.6297 64.0352 20.4812C63.9015 20.3326 63.7373 20.2148 63.5539 20.1359C63.3705 20.0569 63.1723 20.0186 62.9728 20.0236C63.3143 19.9908 63.6291 19.8242 63.8488 19.56C64.0685 19.2958 64.1753 18.9554 64.1459 18.6127C64.1459 17.7544 63.6883 17.0607 62.2923 17.0607H60.4154L60.4388 23.257ZM59.5942 17.2958V17.0607H55.7463V17.2958H57.5412V23.257H57.7993V17.2958H59.5942ZM52.8019 23.0571C51.6288 23.0571 50.9366 22.6691 50.9366 21.2464V17.0607H50.6902V21.2464C50.6902 22.9631 51.6522 23.304 52.8019 23.304C53.9515 23.304 54.9252 22.9631 54.9252 21.2464V17.0607H54.6671V21.2464C54.6671 22.6691 54.0102 23.0571 52.8019 23.0571ZM49.5288 19.9296H46.7486V17.3076H49.8339V17.0607H46.4788V23.257H46.7486V20.1647H49.5288V19.9296ZM43.7454 19.9296H40.883V17.3076H44.0504V17.0607H40.625V23.257H44.0504V23.0219H40.883V20.1647H43.7454V19.9296ZM35.7565 17.3076H37.2346C38.9474 17.3076 39.3815 18.2482 39.3815 20.1647C39.3815 22.0812 38.9474 23.0219 37.2346 23.0219H35.7565V17.3076ZM37.2815 23.257C39.2289 23.257 39.6278 22.0812 39.6278 20.1647C39.6278 18.2482 39.2054 17.0607 37.2815 17.0607H35.4867V23.257H37.2815Z" fill="#0A0A0C"/>
<path d="M71.513 10.3352L72.0409 12.6867H70.9499L71.513 10.3352ZM70.4455 15.0383L70.7388 13.7684H72.299L72.5923 15.0383H73.9883L72.2755 8.80662H70.7622L69.0377 15.0383H70.4455ZM68.4512 15.0383V8.84189H67.149V12.5456L65.143 8.84189H63.9112V15.0383H65.2134V11.3346L67.2194 15.0383H68.4512ZM60.8142 10.3352L61.3421 12.6867H60.2863L60.8142 10.3352ZM59.7349 15.0383L60.0282 13.7684H61.565L61.8465 15.0383H63.2543L61.5415 8.80662H60.0165L58.3037 15.0383H59.7349ZM55.3944 8.84189H54.0688V15.0383H57.8931V13.8625H55.3944V8.84189ZM51.007 10.3704L51.5349 12.722H50.4791L51.007 10.3704ZM49.9277 15.0735L50.221 13.8037H51.7812L52.0745 15.0735H53.4822L51.7578 8.84189H50.2444L48.52 15.0735H49.9277ZM48.7546 10.0765V8.9007H44.4376V10.0765H45.9274V15.0735H47.253V10.0059L48.7546 10.0765ZM42.1851 10.4057L42.7131 12.7573H41.6221L42.1851 10.4057ZM41.1176 15.1088L41.3992 13.839H42.9712L43.2645 15.1088H44.6605L42.9477 8.8772H41.4227L39.7099 15.1088H41.1176ZM35.1817 12.0165C35.1817 14.3681 36.0498 15.2264 37.8563 15.2264C38.2988 15.2479 38.7403 15.1674 39.1468 14.9912V13.7449C38.7792 13.9143 38.3783 13.9987 37.9737 13.9918C36.9648 13.9918 36.5073 13.5803 36.5073 12.0165C36.5073 10.4527 36.9296 9.88835 37.9737 9.88835C38.3783 9.88146 38.7792 9.96583 39.1468 10.1353V8.88893C38.7403 8.71272 38.2988 8.6323 37.8563 8.6538C36.0498 8.6538 35.1934 9.53562 35.1817 11.8754" fill="#0A0A0C"/>
<path d="M71.5599 2.23397C72.3225 2.23397 72.6157 2.76308 72.6157 4.11523C72.6157 5.46737 72.3225 5.98471 71.5599 5.98471C70.7974 5.98471 70.5159 5.45561 70.5159 4.11523C70.5159 2.77484 70.7974 2.23397 71.5599 2.23397ZM71.5599 7.10172C73.3783 7.10172 73.9062 5.86714 73.9062 4.11523C73.9062 2.36332 73.4252 1.117 71.5599 1.117C69.6947 1.117 69.2724 2.29277 69.2724 4.11523C69.2724 5.93768 69.7533 7.10172 71.5599 7.10172ZM71.9823 0.917106L72.7565 0H71.4426L71.0672 0.917106H71.9823ZM68.4629 1.22282H67.2898V6.9959H68.4629V1.22282ZM62.8202 4.11523C62.8202 6.27866 63.6297 7.10172 65.3072 7.10172C65.709 7.11852 66.1096 7.04627 66.4803 6.89008V5.7143C66.1455 5.86739 65.7808 5.94371 65.4128 5.93771C64.4744 5.93771 64.0402 5.56142 64.0402 4.10346C64.0402 2.64549 64.4744 2.25751 65.4128 2.25751C65.7808 2.25151 66.1455 2.32783 66.4803 2.48091V1.30513C66.111 1.1434 65.71 1.06705 65.3072 1.08173C63.6297 1.08173 62.832 1.90476 62.8202 4.07995M60.2629 2.61023L60.7555 4.7972H59.7701L60.2629 2.61023ZM59.2657 6.96063L59.5355 5.78485H60.9902L61.26 6.96063H62.5621L60.9667 1.16401H59.5589L58.0457 6.9959L59.2657 6.96063ZM54.5732 2.25751H55.4179C55.9575 2.25751 56.0279 2.62199 56.0279 2.93945C56.0279 3.25691 55.9575 3.62142 55.4179 3.62142H54.5732V2.25751ZM54.5732 4.73839H55.3709L56.1452 6.90182H57.5764L56.5558 4.49148C56.8342 4.34841 57.0616 4.12234 57.2066 3.84439C57.3515 3.56644 57.407 3.25028 57.3652 2.93945C57.3652 1.83422 56.8608 1.12874 55.3005 1.12874H53.3532V6.90182H54.5263L54.5732 4.73839ZM52.4265 3.37448H50.2093V2.1987H52.6494V1.02292H48.9893V6.796H52.6494V5.62022H50.2093V4.31512H52.4265V3.37448ZM45.2235 2.1987H45.8922C46.7838 2.1987 47.0653 2.84538 47.0653 3.96237C47.0653 5.07936 46.7955 5.7143 45.8922 5.7143H45.2235V2.1987ZM45.8687 6.90182C47.8161 6.90182 48.3206 5.65551 48.3206 4.02118C48.3206 2.38685 47.8161 1.12874 45.8687 1.12874H44.0035V6.90182H45.8687ZM43.0885 3.37448H40.8713V2.1987H43.3114V1.02292H39.6395V6.796H43.3114V5.62022H40.8713V4.31512H43.0885V3.37448ZM38.877 3.44502H36.7067V2.26924H39.0529V1.09347H35.428V6.86655H36.6598V4.51499H38.8301L38.877 3.44502Z" fill="#0A0A0C"/>
<path d="M30.4657 2.375V24.6208C30.4657 29.6531 28.1195 33.5684 23.0165 36.2727C20.7419 37.4988 18.2928 38.3672 15.7549 38.8477C13.0498 38.3494 10.4405 37.4247 8.02407 36.1081C3.33162 33.3333 1.12616 29.465 1.12616 24.6208V2.375H30.4657Z" fill="white"/>
<path d="M26.9464 5.90234H15.2153V6.60782H26.2191V16.743C26.2191 23.2804 21.8316 29.0182 15.2153 32.3809L15.5085 32.9335C22.2188 29.5473 26.9464 23.7977 26.9464 16.7195V5.90234Z" fill="#D2D3D3"/>
<path d="M8.77489 19.083C8.77489 19.083 12.1886 21.3052 10.7926 24.4798C11.1953 24.43 11.582 24.2913 11.9248 24.0738C12.2676 23.8563 12.558 23.5653 12.7752 23.2217C12.6962 22.172 12.2528 21.1832 11.522 20.4271C10.7912 19.6711 9.81919 19.1955 8.77489 19.083Z" fill="#E8B743"/>
<path d="M9.07988 27.8425C9.47796 28.0917 9.92173 28.2586 10.3851 28.3333C10.8485 28.408 11.3221 28.3891 11.778 28.2776C11.778 28.2776 8.59889 30.6291 14.1243 35.1206C14.1243 35.1206 14.4058 35.3793 14.0186 35.3323C12.5361 34.7261 11.2687 33.6886 10.38 32.3536C9.49134 31.0186 9.02213 29.4473 9.03291 27.8425" fill="#E8B743"/>
<path d="M17.8196 18.5538C17.104 12.2752 11.8485 4.86774 11.5786 4.77368C11.5786 4.77368 11.4731 4.77368 11.5786 4.91477C12.2942 6.50207 15.5555 13.7096 15.5555 18.4833C15.5555 22.9395 12.6931 25.4792 10.0419 25.4674C9.48023 25.4606 8.92567 25.3407 8.41123 25.1147C8.7324 25.0522 9.02919 24.8995 9.26701 24.6743C9.50482 24.4491 9.67381 24.1608 9.75425 23.8429C9.8347 23.5251 9.82327 23.1908 9.72132 22.8793C9.61936 22.5677 9.43114 22.2916 9.17851 22.0833C8.92588 21.8749 8.61927 21.7429 8.29459 21.7026C7.96991 21.6623 7.6405 21.7155 7.3448 21.8558C7.04911 21.9961 6.79932 22.2178 6.62464 22.495C6.44995 22.7723 6.35759 23.0936 6.35828 23.4216C6.35828 25.0206 8.7045 27.4192 11.1211 27.4192C13.5377 27.4192 18.5704 24.9265 17.843 18.5538" fill="#E8B743"/>
<path d="M18.5235 17.1075C18.9354 18.4055 18.9881 19.7912 18.676 21.1169C18.676 21.1169 19.7787 17.86 21.8668 17.86C24.213 17.86 26.4889 23.4214 26.4889 23.4214C26.4889 23.4214 26.7001 23.8212 26.7001 23.4214C26.7001 23.0217 24.7058 15.0969 21.1161 15.285C20.5791 15.3856 20.0699 15.6003 19.6227 15.9147C19.1755 16.2291 18.8007 16.6358 18.5235 17.1075Z" fill="#E8B743"/>
<path d="M10.3703 6.51379C9.78847 6.06361 9.06258 5.842 8.32913 5.89062C7.48072 5.86645 6.65104 6.14337 5.98648 6.67253C5.32193 7.20169 4.86522 7.94907 4.69688 8.78285C4.52853 9.61663 4.65941 10.4832 5.06641 11.2297C5.47341 11.9762 6.13034 12.5546 6.92138 12.863C7.0018 12.9109 7.09353 12.9366 7.18709 12.9373C7.28065 12.938 7.37271 12.9138 7.45388 12.8672C7.53504 12.8205 7.60238 12.7531 7.64899 12.6718C7.6956 12.5905 7.71976 12.4982 7.71909 12.4045C7.71608 12.301 7.68358 12.2006 7.62536 12.1152C7.56714 12.0297 7.48568 11.9628 7.39065 11.9224C6.86984 11.6816 6.42979 11.2947 6.12374 10.8085C5.8177 10.3223 5.65873 9.75761 5.66614 9.18279C5.65289 8.78656 5.72139 8.39186 5.86734 8.02337C6.01329 7.65489 6.2336 7.32055 6.5144 7.04132C6.7952 6.76209 7.13049 6.54396 7.49927 6.40058C7.86806 6.2572 8.26242 6.19167 8.65764 6.20807C9.23791 6.15758 9.82038 6.27598 10.3352 6.54906" fill="#C94252"/>
<path d="M11.7312 8.31271C11.5505 7.782 11.2069 7.32216 10.7496 6.99903C10.2924 6.67591 9.74487 6.50606 9.18545 6.51377C8.71665 6.50267 8.25199 6.60352 7.82975 6.80796C7.40751 7.0124 7.03988 7.31458 6.75716 7.68954C6.44447 8.15522 6.27744 8.70377 6.27744 9.26508C6.27744 9.8264 6.44447 10.3749 6.75716 10.8406C6.78819 10.9185 6.83544 10.9887 6.89578 11.0468C6.95613 11.1048 7.02813 11.1492 7.10701 11.1771C7.18589 11.2049 7.26979 11.2155 7.3531 11.2082C7.43641 11.2009 7.51719 11.1758 7.59003 11.1346C7.65433 11.1033 7.71109 11.0584 7.75636 11.003C7.80162 10.9476 7.8343 10.883 7.85216 10.8136C7.87002 10.7443 7.8726 10.6719 7.85975 10.6014C7.8469 10.5309 7.81895 10.4641 7.77777 10.4056C7.27333 9.46497 7.07386 8.99464 7.51964 8.14808C7.7137 7.81008 7.99719 7.53242 8.33876 7.34569C8.68033 7.15895 9.06672 7.07042 9.45531 7.08989C9.90947 7.07971 10.3576 7.19499 10.7508 7.42312C11.1439 7.65125 11.4668 7.98343 11.6842 8.38325" fill="#C94252"/>
<path d="M8.51684 9.88839C8.64479 9.8871 8.76806 9.84027 8.86476 9.75628C8.96145 9.67229 9.02522 9.55658 9.04469 9.42982C9.04585 9.28773 9.07625 9.1474 9.1339 9.01758C9.19156 8.88775 9.27522 8.77123 9.37978 8.67526C9.48434 8.57929 9.60749 8.50592 9.74158 8.45976C9.87567 8.41359 10.0178 8.39559 10.1592 8.4069C11.1798 8.4069 11.9071 9.75905 11.6842 10.6879V10.7585C11.6842 10.7585 12.2708 7.73674 9.58435 7.73674C9.15323 7.71641 8.73072 7.86223 8.4035 8.14428C8.07628 8.42633 7.86916 8.8232 7.82468 9.25346C7.82468 9.71202 8.03586 9.94717 8.43472 9.94717" fill="#C94252"/>
<path d="M9.42009 10.0058C9.42939 10.1571 9.49049 10.3006 9.59308 10.4119C9.69567 10.5233 9.8335 10.5958 9.98324 10.6172C10.1357 10.6172 10.1239 10.6172 10.2061 10.6172C10.2882 10.6172 10.5932 10.676 10.5932 11.2874C10.5273 11.6324 10.3786 11.9562 10.1599 12.2307C9.94125 12.5052 9.6591 12.7222 9.33797 12.8629C9.86429 12.7649 10.3442 12.4969 10.7043 12.0999C11.0644 11.7029 11.2849 11.1987 11.3323 10.6642C11.3578 10.4957 11.3465 10.3237 11.2991 10.16C11.2516 9.99629 11.1693 9.84488 11.0577 9.71626C10.9461 9.58764 10.8079 9.48486 10.6528 9.41507C10.4976 9.34528 10.3292 9.31016 10.1592 9.31209C9.97804 9.31443 9.80434 9.38441 9.67199 9.50836C9.53963 9.63232 9.45817 9.80129 9.44358 9.98225" fill="#C94252"/>
<path d="M24.9873 8.93602H23.8142V8.45394H25.0577V7.73673H23.0165V10.8173H23.8142V9.64149H24.9873V8.93602ZM20.4004 9.277C20.4004 10.394 20.8462 10.876 21.7613 10.876C22.0067 10.8909 22.2521 10.8466 22.4768 10.7467V10.0295C22.283 10.1078 22.0758 10.1477 21.8668 10.1471C21.4562 10.1471 21.2216 9.95895 21.2216 9.277C21.2216 8.59505 21.4562 8.4069 21.8668 8.4069C22.0746 8.40831 22.2807 8.44405 22.4768 8.51272V7.80728C22.2504 7.71297 22.0063 7.66883 21.7613 7.67792C20.8462 7.67792 20.4121 8.16001 20.4004 9.277ZM19.8139 8.93602H18.6407V8.45394H19.8842V7.73673H17.843V10.8173H18.6407V9.64149H19.8139V8.93602Z" fill="#D2D3D3"/>
<path d="M3.05176e-05 1.23462V24.6208C3.05176e-05 29.8413 2.41665 34.1564 7.4845 37.1076C10.0465 38.5131 12.8202 39.4901 15.6963 40C18.408 39.4887 21.029 38.5774 23.474 37.2957C28.929 34.4268 31.5567 30.0412 31.5567 24.6208V1.23462H3.05176e-05ZM30.501 2.4104V24.6561C30.501 29.6884 28.1547 33.6038 23.0517 36.3081C20.7808 37.5334 18.3357 38.4018 15.8018 38.883C13.0928 38.3856 10.4796 37.4609 8.05931 36.1435C3.36686 33.3686 1.1614 29.5003 1.1614 24.6561V2.37509L30.501 2.4104Z" fill="#0A0A0C"/>
</g>
<defs>
<clipPath id="clip0_816_992">
<rect width="74" height="40" fill="white"/>
</clipPath>
</defs>
</svg>
