<svg width="102" height="40" viewBox="0 0 102 40" fill="none" xmlns="http://www.w3.org/2000/svg">
<g clip-path="url(#clip0_816_1180)">
<path d="M100.516 1.03442H0.817505V38.7134H100.516V1.03442Z" fill="#FDFDFD"/>
<path d="M10.3258 13.6991H12.313V14.1154C12.3355 14.6413 12.1655 15.1572 11.835 15.5661C11.6407 15.7686 11.4056 15.9274 11.1454 16.0318C10.8852 16.1362 10.6058 16.1838 10.3258 16.1715C10.0728 16.1889 9.81935 16.1467 9.58565 16.0481C9.35194 15.9495 9.14455 15.7974 8.98006 15.6039C8.55244 15.1119 8.46439 14.683 8.46439 12.5512C8.46439 10.4194 8.57759 10.0284 8.98006 9.49857C9.14809 9.30863 9.35578 9.15816 9.58837 9.05787C9.82097 8.95758 10.0727 8.9099 10.3258 8.91829C10.7912 8.88518 11.2519 9.03108 11.614 9.3263C11.976 9.62152 12.2125 10.0439 12.2752 10.5077H14.4008C14.2988 9.51293 13.8183 8.5959 13.0593 7.94742C12.3003 7.29894 11.3212 6.96895 10.3258 7.02614C9.78353 7.01493 9.24477 7.11554 8.74285 7.32167C8.24094 7.5278 7.7866 7.83509 7.40792 8.22451C6.95556 8.66395 6.64829 9.23187 6.52751 9.85177C6.29275 11.6395 6.29275 13.4504 6.52751 15.2381C6.65403 15.8596 6.96025 16.4299 7.40792 16.878C7.78722 17.2657 8.242 17.571 8.74397 17.775C9.24594 17.979 9.78434 18.0773 10.3258 18.0637C10.8952 18.0823 11.4621 17.9796 11.9889 17.7621C12.5158 17.5447 12.9906 17.2175 13.382 16.8022C13.7709 16.3519 14.0632 15.826 14.2406 15.2574C14.4181 14.6888 14.4768 14.0897 14.4133 13.4973V11.9079H10.3258V13.6991Z" fill="#0A0A0C"/>
<path d="M20.4881 11.8828H18.5009V9.00672H20.4881C20.6764 9.00672 20.8628 9.04394 21.0367 9.11621C21.2107 9.18847 21.3688 9.29437 21.5019 9.42791C21.635 9.56144 21.7407 9.71997 21.8127 9.89444C21.8848 10.0689 21.9218 10.2559 21.9218 10.4448C21.9218 10.6336 21.8848 10.8206 21.8127 10.9951C21.7407 11.1695 21.635 11.3281 21.5019 11.4616C21.3688 11.5951 21.2107 11.7011 21.0367 11.7733C20.8628 11.8456 20.6764 11.8828 20.4881 11.8828ZM24.1354 10.4448C24.1419 9.98997 24.0539 9.53878 23.8772 9.1199C23.7004 8.70102 23.4387 8.3236 23.1087 8.01161C22.7787 7.69961 22.3876 7.45985 21.9603 7.30759C21.533 7.15534 21.0787 7.09392 20.6264 7.1272H16.3879V17.9755H18.5009V13.6488H20.0227L22.1357 17.9755H24.5756L22.1608 13.2956C22.7502 13.0939 23.2598 12.7085 23.615 12.1955C23.9703 11.6826 24.1527 11.0691 24.1354 10.4448Z" fill="#0A0A0C"/>
<path d="M26.3239 17.9755H33.455V16.0834H28.4368V13.447H32.713V11.5548H28.4368V9.01934H33.455V7.1272H26.3239V17.9755Z" fill="#0A0A0C"/>
<path d="M35.5176 17.9755H42.6488V16.0834H37.6305V13.447H41.8942V11.5548H37.6305V9.01934H42.6488V7.1272H35.5176V17.9755Z" fill="#0A0A0C"/>
<path d="M50.8742 7.1272V13.7623L46.598 7.1272H44.7114V17.9755H46.8244V11.3152L51.1006 17.9755H52.9871V7.1272H50.8742Z" fill="#0A0A0C"/>
<path d="M69.3751 17.9755L72.9596 7.1272H70.7586L68.5827 14.1912L66.4069 7.1272H64.2185L67.7904 17.9755H69.3751Z" fill="#0A0A0C"/>
<path d="M76.3805 7.1272H74.2676V17.9755H76.3805V7.1272Z" fill="#0A0A0C"/>
<path d="M80.9209 17.9755H83.0338V9.01934H85.8511V7.1272H78.0911V9.01934H80.9209V17.9755Z" fill="#0A0A0C"/>
<path d="M90.2782 10.3186L91.6113 14.2669H88.9199L90.2782 10.3186ZM87.6747 17.9755L88.3288 16.0455H92.1647L92.8062 17.9755H95.0072L91.058 7.1272H89.3978L85.4612 17.9755H87.6747Z" fill="#0A0A0C"/>
<path d="M9.77241 30.4888H8.01162V27.8777H6.33887V34.6642H8.01162V31.9773H9.77241V34.6642H11.4326V27.8777H9.77241V30.4888Z" fill="#0A0A0C"/>
<path d="M13.0424 34.6642H17.6456V33.1757H14.7025V31.99H17.2179V30.5015H14.7025V29.3662H17.6456V27.8777H13.0424V34.6642Z" fill="#0A0A0C"/>
<path d="M20.9157 32.2549L21.5194 30.451L22.0854 32.2549H20.9157ZM20.8402 27.8777L18.3248 34.6642H20.0605L20.4 33.6424H22.4752L22.7897 34.6642H24.5253L22.0728 27.8777H20.8402Z" fill="#0A0A0C"/>
<path d="M27.1665 27.8777H25.5063V34.6642H30.0089V33.1757H27.1665V27.8777Z" fill="#0A0A0C"/>
<path d="M30.0592 29.3662H31.732V34.6642H33.3921V29.3662H35.0523V27.8777H30.0592V29.3662Z" fill="#0A0A0C"/>
<path d="M39.6932 30.4888H37.9198V27.8777H36.2596V34.6642H37.9198V31.9773H39.6932V34.6642H41.3534V27.8777H39.6932V30.4888Z" fill="#0A0A0C"/>
<path d="M46.2081 27.8777L45.1642 30.3122L44.0952 27.8777H42.2841L44.3215 31.9017V34.6642H45.9817V31.9017L48.0318 27.8777H46.2081Z" fill="#0A0A0C"/>
<path d="M57.2382 34.6641V32.5449L57.8167 31.9016L59.3637 34.6641H61.3006L58.9235 30.6401L61.2251 27.9028H59.1876L57.2382 30.2996V27.9028H55.6031V34.6641H57.2382Z" fill="#0A0A0C"/>
<path d="M63.8789 27.9028H62.2188V34.6641H63.8789V27.9028Z" fill="#0A0A0C"/>
<path d="M66.7339 34.6641H68.3941V29.3913H70.0542V27.9028H65.0863V29.3913H66.7339V34.6641Z" fill="#0A0A0C"/>
<path d="M71.5006 33.9703C71.7438 34.2195 72.036 34.4154 72.3585 34.5457C72.6811 34.6759 73.027 34.7377 73.3746 34.7271C73.9906 34.732 74.5871 34.5099 75.0507 34.103C75.5144 33.6961 75.813 33.1327 75.89 32.5196H74.2047C74.1765 32.7269 74.0716 32.916 73.9108 33.0492C73.75 33.1824 73.5451 33.25 73.3368 33.2386C73.2139 33.2456 73.0911 33.2243 72.9777 33.1761C72.8643 33.128 72.7634 33.0545 72.6828 32.9611C72.5319 32.7593 72.4313 32.5196 72.4313 31.2834C72.4313 30.0472 72.5319 29.8075 72.6828 29.6183C72.7622 29.5227 72.8625 29.4468 72.976 29.3964C73.0894 29.3461 73.2129 29.3228 73.3368 29.3282C73.5451 29.3168 73.75 29.3844 73.9108 29.5177C74.0716 29.6509 74.1765 29.8399 74.2047 30.0472H75.89C75.813 29.4341 75.5144 28.8708 75.0507 28.4639C74.5871 28.057 73.9906 27.8349 73.3746 27.8397C73.0261 27.8307 72.6796 27.8945 72.357 28.027C72.0344 28.1594 71.7428 28.3577 71.5006 28.6092C71.0469 29.4293 70.8088 30.3518 70.8088 31.2897C70.8088 32.2277 71.0469 33.1501 71.5006 33.9703Z" fill="#0A0A0C"/>
<path d="M78.745 31.9899H80.5058V34.6641H82.166V27.9028H80.5058V30.514H78.745V27.9028H77.0848V34.6641H78.745V31.9899Z" fill="#0A0A0C"/>
<path d="M88.3539 33.1882H85.4235V32.0025H87.9263V30.514H85.4235V29.3913H88.3539V27.9028H83.7633V34.6641H88.3539V33.1882Z" fill="#0A0A0C"/>
<path d="M91.4227 31.2709L93.586 34.6641H95.0324V27.9028H93.3722V31.3087L91.2089 27.9028H89.7626V34.6641H91.4227V31.2709Z" fill="#0A0A0C"/>
<path d="M99.6858 21.9993H60.0807V2.28312H99.6858V21.9993ZM99.6858 37.7167H52.7859V24.2825H99.6858V37.7167ZM2.32676 24.2825H50.5598V37.7167H2.32676V24.2825ZM2.32676 2.28312H57.7916V21.9993H2.32676V2.28312ZM102 -0.0126953H0V39.9873H102V-0.0126953Z" fill="#0A0A0C"/>
</g>
<defs>
<clipPath id="clip0_816_1180">
<rect width="102" height="40" fill="white"/>
</clipPath>
</defs>
</svg>
