<svg width="112" height="32" viewBox="0 0 112 32" fill="none" xmlns="http://www.w3.org/2000/svg">
<g clip-path="url(#clip0_816_1020)">
<path d="M86.3054 0.387207V6.42142H94.4146V0.387207H98.4356C98.4356 0.387207 98.4356 15.4727 98.4356 15.4861H94.4146V8.81107H86.3054V15.4861H82.2844V0.387207H86.3054Z" fill="#676767"/>
<path d="M48.2393 0.387207V2.95041H42.0737V15.4861H38.0527V2.95041H31.9138V0.387207H48.2393Z" fill="#676767"/>
<path d="M54.2978 2.93707L51.4562 9.81232H57.0455L54.2978 2.93707ZM63.8545 15.4727H59.3777L58.0373 12.2287H50.518L49.1776 15.4727H44.7545L51.8449 0.387207H56.8176L63.8545 15.4727Z" fill="#676767"/>
<path d="M105.674 0.373779H101.652V15.4727H105.674V0.373779Z" fill="#676767"/>
<path d="M11.2456 0.387207V6.42142H19.2877V0.387207H23.3087C23.3087 0.387207 23.3087 15.4727 23.3087 15.4861H19.2877V8.81107H11.2456V15.4861H7.22449V0.387207H11.2456Z" fill="#676767"/>
<path d="M30.4931 0.373779H26.4854V15.4727H30.4931V0.373779Z" fill="#676767"/>
<path d="M63.7071 11.2807C63.3514 10.2497 63.1702 9.16693 63.1709 8.07671C63.1167 6.54143 63.4778 5.01987 64.2164 3.67122C64.999 2.34834 66.2156 1.33462 67.6611 0.800957C70.7463 -0.353097 74.1626 -0.257251 77.1776 1.06795C77.9008 1.3757 78.5383 1.85346 79.0355 2.4603C79.5327 3.06713 79.8749 3.78496 80.0326 4.55231C80.1023 4.86474 80.1516 5.18137 80.18 5.50017H75.9713C75.9577 5.10342 75.8808 4.71137 75.7434 4.33873C75.5852 3.92549 75.3337 3.55404 75.0083 3.2531C74.6829 2.95216 74.2924 2.7298 73.8669 2.60322C73.2984 2.42684 72.7065 2.33683 72.111 2.33622C71.43 2.33404 70.754 2.45154 70.1139 2.68331C69.6074 2.86797 69.1485 3.16264 68.7706 3.54597C68.3927 3.92929 68.1053 4.39164 67.9291 4.89942C67.5669 5.91996 67.3811 6.99428 67.3796 8.07671C67.3844 8.97942 67.5106 9.87741 67.7549 10.7467C67.9076 11.2888 68.1862 11.7875 68.568 12.2026C68.9498 12.6177 69.4243 12.9376 69.9531 13.1364C71.2408 13.6336 72.6617 13.6713 73.9742 13.2432C74.3611 13.1214 74.7177 12.9191 75.0204 12.6499C75.3231 12.3806 75.5649 12.0505 75.73 11.6812C75.9526 11.167 76.0667 10.6126 76.0651 10.0525H80.2873C80.2625 10.538 80.1952 11.0205 80.0862 11.4943C79.9098 12.2267 79.5649 12.9083 79.0788 13.4852C78.5926 14.0621 77.9785 14.5185 77.2849 14.8185C75.6526 15.5093 73.898 15.8679 72.1245 15.8731C70.7601 15.8666 69.4044 15.6551 68.1034 15.2457C67.1183 14.9604 66.2138 14.4497 65.4621 13.7543C64.7104 13.0589 64.1324 12.1982 63.7741 11.2407" fill="#676767"/>
<path d="M3.5788 19.6913L0 20.025V20.5457H0.120668C1.55485 20.7192 1.55486 20.7192 1.55486 21.7472V29.2098H3.72622V19.6646L3.5788 19.6913Z" fill="#676767"/>
<path d="M11.1652 22.5214C10.6618 22.5353 10.17 22.6746 9.7345 22.9264C9.29903 23.1782 8.93379 23.5347 8.67214 23.9632V22.4947H8.52463L5.61609 22.9353V23.4559H5.73676C6.6616 23.4559 6.86261 23.6695 6.86261 24.5239V29.1964H8.67214V25.7521C8.67214 24.8443 9.5299 23.6562 10.4547 23.6562C11.3796 23.6562 11.3663 24.3771 11.3663 25.5519V29.1831H13.1757V24.5106C13.2072 24.2388 13.1771 23.9635 13.0876 23.7049C12.9981 23.4462 12.8514 23.2109 12.6585 23.0162C12.4656 22.8215 12.2313 22.6724 11.9729 22.5798C11.7144 22.4872 11.4384 22.4536 11.1652 22.4814" fill="#676767"/>
<path d="M18.2422 25.1246C17.5318 24.7775 16.9018 24.4705 16.9018 23.9899C16.9018 23.5093 17.572 23.3758 17.8535 23.3758C18.4624 23.4112 19.0505 23.6095 19.5558 23.9498L19.8372 24.1234V22.7884H19.6094C19.0682 22.6651 18.5158 22.598 17.9608 22.5881C16.2585 22.5881 15.2801 23.309 15.2801 24.5372C15.2801 25.7654 16.3523 26.1392 17.2772 26.5931C18.001 26.9402 18.6175 27.274 18.6175 27.808C18.6175 28.342 18.1752 28.5956 17.4112 28.5956C16.6976 28.5543 16.0102 28.3137 15.4275 27.9014L15.2398 27.7813V29.1163H15.3739C16.0168 29.2857 16.6791 29.371 17.3442 29.3699C19.1805 29.3699 20.2661 28.609 20.2661 27.3674C20.2661 26.1259 19.1671 25.5919 18.202 25.1113" fill="#676767"/>
<path d="M25.6812 23.5094C26.9144 23.5094 27.0216 24.8444 27.0216 25.8457C27.0216 27.5545 26.5659 28.3822 25.6812 28.3822C24.5017 28.3822 24.2605 27.2875 24.2605 26.3796V25.819C24.2605 25.1247 24.3945 23.5094 25.6008 23.5094M26.1102 22.5215C25.7468 22.5384 25.3905 22.6287 25.0633 22.7871C24.7361 22.9455 24.4447 23.1685 24.2068 23.4426V22.4948H24.0594L21.1642 22.9353V23.4426H21.2982C22.1963 23.4426 22.3839 23.6429 22.3839 24.5107V31.9599H24.1934V28.5691C24.4172 28.8359 24.7019 29.0455 25.0237 29.1802C25.3456 29.3149 25.6951 29.3709 26.0431 29.3434C27.9464 29.3434 28.9383 28.1151 28.9383 25.8056C28.9383 23.6963 27.9062 22.4814 26.1102 22.4814" fill="#676767"/>
<path d="M30.2786 22.9619V23.4692H30.4126C31.2973 23.4692 31.4849 23.6828 31.4849 24.5506V29.2231H33.2944V22.5481H33.147L30.2786 22.9619Z" fill="#676767"/>
<path d="M32.3964 21.7472C32.6766 21.7657 32.9528 21.6739 33.1659 21.4917C33.3789 21.3095 33.5117 21.0513 33.5356 20.7726C33.4943 20.5083 33.3595 20.2674 33.1555 20.0934C32.9515 19.9194 32.6917 19.8237 32.4231 19.8237C32.1545 19.8237 31.8948 19.9194 31.6908 20.0934C31.4868 20.2674 31.3519 20.5083 31.3106 20.7726C31.3175 20.9077 31.351 21.04 31.4094 21.1622C31.4677 21.2843 31.5496 21.3937 31.6504 21.4843C31.7513 21.5748 31.8691 21.6446 31.9971 21.6897C32.1251 21.7348 32.2608 21.7544 32.3964 21.7472Z" fill="#676767"/>
<path d="M40.8673 24.0034V22.6016H40.7333C40.448 22.5762 40.1609 22.5762 39.8755 22.6016C39.4695 22.6181 39.0774 22.7535 38.7483 22.991C38.4193 23.2285 38.1679 23.5574 38.0258 23.9366V22.6016H37.8784L34.9966 23.0422V23.5495H35.1172C36.0287 23.5495 36.2164 23.7631 36.2164 24.6308V29.3033H38.0526V25.9391C38.028 25.6852 38.0598 25.429 38.1459 25.1888C38.232 24.9485 38.3701 24.7301 38.5505 24.5491C38.731 24.3681 38.9493 24.229 39.1899 24.1415C39.4304 24.0541 39.6874 24.0206 39.9425 24.0434C40.1566 24.0582 40.3681 24.0985 40.5725 24.1635L40.8673 24.2436V24.0034Z" fill="#676767"/>
<path d="M44.9555 23.229C45.9206 23.229 46.1752 23.9232 46.2021 24.564H43.6018C43.6018 24.21 43.743 23.8704 43.9944 23.62C44.2457 23.3697 44.5866 23.229 44.9421 23.229M48.0115 25.2315C48.0115 23.4293 47.0062 22.5615 45.0091 22.5615C42.7573 22.5615 41.618 23.6295 41.618 25.7655C41.5884 26.2757 41.672 26.7861 41.8626 27.2606C42.0532 27.7351 42.3463 28.162 42.7211 28.511C43.0959 28.8601 43.5431 29.1228 44.0312 29.2805C44.5192 29.4381 45.0362 29.4869 45.5453 29.4234C46.2976 29.4147 47.0438 29.2886 47.7568 29.0496H47.8641V28.1685L47.6898 28.2353C47.2354 28.3817 46.7601 28.4538 46.2825 28.4489C45.903 28.4397 45.5294 28.3526 45.1853 28.1932C44.8411 28.0337 44.5336 27.8053 44.282 27.5221C44.0304 27.239 43.8402 26.9072 43.7232 26.5476C43.6061 26.1879 43.5648 25.8081 43.6018 25.4318H48.0249L48.0115 25.2315Z" fill="#676767"/>
<path d="M64.5112 22.5215C64.009 22.525 63.5164 22.6584 63.0816 22.9089C62.6469 23.1593 62.285 23.5181 62.0316 23.95V19.4644H61.8842L59.0024 19.8248V20.3188H59.1364C60.0344 20.3188 60.2221 20.5457 60.2221 21.4268V29.1965H62.0316V25.8457C62 25.3386 62.1556 24.8375 62.4691 24.4367C62.7826 24.0359 63.2324 23.7631 63.7338 23.6696C64.7391 23.6696 64.7391 24.4172 64.7391 25.0847V29.1965H66.5486V24.8845C66.5486 24.1636 66.5486 22.4948 64.5112 22.4948" fill="#676767"/>
<path d="M71.5615 23.229C72.5399 23.229 72.7812 23.9232 72.808 24.564H70.2211C70.2211 24.21 70.3624 23.8704 70.6137 23.62C70.8651 23.3697 71.206 23.229 71.5615 23.229ZM74.6309 25.2315C74.6309 23.4293 73.6122 22.5615 71.6285 22.5615C69.3767 22.5615 68.2374 23.6295 68.2374 25.7655C68.2079 26.2757 68.2914 26.7861 68.482 27.2606C68.6727 27.7351 68.9657 28.162 69.3405 28.511C69.7152 28.8601 70.1625 29.1228 70.6505 29.2805C71.1386 29.4381 71.6555 29.4869 72.1647 29.4234C72.9171 29.4163 73.6635 29.2901 74.3762 29.0496H74.4834V28.1685L74.3226 28.2353C73.8618 28.3714 73.3823 28.4345 72.9018 28.4222C72.5223 28.413 72.1488 28.3259 71.8046 28.1665C71.4604 28.007 71.1529 27.7786 70.9014 27.4954C70.6498 27.2123 70.4596 26.8805 70.3425 26.5209C70.2255 26.1612 70.1842 25.7814 70.2211 25.4051H74.6443L74.6309 25.2315Z" fill="#676767"/>
<path d="M54.3647 20.6258V22.6684H53.1584V23.4694H54.3647V27.4744C54.3647 29.2099 55.4907 29.3568 56.8578 29.3568C57.2136 29.3475 57.5679 29.3073 57.9167 29.2366H58.0239V28.4223H57.8764C57.6936 28.4374 57.5098 28.4374 57.3269 28.4223C56.2412 28.4223 56.1742 28.1019 56.1742 27.1807V23.3626H58.1579V22.5616H56.1206V20.519L54.3647 20.6258Z" fill="#676767"/>
<path d="M89.978 19.8381H88.1551V26.967L83.437 19.8381H79.2551V20.3721L79.617 20.4389C80.7161 20.6258 80.81 20.6391 80.81 21.7071V29.2232H82.7534V21.7472L87.7128 29.2098H90.0986V19.8648L89.978 19.8381Z" fill="#676767"/>
<path d="M95.125 23.2425C96.1035 23.2425 96.3448 23.9367 96.385 24.5775H93.7713C93.7713 24.2234 93.9125 23.8838 94.1639 23.6335C94.4152 23.3831 94.7561 23.2425 95.1116 23.2425M98.181 25.245C98.181 23.4294 97.1757 22.575 95.1786 22.575C92.9268 22.575 91.7876 23.6563 91.7876 25.779C91.7601 26.2898 91.8454 26.8005 92.0376 27.2749C92.2299 27.7493 92.5242 28.1759 92.9 28.5247C93.2757 28.8735 93.7237 29.136 94.2124 29.2936C94.701 29.4512 95.2185 29.5001 95.7282 29.4369C96.481 29.4337 97.2281 29.3074 97.9397 29.0631H98.047V28.182L97.8727 28.2487C97.4143 28.3993 96.9347 28.4759 96.452 28.4757C96.0719 28.4646 95.6981 28.3759 95.3538 28.215C95.0096 28.0541 94.7023 27.8244 94.4509 27.5402C94.1995 27.256 94.0095 26.9234 93.8926 26.563C93.7757 26.2027 93.7344 25.8222 93.7713 25.4452H98.1944L98.181 25.245Z" fill="#676767"/>
<path d="M108.167 20.6258V22.6684H106.96V23.4694H108.167V27.4744C108.167 29.2232 109.292 29.3568 110.66 29.3568C111.015 29.3475 111.37 29.3073 111.719 29.2366H111.772V28.4223H111.611C111.433 28.4447 111.253 28.4447 111.075 28.4223C109.976 28.4223 109.922 28.1019 109.922 27.1807V23.3626H111.96V22.5616H109.922V20.519L108.167 20.6258Z" fill="#676767"/>
<path d="M104.521 24.8044L106.384 22.6685H104.481L102.711 24.6977L101.157 22.6685H98.3686V23.1891H98.4893C98.844 23.1712 99.1965 23.2547 99.5052 23.4297C99.814 23.6047 100.066 23.864 100.232 24.177L101.358 25.6722L99.5079 27.8082H101.425L102.242 26.8604L104.038 29.2233H106.183L102.778 24.7911L104.521 24.8044Z" fill="#676767"/>
<path d="M108.14 20.6259H106.223L108.542 17.9692H110.459L108.14 20.6259Z" fill="#AD1C1C"/>
</g>
<defs>
<clipPath id="clip0_816_1020">
<rect width="112" height="32" fill="white"/>
</clipPath>
</defs>
</svg>
