<svg width="45" height="48" viewBox="0 0 45 48" fill="none" xmlns="http://www.w3.org/2000/svg">
<g clip-path="url(#clip0_816_1170)">
<path d="M21.0874 0.0119629C20.6106 0.906595 14.1139 13.0736 11.3126 18.2983C11.2658 18.3713 11.241 18.4561 11.241 18.5428C11.241 18.6295 11.2658 18.7143 11.3126 18.7873C14.0543 23.9046 19.6569 34.2943 19.6569 34.4016L28.0013 18.7873C28.048 18.7143 28.0729 18.6295 28.0729 18.5428C28.0729 18.4561 28.048 18.3713 28.0013 18.2983C26.4119 15.3798 24.8463 12.4573 23.3046 9.53086C23.2529 9.45537 23.2251 9.36596 23.2251 9.27441C23.2251 9.18285 23.2529 9.09344 23.3046 9.01795C23.7338 8.2426 24.1391 7.45532 24.5801 6.63226L30.8384 18.3102C30.882 18.3777 30.9052 18.4564 30.9052 18.5368C30.9052 18.6172 30.882 18.6959 30.8384 18.7635C27.604 24.7913 24.3814 30.8191 21.1708 36.847C21.1446 36.9222 21.094 36.9866 21.0271 37.0298C20.9601 37.073 20.8807 37.0926 20.8013 37.0855C20.0026 37.0855 19.204 37.0855 18.4172 37.0855C18.356 37.0956 18.2932 37.0845 18.239 37.0542C18.1849 37.0238 18.1427 36.976 18.1192 36.9185C14.8927 30.843 11.6543 24.7794 8.40396 18.7277C8.3724 18.6755 8.35571 18.6157 8.35571 18.5547C8.35571 18.4937 8.3724 18.4339 8.40396 18.3818L18.1669 0.250546C18.1669 0.167047 18.298 0.0716269 18.3695 0.0716269H21.0874" fill="#0A0A0C"/>
<path d="M24.7709 3.72179L16.9749 18.2983C16.9281 18.3713 16.9033 18.4562 16.9033 18.5428C16.9033 18.6295 16.9281 18.7144 16.9749 18.7874C18.5484 21.6979 20.11 24.6323 21.6715 27.5548C21.7218 27.6309 21.7486 27.7201 21.7486 27.8113C21.7486 27.9025 21.7218 27.9916 21.6715 28.0677C21.2305 28.8431 20.8252 29.6303 20.3841 30.4534L14.1258 18.7635C14.0846 18.6973 14.0628 18.6209 14.0628 18.5428C14.0628 18.4648 14.0846 18.3884 14.1258 18.3222C17.3603 12.3023 20.5868 6.2705 23.8053 0.226766C23.8336 0.153718 23.8851 0.0919551 23.9519 0.0510134C24.0186 0.0100717 24.097 -0.00778933 24.1749 0.000122449H26.559C26.6214 -0.0069242 26.6844 0.00677299 26.7382 0.0391097C26.7921 0.0714464 26.8338 0.120618 26.857 0.179042C30.0835 6.23868 33.3219 12.2983 36.5722 18.358C36.6076 18.4109 36.6264 18.4732 36.6264 18.5369C36.6264 18.6006 36.6076 18.6629 36.5722 18.7158L26.857 36.8947C26.857 36.9663 26.7139 37.0617 26.6424 37.0617H23.9245C23.9245 36.9424 30.4808 24.7635 33.6994 18.7635C33.7465 18.6929 33.7717 18.6099 33.7717 18.525C33.7717 18.44 33.7465 18.357 33.6994 18.2864C30.9576 13.1572 25.355 2.77943 25.355 2.67208L24.7947 3.70985" fill="#0A0A0C"/>
<path d="M1.87154 47.8807H0.512602V42C0.512602 41.9284 0.512602 41.8807 0.512602 41.8568C0.480416 41.8222 0.439089 41.7974 0.393398 41.7853L0.0238647 41.6421L0.131145 41.0576H3.51658C4.18762 40.996 4.85883 41.1735 5.41194 41.5586C5.62219 41.7672 5.78363 42.0197 5.88463 42.2982C5.98563 42.5766 6.02368 42.874 5.99604 43.169C6.03116 43.6511 5.9008 44.1308 5.62651 44.5288C5.35062 44.8707 4.95349 45.093 4.5179 45.1491L6.13909 47.8807H4.68479L3.17088 45.3161H1.87154V47.8807ZM1.87154 44.3022H3.36161C3.71411 44.3346 4.06718 44.2463 4.36294 44.0517C4.47266 43.9368 4.55613 43.7994 4.60758 43.6491C4.65904 43.4987 4.67725 43.339 4.66095 43.1809C4.67696 43.0264 4.65853 42.8704 4.607 42.724C4.55547 42.5775 4.47211 42.4443 4.36294 42.334C4.06718 42.1393 3.71411 42.051 3.36161 42.0835H1.87154V44.3022Z" fill="#0A0A0C"/>
<path d="M12.2424 41.0696V42.0954H8.66626V43.9204H11.5033V44.9105H8.67817V46.8429H12.3259V47.8807H7.33115V42C7.34113 41.9528 7.34113 41.904 7.33115 41.8568C7.29366 41.823 7.24874 41.7985 7.20003 41.7853L6.84241 41.6421L6.9497 41.0576L12.2424 41.0696Z" fill="#0A0A0C"/>
<path d="M13.4463 41.9999C13.4563 41.9528 13.4563 41.904 13.4463 41.8568C13.4088 41.823 13.3639 41.7985 13.3152 41.7852L12.9457 41.6421L13.0649 41.0576H14.5788C14.6459 41.0469 14.7143 41.0469 14.7814 41.0576L14.9483 41.2604L18.441 46.0318V41.0695H19.6331V47.8807H18.3218L14.6503 42.9065V47.8807H13.4583L13.4463 41.9999Z" fill="#0A0A0C"/>
<path d="M24.4848 41.0576C24.6159 41.3081 24.759 41.5944 24.9139 41.9403C25.0689 42.2863 25.2358 42.656 25.4027 43.0497C25.5696 43.4433 25.7245 43.8727 25.8914 44.3022C26.0583 44.7316 26.2133 45.161 26.3563 45.5904C26.4994 46.0199 26.6305 46.4254 26.7497 46.7833C26.8689 47.1411 26.9762 47.5228 27.0596 47.8449H25.7007C25.6292 47.5705 25.5457 47.2962 25.4623 47.0338C25.3788 46.7713 25.3073 46.5089 25.2358 46.2465H22.2318C22.1484 46.5089 22.0768 46.7713 21.9934 47.0338C21.91 47.2962 21.8384 47.5705 21.7669 47.8449H20.4437C20.5272 47.5228 20.6225 47.1769 20.7537 46.7833C20.8848 46.3896 21.004 45.9841 21.147 45.5904C21.2901 45.1968 21.4451 44.7316 21.6119 44.3022C21.7788 43.8727 21.9338 43.4552 22.1007 43.0497C22.2676 42.6441 22.4225 42.2863 22.5775 41.9403C22.7325 41.5944 22.8874 41.3081 23.0186 41.0576H24.4848ZM23.7338 42.2505C23.3047 43.2167 22.9113 44.2306 22.5417 45.2803H24.9258C24.5563 44.2306 24.1629 43.2167 23.7338 42.2505Z" fill="#0A0A0C"/>
<path d="M27.7391 42C27.749 41.9528 27.749 41.904 27.7391 41.8568C27.7016 41.823 27.6567 41.7985 27.6079 41.7853L27.2384 41.6421L27.3576 41.0576H29.0146C29.0146 41.0576 29.1099 41.0576 29.1099 41.1531V45.1014C29.0655 45.6029 29.2148 46.1023 29.5272 46.497C29.7115 46.6552 29.9257 46.7748 30.1571 46.8486C30.3885 46.9224 30.6323 46.9488 30.8742 46.9264C31.1161 46.9509 31.3605 46.9254 31.5922 46.8516C31.8239 46.7777 32.038 46.657 32.2212 46.497C32.5335 46.1023 32.6828 45.6029 32.6384 45.1014V41.0576H33.9854V45.1968C33.9948 45.6291 33.9344 46.0601 33.8066 46.4731C33.7004 46.8017 33.5116 47.0974 33.2583 47.332C32.9793 47.5712 32.6488 47.7427 32.2927 47.833C31.8285 47.9455 31.3517 47.9976 30.8742 47.988C30.3966 47.9983 29.9197 47.9462 29.4556 47.833C29.0995 47.7427 28.769 47.5712 28.4901 47.332C28.2368 47.0974 28.048 46.8017 27.9417 46.4731C27.8139 46.0601 27.7535 45.6291 27.7629 45.1968L27.7391 42Z" fill="#0A0A0C"/>
<path d="M35.5232 42C35.5331 41.9528 35.5331 41.904 35.5232 41.8568C35.5232 41.8568 35.5232 41.8568 35.392 41.7853L35.0344 41.6421L35.1417 41.0576H36.8106C36.8702 41.0576 36.894 41.0576 36.894 41.1531V46.831H40.0053V47.8688H35.547L35.5232 42Z" fill="#0A0A0C"/>
<path d="M41.4477 42.0954H39.2305V41.0576H45V42.0954H42.7947V47.8807H41.4477V42.0954Z" fill="#0A0A0C"/>
</g>
<defs>
<clipPath id="clip0_816_1170">
<rect width="45" height="48" fill="white"/>
</clipPath>
</defs>
</svg>
