<svg width="68" height="56" viewBox="0 0 68 56" fill="none" xmlns="http://www.w3.org/2000/svg">
<g clip-path="url(#clip0_816_1044)">
<path d="M2.93736 43.9758H0.966614V42.887H6.33454V43.9758H4.35441V49.5138H2.93736V43.9758Z" fill="#484848"/>
<path d="M10.5669 41.0002H11.5054V42.0797H10.5669V41.0002ZM8.99035 41.0002H9.9288V42.0797H8.99035V41.0002ZM8.78392 42.8775V46.9138C8.78392 47.089 8.78392 47.2767 8.78392 47.4769C8.80151 47.6623 8.85914 47.8417 8.95283 48.0026C9.05264 48.1731 9.20367 48.3078 9.38448 48.3874C9.63741 48.502 9.91439 48.5536 10.1916 48.5376H10.4356C10.5533 48.5277 10.6696 48.5056 10.7828 48.4719C10.9163 48.432 11.0429 48.3719 11.1582 48.2936C11.287 48.2084 11.3959 48.0963 11.4773 47.965C11.516 47.9132 11.5475 47.8564 11.5711 47.7961C11.5969 47.7254 11.6189 47.6533 11.6368 47.5802C11.6368 47.4863 11.6368 47.3831 11.6368 47.2611C11.6368 47.139 11.6368 46.9982 11.6368 46.8387V42.8963H13.0257V47.0264C13.043 47.4589 12.9494 47.8887 12.7535 48.2748C12.5938 48.5953 12.3587 48.8723 12.0685 49.082C11.7873 49.2867 11.4683 49.4334 11.13 49.5138C10.7956 49.5984 10.4521 49.6426 10.1071 49.6452C9.91335 49.6573 9.71903 49.6573 9.52527 49.6452C9.03825 49.5909 8.57313 49.4132 8.1739 49.129C7.94745 48.969 7.75591 48.7646 7.61086 48.5282C7.46018 48.2927 7.36401 48.0266 7.32933 47.7492C7.29034 47.4661 7.27147 47.1807 7.27297 46.895V42.8963L8.78392 42.8775Z" fill="#484848"/>
<path d="M15.6721 42.887L17.4082 48.1153L19.1537 42.887H20.552L18.1121 49.5138H16.5636L14.1237 42.887H15.6721Z" fill="#484848"/>
<path d="M22.6917 45.7594H24.2777H24.5123C24.6028 45.7683 24.694 45.7683 24.7845 45.7594C24.8609 45.7444 24.934 45.7158 25.0003 45.6749L25.1317 45.5904L25.2818 45.4215C25.3299 45.3408 25.3707 45.256 25.4038 45.168C25.4357 45.0518 25.4516 44.9318 25.4508 44.8113C25.465 44.5914 25.4126 44.3723 25.3006 44.1824C25.2024 44.0515 25.0777 43.9428 24.9346 43.8633C24.7959 43.7986 24.6463 43.7604 24.4936 43.7507C24.3748 43.7427 24.2557 43.7427 24.1369 43.7507H22.6917V45.7594ZM21.7533 42.8965H24.4372H24.822C24.9646 42.9147 25.1057 42.9429 25.2443 42.981C25.3854 43.0282 25.5208 43.0911 25.6478 43.1687C25.8804 43.3146 26.0713 43.5183 26.2015 43.76C26.3176 43.9968 26.3786 44.2567 26.3798 44.5204C26.3806 44.7429 26.3359 44.9633 26.2484 45.168C26.1766 45.3663 26.0612 45.546 25.9106 45.6937C25.7913 45.821 25.6477 45.9232 25.4883 45.994C25.3725 46.0457 25.2533 46.0896 25.1317 46.1255C25.2746 46.164 25.413 46.2174 25.5446 46.285C25.659 46.3388 25.7588 46.4193 25.8355 46.5197C25.9235 46.6249 25.9904 46.746 26.0326 46.8764C26.0868 47.0471 26.1214 47.2235 26.1358 47.402C26.1358 47.5991 26.1359 47.7775 26.2109 47.9464C26.286 48.1154 26.2109 48.2844 26.286 48.4533C26.361 48.6223 26.3517 48.7818 26.3892 48.9508C26.4308 49.1293 26.4841 49.3049 26.5488 49.4764H25.6103C25.5669 49.3508 25.5324 49.2222 25.5071 49.0916L25.4226 48.6223C25.4226 48.4627 25.4226 48.3125 25.3569 48.1529C25.3453 48.0113 25.3265 47.8703 25.3006 47.7305C25.28 47.5275 25.2423 47.3265 25.188 47.1298C25.1479 46.9818 25.0665 46.8484 24.9534 46.745C24.8341 46.6462 24.6923 46.5785 24.5405 46.5478C24.3177 46.5064 24.0914 46.4875 23.8648 46.4915H22.7105V49.4764H21.772V42.8965H21.7533Z" fill="#484848"/>
<path d="M27.7875 42.8965H28.6508V45.5904C28.7934 45.346 29.0059 45.1498 29.2608 45.0272C29.5355 44.8937 29.8376 44.8262 30.143 44.8301C30.274 44.8171 30.4061 44.8171 30.5371 44.8301C30.6796 44.8521 30.8185 44.8931 30.95 44.9521C31.0877 44.9998 31.215 45.073 31.3254 45.168C31.4391 45.2675 31.5317 45.3888 31.5976 45.5247L31.6539 45.6749C31.6762 45.7427 31.695 45.8116 31.7102 45.8814C31.7102 45.9565 31.7102 46.0597 31.7102 46.1724C31.7102 46.285 31.7102 46.4352 31.7102 46.5948V49.4764H30.8374V46.7543C30.8374 46.6511 30.8374 46.5291 30.8374 46.3789C30.8288 46.2319 30.7905 46.0882 30.7248 45.9565C30.6589 45.8153 30.559 45.6927 30.4339 45.5998C30.2643 45.4893 30.0634 45.4366 29.8614 45.4496C29.7178 45.4455 29.5747 45.4677 29.4391 45.5153C29.3266 45.5551 29.2194 45.6087 29.1201 45.6749C29.0393 45.7339 28.9668 45.8034 28.9042 45.8814C28.8591 45.941 28.8184 46.0037 28.7822 46.0691C28.6987 46.215 28.6535 46.3797 28.6508 46.5478C28.6508 46.7356 28.6508 46.8951 28.6508 47.0359V49.4764H27.7781L27.7875 42.8965Z" fill="#484848"/>
<path d="M36.2054 46.7636C36.2134 46.6323 36.2134 46.5006 36.2054 46.3693C36.1873 46.2116 36.1396 46.0587 36.0646 45.9188C35.9857 45.772 35.869 45.6489 35.7267 45.5621C35.5371 45.4489 35.3186 45.3934 35.098 45.4025C34.9511 45.4055 34.8055 45.4308 34.6663 45.4776C34.5179 45.5245 34.3806 45.6011 34.2628 45.7029C34.1386 45.8229 34.0397 45.9665 33.9719 46.1253C33.8838 46.3265 33.8391 46.5439 33.8405 46.7636H36.2054ZM33.7748 47.3737C33.7716 47.5914 33.7937 47.8087 33.8405 48.0214C33.8822 48.2107 33.962 48.3896 34.0751 48.547C34.1782 48.6986 34.321 48.8188 34.488 48.8943C34.6792 48.9815 34.888 49.0233 35.098 49.0163C35.3572 49.0239 35.6116 48.9446 35.8206 48.7911C35.9288 48.7056 36.0168 48.5974 36.0784 48.4741C36.1401 48.3508 36.1738 48.2155 36.1772 48.0777H37.0406C37.0254 48.2238 36.9971 48.3683 36.9561 48.5095C36.9061 48.711 36.7985 48.8937 36.6465 49.0351C36.5856 49.1055 36.5197 49.1713 36.4494 49.2322C36.3495 49.3128 36.239 49.3791 36.1209 49.4293C35.9774 49.4996 35.8262 49.5532 35.6704 49.5889C35.4708 49.637 35.2658 49.6591 35.0605 49.6546C34.7606 49.6778 34.4595 49.6324 34.1798 49.5218C33.9001 49.4112 33.6493 49.2383 33.4463 49.0163C33.0734 48.524 32.8872 47.9153 32.9208 47.2986C32.9169 46.8782 32.9803 46.4599 33.1085 46.0596C33.2418 45.6769 33.4953 45.3476 33.8311 45.1209C33.9376 45.045 34.0546 44.9849 34.1783 44.9426C34.2903 44.8966 34.4066 44.862 34.5256 44.8393C34.6318 44.8309 34.7384 44.8309 34.8446 44.8393H35.0886C35.3827 44.8308 35.6758 44.8786 35.952 44.9801C36.1681 45.0525 36.3642 45.1747 36.5245 45.3368C36.6704 45.483 36.7881 45.6548 36.8717 45.8437C36.9451 46.0259 37.0016 46.2144 37.0406 46.4069C37.0538 46.5944 37.0538 46.7826 37.0406 46.9701V47.4206L33.7748 47.3737Z" fill="#484848"/>
<path d="M38.2606 44.9146H39.1239V49.514H38.2606V44.9146ZM38.1667 42.8965H39.2084V43.8351H38.1667V42.8965Z" fill="#484848"/>
<path d="M40.6536 45.4402V44.9146H41.517V45.6561L41.639 45.4402C41.7129 45.3402 41.7978 45.2489 41.8923 45.168C42.0281 45.0678 42.1764 44.9858 42.3334 44.924C42.5445 44.8507 42.767 44.8157 42.9904 44.8207C43.1372 44.8111 43.2845 44.8111 43.4314 44.8207C43.6279 44.8517 43.8163 44.9219 43.9851 45.0272C44.1778 45.1458 44.3413 45.3062 44.4637 45.4965C44.608 45.7538 44.6763 46.0467 44.6608 46.3413V49.467H43.7786V46.5854C43.798 46.4452 43.798 46.3031 43.7786 46.163C43.7512 46.0266 43.6823 45.9021 43.5815 45.8063C43.4742 45.698 43.3422 45.6174 43.1968 45.5716C43.0597 45.5158 42.9131 45.4871 42.7651 45.4871C42.6109 45.4861 42.458 45.5148 42.3146 45.5716C42.1694 45.6269 42.038 45.7134 41.9299 45.8251C41.8156 45.9509 41.7264 46.0975 41.6671 46.2568C41.5963 46.4523 41.5613 46.659 41.5639 46.867V49.514H40.7005L40.6536 45.4402Z" fill="#484848"/>
<path d="M46.9694 42.887H46.106V49.5045H46.9694V42.887Z" fill="#484848"/>
<path d="M51.1736 47.2798H50.939H50.2727C50.0846 47.2914 49.8987 47.3261 49.719 47.3831C49.5365 47.4372 49.3693 47.5337 49.231 47.6646C49.1581 47.7346 49.1011 47.8194 49.0638 47.9133C49.0266 48.0073 49.01 48.1081 49.0152 48.2091C49.0046 48.2901 49.0046 48.3721 49.0152 48.4531C49.0414 48.5504 49.0895 48.6403 49.1559 48.7159C49.2373 48.8045 49.3364 48.8749 49.4468 48.9224C49.5986 48.9843 49.7617 49.0131 49.9255 49.0069C50.1115 49.012 50.2957 48.9688 50.4601 48.8816C50.6245 48.7945 50.7636 48.6663 50.8639 48.5094C50.9137 48.4363 50.9546 48.3575 50.9859 48.2748C51.0166 48.1966 51.0355 48.1144 51.0422 48.0307C51.0422 47.9369 51.0422 47.8336 51.0422 47.7116C51.0422 47.5896 51.0422 47.4581 51.0422 47.2986M51.1454 49.5326C51.1101 49.423 51.0881 49.3095 51.0798 49.1946C51.0702 49.0791 51.0702 48.9629 51.0798 48.8474C50.9921 49.0172 50.8745 49.1699 50.7326 49.2979C50.6189 49.3982 50.4927 49.4833 50.3572 49.5513C50.2385 49.6061 50.1117 49.641 49.9818 49.6546H49.6533C49.4179 49.6567 49.1836 49.6219 48.9589 49.5513C48.7731 49.4872 48.6011 49.3885 48.4521 49.2604C48.3167 49.1425 48.2107 48.9946 48.1424 48.8286C48.0248 48.563 47.9983 48.2659 48.0674 47.9838C48.0882 47.859 48.1294 47.7385 48.1894 47.6271C48.253 47.4992 48.3318 47.3795 48.424 47.2704C48.5474 47.1428 48.6899 47.0352 48.8463 46.9513C48.9683 46.8773 49.1013 46.8234 49.2404 46.7917C49.3845 46.748 49.532 46.7166 49.6815 46.6978C49.8221 46.6896 49.9631 46.6896 50.1038 46.6978H50.7326H51.061V46.2942C51.061 46.1816 51.061 46.0971 51.061 46.0126C51.0478 45.9424 51.029 45.8733 51.0047 45.8061C50.9865 45.7462 50.9543 45.6915 50.9108 45.6465C50.8237 45.524 50.6926 45.4399 50.5449 45.4119C50.4437 45.3831 50.34 45.3642 50.2352 45.3556C50.0612 45.3458 49.8874 45.378 49.7284 45.4494C49.6199 45.5041 49.524 45.5808 49.4468 45.6747C49.3922 45.7539 49.3539 45.8433 49.3342 45.9375C49.3342 46.022 49.3342 46.0877 49.3342 46.1346H48.4709C48.4811 45.9954 48.5031 45.8572 48.5366 45.7216C48.5858 45.5514 48.6724 45.3943 48.79 45.2617C48.8759 45.1605 48.9811 45.0775 49.0996 45.0176C49.3459 44.8937 49.6134 44.8173 49.8879 44.7924H50.2727C50.4383 44.7831 50.6044 44.7831 50.7701 44.7924C50.9335 44.8206 51.0938 44.8646 51.2487 44.9238C51.3875 44.9775 51.5197 45.0468 51.6428 45.1303C51.7522 45.209 51.8421 45.3118 51.9056 45.4307C51.9743 45.5491 52.0189 45.6798 52.037 45.8155C52.0462 45.9248 52.0462 46.0347 52.037 46.144V48.3405V48.4907C52.0423 48.5844 52.0423 48.6785 52.037 48.7723C52.037 48.8849 52.037 48.9975 52.037 49.1289C52.037 49.2604 52.037 49.3824 52.0839 49.495L51.1454 49.5326Z" fill="#484848"/>
<path d="M53.4916 45.4402V44.9146H54.355V45.6561L54.477 45.4402C54.5509 45.3402 54.6358 45.2489 54.7303 45.168C54.8661 45.0678 55.0144 44.9858 55.1714 44.924C55.3825 44.8507 55.605 44.8157 55.8284 44.8207C55.9752 44.8111 56.1225 44.8111 56.2694 44.8207C56.466 44.8517 56.6543 44.9219 56.8231 45.0272C57.0158 45.1458 57.1793 45.3062 57.3017 45.4965C57.4461 45.7538 57.5144 46.0467 57.4988 46.3413V49.467H56.6166V46.5854C56.6314 46.445 56.6314 46.3034 56.6166 46.163C56.582 46.0273 56.5105 45.9039 56.4102 45.8063C56.3029 45.698 56.1708 45.6174 56.0254 45.5716C55.8883 45.5158 55.7418 45.4871 55.5938 45.4871C55.4396 45.4861 55.2866 45.5148 55.1433 45.5716C54.998 45.6269 54.8667 45.7134 54.7585 45.8251C54.6442 45.9509 54.555 46.0975 54.4957 46.2568C54.4249 46.4523 54.3899 46.659 54.3925 46.867V49.514H53.5292L53.4916 45.4402Z" fill="#484848"/>
<path d="M62.1535 47.1486C62.161 46.8758 62.1262 46.6035 62.0503 46.3413C61.9969 46.1671 61.9109 46.0047 61.7969 45.8626C61.6952 45.7254 61.5636 45.613 61.4121 45.5341C61.2219 45.4317 61.0086 45.3799 60.7927 45.3839C60.6066 45.3751 60.4217 45.4173 60.2578 45.5059C60.1178 45.5737 59.9957 45.6734 59.9012 45.7969C59.8112 45.9176 59.7386 46.0503 59.6853 46.1912C59.6402 46.3298 59.6027 46.4708 59.5727 46.6135C59.5649 46.7386 59.5649 46.864 59.5727 46.989C59.5727 47.1016 59.5727 47.1861 59.5727 47.2331C59.5747 47.4435 59.5904 47.6536 59.6196 47.862C59.6551 48.0577 59.7184 48.2473 59.8073 48.4251C59.9004 48.5949 60.0363 48.7373 60.2015 48.8382C60.3927 48.9559 60.6155 49.0116 60.8396 48.9977C61.122 49.0164 61.4017 48.9331 61.6279 48.7631C61.8026 48.6114 61.9405 48.422 62.0315 48.2093C62.1074 48.0104 62.1548 47.8019 62.1722 47.5897C62.1722 47.3832 62.1722 47.2331 62.1722 47.1486M62.1722 42.8965H63.0356V48.8945C63.0356 48.9602 63.0356 49.0165 63.0356 49.0916C63.0356 49.1667 63.0356 49.2324 63.0356 49.3075C63.0356 49.3826 63.0356 49.4483 63.0356 49.5046H62.1722V48.7724C62.1276 48.8511 62.0775 48.9263 62.0221 48.9977C61.9544 49.1032 61.8648 49.1928 61.7593 49.2606C61.5774 49.379 61.3779 49.4677 61.1681 49.5234C60.9868 49.5684 60.8011 49.5935 60.6144 49.5985C60.424 49.5927 60.235 49.5644 60.0514 49.514C59.8136 49.4545 59.5923 49.3422 59.4038 49.1855C59.1723 48.9942 58.9863 48.7537 58.8595 48.4815C58.6946 48.0965 58.6177 47.6797 58.6343 47.2612C58.6286 46.8752 58.6889 46.4911 58.8126 46.1255C58.9139 45.8384 59.0701 45.5738 59.2724 45.3464C59.4567 45.1466 59.6848 44.9924 59.9387 44.8958C60.1859 44.7947 60.4506 44.7436 60.7176 44.7456C60.9308 44.7443 61.1429 44.7759 61.3464 44.8395C61.4967 44.8952 61.6387 44.9709 61.7687 45.0648C61.8622 45.1402 61.9444 45.2287 62.0127 45.3276L62.1535 45.5247V42.8965H62.1722Z" fill="#484848"/>
<path d="M65.8228 43.9009H66.3577H66.4797C66.5202 43.8811 66.5555 43.8522 66.5829 43.8164C66.5957 43.7608 66.5957 43.703 66.5829 43.6474C66.5945 43.5886 66.5945 43.528 66.5829 43.4691C66.5555 43.4333 66.5202 43.4044 66.4797 43.3846C66.4396 43.3751 66.3978 43.3751 66.3577 43.3846H65.8228V43.9009ZM65.56 43.0749H66.4046C66.4799 43.0771 66.5537 43.0963 66.6205 43.1312C66.6944 43.1607 66.7591 43.2093 66.8081 43.272C66.8691 43.3527 66.8991 43.4526 66.8926 43.5536V43.6381C66.8926 43.6381 66.8926 43.7131 66.8926 43.7695C66.8609 43.8208 66.8231 43.8681 66.78 43.9103C66.7218 43.9628 66.6504 43.9985 66.5735 44.0135C66.6516 44.0308 66.7232 44.0698 66.78 44.1262C66.8265 44.2068 66.8552 44.2964 66.8644 44.389C66.8644 44.511 66.8645 44.6143 66.9114 44.7081C66.9199 44.8046 66.942 44.8994 66.9771 44.9897H66.7049V44.9052C66.7049 44.9052 66.7049 44.8489 66.7049 44.8114C66.699 44.7678 66.699 44.7236 66.7049 44.68C66.7049 44.633 66.7049 44.5673 66.7049 44.4922C66.7122 44.433 66.7122 44.3731 66.7049 44.3139C66.6925 44.2688 66.67 44.2271 66.6392 44.1919C66.6046 44.162 66.5623 44.1425 66.5172 44.1355H66.3202H65.9917V45.0085H65.7289L65.56 43.0749ZM66.2076 42.4741C66.0009 42.4711 65.796 42.5127 65.6069 42.5962C65.4175 42.6786 65.2455 42.7965 65.1002 42.9435C64.9554 43.087 64.8377 43.2555 64.7529 43.4409C64.6738 43.6347 64.6324 43.8418 64.631 44.0511C64.6316 44.2665 64.673 44.4799 64.7529 44.68C64.8354 44.8695 64.9533 45.0415 65.1002 45.1868C65.2459 45.331 65.4179 45.4457 65.6069 45.5247C65.796 45.6082 66.0009 45.6498 66.2076 45.6468C66.515 45.643 66.8151 45.5531 67.074 45.3872C67.3328 45.2212 67.5398 44.9859 67.6715 44.7081C67.7506 44.5078 67.792 44.2946 67.7935 44.0792C67.7912 43.8731 67.7498 43.6692 67.6715 43.4785C67.5139 43.0987 67.2142 42.7956 66.8363 42.6337C66.638 42.5469 66.424 42.5022 66.2076 42.5023M66.2076 42.2864C66.4493 42.2851 66.6888 42.333 66.9114 42.4272C67.1233 42.521 67.317 42.6513 67.4838 42.812C67.643 42.9783 67.7703 43.1724 67.8592 43.3846C67.9564 43.6034 68.0075 43.8398 68.0094 44.0792C68.0064 44.3245 67.9554 44.5669 67.8592 44.7926C67.7655 45.0045 67.6352 45.1983 67.4744 45.3652C67.309 45.5277 67.115 45.6582 66.902 45.75C66.6827 45.8442 66.4463 45.8921 66.2076 45.8908C65.9719 45.8922 65.7385 45.8442 65.5225 45.75C65.1011 45.5688 64.7652 45.2328 64.584 44.8114C64.4824 44.5874 64.4311 44.3439 64.4339 44.098C64.4311 43.8581 64.4824 43.6207 64.584 43.4034C64.673 43.1866 64.8075 42.9914 64.9782 42.8308C65.14 42.6682 65.331 42.5376 65.5412 42.446C65.7575 42.3525 65.9907 42.3046 66.2263 42.3052" fill="#484848"/>
<path d="M49.2967 30.3372C46.8543 29.915 44.3803 29.7015 41.9017 29.6989C38.4803 29.6921 35.0717 30.1179 31.7571 30.9661C28.4507 31.8263 25.0476 32.2585 21.6312 32.252C20.4123 32.258 19.1938 32.2016 17.9807 32.0831L31.7571 8.20377L40.0811 22.6121C37.2717 22.7299 34.4821 23.1389 31.7571 23.8323C29.7827 24.3446 27.7715 24.7023 25.7416 24.9024L23.2359 29.2484C26.111 29.1256 28.9661 28.7104 31.7571 28.0093C35.0705 27.1534 38.4796 26.7244 41.9017 26.7328C43.7468 26.7329 45.59 26.852 47.4198 27.0895L44.7828 22.5182L37.9602 10.7006L31.7571 -0.0375977L11.4396 35.1337C18.0861 36.8857 25.0731 36.8857 31.7196 35.1337C38.3755 33.4565 45.3434 33.4565 51.9994 35.1337L49.2967 30.3372Z" fill="#4373B8"/>
<path d="M0 55.3992H63.4391" stroke="#4573B7" stroke-width="1.28" stroke-miterlimit="10"/>
</g>
<defs>
<clipPath id="clip0_816_1044">
<rect width="68" height="56" fill="white"/>
</clipPath>
</defs>
</svg>
