<svg width="107" height="48" viewBox="0 0 107 48" fill="none" xmlns="http://www.w3.org/2000/svg">
<g clip-path="url(#clip0_816_1131)">
<path d="M66.3842 0.126404V20.5823H76.815C78.7324 20.7555 80.647 20.221 82.2002 19.0788C82.8847 18.5318 83.4308 17.83 83.7938 17.0308C84.1567 16.2315 84.3264 15.3573 84.2889 14.4797C84.3674 13.4016 84.0842 12.3281 83.4845 11.4304C82.8847 10.5327 82.0029 9.86258 80.9797 9.52677L80.6525 9.40042C81.4546 9.05209 82.1353 8.47205 82.6081 7.73407C83.0809 6.99608 83.3243 6.13351 83.3074 5.25617C83.3267 4.35379 83.0897 3.46458 82.624 2.6926C82.1582 1.92062 81.4832 1.29783 80.6777 0.897153C79.2511 0.294972 77.7054 0.03121 76.1607 0.126404H66.3842ZM71.7065 4.18224H75.368C77.2931 4.18224 78.1613 4.80133 78.1613 6.21644C78.1613 7.63155 77.205 8.17484 75.4938 8.14958H71.7191L71.7065 4.18224ZM71.7065 11.6747H75.7706C77.9474 11.6747 78.9162 12.4076 78.9162 14.0501C78.9162 15.6926 77.9725 16.3749 75.8964 16.3749H71.7065V11.6747ZM40.1753 0.126404H34.8529V12.6602C34.8529 15.5157 33.8086 16.716 31.4054 16.716C29.0022 16.716 27.7313 15.4526 27.7313 12.635V0.126404H22.409V12.2686C22.2727 14.0074 22.5983 15.7514 23.3527 17.3225C24.699 19.8495 27.3287 21.0119 31.3048 21.0119C34.3119 21.0119 36.3377 20.3928 37.9105 18.9903C38.8314 18.0865 39.4959 16.9526 39.8356 15.7053C40.1084 14.5684 40.2227 13.3991 40.1753 12.2307V0.126404Z" fill="#1E1E1C"/>
<path d="M51.9901 12.5591L55.9159 11.6368L56.7085 12.3823L56.2682 13.7847L51.9901 12.5591ZM55.4 1.78157C55.4 1.78157 56.0039 7.56836 55.8781 8.09902C55.8781 8.09902 55.7397 9.50153 57.8409 14.5302C59.9422 19.5589 58.5833 16.1096 60.3574 20.1022L61.1501 21.2394L61.9302 14.9219C62.0686 12.6476 62.0182 8.92032 62.0182 8.92032C62.3223 6.68326 62.4987 4.43054 62.5467 2.17325C62.5072 1.45782 62.5072 0.740769 62.5467 0.0253403C56.1423 -0.239993 54.6954 0.278015 54.6954 0.278015C49.9896 -0.0252224 44.705 -0.0252101 44.705 -0.0252101C44.424 1.03421 44.2802 2.12561 44.2772 3.22197C44.3498 4.10913 44.3498 5.00075 44.2772 5.88792C44.1891 7.25249 44.4911 11.1946 44.4911 11.1946L44.1891 11.1061C44.403 14.8334 44.101 20.5192 44.101 20.5192H48.379C48.5929 20.2665 52.8332 9.91845 52.8332 9.91845C53.9611 7.27843 54.8373 4.53707 55.4503 1.73106" fill="#96572B"/>
<path d="M6.34145 32.6739C6.34145 34.6955 5.15873 35.6684 3.17072 35.6684C1.18271 35.6684 -0.0126038 34.6576 -0.0126038 32.6739V28.0369H1.62308V32.6739C1.62308 33.4952 1.8244 34.2912 3.15813 34.2912C4.49185 34.2912 4.69317 33.7858 4.69317 32.6739V28.0369H6.32889L6.34145 32.6739Z" fill="#1E1E1C"/>
<path d="M7.53677 30.0458H8.94599V30.7913C9.12182 30.5131 9.36557 30.2846 9.65405 30.1276C9.94253 29.9706 10.2662 29.8903 10.5943 29.8942C12.1671 29.8942 12.5571 30.7913 12.5571 32.1179V35.4409H11.085V32.3959C11.085 31.5115 10.8208 31.1324 10.1287 31.1324C9.4367 31.1324 8.98373 31.5746 8.98373 32.6739V35.5041H7.53677V30.0458Z" fill="#1E1E1C"/>
<path d="M15.3757 29.212H13.9035V27.9485H15.3757V29.212ZM13.9035 30.0459H15.3757V35.441H13.9035V30.0459Z" fill="#1E1E1C"/>
<path d="M19.5781 35.441H17.9298L16.0928 30.0459H17.6404L18.7728 33.7353H18.798L19.9304 30.0459H21.4025L19.5781 35.441Z" fill="#1E1E1C"/>
<path d="M23.0257 33.1033C23.0257 34.0383 23.5163 34.4679 24.3468 34.4679C24.5855 34.4743 24.8211 34.4124 25.0261 34.2893C25.2311 34.1662 25.397 33.9871 25.5044 33.7729H26.7626C26.6202 34.3232 26.2907 34.8062 25.8312 35.1385C25.3717 35.4707 24.811 35.6313 24.2461 35.5923C23.8738 35.6096 23.5021 35.5471 23.1556 35.4092C22.8091 35.2712 22.4957 35.0608 22.2363 34.792C21.977 34.5232 21.7775 34.202 21.6511 33.8499C21.5247 33.4977 21.4743 33.1227 21.5032 32.7495C21.4825 32.3659 21.543 31.9823 21.6808 31.624C21.8186 31.2656 22.0305 30.9407 22.3026 30.6706C22.5746 30.4006 22.9006 30.1915 23.259 30.0573C23.6175 29.923 24.0001 29.8666 24.3818 29.8918C24.7635 29.917 25.1356 30.0232 25.4735 30.2034C25.8113 30.3836 26.1072 30.6337 26.3417 30.9372C26.5762 31.2407 26.744 31.5907 26.8339 31.9641C26.9238 32.3374 26.9338 32.7257 26.8632 33.1033H23.0257ZM25.4289 32.1683C25.2905 31.4102 24.9633 31.0185 24.2461 31.0185C24.0865 31.0026 23.9254 31.0205 23.7731 31.0711C23.6208 31.1217 23.4809 31.2039 23.3623 31.3123C23.2436 31.4207 23.149 31.5529 23.0845 31.7004C23.02 31.8478 22.9871 32.0072 22.9879 32.1683H25.4289Z" fill="#1E1E1C"/>
<path d="M27.7692 30.0459H29.1785V31.044C29.3222 30.7066 29.5604 30.4183 29.8642 30.2142C30.1679 30.0101 30.5242 29.899 30.8896 29.8943C30.9982 29.88 31.1082 29.88 31.2168 29.8943V31.2841C31.0437 31.2422 30.8663 31.221 30.6883 31.221C29.6062 31.221 29.2288 32.0043 29.2288 32.9646V35.3905H27.744L27.7692 30.0459Z" fill="#1E1E1C"/>
<path d="M33.0159 33.6845C33.0159 34.3415 33.5696 34.5942 34.1609 34.5942C34.7523 34.5942 35.1172 34.43 35.1172 33.912C35.1172 33.3939 34.5132 33.3055 33.4437 33.0781C32.5881 32.8885 31.7451 32.5853 31.7451 31.6251C31.7451 30.2479 32.9279 29.894 34.0854 29.894C35.243 29.894 36.3377 30.2984 36.4509 31.6251H35.0543C35.0543 31.0439 34.5761 30.8922 34.0351 30.8922C33.708 30.8922 33.2172 30.9554 33.2172 31.385C33.2172 31.8146 34.0477 31.9914 34.8907 32.1936C35.7337 32.3958 36.6019 32.7117 36.6019 33.7098C36.6019 35.1376 35.3437 35.5924 34.0854 35.5924C32.8272 35.5924 31.569 35.1249 31.569 33.6845H33.0159Z" fill="#1E1E1C"/>
<path d="M38.9925 29.212H37.5204V27.9485H38.9925V29.212ZM37.5204 30.0459H38.9925V35.441H37.5204V30.0459Z" fill="#1E1E1C"/>
<path d="M42.2891 30.0457H43.3586V31.0313H42.2891V33.7098C42.2891 34.2152 42.4149 34.3416 42.9056 34.3416C43.056 34.3602 43.2082 34.3602 43.3586 34.3416V35.504C43.074 35.5306 42.7876 35.5306 42.503 35.504C41.5971 35.504 40.8044 35.3018 40.8044 34.2405V31.0313H39.911V30.0457H40.8044V28.4285H42.2891V30.0457Z" fill="#1E1E1C"/>
<path d="M44.2646 31.7009C44.3527 30.311 45.5857 29.894 46.781 29.894C47.9764 29.894 49.1339 30.1341 49.1339 31.4355V34.2405C49.1049 34.6498 49.1694 35.0604 49.3227 35.4408H47.8002C47.7474 35.2725 47.7136 35.0987 47.6996 34.9227C47.4563 35.1486 47.171 35.3241 46.8601 35.439C46.5492 35.5539 46.2187 35.606 45.8877 35.5924C44.8685 35.5924 44.0507 35.0744 44.0507 33.9751C44.0507 32.8759 44.9692 32.459 45.8877 32.3326C46.8062 32.2063 47.6366 32.2315 47.6366 31.6251C47.6366 31.0186 47.1962 30.8922 46.6804 30.8922C46.1645 30.8922 45.7493 31.1197 45.6989 31.7009H44.2646ZM47.687 32.8001C47.2946 32.9938 46.8657 33.1015 46.4287 33.116C45.9758 33.2044 45.5606 33.3687 45.5606 33.912C45.5606 34.4553 45.9884 34.5942 46.4665 34.5942C46.6381 34.6227 46.814 34.6096 46.9796 34.5562C47.1451 34.5027 47.2957 34.4105 47.4187 34.287C47.5417 34.1635 47.6336 34.0123 47.6868 33.846C47.74 33.6797 47.753 33.5031 47.7247 33.3307L47.687 32.8001Z" fill="#1E1E1C"/>
<path d="M52.1286 30.0457H53.2106V31.0313H52.1286V33.7098C52.1286 34.2152 52.2544 34.3416 52.7577 34.3416C52.9081 34.3595 53.0602 34.3595 53.2106 34.3416V35.504C52.9218 35.5302 52.6312 35.5302 52.3424 35.504C51.4365 35.504 50.6439 35.3018 50.6439 34.2405V31.0313H49.7505V30.0457H50.6439V28.4285H52.1286V30.0457Z" fill="#1E1E1C"/>
<path d="M58.9481 27.9863H60.6215L63.4022 35.4409H61.7036L61.1374 33.7857H58.3567L57.7779 35.4409H56.1296L58.9481 27.9863ZM58.7845 32.5602H60.7096L59.7785 29.8184L58.7845 32.5602Z" fill="#1E1E1C"/>
<path d="M68.8882 35.441H67.479V34.6955C67.306 34.9736 67.0647 35.2022 66.7781 35.3593C66.4916 35.5165 66.1697 35.5968 65.8432 35.5926C64.2704 35.5926 63.8678 34.7081 63.8678 33.3688V30.0459H65.3525V33.0909C65.3525 33.988 65.6042 34.4176 66.2962 34.4176C66.9882 34.4176 67.4412 33.9753 67.4412 32.8761V30.0459H68.9259L68.8882 35.441Z" fill="#1E1E1C"/>
<path d="M72.1343 30.0457H73.2164V31.0313H72.1343V33.7098C72.1343 34.2152 72.2602 34.3416 72.7635 34.3416C72.9139 34.3602 73.066 34.3602 73.2164 34.3416V35.504C72.9319 35.5306 72.6454 35.5306 72.3608 35.504C71.4549 35.504 70.6622 35.3018 70.6622 34.2405V31.0313H69.7689V30.0457H70.6622V28.4285H72.1343V30.0457Z" fill="#1E1E1C"/>
<path d="M76.7395 29.8942C77.3045 29.8816 77.8603 30.0384 78.3361 30.3444C78.812 30.6505 79.1862 31.0919 79.4111 31.6125C79.636 32.133 79.7014 32.709 79.5989 33.267C79.4964 33.825 79.2306 34.3397 78.8355 34.7454C78.4405 35.1511 77.934 35.4294 77.3808 35.5448C76.8275 35.6602 76.2526 35.6075 75.7293 35.3933C75.206 35.1792 74.7581 34.8133 74.4428 34.3425C74.1275 33.8716 73.959 33.3171 73.9589 32.7497C73.9296 32.3726 73.9809 31.9936 74.1094 31.6381C74.2379 31.2826 74.4407 30.9588 74.704 30.6884C74.9673 30.418 75.2852 30.2072 75.6362 30.0703C75.9873 29.9333 76.3635 29.8732 76.7395 29.8942ZM74.8899 27.8853H76.5256L77.5196 29.3762H76.5005L74.8899 27.8853ZM76.7395 34.4681C77.7461 34.4681 77.9978 33.6089 77.9978 32.7497C77.9978 31.8905 77.6958 31.0187 76.7395 31.0187C75.7833 31.0187 75.4813 31.8779 75.4813 32.7497C75.4813 33.6215 75.7833 34.4681 76.7395 34.4681Z" fill="#1E1E1C"/>
<path d="M80.338 30.0458H81.7724V30.7913C81.9482 30.5131 82.192 30.2846 82.4805 30.1276C82.769 29.9706 83.0926 29.8903 83.4207 29.8942C84.9935 29.8942 85.3835 30.7913 85.3835 32.1179V35.4409H83.9114V32.3959C83.9114 31.5115 83.6472 31.1324 82.9677 31.1324C82.2883 31.1324 81.8228 31.5746 81.8228 32.6739V35.5041H80.338V30.0458Z" fill="#1E1E1C"/>
<path d="M89.0199 29.8942C89.5848 29.8817 90.1407 30.0384 90.6165 30.3445C91.0923 30.6505 91.4666 31.092 91.6915 31.6125C91.9164 32.133 91.9817 32.709 91.8792 33.2671C91.7767 33.8251 91.511 34.3397 91.1159 34.7454C90.7209 35.1511 90.2144 35.4294 89.6611 35.5448C89.1079 35.6602 88.5329 35.6075 88.0097 35.3933C87.4864 35.1792 87.0385 34.8133 86.7232 34.3425C86.4078 33.8716 86.2393 33.3171 86.2392 32.7497C86.2099 32.3726 86.2613 31.9937 86.3898 31.6381C86.5183 31.2826 86.721 30.9588 86.9843 30.6884C87.2477 30.418 87.5655 30.2072 87.9166 30.0703C88.2677 29.9333 88.6439 29.8733 89.0199 29.8942ZM89.0199 34.4681C90.0265 34.4681 90.2781 33.6089 90.2781 32.7497C90.2781 31.8905 89.9762 31.0187 89.0199 31.0187C88.0637 31.0187 87.7617 31.8779 87.7617 32.7497C87.7617 33.6215 88.0637 34.4681 89.0199 34.4681Z" fill="#1E1E1C"/>
<path d="M92.7065 30.0459H94.0905V30.7787C94.2696 30.5045 94.5143 30.2798 94.8023 30.1253C95.0903 29.9708 95.4123 29.8913 95.7388 29.8942C96.0603 29.8684 96.382 29.9402 96.6624 30.1001C96.9429 30.2601 97.169 30.5009 97.3116 30.7913C97.4869 30.5184 97.727 30.2935 98.0103 30.1369C98.2936 29.9803 98.6113 29.8969 98.9347 29.8942C99.1977 29.8576 99.4656 29.882 99.7177 29.9656C99.9699 30.0492 100.2 30.1898 100.389 30.3765C100.579 30.5632 100.723 30.7911 100.811 31.0426C100.899 31.2941 100.929 31.5626 100.898 31.8274V35.441H99.3877V32.3833C99.3877 31.6631 99.3877 31.1198 98.4943 31.1198C97.601 31.1198 97.5003 31.8021 97.5003 32.4844V35.4915H96.0282V32.4591C96.0282 31.84 96.0282 31.1198 95.1223 31.1198C94.8329 31.1198 94.1283 31.3093 94.1283 32.3833V35.5168H92.6561L92.7065 30.0459Z" fill="#1E1E1C"/>
<path d="M101.904 31.7009C101.992 30.311 103.225 29.894 104.421 29.894C105.616 29.894 106.786 30.1341 106.786 31.4355V34.2405C106.757 34.6498 106.822 35.0604 106.975 35.4408H105.478C105.425 35.2725 105.391 35.0987 105.377 34.9227C105.134 35.1486 104.848 35.3241 104.537 35.439C104.227 35.5539 103.896 35.606 103.565 35.5924C102.546 35.5924 101.728 35.0744 101.728 33.9751C101.728 32.8759 102.647 32.459 103.565 32.3326C104.484 32.2063 105.314 32.2315 105.314 31.6251C105.314 31.0186 104.874 30.8922 104.345 30.8922C103.817 30.8922 103.427 31.1197 103.376 31.7009H101.904ZM105.327 32.8001C104.934 32.9938 104.505 33.1015 104.068 33.116C103.615 33.2044 103.2 33.3687 103.2 33.912C103.2 34.4553 103.615 34.5942 104.106 34.5942C104.278 34.6227 104.454 34.6096 104.619 34.5562C104.785 34.5027 104.935 34.4105 105.058 34.287C105.181 34.1635 105.273 34.0123 105.326 33.846C105.38 33.6797 105.393 33.5031 105.364 33.3307L105.327 32.8001Z" fill="#1E1E1C"/>
<path d="M25.0766 47.1661C24.9065 47.4396 24.6657 47.6616 24.3798 47.8085C24.094 47.9553 23.7738 48.0215 23.4535 48C21.8178 48 21.0377 46.5976 21.0377 45.1066C20.9995 44.7636 21.0316 44.4164 21.1322 44.0863C21.2327 43.7562 21.3996 43.4504 21.6224 43.1876C21.8452 42.9247 22.1193 42.7105 22.4277 42.5582C22.7362 42.4058 23.0724 42.3185 23.4157 42.3017C23.7279 42.2932 24.0373 42.3626 24.3162 42.5038C24.5951 42.6449 24.8348 42.8533 25.0137 43.1103V40.3938H26.4984V47.8358H25.0892L25.0766 47.1661ZM23.8184 43.3757C22.8495 43.3757 22.5601 44.2095 22.5601 45.094C22.5601 45.9784 22.9502 46.825 23.8184 46.825C24.6865 46.825 25.0766 45.9785 25.0766 45.0814C25.0766 44.1843 24.7746 43.3757 23.8184 43.3757Z" fill="#1E1E1C"/>
<path d="M28.9267 45.511C28.9267 46.4586 29.43 46.8882 30.2479 46.8882C30.49 46.8959 30.7293 46.8332 30.9369 46.7077C31.1445 46.5822 31.3116 46.3992 31.418 46.1806H32.6763C32.5361 46.7322 32.2071 47.2167 31.7471 47.5493C31.287 47.8819 30.7252 48.0415 30.1598 48.0001C29.7875 48.0173 29.4157 47.9549 29.0692 47.8169C28.7227 47.6789 28.4094 47.4685 28.15 47.1997C27.8906 46.9309 27.6911 46.6097 27.5647 46.2576C27.4383 45.9055 27.3879 45.5304 27.4168 45.1572C27.3961 44.7736 27.4567 44.39 27.5945 44.0317C27.7323 43.6733 27.9442 43.3484 28.2162 43.0783C28.4883 42.8083 28.8143 42.5992 29.1727 42.465C29.5311 42.3307 29.9138 42.2744 30.2955 42.2996C30.6772 42.3247 31.0493 42.4309 31.3871 42.6111C31.7249 42.7913 32.0209 43.0414 32.2554 43.3449C32.4899 43.6484 32.6576 43.9984 32.7475 44.3718C32.8374 44.7451 32.8474 45.1334 32.7769 45.511H28.9267ZM31.33 44.576C31.1916 43.8179 30.877 43.4262 30.1598 43.4262C30.001 43.4142 29.8414 43.4348 29.6908 43.4868C29.5402 43.5388 29.4017 43.6212 29.2839 43.7288C29.1662 43.8365 29.0715 43.9671 29.0058 44.1128C28.94 44.2585 28.9046 44.4161 28.9016 44.576H31.33Z" fill="#1E1E1C"/>
<path d="M36.0483 40.3938H39.5462C40.9554 40.3938 41.9117 40.8487 41.9117 42.2385C41.9201 42.571 41.8285 42.8983 41.649 43.1777C41.4694 43.4572 41.2102 43.6759 40.9051 43.8052C41.316 43.9082 41.6776 44.1535 41.9262 44.4979C42.1747 44.8422 42.2944 45.2636 42.264 45.6878C42.264 47.204 41.0058 47.861 39.6469 47.861H36.0483V40.3938ZM37.684 43.4136H39.3323C39.9111 43.4136 40.3263 43.1482 40.3263 42.5291C40.3263 41.91 39.7979 41.6699 39.2065 41.6699H37.7344L37.684 43.4136ZM37.684 46.5849H39.4204C40.0747 46.5849 40.6786 46.3701 40.6786 45.5994C40.6786 44.8287 40.1879 44.5381 39.4959 44.5381H37.7344L37.684 46.5849Z" fill="#1E1E1C"/>
<path d="M43.2077 44.1085C43.2832 42.7187 44.4659 42.3018 45.7242 42.3018C46.9824 42.3018 48.0771 42.5418 48.0771 43.8432V46.6482C48.0487 47.0781 48.1131 47.509 48.2658 47.9117H46.7685C46.7168 47.7387 46.6831 47.5609 46.6678 47.381C46.4246 47.6069 46.1393 47.7823 45.8284 47.8972C45.5175 48.0122 45.187 48.0643 44.856 48.0507C43.8368 48.0507 43.019 47.5453 43.019 46.4334C43.019 45.3215 43.9375 44.9172 44.856 44.7908C45.7745 44.6645 46.6049 44.6898 46.6049 44.0833C46.6049 43.4768 46.1646 43.3505 45.6487 43.3505C45.1328 43.3505 44.7176 43.5779 44.6673 44.1591L43.2077 44.1085ZM46.6175 45.2078C46.2296 45.4135 45.7979 45.5219 45.3593 45.5237C44.9063 45.6248 44.4911 45.7763 44.4911 46.3196C44.4911 46.8629 44.9189 47.0146 45.397 47.0146C45.5638 47.0321 45.7324 47.0109 45.8897 46.9526C46.0471 46.8943 46.189 46.8005 46.3045 46.6784C46.42 46.5563 46.506 46.4092 46.556 46.2484C46.6059 46.0876 46.6183 45.9175 46.5924 45.7511L46.6175 45.2078Z" fill="#1E1E1C"/>
<path d="M49.3478 42.4534H50.7444V43.4515C50.8894 43.115 51.128 42.8276 51.4314 42.6237C51.7349 42.4198 52.0905 42.308 52.4556 42.3018C52.5676 42.302 52.6786 42.3235 52.7827 42.365V43.7422C52.6071 43.7217 52.4298 43.7217 52.2543 43.7422C51.1722 43.7422 50.7947 44.5255 50.7947 45.4731V47.8359H49.3226L49.3478 42.4534Z" fill="#1E1E1C"/>
<path d="M57.023 44.3485C57.0136 44.215 56.9776 44.0847 56.917 43.9655C56.8564 43.8462 56.7726 43.7404 56.6704 43.6543C56.5683 43.5683 56.4499 43.5037 56.3225 43.4645C56.195 43.4254 56.0609 43.4123 55.9283 43.4262C54.9847 43.4262 54.6701 44.3864 54.6701 45.1824C54.6701 45.9784 54.9721 46.8882 55.9283 46.8882C56.0771 46.8932 56.2253 46.8688 56.3647 46.8163C56.504 46.7638 56.6316 46.6842 56.7403 46.5821C56.849 46.48 56.9366 46.3574 56.998 46.2213C57.0595 46.0852 57.0937 45.9383 57.0985 45.7889H58.5203C58.4965 46.1045 58.4107 46.4123 58.268 46.6945C58.1253 46.9767 57.9284 47.2278 57.6887 47.4333C57.4489 47.6388 57.1711 47.7947 56.8712 47.8919C56.5712 47.9892 56.2551 48.0259 55.9409 48C55.5764 48.0166 55.2125 47.9561 54.8727 47.8224C54.533 47.6887 54.225 47.4847 53.9688 47.2239C53.7126 46.963 53.5138 46.6509 53.3853 46.308C53.2569 45.965 53.2016 45.5988 53.2232 45.233C53.1872 44.8541 53.2321 44.4719 53.3547 44.1118C53.4774 43.7517 53.6751 43.422 53.9347 43.1446C54.1942 42.8673 54.5096 42.6486 54.8599 42.5033C55.2102 42.3579 55.5873 42.2892 55.9661 42.3017C56.2654 42.2685 56.5684 42.2952 56.8574 42.3803C57.1464 42.4654 57.4157 42.6073 57.6498 42.7977C57.8838 42.988 58.0779 43.2231 58.2209 43.4893C58.3638 43.7555 58.4528 44.0476 58.4826 44.3485H57.023Z" fill="#1E1E1C"/>
<path d="M60.609 45.511C60.609 46.4586 61.0997 46.8882 61.9302 46.8882C62.1702 46.8935 62.4068 46.8296 62.6119 46.7043C62.817 46.5789 62.9821 46.3972 63.0877 46.1806H64.3459C64.2035 46.7309 63.8741 47.214 63.4146 47.5462C62.9551 47.8784 62.3944 48.039 61.8295 48.0001C61.4571 48.0173 61.0854 47.9549 60.7389 47.8169C60.3924 47.6789 60.0791 47.4685 59.8197 47.1997C59.5603 46.9309 59.3608 46.6097 59.2344 46.2576C59.108 45.9055 59.0576 45.5304 59.0865 45.1572C59.0658 44.7736 59.1264 44.39 59.2642 44.0317C59.402 43.6733 59.6139 43.3484 59.8859 43.0783C60.158 42.8083 60.484 42.5992 60.8424 42.465C61.2008 42.3307 61.5835 42.2744 61.9652 42.2996C62.3469 42.3247 62.719 42.4309 63.0568 42.6111C63.3946 42.7913 63.6906 43.0414 63.9251 43.3449C64.1596 43.6484 64.3273 43.9984 64.4172 44.3718C64.5071 44.7451 64.5171 45.1334 64.4466 45.511H60.609ZM63.0122 44.576C62.8738 43.8179 62.5467 43.4262 61.8295 43.4262C61.6703 43.4123 61.5099 43.4315 61.3585 43.4829C61.2071 43.5342 61.0679 43.6165 60.9497 43.7245C60.8315 43.8325 60.7369 43.9639 60.6717 44.1105C60.6066 44.257 60.5724 44.4155 60.5713 44.576H63.0122Z" fill="#1E1E1C"/>
<path d="M66.875 40.3938H65.4028V47.8484H66.875V40.3938Z" fill="#1E1E1C"/>
<path d="M70.6496 42.3016C71.215 42.2865 71.772 42.4411 72.2495 42.7455C72.7269 43.05 73.1031 43.4905 73.33 44.0108C73.5568 44.531 73.624 45.1074 73.5229 45.6662C73.4219 46.225 73.1572 46.7409 72.7627 47.1478C72.3682 47.5548 71.8618 47.8344 71.3082 47.9509C70.7547 48.0673 70.1791 48.0154 69.6551 47.8016C69.131 47.5879 68.6824 47.2222 68.3665 46.7511C68.0506 46.28 67.8817 45.725 67.8815 45.1571C67.8544 44.7816 67.9069 44.4046 68.0354 44.0509C68.1639 43.6973 68.3656 43.375 68.6271 43.1052C68.8886 42.8354 69.204 42.6243 69.5526 42.4858C69.9012 42.3473 70.2751 42.2845 70.6496 42.3016ZM70.6496 46.888C71.6688 46.888 71.9078 46.0162 71.9078 45.1571C71.9078 44.2979 71.6059 43.4261 70.6496 43.4261C69.6934 43.4261 69.3914 44.2853 69.3914 45.1571C69.3914 46.0289 69.6934 46.888 70.6496 46.888Z" fill="#1E1E1C"/>
<path d="M74.3992 42.4535H75.8084V43.199C75.9843 42.9208 76.228 42.6923 76.5165 42.5353C76.8049 42.3783 77.1286 42.298 77.4567 42.3019C79.0295 42.3019 79.4196 43.199 79.4196 44.5257V47.836H77.9978V44.8036C77.9978 43.9192 77.7335 43.4769 77.0541 43.4769C76.3746 43.4769 75.9091 43.9318 75.9091 45.0184V47.836H74.4244L74.3992 42.4535Z" fill="#1E1E1C"/>
<path d="M80.5142 44.1085C80.6023 42.7187 81.7724 42.3018 83.0306 42.3018C84.2889 42.3018 85.3961 42.5418 85.3961 43.8432V46.6482C85.365 47.0771 85.425 47.5078 85.5723 47.9117H84.075C84.0233 47.7387 83.9895 47.5609 83.9743 47.381C83.7311 47.6069 83.4458 47.7823 83.1349 47.8972C82.824 48.0122 82.4935 48.0643 82.1625 48.0507C81.1433 48.0507 80.338 47.5453 80.338 46.4334C80.338 45.3215 81.244 44.9172 82.1625 44.7908C83.081 44.6645 83.9114 44.6898 83.9114 44.0833C83.9114 43.4768 83.471 43.3505 82.9552 43.3505C82.4393 43.3505 82.0241 43.5779 81.9737 44.1591L80.5142 44.1085ZM83.924 45.2078C83.5361 45.4135 83.1044 45.5219 82.6657 45.5237C82.2128 45.6248 81.7976 45.7763 81.7976 46.3196C81.7976 46.8629 82.2254 47.0146 82.7035 47.0146C82.8703 47.0321 83.0389 47.0109 83.1962 46.9526C83.3536 46.8943 83.4955 46.8005 83.611 46.6784C83.7265 46.5563 83.8125 46.4092 83.8624 46.2484C83.9123 46.0876 83.9248 45.9175 83.8988 45.7511L83.924 45.2078Z" fill="#1E1E1C"/>
</g>
<defs>
<clipPath id="clip0_816_1131">
<rect width="107" height="48" fill="white"/>
</clipPath>
</defs>
</svg>
