<svg width="121" height="48" viewBox="0 0 121 48" fill="none" xmlns="http://www.w3.org/2000/svg">
<g clip-path="url(#clip0_816_970)">
<path fill-rule="evenodd" clip-rule="evenodd" d="M35.9051 13.133C35.9051 14.2041 36.9115 13.8781 37.4534 13.5366C40.8597 11.0527 45.5975 6.30242 48.9418 6.50423C52.2862 6.70604 53.9583 9.37616 56.2189 9.37616C58.4794 9.37616 59.3155 7.9014 61.2973 7.97902C62.1398 7.97386 62.9771 8.11028 63.7746 8.38263C62.2991 8.72667 60.8983 9.33686 59.6406 10.1834C58.0923 11.2546 56.544 12.7293 54.9957 12.7293C53.4474 12.7293 51.6514 10.1213 48.8025 10.1213C47.6436 10.1777 46.5439 10.6518 45.7059 11.4564C44.3743 12.4033 41.2313 14.9493 39.8997 15.8807C36.2922 18.4266 32.0034 17.6349 32.0034 13.8781V4.88975C31.9996 4.713 31.9601 4.53887 31.8871 4.37793C31.8142 4.21699 31.7094 4.07258 31.579 3.95352C31.4487 3.83446 31.2956 3.74321 31.129 3.68533C30.9624 3.62744 30.7858 3.60411 30.6099 3.61677H21.1962C20.8414 3.59983 20.4943 3.72409 20.2304 3.9625C19.9666 4.2009 19.8073 4.53417 19.7873 4.88975V13.2106C19.7773 13.7793 19.6548 14.3404 19.427 14.8614C19.1992 15.3823 18.8706 15.8528 18.4602 16.2455C18.0498 16.6383 17.5657 16.9454 17.0361 17.1493C16.5064 17.3531 15.9417 17.4496 15.3746 17.4331H5.27965C5.09964 17.4247 4.91982 17.453 4.75105 17.5163C4.58228 17.5796 4.42808 17.6766 4.2978 17.8015C4.16752 17.9263 4.06387 18.0763 3.99311 18.2425C3.92236 18.4086 3.88597 18.5875 3.88617 18.7681V26.2817C3.88991 26.4585 3.92947 26.6326 4.00242 26.7935C4.07537 26.9545 4.18019 27.0989 4.31053 27.218C4.44086 27.337 4.59398 27.4283 4.76058 27.4861C4.92718 27.544 5.10378 27.5674 5.27965 27.5547H15.3746C15.9371 27.5361 16.4978 27.629 17.0243 27.8282C17.5509 28.0275 18.0331 28.3291 18.4431 28.7156C18.8531 29.1022 19.1829 29.5662 19.4136 30.0809C19.6443 30.5957 19.7713 31.151 19.7873 31.7151V44.7086C19.7873 45.3141 18.9202 45.8574 17.8519 45.8574C16.7835 45.8574 15.9165 45.3141 15.9165 44.7086V32.4447C15.9124 32.0892 15.7687 31.7497 15.5165 31.4997C15.2644 31.2498 14.9241 31.1096 14.5695 31.1097H4.41259C3.8455 31.1262 3.28078 31.0297 2.75112 30.8259C2.22147 30.622 1.73742 30.3148 1.32701 29.9221C0.91659 29.5294 0.587969 29.0589 0.360171 28.538C0.132373 28.017 0.00992895 27.4559 -7.24792e-05 26.8872V18.0385C0.00992895 17.4698 0.132373 16.9087 0.360171 16.3877C0.587969 15.8667 0.91659 15.3963 1.32701 15.0036C1.73742 14.6108 2.22147 14.3036 2.75112 14.0998C3.28078 13.8959 3.8455 13.7995 4.41259 13.816H14.5695C14.7464 13.816 14.9215 13.7811 15.085 13.7132C15.2484 13.6453 15.3969 13.5458 15.522 13.4204C15.647 13.295 15.7463 13.1461 15.814 12.9823C15.8817 12.8184 15.9165 12.6428 15.9165 12.4654V4.16012C15.9806 3.02632 16.4846 1.96269 17.3209 1.19677C18.1571 0.430857 19.2591 0.0234836 20.3911 0.0618042H31.4924C32.6344 0.0408926 33.7385 0.472665 34.5647 1.26331C35.391 2.05396 35.8727 3.1396 35.9051 4.28432V13.133Z" fill="#269CD8"/>
<path fill-rule="evenodd" clip-rule="evenodd" d="M31.6163 46.2458H32.824V43.2963H35.967V46.2458H37.1747V39.6792H35.967V42.3027H32.824V39.6792H31.6163V46.2458Z" fill="#1E1E1C"/>
<path fill-rule="evenodd" clip-rule="evenodd" d="M40.7203 45.5159C40.312 45.4803 39.9343 45.2839 39.6702 44.9696C39.4061 44.6553 39.277 44.2488 39.3114 43.8393C39.277 43.4297 39.4061 43.0233 39.6702 42.709C39.9343 42.3947 40.312 42.1982 40.7203 42.1627C40.9279 42.1724 41.1314 42.224 41.3187 42.3142C41.506 42.4045 41.6733 42.5316 41.8106 42.6881C41.9478 42.8445 42.0523 43.0271 42.1177 43.2249C42.1831 43.4227 42.2081 43.6316 42.1912 43.8393C42.2081 44.047 42.1831 44.2559 42.1177 44.4537C42.0523 44.6515 41.9478 44.834 41.8106 44.9905C41.6733 45.1469 41.506 45.2741 41.3187 45.3643C41.1314 45.4546 40.9279 45.5061 40.7203 45.5159ZM40.7203 46.3852C41.3856 46.3852 42.0235 46.1202 42.4939 45.6486C42.9643 45.177 43.2286 44.5373 43.2286 43.8703C43.2286 43.2034 42.9643 42.5637 42.4939 42.0921C42.0235 41.6204 41.3856 41.3555 40.7203 41.3555C40.0551 41.3555 39.4171 41.6204 38.9467 42.0921C38.4763 42.5637 38.2121 43.2034 38.2121 43.8703C38.2121 44.5373 38.4763 45.177 38.9467 45.6486C39.4171 46.1202 40.0551 46.3852 40.7203 46.3852Z" fill="#1E1E1C"/>
<path fill-rule="evenodd" clip-rule="evenodd" d="M43.9253 44.709C43.9253 45.8423 44.8543 46.3856 46.1239 46.3856C47.1303 46.3856 48.338 45.982 48.338 44.8332C48.338 43.6844 47.5329 43.6223 46.7897 43.4205C46.0465 43.2187 45.2414 43.1566 45.2414 42.6754C45.2414 42.1941 45.8297 42.1476 46.1704 42.1476C46.3913 42.1099 46.6182 42.158 46.8051 42.2819C46.992 42.4059 47.1249 42.5965 47.1768 42.8151H48.307C48.1832 41.7439 47.2387 41.2627 46.2323 41.2627C45.2259 41.2627 44.0956 41.6042 44.0956 42.5978C44.0956 43.5913 44.9007 43.8707 45.6439 44.0104C46.3871 44.1502 47.1922 44.2744 47.3161 44.8177C47.44 45.361 46.5729 45.4231 46.1704 45.4231C45.7678 45.4231 45.102 45.2213 45.0401 44.6159L43.9253 44.709Z" fill="#1E1E1C"/>
<path fill-rule="evenodd" clip-rule="evenodd" d="M53.0758 43.8393C53.0758 44.7087 52.6733 45.5159 51.6824 45.5159C50.6914 45.5159 50.2734 44.8484 50.2734 43.8393C50.2734 42.8303 50.7379 42.1627 51.6824 42.1627C52.0879 42.2021 52.4617 42.4002 52.7225 42.7141C52.9834 43.0279 53.1103 43.4322 53.0758 43.8393ZM49.2051 47.9842H50.3353V45.6401C50.5329 45.8909 50.7884 46.0898 51.0797 46.2196C51.371 46.3494 51.6894 46.4062 52.0075 46.3852C52.316 46.379 52.6198 46.3078 52.899 46.1761C53.1782 46.0445 53.4267 45.8553 53.6282 45.6211C53.8298 45.3868 53.9799 45.1126 54.0688 44.8163C54.1576 44.52 54.1833 44.2083 54.1442 43.9014C54.185 43.5745 54.1542 43.2427 54.054 42.9289C53.9538 42.6152 53.7867 42.3271 53.5641 42.0848C53.3416 41.8424 53.069 41.6516 52.7654 41.5257C52.4618 41.3997 52.1345 41.3417 51.8062 41.3555C51.4985 41.3304 51.1901 41.3929 50.9162 41.5357C50.6423 41.6785 50.4142 41.8958 50.2579 42.1627V41.4952H49.1896L49.2051 47.9842Z" fill="#1E1E1C"/>
<path fill-rule="evenodd" clip-rule="evenodd" d="M55.1505 46.2458H56.2189V41.4955H55.1505V46.2458ZM55.1505 40.6882H56.2189V39.6792H55.1505V40.6882Z" fill="#1E1E1C"/>
<path fill-rule="evenodd" clip-rule="evenodd" d="M56.962 42.2872H57.7671V45.0815C57.7671 45.8888 58.0303 46.37 59.1606 46.37C59.3619 46.37 59.6251 46.2924 59.9038 46.2924V45.4851H59.4393C58.8974 45.4851 58.8974 45.2833 58.8974 44.8176V42.3338H59.9038V41.5421H58.8974V40.1294H57.7671V41.5421H56.962V42.2872Z" fill="#1E1E1C"/>
<path fill-rule="evenodd" clip-rule="evenodd" d="M63.7746 44.6465C63.7746 45.3141 62.9694 45.5159 62.5049 45.5159C62.0405 45.5159 61.4985 45.3762 61.4985 44.9104C61.4985 44.4447 61.9011 44.2429 62.3811 44.1653C62.856 44.1076 63.3232 43.9983 63.7746 43.8393V44.6465ZM64.8429 42.7681C64.8429 41.7591 63.8365 41.3555 62.8456 41.3555C61.8547 41.3555 60.6315 41.697 60.5696 42.9079H61.6998C61.6998 42.3645 62.1798 42.1006 62.7682 42.1006C63.3565 42.1006 63.8365 42.2248 63.8365 42.7681C63.8365 43.3115 63.1088 43.3115 62.2882 43.4357C61.4676 43.5599 60.3528 43.6996 60.3528 44.9881C60.3528 45.935 61.1579 46.4007 62.0869 46.4007C62.7174 46.4062 63.3302 46.1922 63.821 45.7953C63.821 46.261 64.2236 46.4007 64.7035 46.4007C64.9315 46.3901 65.1562 46.3429 65.3693 46.261V45.5314H65.1061C64.9048 45.5314 64.8274 45.4538 64.8274 45.1899L64.8429 42.7681Z" fill="#1E1E1C"/>
<path d="M67.1808 39.6792H66.0506V46.2458H67.1808V39.6792Z" fill="#1E1E1C"/>
<path fill-rule="evenodd" clip-rule="evenodd" d="M34.1556 32.7707H36.1684L39.6366 23.1304H37.8405L35.2239 30.7681H35.162L32.6227 23.1304H30.8112L34.1556 32.7707Z" fill="#1E1E1C"/>
<path fill-rule="evenodd" clip-rule="evenodd" d="M44.4518 30.4268C44.4518 31.3738 43.3834 31.6998 42.6557 31.6998C41.928 31.6998 41.1074 31.498 41.1074 30.8305C41.1074 30.1629 41.7113 29.7593 42.439 29.6972C43.0982 29.6432 43.7483 29.5076 44.3744 29.2936L44.4518 30.4268ZM46.0001 27.617C46.0001 26.1422 44.5292 25.5989 43.1202 25.5989C41.4481 25.5989 39.8533 26.1422 39.7759 27.8809H41.3242C41.3242 27.1513 42.0674 26.8097 42.8725 26.8097C43.6776 26.8097 44.4208 26.9495 44.4208 27.7567C44.4208 28.5639 43.3525 28.5484 42.2222 28.7502C41.0919 28.952 39.4043 29.1539 39.4043 30.8925C39.4233 31.195 39.5035 31.4904 39.6399 31.7607C39.7764 32.0311 39.9662 32.2709 40.1979 32.4655C40.4296 32.66 40.6983 32.8053 40.9878 32.8925C41.2772 32.9797 41.5813 33.007 41.8816 32.9727C42.8056 33.0042 43.709 32.6949 44.4208 32.1034C44.4873 32.3803 44.654 32.6227 44.8886 32.7833C45.1232 32.9439 45.409 33.0114 45.6904 32.9727C46.0331 32.9491 46.3714 32.8813 46.6968 32.7709V31.6998H46.2942C46.031 31.6998 45.8917 31.5756 45.8917 31.2341L46.0001 27.617Z" fill="#1E1E1C"/>
<path d="M49.8089 23.1304H48.1987V32.7863H49.8089V23.1304Z" fill="#1E1E1C"/>
<path d="M53.6178 23.1304H52.0075V32.7863H53.6178V23.1304Z" fill="#1E1E1C"/>
<path fill-rule="evenodd" clip-rule="evenodd" d="M60.9102 29.3556C60.9102 28.0826 61.4367 26.8096 62.9695 26.8096C64.1772 26.8096 64.9823 27.7411 64.9823 29.2935C65.0218 29.5927 64.9974 29.8969 64.9107 30.1859C64.8239 30.475 64.6768 30.7422 64.479 30.9698C64.2813 31.1974 64.0375 31.3802 63.7639 31.506C63.4903 31.6319 63.1931 31.6979 62.8921 31.6997C61.4831 31.6997 60.8948 30.5664 60.8948 29.3556M66.4996 23.146H64.9513V26.6855C64.6457 26.3311 64.2641 26.0507 63.8351 25.8652C63.4061 25.6797 62.9408 25.5939 62.474 25.6143C62.0206 25.6081 61.5713 25.7018 61.1579 25.8888C60.7446 26.0758 60.3772 26.3515 60.0818 26.6966C59.7865 27.0416 59.5703 27.4474 59.4486 27.8854C59.3268 28.3235 59.3026 28.7829 59.3774 29.2314C59.314 29.7106 59.3557 30.198 59.4995 30.6594C59.6434 31.1209 59.886 31.5453 60.2103 31.903C60.5347 32.2607 60.933 32.5432 61.3774 32.7306C61.8219 32.918 62.3018 33.0059 62.7837 32.9882C63.2285 33.0133 63.6721 32.922 64.0711 32.7233C64.4702 32.5246 64.8108 32.2254 65.0597 31.8549V32.7864H66.608L66.4996 23.146Z" fill="#1E1E1C"/>
<path d="M70.4632 23.1304H69.0543V26.9493H70.4632V23.1304Z" fill="#1E1E1C"/>
<path fill-rule="evenodd" clip-rule="evenodd" d="M73.0644 32.7707H74.8759V28.424H79.4899V32.7707H81.224V23.1304H79.4899V26.9493H74.8759V23.1304H73.0644V32.7707Z" fill="#1E1E1C"/>
<path fill-rule="evenodd" clip-rule="evenodd" d="M90.1112 29.6973C90.188 29.2131 90.1627 28.7183 90.037 28.2446C89.9113 27.7708 89.6879 27.3288 89.3814 26.9469C89.0749 26.565 88.6919 26.2518 88.2572 26.0274C87.8226 25.803 87.3458 25.6724 86.8577 25.6441C86.3696 25.6157 85.881 25.6902 85.4234 25.8628C84.9658 26.0354 84.5494 26.3023 84.2009 26.6461C83.8524 26.99 83.5797 27.4032 83.4003 27.8592C83.2209 28.3152 83.1388 28.8039 83.1593 29.2937C83.1138 29.7775 83.1732 30.2656 83.3335 30.7242C83.4939 31.1829 83.7513 31.6014 84.0881 31.9509C84.4249 32.3005 84.8332 32.5728 85.2849 32.7492C85.7366 32.9256 86.2211 33.0018 86.7049 32.9728C87.4549 33.0262 88.1998 32.8148 88.8106 32.3754C89.4214 31.9359 89.8596 31.296 90.0493 30.5666H88.501C88.3808 30.9393 88.1331 31.2575 87.8016 31.4649C87.4701 31.6722 87.0762 31.7555 86.6895 31.6999C86.4256 31.7168 86.1611 31.6761 85.9145 31.5806C85.6678 31.485 85.4447 31.3369 85.2607 31.1465C85.0767 30.9561 84.9361 30.7279 84.8486 30.4777C84.7611 30.2275 84.7289 29.9612 84.7541 29.6973H90.1112ZM84.7696 28.6882C84.765 28.435 84.8124 28.1835 84.9089 27.9494C85.0053 27.7153 85.1488 27.5036 85.3303 27.3275C85.5118 27.1513 85.7275 27.0145 85.9639 26.9254C86.2004 26.8364 86.4527 26.797 86.7049 26.8098C87.191 26.8259 87.6518 27.0309 87.9898 27.3815C88.3279 27.732 88.5167 28.2006 88.5165 28.6882H84.7696Z" fill="#1E1E1C"/>
<path fill-rule="evenodd" clip-rule="evenodd" d="M97.4038 29.2934C97.4038 30.4887 96.8619 31.6996 95.391 31.6996C93.9201 31.6996 93.3318 30.6905 93.3318 29.2934C93.3318 27.8962 93.9975 26.8095 95.391 26.8095C96.7845 26.8095 97.4038 28.0204 97.4038 29.2934ZM91.7835 32.7707H93.3318V31.7617C93.5975 32.1835 93.9772 32.5212 94.4266 32.7355C94.876 32.9499 95.3769 33.032 95.871 32.9725C96.3216 32.9525 96.7632 32.8391 97.1679 32.6394C97.5727 32.4398 97.9318 32.1583 98.2227 31.8127C98.5136 31.4671 98.7299 31.0648 98.8581 30.6312C98.9863 30.1976 99.0236 29.7421 98.9676 29.2934C99.0163 28.8186 98.9633 28.3388 98.8122 27.8862C98.6611 27.4336 98.4154 27.0186 98.0915 26.6688C97.7676 26.3191 97.3729 26.0427 96.9339 25.8581C96.4949 25.6736 96.0217 25.5851 95.5458 25.5987C95.1213 25.592 94.7011 25.6855 94.3192 25.8716C93.9373 26.0576 93.6044 26.331 93.3472 26.6698V23.1304H91.7989L91.7835 32.7707Z" fill="#1E1E1C"/>
<path fill-rule="evenodd" clip-rule="evenodd" d="M100.748 32.7709H102.296V29.4178C102.296 27.8654 103.179 27.0736 104.247 27.0736C104.488 27.0356 104.734 27.0356 104.975 27.0736V25.5212H104.371C103.899 25.5299 103.442 25.6833 103.06 25.9609C102.678 26.2385 102.39 26.6269 102.235 27.0736V25.7231H100.686L100.748 32.7709Z" fill="#1E1E1C"/>
<path fill-rule="evenodd" clip-rule="evenodd" d="M109.171 31.7C108.871 31.696 108.576 31.6284 108.304 31.5016C108.032 31.3748 107.79 31.1917 107.594 30.9643C107.398 30.7369 107.252 30.4705 107.167 30.1826C107.081 29.8946 107.057 29.5917 107.096 29.2938C107.096 28.0829 107.7 26.8099 109.171 26.8099C109.473 26.829 109.767 26.9094 110.037 27.0462C110.306 27.183 110.546 27.3733 110.74 27.6056C110.934 27.8379 111.079 28.1074 111.166 28.3976C111.253 28.6878 111.28 28.9927 111.246 29.2938C111.278 29.5904 111.249 29.8905 111.16 30.1754C111.071 30.4603 110.925 30.7238 110.73 30.9495C110.536 31.1752 110.297 31.3584 110.029 31.4875C109.76 31.6166 109.468 31.6889 109.171 31.7ZM109.171 32.9729C110.105 32.9121 110.981 32.4973 111.621 31.8125C112.261 31.1278 112.617 30.2245 112.617 29.286C112.617 28.3475 112.261 27.4443 111.621 26.7595C110.981 26.0748 110.105 25.6599 109.171 25.5991C108.668 25.5663 108.164 25.6374 107.689 25.8079C107.215 25.9783 106.78 26.2446 106.412 26.5902C106.045 26.9357 105.751 27.3533 105.551 27.817C105.351 28.2807 105.247 28.7806 105.247 29.286C105.247 29.7914 105.351 30.2913 105.551 30.755C105.751 31.2187 106.045 31.6363 106.412 31.9818C106.78 32.3274 107.215 32.5937 107.689 32.7642C108.164 32.9346 108.668 33.0057 109.171 32.9729Z" fill="#1E1E1C"/>
<path fill-rule="evenodd" clip-rule="evenodd" d="M114.513 32.7711H116.061V28.6262C116.052 28.3853 116.093 28.1453 116.181 27.921C116.269 27.6967 116.402 27.493 116.572 27.3225C116.742 27.1521 116.945 27.0186 117.169 26.9304C117.393 26.8422 117.632 26.8012 117.872 26.8099C118.801 26.8099 119.266 27.2756 119.266 28.3623V32.7866H120.938V28.0052C120.938 26.4528 119.932 25.6611 118.337 25.6611C117.885 25.6474 117.438 25.7518 117.039 25.9641C116.64 26.1764 116.303 26.4893 116.061 26.872V25.8629H114.513V32.7711Z" fill="#1E1E1C"/>
</g>
<defs>
<clipPath id="clip0_816_970">
<rect width="121" height="48" fill="white"/>
</clipPath>
</defs>
</svg>
