<svg width="99" height="32" viewBox="0 0 99 32" fill="none" xmlns="http://www.w3.org/2000/svg">
<g clip-path="url(#clip0_816_1061)">
<path d="M49.1783 0.0952453C49.8776 -0.113262 50.6937 0.0203957 51.2439 0.515467C51.7105 0.948521 51.9089 1.5965 51.9121 2.21988C51.9121 8.34608 51.9121 14.4723 51.9121 20.5985C51.8788 21.5159 52.073 22.5445 51.5035 23.3433C50.9361 24.1666 49.7456 24.3837 48.8716 23.9496C48.1551 23.5924 47.7733 22.7819 47.784 22.012C47.784 15.6741 47.784 9.33658 47.784 2.99938C47.7916 2.43374 47.7251 1.84671 47.9256 1.30566C48.0256 1.02066 48.1909 0.762844 48.4083 0.552718C48.6258 0.342591 48.8894 0.185948 49.1783 0.0952453ZM32.8013 11.6498C33.848 10.1613 35.5898 9.24391 37.3916 9.07069C39.3038 8.85683 41.4123 9.18296 42.8935 10.4928C44.2684 11.6989 44.8819 13.5456 45.0074 15.3227C45.046 16.022 45.1489 16.7887 44.7832 17.4238C44.4979 17.9253 43.8705 18.0568 43.3364 18.0654C40.682 18.0707 38.0243 18.0654 35.3699 18.0654C35.5383 19.0491 36.0016 20.1045 36.9786 20.5183C38.3482 21.0989 39.8915 20.7578 41.2611 20.3483C41.8038 20.1879 42.3647 19.989 42.9396 20.0681C43.7407 20.2403 44.3102 21.0978 44.2191 21.8998C44.1419 22.5103 43.6367 22.9498 43.1326 23.2406C42.2071 23.7517 41.1485 23.956 40.1082 24.0779C38.1391 24.3067 36.0059 24.1538 34.3167 23.0257C32.6425 21.9457 31.6837 20.0243 31.4478 18.0889C31.1754 15.8841 31.4821 13.491 32.7991 11.6498M36.703 12.5661C35.7131 13.0847 35.4675 14.2866 35.3688 15.2992C37.3047 15.2992 39.2416 15.2992 41.1785 15.2992C41.1045 14.2663 40.7592 13.0986 39.7736 12.58C39.2941 12.3547 38.771 12.2367 38.2409 12.2343C37.7108 12.2319 37.1867 12.3452 36.7052 12.5661H36.703ZM16.8093 9.17975C17.5193 8.98087 18.3601 9.09956 18.8921 9.63847C19.3436 10.0801 19.5238 10.7248 19.5216 11.3397C19.5216 13.6151 19.5216 15.8883 19.5216 18.1616C19.5163 18.9817 19.853 19.8553 20.5705 20.3076C21.2022 20.7161 21.9894 20.7535 22.7155 20.669C23.3408 20.5899 23.965 20.298 24.3243 19.7687C24.734 19.1902 24.7919 18.4578 24.7994 17.7724C24.7994 15.544 24.7994 13.316 24.7994 11.0884C24.8058 10.3121 25.2756 9.53261 26.0145 9.24819C26.8167 8.9274 27.8538 9.07817 28.4158 9.7732C28.8534 10.2758 28.9392 10.9686 28.9274 11.6113C28.9135 13.6621 28.9424 15.7141 28.9135 17.767C28.8706 19.5228 28.3933 21.4026 27.0527 22.6258C25.6155 23.9474 23.5542 24.2671 21.6688 24.1933C19.9313 24.1345 18.0845 23.6138 16.9004 22.2687C15.8237 21.0486 15.4161 19.371 15.3947 17.7724C15.3947 15.544 15.3947 13.3157 15.3947 11.0884C15.4054 10.2437 15.977 9.41606 16.8039 9.17975H16.8093ZM67.4644 9.20114C69.3949 8.95841 71.5109 9.04716 73.2172 10.0918C74.397 10.7933 75.1906 12.0058 75.536 13.3125C75.7608 14.1815 75.869 15.0765 75.8577 15.9739C75.8577 17.9428 75.8577 19.9116 75.8577 21.8805C75.8695 22.5317 75.6561 23.2182 75.1563 23.6609C74.4174 24.3185 73.2097 24.3334 72.4429 23.7165C72.1965 23.5078 72.0008 23.2461 71.8708 22.951C71.7407 22.6559 71.6796 22.3352 71.6921 22.0131C71.6986 20.0414 71.6921 18.0697 71.6921 16.099C71.6921 15.2297 71.7286 14.2812 71.1988 13.5327C70.7698 12.8912 69.9804 12.6003 69.2308 12.5704C68.4811 12.5405 67.6832 12.6902 67.1287 13.2184C66.6128 13.7316 66.4337 14.4844 66.4369 15.1912C66.4369 17.4249 66.4369 19.6586 66.4369 21.8901C66.4369 22.4248 66.3222 22.9733 65.9886 23.4021C65.2797 24.3463 63.7042 24.4243 62.8923 23.5721C62.4869 23.1636 62.3057 22.5777 62.3099 22.012C62.3099 20.5151 62.3099 19.016 62.3099 17.5147C62.3239 16.145 62.2166 14.7485 62.5888 13.4108C62.8977 12.1373 63.6377 10.9515 64.7284 10.203C65.5507 9.6673 66.4831 9.32236 67.4568 9.19365L67.4644 9.20114ZM80.8287 10.8189C82.2369 9.58607 84.1535 9.0493 86.0025 9.09528C87.815 9.09528 89.664 9.46738 91.2523 10.3634C91.9827 10.7591 92.5307 11.5257 92.5125 12.3769C92.5125 16.6197 92.5125 20.8629 92.5125 25.1065C92.4857 27.0258 91.869 29.0628 90.3675 30.3459C88.866 31.629 86.7843 32.0247 84.8431 31.999C83.3502 31.9359 81.8465 31.5606 80.5617 30.7854C80.0973 30.4881 79.6586 30.1182 79.3895 29.6327C78.8972 28.7271 79.4699 27.4332 80.4823 27.2065C81.2277 27.0911 81.9259 27.4546 82.5962 27.7251C83.5063 28.1374 84.498 28.3391 85.4973 28.3154C86.3478 28.3154 87.2605 28.1015 87.8772 27.4824C88.451 26.8879 88.6279 26.0293 88.6204 25.2295C88.6204 24.4895 88.614 23.7507 88.6204 23.0107C87.4557 24.0319 85.8201 24.2778 84.3197 24.1816C82.7485 24.0843 81.2095 23.3861 80.1777 22.1831C78.7299 20.529 78.3019 18.2268 78.4199 16.0883C78.5207 14.1155 79.3069 12.117 80.8352 10.8147M85.1766 12.6035C84.5367 12.7015 83.9451 13.0013 83.4885 13.459C82.6745 14.3379 82.49 15.5975 82.4922 16.7438C82.5083 17.7788 82.5898 18.9026 83.2333 19.7612C83.8425 20.5514 84.9257 20.7321 85.8663 20.6583C86.7661 20.6145 87.6541 20.1237 88.0681 19.3089C88.8414 17.8462 88.5668 16.1428 88.6204 14.5571C88.5925 14.0845 88.7631 13.4761 88.2901 13.1671C87.401 12.5223 86.218 12.4528 85.1702 12.6078L85.1766 12.6035ZM0.210253 10.2704C0.647831 9.42675 1.72569 9.09421 2.61586 9.27812C3.32371 9.40964 3.82778 10.0352 4.00367 10.7024C4.81877 13.444 5.63279 16.1856 6.44575 18.9272C6.49299 19.0873 6.56267 19.2399 6.65274 19.3806C7.51074 16.5727 8.33441 13.7573 9.16882 10.943C9.32647 10.3399 9.61819 9.7069 10.2102 9.42354C11.1637 8.99049 12.4742 9.29737 13.0148 10.2255C13.358 10.8414 13.2711 11.5942 13.0223 12.2272C11.8629 15.4435 10.7261 18.6674 9.571 21.8859C9.32862 22.505 9.09696 23.169 8.61326 23.6448C8.11348 24.1196 7.38096 24.1666 6.72674 24.172C5.99959 24.172 5.18985 24.1089 4.63215 23.5871C4.12057 23.0974 3.85245 22.4205 3.61007 21.7693C2.46357 18.5412 1.32672 15.3099 0.178078 12.086C-0.0385666 11.5097 -0.0900461 10.8307 0.210253 10.2704ZM56.4091 9.3765C57.2756 9.03326 58.3782 9.29416 58.9069 10.0854C59.2212 10.5238 59.293 11.0798 59.2909 11.6059C59.2859 15.0333 59.2859 18.461 59.2909 21.8891C59.2909 22.4622 59.1461 23.0653 58.7546 23.493C58.0124 24.3666 56.4938 24.3912 55.7205 23.5464C55.3531 23.1233 55.1546 22.5802 55.1628 22.0206C55.1628 18.4621 55.1628 14.9028 55.1628 11.3429C55.1414 10.5206 55.6197 9.66841 56.4101 9.37222L56.4091 9.3765Z" fill="#757575"/>
<path d="M95.3417 1.54822C96.0003 1.34135 96.7068 1.34135 97.3655 1.54822C97.7703 1.68083 98.132 1.91953 98.4126 2.23933C98.6932 2.55913 98.8823 2.94826 98.9603 3.36598C99.0493 4.08666 99.0171 4.88327 98.5731 5.49382C97.7151 6.69889 95.8339 6.86355 94.6563 6.04236C93.1409 4.92604 93.4519 2.09996 95.3417 1.54822Z" fill="#FBE666"/>
</g>
<defs>
<clipPath id="clip0_816_1061">
<rect width="99" height="32" fill="white"/>
</clipPath>
</defs>
</svg>
