<svg width="117" height="48" viewBox="0 0 117 48" fill="none" xmlns="http://www.w3.org/2000/svg">
<g clip-path="url(#clip0_816_1075)">
<path d="M0.0484314 41.9719H1.00004C1.12606 41.9556 1.25415 41.9687 1.37425 42.0102C1.49435 42.0516 1.6032 42.1204 1.69227 42.2109C1.78134 42.3015 1.8482 42.4115 1.88761 42.5322C1.92702 42.6529 1.9379 42.7811 1.91941 42.9067C1.93652 43.0946 1.88573 43.2825 1.77627 43.4362C1.6668 43.5899 1.50587 43.6995 1.32261 43.7449C1.43552 43.7449 1.56456 43.8255 1.66133 44.1478L2.06456 45.5018H1.46779L1.16134 44.3574C1.16134 44.0673 0.935516 43.9867 0.741968 43.9867H0.612957V45.5018H0.0484314M0.838763 43.5031C0.909458 43.5061 0.979951 43.4936 1.04527 43.4664C1.1106 43.4392 1.16914 43.3981 1.21681 43.3458C1.26449 43.2935 1.30012 43.2315 1.32119 43.164C1.34225 43.0965 1.34826 43.0252 1.33876 42.9551C1.33876 42.5521 1.16134 42.4554 0.838763 42.4554H0.612957V43.5031H0.838763Z" fill="#5B8BC7"/>
<path d="M2.41936 41.9717H4.03226V42.4875H2.98387V43.4384H3.98387V43.9542H2.98387V45.0019H4.08065V45.5338H2.41936" fill="#5B8BC7"/>
<path d="M5.79034 43.5352H6.79033V45.3888C6.53821 45.5252 6.25428 45.5919 5.96776 45.5822C4.98389 45.5822 4.45163 44.8085 4.45163 43.7447C4.45163 42.6809 4.98389 41.9073 5.96776 41.9073C6.22393 41.9058 6.47727 41.9608 6.70971 42.0684V42.6487C6.50134 42.5055 6.25283 42.4321 6.00003 42.4392C5.40325 42.4392 5.08066 43.0033 5.08066 43.7447C5.08066 44.4862 5.40325 45.0503 5.96776 45.0503C6.07325 45.0799 6.18485 45.0799 6.29034 45.0503V44.0993H5.82261" fill="#5B8BC7"/>
<path d="M7.95165 41.9717H7.38713V45.5338H7.95165V41.9717Z" fill="#5B8BC7"/>
<path d="M9.72583 41.9072C10.3549 41.9072 10.9355 42.4714 10.9355 43.7447C10.9355 45.018 10.3549 45.5822 9.72583 45.5822C9.0968 45.5822 8.50003 45.0342 8.50003 43.7447C8.50003 42.4552 9.08067 41.9072 9.72583 41.9072ZM9.72583 45.1309C10.0807 45.1309 10.3549 44.7763 10.3549 43.7931C10.3549 42.8098 10.0807 42.4552 9.72583 42.4552C9.37099 42.4552 9.08068 42.8098 9.08068 43.7931C9.08068 44.7763 9.37099 45.1309 9.72583 45.1309Z" fill="#5B8BC7"/>
<path d="M11.3548 41.9717H12.0322L13.0483 44.7601V41.9717H13.5645V45.5338H12.8871L11.8709 42.7454V45.5338H11.3548" fill="#5B8BC7"/>
<path d="M15.6936 44.6634H14.6452L14.4194 45.5177H13.871L14.8871 41.9717H15.5001L16.5 45.5177H15.9194M15.5807 44.1638L15.1936 42.5519L14.7581 44.1638H15.5807Z" fill="#5B8BC7"/>
<path d="M16.7742 41.9717H17.3387V45.0019H18.3549V45.5338H16.7742" fill="#5B8BC7"/>
<path d="M20.9032 41.9072C21.5484 41.9072 22.129 42.4714 22.129 43.7447C22.129 45.018 21.5484 45.5822 20.9032 45.5822C20.2581 45.5822 19.6774 45.0342 19.6774 43.7447C19.6774 42.4552 20.2742 41.9072 20.9032 41.9072ZM20.9032 45.1309C21.2581 45.1309 21.5484 44.7763 21.5484 43.7931C21.5484 42.8098 21.2581 42.4552 20.9032 42.4552C20.5484 42.4552 20.2581 42.8098 20.2581 43.7931C20.2581 44.7763 20.5484 45.1309 20.9032 45.1309Z" fill="#5B8BC7"/>
<path d="M22.6129 41.9717H24.1613V42.4875H23.1774V43.4546H24.1129V43.9703H23.1774V45.5338H22.6129" fill="#5B8BC7"/>
<path d="M24.5968 41.9717H26.1452V42.4875H25.1613V43.4546H26.1129V43.9703H25.1613V45.5338H24.5968" fill="#5B8BC7"/>
<path d="M27.1613 41.9717H26.5968V45.5338H27.1613V41.9717Z" fill="#5B8BC7"/>
<path d="M29.7258 45.4532C29.5119 45.5445 29.2809 45.5885 29.0484 45.5822C28.129 45.5822 27.6452 44.7924 27.6452 43.7447C27.6452 42.697 28.129 41.9072 29.0323 41.9072C29.2726 41.9086 29.5095 41.9637 29.7258 42.0684V42.6486C29.5542 42.5312 29.353 42.4642 29.1452 42.4552C28.6774 42.4552 28.2742 42.826 28.2742 43.7447C28.2742 44.6634 28.6774 45.0342 29.1452 45.0342C29.3532 45.0425 29.5579 44.98 29.7258 44.8569" fill="#5B8BC7"/>
<path d="M30.1613 41.9717H31.7742V42.4875H30.7258V43.4384H31.7258V43.9542H30.7258V45.0019H31.8226V45.5338H30.1613" fill="#5B8BC7"/>
<path d="M33.4193 41.9717H34.9677V42.4875H33.9838V43.4546H34.9193V43.9703H33.9838V45.5338H33.4193" fill="#5B8BC7"/>
<path d="M36.5 41.9072C37.1452 41.9072 37.7258 42.4714 37.7258 43.7447C37.7258 45.018 37.1452 45.5822 36.5 45.5822C35.8549 45.5822 35.2903 45.0342 35.2903 43.7447C35.2903 42.4552 35.871 41.9072 36.5 41.9072ZM36.5 45.1309C36.8549 45.1309 37.1452 44.7763 37.1452 43.7931C37.1452 42.8098 36.8549 42.4552 36.5 42.4552C36.1452 42.4552 35.871 42.8098 35.871 43.7931C35.871 44.7763 36.1452 45.1309 36.5 45.1309Z" fill="#5B8BC7"/>
<path d="M38.1774 41.9719H39.1452C39.2699 41.9583 39.3961 41.9734 39.5141 42.0161C39.6322 42.0588 39.7388 42.1279 39.826 42.2181C39.9132 42.3083 39.9786 42.4173 40.0171 42.5367C40.0556 42.656 40.0663 42.7826 40.0484 42.9067C40.0697 43.093 40.0225 43.2807 39.9157 43.4349C39.8089 43.5891 39.6497 43.6992 39.4677 43.7449C39.5806 43.7449 39.7096 43.8255 39.8064 44.1478L40.1935 45.5018H39.5968L39.3064 44.3574C39.2258 44.0673 39.0806 43.9867 38.871 43.9867H38.758V45.5018H38.1935M38.9839 43.5031C39.0559 43.5086 39.1282 43.4979 39.1955 43.4718C39.2628 43.4457 39.3235 43.4049 39.373 43.3524C39.4225 43.2998 39.4596 43.2369 39.4815 43.1681C39.5035 43.0994 39.5098 43.0266 39.5 42.9551C39.5 42.5521 39.3064 42.4554 38.9839 42.4554H38.758V43.5031H38.9839Z" fill="#5B8BC7"/>
<path d="M116.984 33.542H43.9839V34.0255H116.984V33.542Z" fill="#5B8BC7"/>
<path d="M32.9516 6.36658C33.7258 7.2692 35.0807 7.80109 35.871 8.70371C35.6076 7.40986 34.9807 6.21781 34.0637 5.26721C33.1468 4.31661 31.9777 3.64683 30.6935 3.33635C31.9032 4.23897 32.1613 5.46396 32.9516 6.36658ZM2.90323 13.1201C4.62904 9.47739 7.19355 10.2511 8.29032 6.76953C7.67742 7.84945 4.87095 8.28464 3.5645 11.0247C4.22579 9.41292 3.8871 6.91459 5.01613 5.57678C1.66129 7.99451 3.09678 11.8951 2.90323 13.1201ZM6.03227 21.8723C6.33872 23.2907 5.43547 25.3377 6.87096 27.3041C5.37096 25.6923 2.20966 25.2571 0.919342 22.7749C2.53224 28.8353 6.74194 27.6104 8.62904 28.8998C7.01614 26.7239 8.35485 25.2732 6.03227 21.8723ZM5.54839 25.6762C4.61291 22.2914 6.25807 21.1147 5.00001 17.875C4.87098 19.6963 3.62904 20.5989 4.46775 23.9354C2.98388 21.0986 0.66129 20.0509 0 18.1006C0 23.4196 4.43549 24.2094 5.54839 25.6762ZM12.2742 31.3498C10.9839 29.609 11.871 28.6258 8.24194 25.4667C9 26.611 8.24194 28.0617 10.6613 30.3021C8.27419 28.9321 4.96774 29.5284 3.37096 27.691C6.1129 32.7843 10.9194 30.7051 12.2742 31.3337M29.8387 30.3021C32.2903 28.0456 31.4516 26.5949 32.2581 25.4667C28.629 28.6903 29.5161 29.609 28.2258 31.3498C29.5806 30.7212 34.3871 32.8004 37.129 27.7071C35.5161 29.5446 32.2903 28.9482 29.8387 30.3182M33.629 27.3041C35.0807 25.3377 34.1613 23.2907 34.4839 21.8723C32.1613 25.2732 33.4355 26.7077 31.871 28.8998C33.7742 27.5781 37.9677 28.8998 39.5806 22.7749C38.2903 25.2571 35.129 25.6601 33.629 27.3041ZM27.8387 31.5916C26.5408 31.2565 25.2105 31.062 23.871 31.0113C22.6346 30.9808 21.4035 31.1831 20.2419 31.6077C19.0866 31.1809 17.8603 30.9785 16.629 31.0113C15.2895 31.062 13.9592 31.2565 12.6613 31.5916C10.4839 32.1557 8.59677 32.5909 6.95161 31.785C7.7851 32.4824 8.76178 32.9883 9.81253 33.2668C10.8633 33.5453 11.9624 33.5897 13.0323 33.3968C15.2419 33.1712 17.0161 32.0912 19.1129 32.1073H19.1935C17.8911 32.742 16.7244 33.6233 15.7581 34.7024L16.7581 34.8474C16.983 34.0967 17.4443 33.4385 18.0734 32.9705C18.7025 32.5025 19.4658 32.2498 20.25 32.2498C21.0342 32.2498 21.7975 32.5025 22.4266 32.9705C23.0557 33.4385 23.517 34.0967 23.7419 34.8474L24.7581 34.7024C23.7879 33.6207 22.6153 32.7391 21.3064 32.1073C23.4032 32.1073 25.1774 33.1712 27.4032 33.3968C28.4705 33.5884 29.5669 33.5433 30.6148 33.2648C31.6628 32.9863 32.6367 32.4811 33.4677 31.785C31.8548 32.5909 29.9355 32.1557 27.758 31.5916M5.08063 14.2C4.17741 15.8118 2.77419 16.2631 2.91935 19.7286C2.17742 16.65 0.370977 15.5056 0.387106 13.5392C-0.870959 18.6809 2.48387 19.2934 3.35484 21.4371C3.22581 18.3585 5.24192 17.7299 5.08063 14.2ZM6.3387 10.2349C5.94197 10.7199 5.48071 11.1483 4.96774 11.5083C3.7203 12.4663 2.85651 13.8382 2.53224 15.3766C2.53224 13.4908 1.41936 10.783 2.22581 8.80042C-0.87096 13.0395 2.38709 15.5701 2.51612 17.1013C3.30645 14.1517 5.14515 14.1355 6.3387 10.2349ZM37.8064 15.3766C37.4822 13.8382 36.6184 12.4663 35.371 11.5083C34.8618 11.1494 34.4058 10.7208 34.0161 10.2349C35.1935 14.1355 37.0322 14.1517 37.8387 17.1013C37.9516 15.5701 41.2097 13.0395 38.129 8.80042C38.9193 10.783 37.7258 13.4908 37.8064 15.3766ZM40.4193 18.1006C39.7581 20.0509 37.4516 21.0986 35.9516 23.9354C36.7903 20.5989 35.5484 19.6963 35.4193 17.875C34.1613 21.0986 35.8065 22.2914 34.8871 25.6762C35.9839 24.2094 40.371 23.4196 40.4193 18.1006ZM35.2581 14.2C35.0968 17.7299 37.1129 18.3585 37 21.4371C37.8548 19.2934 41.2097 18.6809 39.9516 13.5392C39.9516 15.5056 38.1613 16.65 37.4193 19.7286C37.5645 16.2631 36.1613 15.8763 35.2581 14.2ZM7.56452 6.36658C8.33871 5.46396 8.59678 4.23897 9.80645 3.33635C8.52486 3.65216 7.35872 4.32366 6.44263 5.27335C5.52654 6.22305 4.89782 7.41225 4.62902 8.70371C5.43548 7.80109 6.7742 7.2692 7.56452 6.36658ZM32.2097 6.76953C33.3064 10.2511 35.871 9.47739 37.5968 13.1201C37.4193 11.8951 38.8387 7.99451 35.4839 5.57678C36.6129 6.91459 36.2742 9.3968 36.9355 11.0247C35.6451 8.28464 32.8226 7.8011 32.2097 6.76953ZM23.5 8.75206C22.8414 8.48879 22.1538 8.30482 21.4516 8.20405V8.65536C22.0986 8.74493 22.7322 8.91271 23.3387 9.15502C23.4234 9.03344 23.4836 8.89659 23.5161 8.75206M22.9839 4.44851L23.129 4.33569L22.871 4.22285H22.1774L22 4.3518H21.5968V4.44851H22.2903H22.629H22.9839ZM21.6613 18.8582C21.6613 18.7454 21.5161 18.6487 21.2742 18.5358C21.2742 18.6325 21.2742 19.0838 21.2742 19.3095C21.5645 19.1805 21.7097 19.0516 21.7097 18.8582M13.7581 10.3639V10.1221H13.4839L13.7581 10.3639ZM20.3226 30.0442C23.8746 30.1322 27.3208 28.8321 29.9286 26.4205C32.5364 24.0088 34.1 20.6757 34.287 17.1299C34.4739 13.5841 33.2695 10.1053 30.9298 7.43311C28.5901 4.76091 25.2997 3.10613 21.7581 2.82058C21.7581 2.82058 21.7581 3.07846 21.7581 3.19129C24.819 3.47197 27.6951 4.77841 29.9194 6.89848L28.3065 8.4136V8.13959L28.0968 8.05899H27.8226V7.88169L27.6452 7.26919L27.2581 6.85013L26.0484 6.23763L25.9516 6.33433H25.7258C26.1394 6.91334 26.3646 7.60553 26.371 8.31689C26.3788 8.40806 26.3788 8.49973 26.371 8.5909L26.9677 9.31621H26.6936L26.8871 9.59022L26.3548 10.106L26.1451 9.70306C26.0367 9.97366 25.9016 10.2328 25.7419 10.4767L25.8548 10.5895L24.2419 12.2014L23.9355 11.9274L23.4677 12.1369L23.5968 12.2336H23.5161L23.3226 12.3464V12.5237L23.1936 12.4109L22.8548 12.5237L22.9516 12.6688H23.1936H23.3387V12.8139H23.4516H23.6613H23.8226H23.9194L23.2742 13.4425L22.5968 13.5553L22.4516 13.7004H22.3065L22.7258 13.3135L22.5806 13.2329L22.1774 13.7487H22.3065V13.9421H22.4516V14.1517H22.2097H21.9677L21.371 13.8615V16.1826C22.7742 16.65 24.2581 17.3108 24.2581 19.0355C24.2638 19.4019 24.1748 19.7636 23.9996 20.0855C23.8244 20.4074 23.569 20.6787 23.2581 20.873C22.6559 21.2119 22.0101 21.4668 21.3387 21.6305V22.8394C22.004 23.0566 22.5749 23.4949 22.9564 24.0814C23.3379 24.6679 23.5069 25.3672 23.4355 26.063C23.4355 26.5627 23.2258 26.7077 23.0645 26.7561C22.464 26.8891 21.855 26.9807 21.2419 27.0301V27.3202C23.8466 27.1576 26.3145 26.0982 28.2258 24.3223L29.8387 25.9341C27.2876 28.2903 23.9415 29.5989 20.4677 29.5989C16.994 29.5989 13.6479 28.2903 11.0968 25.9341L12.7097 24.3223C14.5448 26.0382 16.9003 27.0932 19.4032 27.3202C19.3945 27.1753 19.3945 27.03 19.4032 26.885C17.0036 26.6928 14.7351 25.7123 12.9516 24.0966L13.371 23.6775H13.9839L14.2903 23.339H15.129L15.2419 23.065V22.9361C16.4848 23.8455 17.9504 24.4024 19.4839 24.5479C19.4839 24.3706 19.4839 24.2255 19.4839 24.0966C17.7913 23.9163 16.1991 23.2054 14.9355 22.0657L16.5484 20.4539C16.9413 20.7989 17.3811 21.0865 17.8548 21.3082C17.8952 21.1664 17.9549 21.0308 18.0322 20.9052C17.6098 20.7047 17.2186 20.4441 16.871 20.1315L18.4839 18.5197C18.7484 18.7193 19.0422 18.877 19.3548 18.9871V18.5197C19.1664 18.4315 18.988 18.3234 18.8226 18.1973L19.2742 17.746L18.7903 17.601L18.4839 17.9072C18.3297 17.7377 18.1995 17.5479 18.0968 17.3431C17.8183 17.2228 17.5488 17.0828 17.2903 16.924C16.8216 16.6498 16.4342 16.2561 16.1678 15.7831C15.9014 15.3102 15.7655 14.7749 15.7742 14.2323C15.7499 13.4889 15.9835 12.76 16.4355 12.1691L14.8226 10.5573C16.0312 9.44134 17.5492 8.71655 19.1774 8.47806C19.1774 8.33299 19.1774 8.17181 19.1774 8.02675C17.4343 8.2801 15.8091 9.05566 14.5161 10.2511L14.2419 9.97706C14.2419 10.0899 14.1129 10.2188 14.0323 10.3961L14.2097 10.5573C12.7587 12.0356 11.9328 14.0153 11.9032 16.0858H9.59677C9.63226 13.4228 10.6955 10.8763 12.5645 8.97772L13.3064 9.68692H13.4032C13.5491 9.67762 13.6917 9.63927 13.8226 9.57411L12.8871 8.67147C13.3849 8.20366 13.9248 7.7828 14.5 7.41425C14.5293 7.30406 14.5671 7.19629 14.6129 7.09189C14.7175 6.92616 14.8362 6.76978 14.9677 6.62447C14.0931 7.08941 13.2848 7.66945 12.5645 8.34911L10.9516 6.73729C13.1521 4.64443 15.992 3.35033 19.0161 3.06234V3.14294C19.0161 3.03011 19.0161 2.91727 19.0161 2.80444C15.4057 2.99681 12.0197 4.61456 9.60295 7.30178C7.18615 9.989 5.93654 13.5256 6.12904 17.1335C6.32153 20.7415 7.94034 24.1252 10.6294 26.5404C13.3184 28.9556 16.8574 30.2043 20.4677 30.012M30.2903 7.26919C32.6585 9.65503 34.0012 12.8705 34.0323 16.2309H31.7258C31.717 14.5473 31.3079 12.89 30.5322 11.3954L30.6935 11.476V11.3632L30.2903 10.6701L29.7903 10.0093L29.0806 9.59022C28.8871 9.34844 28.6774 9.1228 28.4677 8.89715L30.2903 7.26919ZM27.3548 10.1382H27.9032L28.0323 10.2994V10.5251L28.8064 10.9925H28.9516L29.9355 12.0885L30.3387 11.9435C30.9838 13.2817 31.3252 14.7456 31.3387 16.2309H28.7581C28.7539 15.6552 28.6836 15.082 28.5484 14.5224L28.6451 14.3773L28.7903 13.6842L28.6935 12.9267L28.4032 12.0563L27.7742 11.1376L27.9193 11.2181H28L27.4839 10.8797V10.9764L28 11.7017L28.2903 12.282L28.5 12.8783V13.2652L28.6129 13.926H28.4193C28.3125 13.7378 28.2156 13.5441 28.129 13.3458L28.2258 13.2007L28.0323 12.9267V12.6527L27.8871 12.4754H27.7097C27.6574 12.3559 27.5926 12.2425 27.5161 12.1369H27.6452V11.9918L27.7903 11.9112V11.8306L27.5645 11.9112V11.5727H27.4355L27.3226 11.8468C27.0698 11.482 26.7894 11.1371 26.4839 10.8152L27.3548 10.1382ZM26.8871 15.3928L27.3064 15.1671H27.7258L27.8226 14.9737L28.0484 14.8286L28.1452 14.6513V14.3128C28.1923 14.4265 28.2248 14.5456 28.2419 14.6674L28.0161 15.3122V15.5378L28.3387 15.1187C28.409 15.5071 28.4468 15.9007 28.4516 16.2954H26.4355V16.1181L26.6774 15.9408V15.828H26.7903H27.0645V15.7151L26.8871 15.3928ZM24.129 13.781H24.3387L24.129 13.652L24.2097 13.2329L24.4516 12.9912C24.6053 13.1628 24.7455 13.346 24.871 13.5392L24.7903 13.7971L24.5645 13.6359H24.4032V13.781H24.4839L24.3871 14.0227V13.926L24.129 13.781ZM25.0161 21.2276L24.5161 21.0986H24.3548L24.0806 20.8891L23.8226 20.7924C23.9531 20.7048 24.0771 20.6079 24.1935 20.5022L24.6129 20.7924L24.9193 20.9536L25.0806 21.0986L25.0161 21.2276ZM24.7581 12.5882L26.371 10.9764C26.7447 11.3849 27.0795 11.8274 27.371 12.2981H27.1774V12.8139L27.7903 13.2007C27.9525 13.52 28.0822 13.8548 28.1774 14.2L28.0645 14.3451L27.8548 14.4901V14.8125H27.7097L27.5807 14.9576H27.4516H27.2258L27.3548 14.7803L27.4516 14.329L27.6129 14.2484L27.1613 13.8293L26.8387 13.9421V14.2484L26.629 14.4579L26.4194 14.2806V14.1033H26.5484V14.2323H26.6452V14.0227H26.5V14.1033H26.4032L25.9032 13.5231L25.7258 13.3941H25.8871H25.7419H25.5484L25.6451 13.5231H25.3871C25.2382 13.3 25.0709 13.0898 24.8871 12.8945M25.7097 21.3243L25.5 21.1147L25.6613 20.9052L25.871 20.47L25.7903 20.3572L25.9355 20.0509V19.7608L25.8548 19.4707H25.6451V19.6318H25.5161C25.7021 19.3731 25.864 19.098 26 18.8098L26.2097 18.7292L26.3226 18.5681L26.4516 18.4069L26.3387 18.2779H26.4516L26.629 18.3585H26.9839L27.2097 18.2457L27.758 18.1006L27.6613 17.9233V17.6977L27.9516 17.8266H28.0645V17.601L27.6935 17.746H27.2903L26.9839 17.1174H28.7419C28.6593 19.0374 27.8661 20.8583 26.5161 22.2269L26.2742 21.9851L26.371 21.6628L26.1936 20.9697L25.7097 21.3243ZM26.0323 25.6923L26.2419 25.241L26.1613 25.0476L26.4839 24.7736V24.6124L26.2097 24.4512L26.4355 23.9999L26.7742 23.5808L26.4355 23.2262H25.8548L25.6935 22.9683C25.8389 22.8692 25.974 22.7558 26.0968 22.6298L27.7097 24.2417C27.0979 24.8084 26.4212 25.3008 25.6935 25.7084M27.7097 23.6292L27.9032 23.4196L27.7258 22.5654H27.6129V22.4203L27.2258 22.2914V22.6137V23.0006L26.5322 22.3236C27.9639 20.8739 28.8035 18.943 28.8871 16.9079H31.1935C31.1104 19.5403 30.026 22.042 28.1613 23.9032L27.7097 23.6292ZM28.3548 24.2417C30.3261 22.3038 31.4803 19.6855 31.5806 16.924H33.8871C33.8135 20.2757 32.4367 23.467 30.0484 25.8213L28.3548 24.2417ZM14.5645 21.8401C14.3962 21.674 14.24 21.4963 14.0968 21.3082V20.744L13.8548 20.2121V19.3578L13.5806 18.8421V18.5197L13.2581 17.9072L12.9677 17.7622L13.0806 17.4398L12.9677 17.1819L13.0806 16.8757H13.4032L13.5161 16.6983H14.0484L14.129 16.8595L14.0323 17.3914V17.4881L14.2258 17.9072L14.0968 17.9878L14 17.875L14.0968 18.1329L14.2419 18.423H14.3226V18.149L14.2419 18.0523V17.5043L14.3548 16.8434L14.2419 16.6661H14.5645C14.6486 18.0105 15.2223 19.2777 16.1774 20.2282L14.5645 21.8401ZM13.0484 17.4559L12.8387 17.7944H12.4516C12.3829 17.4434 12.3397 17.0878 12.3226 16.7306H12.9516L12.7903 17.2786L13.0484 17.4559ZM13.8064 15.9247V15.4734L14.0645 15.3122L14.5645 15.4089C14.5485 15.6665 14.5485 15.9249 14.5645 16.1826H14L13.8064 15.9247ZM16.1451 17.5365H16.2581L16.5645 17.7622L16.4355 17.8589L16.7742 18.0845V17.8427L16.9516 17.5526L17.1452 17.746L17.3387 18.02L16.9839 18.1006L17.1452 18.4069L17.3871 18.2779V18.1812L17.5806 18.0684L17.6774 17.5687C17.8169 17.8556 17.9961 18.1215 18.2097 18.3585L16.5968 19.9703C15.8056 19.1679 15.3059 18.1238 15.1774 17.0046L15.5 17.3431H15.8226L16.1451 17.5365ZM14.5322 10.9925L16.1451 12.6043C15.8086 12.9682 15.5212 13.3746 15.2903 13.8132H15.1774H14.9516L14.6935 14.0227H15.0161H15.2903V14.1356L15.0484 14.2806H14.9355L14.5645 14.5385H14.2258L13.7258 15.4572L13.8226 15.6345L13.5484 15.9247V16.3115H12.5161C12.5527 14.3656 13.3248 12.5056 14.6774 11.1053M12.5806 23.065L13.0968 23.3552H13.2097L12.8226 23.7259C12.6613 23.5486 12.4839 23.3713 12.3226 23.1778L12.5806 23.065ZM12.0645 16.7467C12.0645 16.9724 12.0645 17.1819 12.0645 17.3914H11.7903V17.6816L11.2097 18.4069V19.4062L10.5968 19.5996H10.2742C9.96169 18.6573 9.78784 17.6745 9.75807 16.6822L12.0645 16.7467ZM9.79031 19.648H9.6613L9.53226 19.5029H8.88709L9.08065 19.7769L8.48386 19.6641L8.64516 19.519L8.50001 19.3901L8.06452 19.5674L7.90321 19.8414V20.4861L8.40321 21.6466L8.64516 22.0012H8.7742L8.40321 21.3082V20.9536V20.873V20.6795H8.62904L8.96774 21.1792H9.06451V20.873L9.20966 20.9536V21.1631L9.5645 21.2598L9.7258 21.147V21.421L9.87096 21.6144H10.0806L10.5 22.3236H10.7581L10.8387 21.9851C11.2934 22.7142 11.835 23.3853 12.4516 23.9838L10.8387 25.5956C8.42492 23.2412 7.02961 20.0359 6.95161 16.6661H9.25807C9.28519 17.6508 9.44799 18.6271 9.74192 19.5674M10.7419 7.22084L12.3548 8.83266C10.3938 10.8068 9.27751 13.4656 9.24193 16.247H6.93549C6.96683 12.863 8.32816 9.62689 10.7258 7.23695M27.3871 6.43104L27.2581 6.20538L26.9516 6.06033L26.7097 6.23763L27.0161 6.38269L27.3548 6.62447L27.3871 6.43104ZM25.8548 12.8139V12.9912L26.2581 12.8783L26.371 12.6366L26.0968 12.282L26.2581 12.0724L26.629 12.3303H26.5484V12.1852L26.6936 12.0885L26.5484 11.8951L26.2097 12.0724L26.0806 12.282V12.4593L26.2258 12.7172V12.83L25.8548 12.8139ZM9.19354 22.8716V22.7588L8.98386 22.3236L8.74193 22.243L9.19354 22.8716ZM18.6129 14.4418C18.6129 14.8286 18.8548 15.0865 19.2742 15.3122V15.151L19 14.877L19.1452 14.6352H19.2581C19.2581 14.2 19.2581 13.7003 19.2581 13.6359C19.0845 13.6994 18.9336 13.8129 18.8245 13.9621C18.7154 14.1113 18.653 14.2894 18.6452 14.474" fill="#5B8BC7"/>
<path d="M21.1129 24.0965C21.4932 24.2593 21.834 24.5018 22.1123 24.8077C22.3906 25.1136 22.5998 25.4757 22.7258 25.8695C22.7887 25.3104 22.6646 24.7463 22.3728 24.2651C22.081 23.784 21.638 23.413 21.1129 23.21V24.0965Z" fill="#5B8BC7"/>
<path d="M25.8548 8.44591C25.8548 7.04363 24.8226 5.4963 22.2581 4.93216L21.4677 4.85156C21.4677 5.0611 21.4677 5.54466 21.4677 5.54466C21.4677 5.54466 21.4677 6.25384 21.4677 6.38279H21.9677C23.4516 6.72127 23.9839 7.55942 23.9839 8.38145C23.9839 9.71926 22.8064 10.2189 21.371 10.5896L20.9032 10.7186L19.5645 11.0409L19.0968 11.1699C17.4839 11.6373 16.129 12.3949 16.129 14.3129C16.129 16.231 17.7419 16.908 19.2258 17.3754C19.2258 16.8274 19.2258 16.2794 19.2258 15.7636C18.5484 15.4573 18.0806 15.0383 18.0806 14.3613C18.0806 13.6844 18.5 13.2975 19.1613 13.0074C19.3189 12.9386 19.4804 12.8794 19.6451 12.8301C20.0525 12.6941 20.4671 12.5811 20.8871 12.4916L21.371 12.3788C23.5161 11.8791 25.9193 11.2183 25.9193 8.4137" fill="#5B8BC7"/>
<path d="M18.1936 21.8239C18.2243 22.1602 18.3497 22.481 18.5552 22.7491C18.7607 23.0172 19.038 23.2217 19.3549 23.339C19.3549 23.2101 19.3549 22.0173 19.3549 22.0012C19.3549 21.9851 19.613 21.6144 19.8065 21.5338C20.1064 21.3993 20.4133 21.281 20.7259 21.1792L21.2097 21.018C22.371 20.6795 23.7258 20.2443 23.7258 18.8581C23.7258 17.472 22.5646 16.924 21.3065 16.4888C21.3065 16.9401 21.3065 17.5848 21.3065 18.02C21.8388 18.2295 22.1936 18.4713 22.1936 18.8581C22.1936 19.245 21.6452 19.6479 21.2581 19.793L20.7904 19.9542L19.8388 20.2604L19.371 20.4539C18.8226 20.7279 18.2581 21.1308 18.2581 21.8239" fill="#5B8BC7"/>
<path d="M18.9839 5.0769C18.5022 5.22171 18.033 5.40497 17.5807 5.62492C16.8451 5.73587 16.1627 6.07404 15.6291 6.59202C15.5001 6.73708 15.1936 7.12393 14.9678 7.43017C14.742 7.73642 14.7259 8.23608 14.5646 8.51009C14.4367 8.68777 14.374 8.9041 14.3871 9.12259C14.3352 9.30792 14.2414 9.47886 14.113 9.62225C13.9966 9.75542 13.848 9.85649 13.6814 9.91576C13.5148 9.97503 13.3357 9.9905 13.1613 9.96072C13.4147 10.0637 13.6983 10.0637 13.9517 9.96072C13.9517 9.96072 13.9517 10.2025 13.7742 10.6055C13.9584 10.1482 14.239 9.73586 14.5968 9.3966C14.7581 9.3966 15.0968 9.39658 15.7097 9.07421C16.4621 8.70384 17.153 8.22001 17.7581 7.63969C18.0818 7.23111 18.5113 6.91895 19 6.73708C19 6.12459 19 5.59268 19 5.12526M15.9517 7.80088H15.5807L16.113 6.99497H16.6291L15.9517 7.80088Z" fill="#5B8BC7"/>
<path d="M20.4194 21.7432L20.0646 21.8721C19.9517 21.8721 19.8065 21.9689 19.8065 22.0172C19.8065 22.0656 19.9194 27.9487 19.9194 28.0777C19.9194 29.3026 20.5484 29.3188 20.5484 28.0777C20.5484 27.9971 20.6775 21.6304 20.6775 21.6304L20.4194 21.7271" fill="#5B8BC7"/>
<path d="M19.758 19.7772L20.3387 19.5999L20.7258 19.471C20.7258 19.1002 20.8548 13.9424 20.8709 13.0237C20.4503 13.1103 20.0355 13.2234 19.629 13.3622C19.629 14.0714 19.7419 19.2292 19.758 19.8094" fill="#5B8BC7"/>
<path d="M20.2903 0C18.5 0 19.2581 2.59501 19.4032 3.43316C19.4032 3.43316 19.5484 9.3002 19.5806 10.6219L20.3871 10.4285L20.9194 10.2995C20.9194 9.01007 21.0806 3.4654 21.0968 3.43316C21.1936 2.53054 22.1452 0 20.2903 0Z" fill="#5B8BC7"/>
<path d="M49.6452 8.26861H49.6129L48.0968 16.3438H46.0161L44.0645 6.47949H45.7258L47.0806 14.0873H47.0968L48.5484 6.47949H50.7097L52.1452 14.0873H52.1774L53.5806 6.47949H55.1935L53.1935 16.3438H51.0806" fill="#5B8BC7"/>
<path d="M58.1129 8.96167C59.5645 8.96167 61.2419 9.73533 61.2419 12.7011C61.2419 15.6668 59.629 16.4566 58.1129 16.4566C56.5967 16.4566 54.9838 15.7474 54.9838 12.7011C54.9838 9.65474 56.5967 8.96167 58.1129 8.96167ZM58.1129 15.2155C59.2258 15.2155 59.4838 13.9099 59.4838 12.7011C59.4838 11.4922 59.2258 10.2028 58.1129 10.2028C57 10.2028 56.758 11.4922 56.758 12.7011C56.758 13.9099 57.0161 15.2155 58.1129 15.2155Z" fill="#5B8BC7"/>
<path d="M62.3226 10.2672C62.3226 9.81593 62.3226 9.39685 62.3226 9.07448H63.9355C63.9355 9.50968 63.9355 9.961 63.9355 10.3962C64.0493 9.9987 64.2847 9.64671 64.6086 9.38949C64.9325 9.13227 65.3288 8.98269 65.7419 8.96167H66.0323V10.5735C65.8719 10.5492 65.7088 10.5492 65.5484 10.5735C64.8549 10.5735 64.0807 11.0087 64.0807 12.3626V16.3438H62.3549" fill="#5B8BC7"/>
<path d="M68.7904 5.75415H67.0807V16.3599H68.7904V5.75415Z" fill="#5B8BC7"/>
<path d="M75.9516 5.75415V15.1027C75.9197 15.5158 75.9197 15.9307 75.9516 16.3438H74.3387C74.3387 16.1343 74.3387 15.7152 74.3387 15.2156C74.198 15.5967 73.9389 15.9228 73.5994 16.1462C73.2598 16.3695 72.8575 16.4783 72.4516 16.4566C70.6774 16.4566 69.9516 14.732 69.9516 12.7172C69.9516 10.3478 70.871 8.96168 72.4032 8.96168C72.7916 8.94428 73.1761 9.04617 73.5048 9.25364C73.8335 9.46112 74.0908 9.76423 74.2419 10.1222V5.75415M72.8871 15.1672C73.9032 15.1672 74.2419 14.055 74.2419 12.685C74.2419 11.3149 73.8548 10.235 72.9193 10.235C71.9839 10.235 71.629 11.186 71.629 12.6527C71.629 14.1195 71.8871 15.1672 72.8871 15.1672Z" fill="#5B8BC7"/>
<path d="M81.6129 6.47949H83.3709V10.4929H86.2419V6.47949H88.0161V16.3438H86.2419V11.9919H83.3709V16.3438H81.6129" fill="#5B8BC7"/>
<path d="M94.5806 16.0378C93.912 16.3424 93.1863 16.5017 92.4516 16.5052C91.9902 16.5091 91.5334 16.4141 91.112 16.2266C90.6905 16.039 90.3142 15.7633 90.0085 15.4181C89.7027 15.0728 89.4746 14.666 89.3396 14.2252C89.2046 13.7843 89.1658 13.3196 89.2258 12.8625C89.2258 10.6865 90.3387 9.01025 92.1451 9.01025C93.758 9.01025 94.9999 9.929 94.9999 12.8947V13.2332H90.8871C90.8871 14.4743 91.3709 15.2158 92.6935 15.2158C93.3647 15.2578 94.0286 15.0576 94.5645 14.6516M93.3387 12.1211C93.3387 10.8477 92.9193 10.1869 92.1451 10.1869C91.3709 10.1869 90.8871 11.1701 90.8871 12.1211H93.3387Z" fill="#5B8BC7"/>
<path d="M96.4678 9.4936C97.1661 9.13594 97.9411 8.95339 98.7258 8.9617C100.935 8.9617 101.452 10.0577 101.452 11.8791V15.1027C101.449 15.5344 101.482 15.9657 101.548 16.3922H99.9355C99.8593 16.0703 99.8267 15.7396 99.8387 15.409C99.6341 15.7502 99.3428 16.0313 98.9944 16.2238C98.646 16.4163 98.2529 16.5133 97.8549 16.505C97.5728 16.514 97.292 16.4651 97.0296 16.3613C96.7673 16.2575 96.529 16.1012 96.3295 15.9018C96.13 15.7024 95.9735 15.4643 95.8696 15.2021C95.7658 14.9399 95.7169 14.6592 95.7258 14.3774C95.7258 12.3949 97.3387 11.8952 99.4678 11.8952H99.8065V11.6373C99.8284 11.4556 99.8097 11.2713 99.752 11.0976C99.6942 10.9238 99.5987 10.7651 99.4723 10.6326C99.3459 10.5001 99.1917 10.3972 99.0208 10.3312C98.8499 10.2653 98.6666 10.238 98.4839 10.2512C97.7729 10.2661 97.0868 10.5155 96.5323 10.9604M99.7581 12.8301H99.6129C98.1452 12.8301 97.2742 13.1524 97.2742 14.2001C97.2652 14.3479 97.2871 14.4959 97.3385 14.6348C97.39 14.7736 97.4699 14.9002 97.5732 15.0064C97.6764 15.1126 97.8007 15.1961 97.9381 15.2515C98.0754 15.307 98.2229 15.3331 98.371 15.3284C99.3871 15.3284 99.7581 14.5386 99.7581 13.2491V12.8301Z" fill="#5B8BC7"/>
<path d="M104.855 5.75415H103.145V16.3599H104.855V5.75415Z" fill="#5B8BC7"/>
<path d="M107 7.5756L108.71 7.02759V9.07458H110.129V10.3479H108.71V14.1357C108.71 14.9094 108.984 15.135 109.484 15.135C109.71 15.1453 109.934 15.0893 110.129 14.9738V16.215C109.771 16.3838 109.379 16.4666 108.984 16.4567C107.71 16.4567 107 15.8604 107 14.3452V10.3479H105.855V9.07458H107" fill="#5B8BC7"/>
<path d="M111.016 5.75415H112.726V10.0094C112.893 9.68546 113.148 9.41529 113.462 9.22993C113.776 9.04458 114.136 8.95159 114.5 8.96168C116.113 8.96168 116.597 10.1867 116.597 11.6534V16.3438H114.887V11.9758C114.887 10.8636 114.613 10.364 113.903 10.364C113.194 10.364 112.677 11.1376 112.677 12.0725V16.3116H111.016" fill="#5B8BC7"/>
<path d="M47.8387 18.9712C49.8387 18.9712 51.6774 20.583 51.6774 24.0484C51.6774 27.5138 49.8387 29.1256 47.8387 29.1256C45.8387 29.1256 43.9839 27.5138 43.9839 24.0484C43.9839 20.583 45.8226 18.9712 47.8387 18.9712ZM47.8387 27.7395C48.9516 27.7395 49.8549 26.7563 49.8549 24.0484C49.8549 21.3406 48.9516 20.3573 47.8387 20.3573C46.7258 20.3573 45.8065 21.3406 45.8065 24.0484C45.8065 26.7563 46.7097 27.7395 47.8387 27.7395Z" fill="#5B8BC7"/>
<path d="M52.8387 22.9039C52.8659 22.5014 52.8659 22.0975 52.8387 21.695H54.4516C54.4516 22.1463 54.4516 22.5977 54.4516 23.0329C54.5699 22.6335 54.8082 22.2801 55.1342 22.0206C55.4602 21.7611 55.8582 21.6081 56.2742 21.5822C56.3708 21.5735 56.4679 21.5735 56.5645 21.5822V23.194C56.4083 23.1427 56.2451 23.1155 56.0807 23.1134C55.371 23.1134 54.5968 23.5486 54.5968 24.9187V28.9321H52.8871" fill="#5B8BC7"/>
<path d="M57.5806 30.1088C58.2157 30.4908 58.9368 30.7069 59.6774 30.7374C61.2903 30.7374 61.5645 29.593 61.5645 28.4486V27.7556C61.4103 28.1125 61.1528 28.4152 60.8252 28.6249C60.4976 28.8345 60.1147 28.9416 59.7258 28.9322C58.7419 28.9322 57.2419 28.2552 57.2419 25.3056C57.2419 23.3069 57.9516 21.534 59.8064 21.534C60.2104 21.5323 60.6057 21.6511 60.9418 21.875C61.2779 22.099 61.5396 22.4179 61.6935 22.7912C61.6935 22.4043 61.6935 22.0336 61.6935 21.6468H63.3064C63.3064 22.0336 63.3064 22.4205 63.3064 22.7912V28.1746C63.3064 30.4473 62.629 32.0752 60.0806 32.0752C59.2487 32.067 58.4247 31.9143 57.6451 31.6239M60.4032 27.6427C61.4838 27.6427 61.9032 26.8529 61.9032 25.1928C61.9032 23.5326 61.3387 22.8556 60.5322 22.8718C59.7258 22.8879 59.2903 23.726 59.2903 25.2089C59.2903 26.6918 59.8225 27.6427 60.4032 27.6427Z" fill="#5B8BC7"/>
<path d="M65.0646 22.13C65.7627 21.7698 66.537 21.5819 67.3226 21.582C69.5323 21.582 70.0484 22.6942 70.0484 24.5155V27.7392C70.0551 28.1705 70.0874 28.6011 70.1452 29.0286H68.5323C68.4571 28.7011 68.4246 28.3652 68.4355 28.0293C68.2329 28.3735 67.9425 28.6579 67.594 28.8532C67.2454 29.0486 66.8512 29.1481 66.4517 29.1415C66.1696 29.1504 65.8888 29.1015 65.6264 28.9978C65.3641 28.894 65.1258 28.7376 64.9263 28.5382C64.7268 28.3388 64.5703 28.1007 64.4664 27.8385C64.3626 27.5763 64.3137 27.2957 64.3226 27.0139C64.3226 25.0313 65.9355 24.5317 68.0646 24.5317H68.4194V24.2577C68.4387 24.0751 68.4177 23.8904 68.358 23.7168C68.2982 23.5432 68.2011 23.3847 68.0735 23.2526C67.9459 23.1205 67.7909 23.0179 67.6194 22.952C67.4479 22.8862 67.264 22.8587 67.0807 22.8715C66.371 22.8934 65.6871 23.142 65.1291 23.5807M68.3549 25.4665H68.1936C66.7259 25.4665 65.8549 25.7728 65.8549 26.8366C65.8456 26.9836 65.8675 27.131 65.9192 27.269C65.9708 27.4071 66.051 27.5327 66.1545 27.6376C66.258 27.7426 66.3825 27.8246 66.5199 27.8782C66.6572 27.9318 66.8044 27.9558 66.9517 27.9487C67.9678 27.9487 68.3549 27.1751 68.3549 25.8695V25.4665Z" fill="#5B8BC7"/>
<path d="M71.7742 22.9037C71.7742 22.4524 71.7742 22.0333 71.7742 21.6948H73.3871C73.3871 22.0656 73.3871 22.4524 73.3871 22.8231C73.5514 22.4554 73.8183 22.1427 74.1558 21.9226C74.4934 21.7025 74.8872 21.5842 75.2903 21.582C76.9032 21.582 77.3871 22.8231 77.3871 24.2899V28.9319H75.6935V24.5639C75.6935 23.4517 75.4193 22.9521 74.7096 22.9521C74 22.9521 73.5 23.7258 73.5 24.6606V28.9319H71.7742" fill="#5B8BC7"/>
<path d="M78.9516 18.6003H80.6935V20.325H78.9193L78.9516 18.6003ZM78.9516 21.695H80.6935V28.9321H78.9839L78.9516 21.695Z" fill="#5B8BC7"/>
<path d="M82.2903 27.4654L85.3387 23.0329H82.3871V21.6951H87.0484V23.1941L84.0645 27.6588H87.1452V28.9805H82.2903" fill="#5B8BC7"/>
<path d="M88.7581 22.13C89.4502 21.7693 90.2194 21.5813 91 21.582C93.2258 21.582 93.7258 22.6942 93.7258 24.5155V27.7392C93.7325 28.1705 93.7648 28.6011 93.8226 29.0286H92.2097C92.1345 28.7011 92.102 28.3652 92.1129 28.0293C91.9064 28.3737 91.6129 28.6577 91.2619 28.853C90.9109 29.0482 90.5146 29.1477 90.1129 29.1415C89.8309 29.1504 89.55 29.1015 89.2877 28.9978C89.0253 28.894 88.787 28.7376 88.5875 28.5382C88.388 28.3388 88.2315 28.1007 88.1277 27.8385C88.0239 27.5764 87.9749 27.2957 87.9839 27.0139C87.9839 25.0313 89.5968 24.5317 91.7258 24.5317H92.0807V24.2577C92.1025 24.0759 92.0839 23.8916 92.0261 23.7179C91.9684 23.5442 91.8729 23.3854 91.7465 23.2529C91.6201 23.1204 91.4659 23.0175 91.295 22.9516C91.1241 22.8856 90.9408 22.8583 90.7581 22.8715C90.0471 22.8865 89.361 23.1358 88.8065 23.5807M92.0323 25.4665H91.9839C90.5323 25.4665 89.6613 25.7728 89.6613 26.8366C89.6496 26.9828 89.6693 27.1299 89.7191 27.2679C89.7688 27.406 89.8475 27.5318 89.9497 27.6371C90.052 27.7423 90.1756 27.8246 90.3122 27.8783C90.4488 27.932 90.5953 27.9561 90.7419 27.9487C91.7742 27.9487 92.1452 27.1751 92.1452 25.8695L92.0323 25.4665Z" fill="#5B8BC7"/>
<path d="M95.7258 20.196L97.4355 19.6641V21.6949H98.8548V22.9844H97.4355V26.7561C97.4355 27.5459 97.7097 27.7715 98.2097 27.7715C98.4347 27.7715 98.6563 27.7161 98.8548 27.6103V28.932C98.4973 29.1009 98.1051 29.1837 97.7097 29.1738C96.4355 29.1738 95.7258 28.5774 95.7258 27.0462V23.065H94.5807V21.7755H95.7258" fill="#5B8BC7"/>
<path d="M100.048 18.6003H101.823V20.325H100.048V18.6003ZM100.274 21.695H101.984V28.9321H100.274V21.695Z" fill="#5B8BC7"/>
<path d="M106.5 21.582C107.952 21.582 109.629 22.3718 109.629 25.3376C109.629 28.3033 108.016 29.0931 106.5 29.0931C104.984 29.0931 103.371 28.3839 103.371 25.3376C103.371 22.2912 104.984 21.582 106.5 21.582ZM106.5 27.852C107.613 27.852 107.855 26.5464 107.855 25.3376C107.855 24.1287 107.613 22.8231 106.5 22.8231C105.387 22.8231 105.129 24.1126 105.129 25.3376C105.129 26.5626 105.403 27.852 106.5 27.852Z" fill="#5B8BC7"/>
<path d="M111.048 22.9037C111.076 22.5012 111.076 22.0973 111.048 21.6949H112.661C112.661 22.0656 112.661 22.4524 112.661 22.8231C112.819 22.4542 113.083 22.1398 113.418 21.9191C113.754 21.6984 114.147 21.5812 114.548 21.582C116.161 21.582 116.661 22.8231 116.661 24.2899V28.9319H114.935V24.5639C114.935 23.4517 114.661 22.9521 113.952 22.9521C113.242 22.9521 112.742 23.7258 112.742 24.6606V28.9319H111.032" fill="#5B8BC7"/>
<path d="M43.9839 37.7485H47.9678V39.1186H45.5484V40.8755H47.8549V42.2294H45.5484V44.2119H48.0968V45.582H43.9839" fill="#5B8BC7"/>
<path d="M53.4194 44.3571C53.4194 44.9213 53.4194 45.2759 53.4194 45.5821H52C52 45.3242 52 45.0019 52 44.5989C51.9217 44.9196 51.7338 45.2029 51.4688 45.4C51.2038 45.5972 50.8783 45.6958 50.5484 45.6788C49.4194 45.6788 49.0484 44.7279 49.0484 43.5673V39.7312H50.6613V43.3417C50.6613 44.067 50.9516 44.2604 51.2742 44.2604C51.5968 44.2604 51.9516 43.7607 51.9516 43.0032V39.7796H53.5645" fill="#5B8BC7"/>
<path d="M54.5 40.9565C54.5 40.3923 54.5 40.0377 54.5 39.7315H55.9193V40.7953C56.2419 40.1667 56.4516 39.6509 57.3548 39.6509H57.5806V41.2627C57.4042 41.2362 57.2248 41.2362 57.0484 41.2627C56.1451 41.2627 56.0322 42.1653 56.0322 43.0196V45.6307H54.4193" fill="#5B8BC7"/>
<path d="M60.4677 39.6509C62.0806 39.6509 62.8871 40.892 62.8871 42.6489C62.8871 44.4057 62.0484 45.6791 60.4677 45.6791C58.8871 45.6791 58.0484 44.4219 58.0484 42.6489C58.0484 40.8759 58.8871 39.6509 60.4677 39.6509ZM60.4677 44.4863C61.0161 44.4863 61.2742 43.8255 61.2742 42.6811C61.2742 41.5367 61.0161 40.892 60.4677 40.892C59.9193 40.892 59.6613 41.5367 59.6613 42.6811C59.6613 43.8255 59.9193 44.4863 60.4677 44.4863Z" fill="#5B8BC7"/>
<path d="M63.8548 41.0532C63.8548 40.3117 63.8548 40.0055 63.8548 39.7315H65.3387C65.3387 39.9571 65.3387 40.2634 65.3387 40.6663C65.4367 40.3715 65.6249 40.1149 65.8766 39.9327C66.1284 39.7505 66.4311 39.6519 66.742 39.6509C67.9032 39.6509 68.5484 40.9404 68.5484 42.7939C68.5484 44.4058 68.0323 45.6791 66.742 45.6791C66.4448 45.6899 66.1527 45.6004 65.9127 45.4249C65.6727 45.2495 65.4989 44.9983 65.4194 44.712V47.9356H63.8065M66.1452 40.8597C65.5 40.8597 65.3549 41.9074 65.3549 42.5844C65.3549 43.5193 65.5161 44.3896 66.1452 44.3896C66.7742 44.3896 66.9032 43.5193 66.9032 42.5844C66.9032 41.988 66.9032 40.8597 66.1452 40.8597Z" fill="#5B8BC7"/>
<path d="M73.9194 43.1163H70.871C70.8547 43.2906 70.8759 43.4663 70.9333 43.6316C70.9907 43.797 71.0828 43.9481 71.2036 44.0749C71.3243 44.2016 71.4708 44.301 71.6332 44.3665C71.7957 44.4319 71.9702 44.4618 72.1452 44.4541C72.6604 44.4344 73.1613 44.2787 73.5968 44.0028V45.3406C73.0853 45.5539 72.5381 45.6687 71.9839 45.6791C70.1774 45.6791 69.371 44.4219 69.371 42.6489C69.371 40.8759 70.1935 39.6509 71.6613 39.6509C72.129 39.6509 73.9032 39.6509 73.9032 42.6972M72.4677 42.1653C72.4677 41.4239 72.3065 40.7147 71.6613 40.7147C71.0161 40.7147 70.8548 41.843 70.8548 42.1653H72.4677Z" fill="#5B8BC7"/>
</g>
<defs>
<clipPath id="clip0_816_1075">
<rect width="117" height="48" fill="white"/>
</clipPath>
</defs>
</svg>
